<svg xmlns="http://www.w3.org/2000/svg" width="75" height="83" viewBox="0 0 75 83">
  <g id="Gruppe_115" data-name="Gruppe 115" transform="translate(-659 -2277)">
    <rect id="Rechteck_2139" data-name="Rechteck 2139" width="75" height="83" transform="translate(659 2277)"
          fill="#d6cebe"/>
    <path id="Differenzmenge_55" data-name="Differenzmenge 55"
          d="M8129,1919h-75v-83h75v39.489a.759.759,0,0,0-.075-.017,8.019,8.019,0,0,0-5.07-2.058,11.311,11.311,0,0,0-8.005,2.935,24.061,24.061,0,0,0-4.338,6.039l0,.005a21.362,21.362,0,0,1-2.811,4.2,25.706,25.706,0,0,1-4.152,3.146,30.553,30.553,0,0,0-5.993,4.764,10.747,10.747,0,0,0-2.929,7.423,7.923,7.923,0,0,0,1.958,4.969.8.8,0,0,0,.275.478c.365.365.651.636.929.878l.03.03.07.07a5.421,5.421,0,0,0,1,.778,18.084,18.084,0,0,0,10.956,3.614,21.168,21.168,0,0,0,8.7-1.924,25.672,25.672,0,0,0,7.97-5.679c.517-.537,1.015-1.089,1.48-1.643V1919Zm-37.614-58.625a4.155,4.155,0,0,0-2.625,1.066.415.415,0,0,0-.221.116,9.869,9.869,0,0,0-2.345,3.554,9.022,9.022,0,0,0-.54,3.946,12.831,12.831,0,0,0,3.832,7.746,13.288,13.288,0,0,0,4.128,2.942,10.965,10.965,0,0,0,4.509,1,9.374,9.374,0,0,0,5.674-1.872,2.911,2.911,0,0,0,.521-.4c.016-.018.033-.035.051-.053.163-.141.314-.288.482-.453a.431.431,0,0,0,.143-.247,4.106,4.106,0,0,0,1.013-2.575,5.565,5.565,0,0,0-1.517-3.844,15.805,15.805,0,0,0-3.1-2.466,13.333,13.333,0,0,1-2.152-1.631,11.049,11.049,0,0,1-1.457-2.174C8096.539,1862.843,8095.135,1860.374,8091.386,1860.374Zm19.482,50.784a16.77,16.77,0,0,1-6.035-1.1,21.529,21.529,0,0,0,8.475-2.939A42.461,42.461,0,0,0,8129,1890.892v9.988a30.238,30.238,0,0,1-2.636,3.126,24.332,24.332,0,0,1-7.456,5.352A19.382,19.382,0,0,1,8110.868,1911.158Zm-7.04-2.659a5.88,5.88,0,0,1-3.087-.729l-.026-.02c-.281-.215-.572-.437-.852-.682-1.773-1.756-2.636-3.439-2.636-5.145,0-5.4,4.172-8.164,8.206-10.841a26.75,26.75,0,0,0,4.418-3.364,22.464,22.464,0,0,0,3.062-4.516l.009-.015c2.279-4.016,4.636-8.168,10.934-8.168a7.043,7.043,0,0,1,4.818,2.385,3.852,3.852,0,0,1,.327.359v9.287a35.6,35.6,0,0,1-7.854,11.837C8115.519,1904.726,8108.722,1908.5,8103.828,1908.5Zm22.777-29.419c-.083,0-.162,0-.241.006a11.464,11.464,0,0,0-5.215,1.614,10.339,10.339,0,0,0-4.521,5.487c-.091.252-.179.5-.271.771l-.021.059a12.6,12.6,0,0,1-2.593,4.893,19.391,19.391,0,0,1-5.306,3.338c-.256.124-.5.24-.72.352a10.13,10.13,0,0,0-4.574,4.586,9.958,9.958,0,0,0-1.071,5.3,12.329,12.329,0,0,1,2.584-4.747,12.961,12.961,0,0,1,4.015-3.159c.405-.2.875-.4,1.372-.621l.025-.011a17.445,17.445,0,0,0,5.682-3.435,12.306,12.306,0,0,0,2.771-5.378l0-.014c.161-.525.313-1.021.487-1.485a11.792,11.792,0,0,1,3.187-4.128,28.728,28.728,0,0,1,4.692-3.425C8126.807,1879.083,8126.706,1879.08,8126.6,1879.08Zm-28.492.841a10.043,10.043,0,0,1-4.165-.933,12.609,12.609,0,0,1-3.863-2.771,12.023,12.023,0,0,1-3.6-7.228,8.169,8.169,0,0,1,.819-4.353c.025,2.767,1.9,6.411,4.888,9.512,2.863,2.975,6.329,4.968,9.045,5.2A8.681,8.681,0,0,1,8098.113,1879.921Zm3.645-1.378c-2.535,0-6.056-1.954-8.969-4.978-4.441-4.613-5.6-9.477-3.9-11.125a3.644,3.644,0,0,1,2.495-1.235c3.263,0,4.484,2.152,5.664,4.233a11.709,11.709,0,0,0,1.588,2.344,13.846,13.846,0,0,0,2.287,1.742c2.09,1.387,4.25,2.822,4.25,5.615a3.814,3.814,0,0,1-1.366,2.664c-.127.114-.261.216-.39.315l-.063.049A3.036,3.036,0,0,1,8101.758,1878.543Zm-11.8-15.235c-.049,0-.1,0-.145,0,1.661.964,3.566,2.548,4.079,3.912.09.24.169.5.252.768l0,.009a6.386,6.386,0,0,0,1.435,2.784,9.012,9.012,0,0,0,2.938,1.777c.263.115.511.223.727.328a6.723,6.723,0,0,1,3.417,4.094,5.338,5.338,0,0,0-2.923-5.121l-.369-.18a10,10,0,0,1-2.75-1.731,6.533,6.533,0,0,1-1.344-2.533l-.007-.021c-.049-.141-.1-.276-.144-.409a5.7,5.7,0,0,0-5.043-3.677C8090.044,1863.31,8090,1863.308,8089.958,1863.308Z"
          transform="translate(-7395 441)" fill="#cdc2ac"/>
  </g>
</svg>
