<svg xmlns="http://www.w3.org/2000/svg" width="349.002" height="83.001" viewBox="0 0 349.002 83.001">
  <g id="Gruppe_114" data-name="Gruppe 114" transform="translate(-807 -2260)">
    <rect id="Rechteck_2138" data-name="Rechteck 2138" width="349" height="83" transform="translate(807 2260)"
          fill="#d6cebe"/>
    <path id="Differenzmenge_54" data-name="Differenzmenge 54"
          d="M8188.123,1928.587h-105.43l.015-.015,0,0a12.576,12.576,0,0,0,3.754-7.584,8.862,8.862,0,0,0-.531-3.863,9.664,9.664,0,0,0-2.295-3.478.388.388,0,0,0-.217-.114,4.061,4.061,0,0,0-2.57-1.044c-3.67,0-5.045,2.418-6.258,4.551a10.84,10.84,0,0,1-1.426,2.13,13.035,13.035,0,0,1-2.1,1.592l-.005,0a15.491,15.491,0,0,0-3.038,2.415,5.451,5.451,0,0,0-1.485,3.763,3.583,3.583,0,0,0,.422,1.648H8054v-83h91.094a12.328,12.328,0,0,1-1.605,2.19,23,23,0,0,1-3.712,2.813,27.316,27.316,0,0,0-5.357,4.258,9.608,9.608,0,0,0-2.617,6.635,7.079,7.079,0,0,0,1.75,4.442.717.717,0,0,0,.247.424c.223.223.519.514.83.787.023.021.043.041.065.063l.017.017.009.009a4.877,4.877,0,0,0,.9.7,16.177,16.177,0,0,0,9.791,3.229,18.923,18.923,0,0,0,7.782-1.721,22.958,22.958,0,0,0,7.125-5.076,26.054,26.054,0,0,0,4.631-6.468,19.068,19.068,0,0,0,1.986-6.9,15.733,15.733,0,0,0-.48-5.4h134.473a17.384,17.384,0,0,1-2.616,1.965,19.733,19.733,0,0,0-3.873,3.08,6.946,6.946,0,0,0-1.894,4.8,5.1,5.1,0,0,0,1.266,3.212.5.5,0,0,0,.178.308c.222.225.412.406.6.568l.012.011.021.022.032.032a3.55,3.55,0,0,0,.65.5,11.7,11.7,0,0,0,7.081,2.336,13.688,13.688,0,0,0,5.628-1.244,16.626,16.626,0,0,0,5.153-3.672,18.855,18.855,0,0,0,3.349-4.679,13.78,13.78,0,0,0,1.437-4.989,11.609,11.609,0,0,0-.033-2.251H8403v29.32c-.655-.474-1.334-.925-1.934-1.323l0,0a19.875,19.875,0,0,1-3.22-2.441,16.579,16.579,0,0,1-2.182-3.256,18.676,18.676,0,0,0-3.367-4.686,8.771,8.771,0,0,0-6.207-2.276,6.159,6.159,0,0,0-3.934,1.6.61.61,0,0,0-.329.175,14.791,14.791,0,0,0-3.511,5.322,13.521,13.521,0,0,0-.811,5.908,16.534,16.534,0,0,0,1.724,5.988,22.609,22.609,0,0,0,4.018,5.613,19.9,19.9,0,0,0,6.181,4.4,16.423,16.423,0,0,0,6.753,1.493A14.03,14.03,0,0,0,8403,1889.7v38.885H8214.885c.161-.159.326-.324.489-.494a25.824,25.824,0,0,0,4.588-6.41,18.917,18.917,0,0,0,1.969-6.837,15.451,15.451,0,0,0-.926-6.746,16.9,16.9,0,0,0-4.008-6.077.7.7,0,0,0-.38-.2,7.105,7.105,0,0,0-4.488-1.823,10.014,10.014,0,0,0-7.088,2.6,21.3,21.3,0,0,0-3.844,5.351,18.937,18.937,0,0,1-2.491,3.717,22.755,22.755,0,0,1-3.672,2.783l0,0a27.071,27.071,0,0,0-5.309,4.22,9.521,9.521,0,0,0-2.594,6.575,6.371,6.371,0,0,0,1,3.338ZM8359.789,1900a7.308,7.308,0,0,0-5.173,1.9,15.52,15.52,0,0,0-2.8,3.9l-.006.01a13.771,13.771,0,0,1-1.818,2.714,16.7,16.7,0,0,1-2.685,2.034,19.775,19.775,0,0,0-3.875,3.08,6.948,6.948,0,0,0-1.894,4.8,5.116,5.116,0,0,0,1.266,3.212.517.517,0,0,0,.18.308c.229.23.419.411.6.568a.752.752,0,0,0,.065.065,3.538,3.538,0,0,0,.646.5,11.7,11.7,0,0,0,7.082,2.336,13.681,13.681,0,0,0,5.628-1.244,16.607,16.607,0,0,0,5.153-3.672,18.835,18.835,0,0,0,3.349-4.679,13.779,13.779,0,0,0,1.437-4.989,11.258,11.258,0,0,0-.675-4.926,12.315,12.315,0,0,0-2.927-4.435.52.52,0,0,0-.276-.148A5.119,5.119,0,0,0,8359.789,1900Zm-95.057-10a5.189,5.189,0,0,0-3.277,1.329.514.514,0,0,0-.274.148,12.344,12.344,0,0,0-2.927,4.435,11.28,11.28,0,0,0-.675,4.926,13.8,13.8,0,0,0,1.437,4.989,18.826,18.826,0,0,0,3.35,4.679,16.588,16.588,0,0,0,5.15,3.672,13.681,13.681,0,0,0,5.628,1.244,11.706,11.706,0,0,0,7.083-2.338,3.571,3.571,0,0,0,.65-.5l.03-.032.01-.01.023-.024c.19-.165.388-.351.6-.568a.506.506,0,0,0,.177-.308,5.11,5.11,0,0,0,1.267-3.212,6.948,6.948,0,0,0-1.894-4.8,19.771,19.771,0,0,0-3.875-3.08,16.692,16.692,0,0,1-2.685-2.034,13.828,13.828,0,0,1-1.816-2.712l0,0a15.543,15.543,0,0,0-2.8-3.9A7.317,7.317,0,0,0,8264.732,1890Zm-55.518-27.577a3.052,3.052,0,0,0-1.933.785.3.3,0,0,0-.163.084,6.806,6.806,0,0,0-2.124,5.524,9.457,9.457,0,0,0,2.823,5.706,9.008,9.008,0,0,0,6.359,2.9,6.907,6.907,0,0,0,4.181-1.378,2.116,2.116,0,0,0,.382-.3l.038-.038c.111-.1.214-.2.354-.335a.311.311,0,0,0,.105-.182,3.015,3.015,0,0,0,.747-1.895c0-2.388-1.809-3.59-3.405-4.65a9.846,9.846,0,0,1-1.583-1.2,8.2,8.2,0,0,1-1.069-1.6C8213.013,1864.243,8211.979,1862.423,8209.215,1862.423Zm-120.3-8.424a6.163,6.163,0,0,0-4.361,1.6,13.1,13.1,0,0,0-2.364,3.292,11.649,11.649,0,0,1-1.532,2.288,14.022,14.022,0,0,1-2.261,1.713,16.665,16.665,0,0,0-3.267,2.6,5.853,5.853,0,0,0-1.6,4.043,4.312,4.312,0,0,0,1.068,2.707.445.445,0,0,0,.149.26c.181.183.347.34.507.479.01.012.021.023.033.034l0,0,.018.017a2.869,2.869,0,0,0,.547.422,9.859,9.859,0,0,0,5.97,1.969,11.521,11.521,0,0,0,4.74-1.049,14.006,14.006,0,0,0,4.342-3.094,15.858,15.858,0,0,0,2.822-3.942,11.617,11.617,0,0,0,1.21-4.206,9.5,9.5,0,0,0-.569-4.15,10.387,10.387,0,0,0-2.465-3.737.429.429,0,0,0-.234-.122A4.357,4.357,0,0,0,8088.919,1854Zm-19.122,74.588h-1.908a2.978,2.978,0,0,1-.536-1.648c0-2.739,2.116-4.141,4.162-5.5a13.572,13.572,0,0,0,2.239-1.7,11.46,11.46,0,0,0,1.551-2.289l0-.005c1.156-2.037,2.35-4.144,5.544-4.144a3.574,3.574,0,0,1,2.444,1.209c1.668,1.614.533,6.376-3.817,10.893a20.357,20.357,0,0,1-3.915,3.186h-5.708a6.645,6.645,0,0,1,3.3-3.849c.209-.1.452-.208.708-.32a8.831,8.831,0,0,0,2.881-1.742,6.252,6.252,0,0,0,1.4-2.726l0-.012c.081-.265.158-.514.246-.748.5-1.337,2.37-2.887,3.995-3.83-.038,0-.078,0-.13,0s-.09,0-.138,0a5.585,5.585,0,0,0-4.936,3.6c-.046.126-.09.253-.136.387l-.011.032a6.361,6.361,0,0,1-1.317,2.483,9.888,9.888,0,0,1-2.7,1.7l-.353.172a5.239,5.239,0,0,0-2.874,4.853Zm132.315,0v0h-12.3a5.5,5.5,0,0,1-1.26-3.338c0-4.781,3.695-7.232,7.267-9.6a23.489,23.489,0,0,0,3.912-2.979,19.866,19.866,0,0,0,2.712-4l0-.008c2.02-3.559,4.106-7.238,9.685-7.238a6.224,6.224,0,0,1,4.267,2.112c2.915,2.82.932,11.137-6.668,19.023a34.8,34.8,0,0,1-7.613,6.029Zm12.442-23.569c-.074,0-.141,0-.2,0a10.158,10.158,0,0,0-4.617,1.43,9.152,9.152,0,0,0-4,4.86c-.092.253-.181.51-.256.728a11.171,11.171,0,0,1-2.3,4.338,17.19,17.19,0,0,1-4.706,2.959c-.24.117-.438.213-.629.307a8.971,8.971,0,0,0-4.051,4.063,8.827,8.827,0,0,0-.95,4.694,10.911,10.911,0,0,1,2.29-4.2,11.5,11.5,0,0,1,3.556-2.8c.372-.181.811-.372,1.234-.557a15.4,15.4,0,0,0,5.032-3.043,10.9,10.9,0,0,0,2.456-4.768l.012-.038c.14-.454.271-.882.421-1.284a10.448,10.448,0,0,1,2.823-3.656,25.393,25.393,0,0,1,4.155-3.034C8214.726,1905.02,8214.639,1905.017,8214.555,1905.017Zm-1.78,23.569h-7.961a37.2,37.2,0,0,0,5.938-5.028,35.811,35.811,0,0,0,6.14-8.478,18.263,18.263,0,0,0,2.217-7.789,13.951,13.951,0,0,1,1.4,7.445,17.443,17.443,0,0,1-1.825,6.315,24.4,24.4,0,0,1-4.333,6.042c-.509.528-1.038,1.031-1.575,1.494Zm-131.256,0h-4.473a21.636,21.636,0,0,0,3.019-2.614c2.926-3.039,4.759-6.608,4.783-9.314a8,8,0,0,1,.8,4.262,11.77,11.77,0,0,1-3.526,7.075c-.195.2-.4.4-.605.59Zm269.875-4.187a10.837,10.837,0,0,1-3.9-.713c3.386-.29,7.713-2.776,11.292-6.489,3.729-3.873,6.067-8.424,6.1-11.876a10.192,10.192,0,0,1,1.021,5.434,12.72,12.72,0,0,1-1.331,4.611,17.842,17.842,0,0,1-3.163,4.41,15.732,15.732,0,0,1-4.82,3.459A12.532,12.532,0,0,1,8351.394,1924.4Zm-4.55-1.72a3.838,3.838,0,0,1-1.993-.471c-.215-.162-.394-.3-.568-.454a4.751,4.751,0,0,1-1.705-3.326c0-3.494,2.7-5.28,5.3-7.008a17.142,17.142,0,0,0,2.855-2.175,14.436,14.436,0,0,0,1.979-2.921l0-.009c1.475-2.6,3-5.279,7.068-5.279a4.558,4.558,0,0,1,3.117,1.54c2.127,2.059.678,8.131-4.868,13.889C8354.4,1920.241,8350.008,1922.68,8346.844,1922.68Zm14.728-19.016c-.054,0-.105,0-.159,0a7.405,7.405,0,0,0-3.37,1.043,6.686,6.686,0,0,0-2.925,3.547c-.054.149-.105.3-.159.456l-.023.068,0,.006a8.12,8.12,0,0,1-1.681,3.169,12.471,12.471,0,0,1-3.436,2.161l-.116.057-.341.167a6.673,6.673,0,0,0-3.651,6.394,8.4,8.4,0,0,1,4.268-5.111c.264-.129.567-.262.89-.4l.018-.008a11.273,11.273,0,0,0,3.667-2.219,7.973,7.973,0,0,0,1.792-3.474c.114-.373.209-.679.318-.97.642-1.7,3.021-3.68,5.094-4.883C8361.7,1903.666,8361.638,1903.663,8361.571,1903.663Zm-88.44,10.736a12.529,12.529,0,0,1-5.2-1.164,15.723,15.723,0,0,1-4.821-3.459,17.793,17.793,0,0,1-3.163-4.41,12.725,12.725,0,0,1-1.331-4.611,10.175,10.175,0,0,1,1.023-5.434c.03,3.45,2.366,8,6.1,11.876a26.217,26.217,0,0,0,5.813,4.588,13.924,13.924,0,0,0,5.479,1.9A10.844,10.844,0,0,1,8273.131,1914.4Zm4.549-1.72c-3.164,0-7.558-2.438-11.193-6.212-5.545-5.758-6.994-11.831-4.868-13.889a4.554,4.554,0,0,1,3.114-1.54c4.073,0,5.6,2.684,7.071,5.281l0,.007.008.014a14.354,14.354,0,0,0,1.972,2.907,17.341,17.341,0,0,0,2.853,2.174c2.609,1.729,5.308,3.517,5.308,7.009a4.76,4.76,0,0,1-1.7,3.326c-.182.159-.366.3-.57.454A3.8,3.8,0,0,1,8277.68,1912.68Zm-14.717-19.017-.193,0c2.076,1.207,4.456,3.186,5.095,4.885.113.3.212.622.315.963a7.975,7.975,0,0,0,1.794,3.481,11.252,11.252,0,0,0,3.668,2.219l.027.012c.318.14.619.271.88.4a8.389,8.389,0,0,1,4.267,5.111,6.669,6.669,0,0,0-3.65-6.394c-.131-.065-.272-.134-.421-.206l-.037-.018a12.511,12.511,0,0,1-3.436-2.161,8.137,8.137,0,0,1-1.675-3.156l0-.007-.017-.047c-.059-.17-.113-.33-.172-.49a6.68,6.68,0,0,0-2.924-3.547,7.427,7.427,0,0,0-3.371-1.045Zm133.2-3.468a15.031,15.031,0,0,1-6.235-1.4,18.874,18.874,0,0,1-5.784-4.15,21.346,21.346,0,0,1-3.794-5.292,15.248,15.248,0,0,1-1.6-5.531,12.219,12.219,0,0,1,1.224-6.52c.04,4.145,2.844,9.6,7.32,14.248a31.4,31.4,0,0,0,6.973,5.507,16.7,16.7,0,0,0,6.574,2.28A13.012,13.012,0,0,1,8396.16,1890.2Zm5.46-2.063c-3.8,0-9.069-2.926-13.431-7.455-6.653-6.907-8.391-14.191-5.839-16.661a5.465,5.465,0,0,1,3.737-1.849c4.882,0,6.711,3.219,8.48,6.333l.007.012a17.077,17.077,0,0,0,2.373,3.5,20.678,20.678,0,0,0,3.42,2.607l0,0c.875.579,1.78,1.178,2.628,1.839v8.329a8.181,8.181,0,0,0-1.15-3.656,7.859,7.859,0,0,0-3.248-3.01c-.172-.086-.357-.176-.554-.271a15.033,15.033,0,0,1-4.117-2.591,9.76,9.76,0,0,1-2.012-3.789c-.084-.246-.156-.452-.228-.648a8.016,8.016,0,0,0-3.507-4.256,8.911,8.911,0,0,0-4.045-1.254c-.063,0-.126,0-.19,0s-.133,0-.217,0c2.487,1.447,5.342,3.821,6.11,5.86.131.349.245.722.365,1.116l.013.04a9.561,9.561,0,0,0,2.152,4.176,13.518,13.518,0,0,0,4.4,2.661l.018.008c.389.17.756.331,1.072.485a10.062,10.062,0,0,1,3.115,2.45,9.548,9.548,0,0,1,2,3.68c.009-.083.016-.158.02-.231v2.412A5.731,5.731,0,0,1,8401.62,1888.133Zm-187.449-11.314a8.281,8.281,0,0,1-5.912-2.727,8.827,8.827,0,0,1-2.652-5.324,6.014,6.014,0,0,1,.6-3.205c.018,2.036,1.4,4.72,3.6,7.006,2.109,2.19,4.662,3.657,6.662,3.83A6.392,6.392,0,0,1,8214.171,1876.819Zm2.683-1.014c-1.865,0-4.458-1.439-6.6-3.667-3.273-3.4-4.128-6.98-2.872-8.194a2.689,2.689,0,0,1,1.838-.909c2.405,0,3.3,1.586,4.174,3.12a8.5,8.5,0,0,0,1.167,1.722,10.2,10.2,0,0,0,1.686,1.283c1.539,1.022,3.132,2.078,3.132,4.136a2.8,2.8,0,0,1-1.007,1.962c-.1.087-.2.168-.306.246l0,0-.022.018A2.266,2.266,0,0,1,8216.854,1875.805Zm-8.683-11.222-.112,0a7.372,7.372,0,0,1,3,2.88c.065.173.121.357.181.552l.006.019a4.686,4.686,0,0,0,1.059,2.052,6.622,6.622,0,0,0,2.161,1.308c.212.092.385.168.537.243a4.955,4.955,0,0,1,2.518,3.015,3.928,3.928,0,0,0-2.154-3.771l-.277-.136a7.4,7.4,0,0,1-2.021-1.271,4.811,4.811,0,0,1-.987-1.863l-.034-.1c-.025-.075-.052-.149-.078-.221a4.2,4.2,0,0,0-3.714-2.709Zm-126.328,9.977a9.138,9.138,0,0,1-3.288-.6c2.854-.244,6.5-2.338,9.515-5.467,3.144-3.265,5.114-7.1,5.14-10.008a8.579,8.579,0,0,1,.861,4.581,12.629,12.629,0,0,1-3.785,7.6,13.276,13.276,0,0,1-4.063,2.914A10.563,10.563,0,0,1,8081.843,1874.56Zm-3.834-1.447a3.251,3.251,0,0,1-1.682-.4l-.08-.062-.014-.011c-.128-.1-.26-.2-.385-.311a4.01,4.01,0,0,1-1.435-2.8c0-2.94,2.272-4.448,4.469-5.906a14.661,14.661,0,0,0,2.408-1.832,12.355,12.355,0,0,0,1.665-2.456l.008-.016c1.242-2.186,2.526-4.445,5.955-4.445a3.84,3.84,0,0,1,2.625,1.3c1.792,1.735.571,6.852-4.1,11.7C8084.376,1871.057,8080.674,1873.113,8078.009,1873.113Zm12.4-16.027-.125,0a6.011,6.011,0,0,0-5.3,3.87c-.052.143-.1.286-.161.456a6.852,6.852,0,0,1-1.411,2.66,10.52,10.52,0,0,1-2.881,1.813l-.042.021c-.126.061-.247.12-.358.175a5.623,5.623,0,0,0-3.077,5.387,7.087,7.087,0,0,1,3.6-4.307c.222-.108.479-.221.752-.34l.009,0a9.5,9.5,0,0,0,3.095-1.87,6.719,6.719,0,0,0,1.512-2.936l.007-.024c.085-.277.165-.54.257-.785.542-1.434,2.547-3.1,4.294-4.117Zm55.018,12.65a14.981,14.981,0,0,1-5.394-.986,19.237,19.237,0,0,0,7.574-2.627,36.253,36.253,0,0,0,8.039-6.345,36.866,36.866,0,0,0,5.486-7.241,23.053,23.053,0,0,0,2.717-6.95h1.11a14.3,14.3,0,0,1,.533,5.286,17.6,17.6,0,0,1-1.841,6.373,24.659,24.659,0,0,1-4.372,6.1,21.758,21.758,0,0,1-6.665,4.783A17.327,17.327,0,0,1,8145.428,1869.736Zm-6.291-2.377a5.274,5.274,0,0,1-2.76-.65l-.1-.074c-.229-.176-.465-.358-.687-.555-1.586-1.569-2.357-3.073-2.357-4.6,0-4.827,3.729-7.3,7.335-9.69a24.041,24.041,0,0,0,3.948-3.007,16.6,16.6,0,0,0,2.257-3.2h4.686a9.719,9.719,0,0,0-.887,1.832c-.088.243-.175.495-.256.731a11.255,11.255,0,0,1-2.322,4.381,17.309,17.309,0,0,1-4.74,2.984c-.215.1-.438.213-.643.314a9.058,9.058,0,0,0-4.09,4.1,8.9,8.9,0,0,0-.958,4.737,11.014,11.014,0,0,1,2.311-4.241,11.6,11.6,0,0,1,3.589-2.823c.367-.18.793-.366,1.244-.563l.015-.006a15.572,15.572,0,0,0,5.066-3.064,11.017,11.017,0,0,0,2.479-4.811c.144-.471.28-.916.438-1.335a7.8,7.8,0,0,1,1.421-2.235h8.265c-.834,4.113-3.67,8.917-7.779,13.182C8149.585,1863.987,8143.51,1867.359,8139.138,1867.359Zm163.256-5.959a10.846,10.846,0,0,1-3.9-.713c3.388-.29,7.715-2.776,11.291-6.489a23.728,23.728,0,0,0,5.5-8.611h1.582a10.63,10.63,0,0,1,.039,2.169,12.693,12.693,0,0,1-1.33,4.611,17.818,17.818,0,0,1-3.162,4.41,15.725,15.725,0,0,1-4.821,3.459A12.525,12.525,0,0,1,8302.394,1861.4Zm-4.549-1.72a3.807,3.807,0,0,1-2-.471l-.02-.015c-.172-.131-.366-.28-.549-.439a4.757,4.757,0,0,1-1.7-3.326c0-3.494,2.7-5.28,5.3-7.008a17.348,17.348,0,0,0,2.854-2.175,7.422,7.422,0,0,0,.563-.661h3.7l-.07.2a8.148,8.148,0,0,1-1.679,3.166,12.481,12.481,0,0,1-3.444,2.164l-.034.017-.417.2a6.678,6.678,0,0,0-3.65,6.394,8.4,8.4,0,0,1,4.269-5.111c.268-.131.578-.267.906-.411a11.258,11.258,0,0,0,3.669-2.219,7.953,7.953,0,0,0,1.792-3.478c.091-.3.191-.63.3-.93h6.553a23.029,23.029,0,0,1-5.159,7.881C8305.4,1857.241,8301.009,1859.68,8297.845,1859.68Z"
          transform="translate(-7247 414.414)" fill="#cdc2ac"/>
  </g>
</svg>
