<svg xmlns="http://www.w3.org/2000/svg" width="108" height="52.4" viewBox="0 0 108 52.4">
  <g id="Gruppe_116" data-name="Gruppe 116" transform="translate(-1229 -2277.409)">
    <rect id="Rechteck_2140" data-name="Rechteck 2140" width="108" height="52.397" transform="translate(1229 2277.409)"
          fill="#d6cebe"/>
    <path id="Differenzmenge_56" data-name="Differenzmenge 56"
          d="M8133.9,1896.4h0l-79.9,0V1844h16.436a6.158,6.158,0,0,1-.446.522,16.613,16.613,0,0,1-2.685,2.035,19.763,19.763,0,0,0-3.874,3.079,6.947,6.947,0,0,0-1.893,4.8,5.113,5.113,0,0,0,1.266,3.212.506.506,0,0,0,.178.307c.226.228.417.409.6.569l.018.017c.016.015.031.03.046.046a3.489,3.489,0,0,0,.649.5,11.708,11.708,0,0,0,7.083,2.337,13.674,13.674,0,0,0,5.626-1.244,16.6,16.6,0,0,0,5.152-3.672,18.872,18.872,0,0,0,3.35-4.679,13.8,13.8,0,0,0,1.438-4.991,11.5,11.5,0,0,0-.116-2.841h24.046a6.4,6.4,0,0,0-.314,2.585,8.947,8.947,0,0,0,2.583,5.35,8.145,8.145,0,0,0,5.815,2.72,6.213,6.213,0,0,0,3.824-1.293,2.09,2.09,0,0,0,.351-.279l.011-.012.006-.007.017-.018c.118-.1.229-.217.324-.313a.292.292,0,0,0,.1-.17,2.873,2.873,0,0,0,.682-1.778c0-2.241-1.655-3.367-3.114-4.36a8.978,8.978,0,0,1-1.447-1.123,6.672,6.672,0,0,1-.871-1.3H8162v52.4h-13.757a2.933,2.933,0,0,0,.037-.459,4.753,4.753,0,0,0-1.246-3.237,13.046,13.046,0,0,0-2.549-2.077,10.973,10.973,0,0,1-1.767-1.372,9.356,9.356,0,0,1-1.2-1.829c-1.017-1.836-2.17-3.917-5.251-3.917a3.325,3.325,0,0,0-2.157.9.344.344,0,0,0-.181.1,8.335,8.335,0,0,0-1.926,2.993,7.784,7.784,0,0,0-.443,3.323,10.5,10.5,0,0,0,2.338,5.58Zm-71.538-14.988a1.987,1.987,0,0,0-1.288.537.2.2,0,0,0-.108.059,4.705,4.705,0,0,0-1.416,3.771,6.52,6.52,0,0,0,1.881,3.9,5.931,5.931,0,0,0,4.235,1.979,4.527,4.527,0,0,0,2.784-.94,1.375,1.375,0,0,0,.256-.2.247.247,0,0,0,.024-.027c.083-.073.162-.152.236-.227a.214.214,0,0,0,.071-.125,2.086,2.086,0,0,0,.5-1.295c0-1.631-1.2-2.451-2.267-3.174a6.559,6.559,0,0,1-1.054-.818,5.563,5.563,0,0,1-.716-1.1C8064.894,1882.65,8064.2,1881.408,8062.366,1881.408Zm35.542-10.822c-2.916,0-4.007,1.92-4.97,3.614a8.609,8.609,0,0,1-1.134,1.692,10.364,10.364,0,0,1-1.671,1.267c-1.684,1.119-3.593,2.388-3.593,4.909a3.184,3.184,0,0,0,.787,2,.316.316,0,0,0,.113.193c.132.135.254.251.373.354l.021.021.021.021a2.31,2.31,0,0,0,.4.313,7.3,7.3,0,0,0,4.415,1.454,9.514,9.514,0,0,0,6.714-3.062,9.982,9.982,0,0,0,2.98-6.024,7.021,7.021,0,0,0-.42-3.067,7.681,7.681,0,0,0-1.823-2.763.33.33,0,0,0-.172-.092A3.23,3.23,0,0,0,8097.908,1870.586Zm50-18c-2.918,0-4.01,1.921-4.973,3.616a8.615,8.615,0,0,1-1.131,1.689,10.352,10.352,0,0,1-1.671,1.266c-1.687,1.121-3.6,2.388-3.6,4.909a3.19,3.19,0,0,0,.789,2,.336.336,0,0,0,.111.193c.115.115.239.236.375.352.012.014.024.027.039.041a2.232,2.232,0,0,0,.406.313,7.28,7.28,0,0,0,4.412,1.456,9.507,9.507,0,0,0,6.715-3.062,9.982,9.982,0,0,0,2.982-6.024,7.194,7.194,0,0,0-2.245-5.832.311.311,0,0,0-.172-.09A3.224,3.224,0,0,0,8147.909,1852.585Zm-2.808,43.81h-5.74a18.006,18.006,0,0,1-1.936-1.784c-3.65-3.884-4.6-7.978-3.2-9.365a2.971,2.971,0,0,1,2.05-1.041c2.678,0,3.681,1.811,4.65,3.562l0,.006,0,.005a9.815,9.815,0,0,0,1.3,1.964,11.286,11.286,0,0,0,1.878,1.467c1.716,1.167,3.491,2.374,3.491,4.728a2.277,2.277,0,0,1-.047.458h-2.066a4.522,4.522,0,0,0-2.348-3.216l-.3-.151a8.236,8.236,0,0,1-2.26-1.459,5.511,5.511,0,0,1-1.1-2.13l-.029-.085c-.032-.095-.063-.188-.1-.28a4.7,4.7,0,0,0-4.142-3.1l-.115,0-.11,0a8.323,8.323,0,0,1,3.351,3.294c.071.2.134.4.2.623l.008.026a5.439,5.439,0,0,0,1.181,2.35,7.387,7.387,0,0,0,2.41,1.5l.008,0c.214.1.417.188.592.275a5.745,5.745,0,0,1,2.372,2.352Zm-6.832,0H8134.8a9.99,9.99,0,0,1-2.554-5.635,7.023,7.023,0,0,1,.674-3.667c.019,2.328,1.556,5.4,4.013,8.011.426.453.875.887,1.333,1.289Zm-72.6-5.155a5.454,5.454,0,0,1-3.936-1.863,6.105,6.105,0,0,1-1.769-3.634,4.218,4.218,0,0,1,.4-2.19,7.944,7.944,0,0,0,2.4,4.785,7.8,7.8,0,0,0,4.437,2.614A4.167,4.167,0,0,1,8065.666,1891.239Zm1.787-.693c-1.245,0-2.971-.983-4.4-2.5-2.179-2.319-2.749-4.765-1.913-5.594a1.768,1.768,0,0,1,1.225-.621c1.6,0,2.2,1.081,2.778,2.126a5.762,5.762,0,0,0,.778,1.18,6.7,6.7,0,0,0,1.1.862l.021.015c1.026.7,2.085,1.416,2.085,2.823a1.938,1.938,0,0,1-.67,1.342c-.075.066-.153.128-.223.182A1.467,1.467,0,0,1,8067.453,1890.545Zm-5.783-7.661-.067,0h-.008a4.959,4.959,0,0,1,2,1.966c.044.12.083.249.123.385l0,.007a3.218,3.218,0,0,0,.7,1.4,4.377,4.377,0,0,0,1.443.894c.122.055.249.111.355.165a3.366,3.366,0,0,1,1.675,2.059,2.7,2.7,0,0,0-1.434-2.575l-.155-.078-.024-.012a4.943,4.943,0,0,1-1.351-.871,3.284,3.284,0,0,1-.656-1.265c-.026-.076-.051-.151-.077-.224a2.8,2.8,0,0,0-2.472-1.85Zm31.009,2.9h0a6.757,6.757,0,0,1-2.431-.445c2.111-.18,4.806-1.729,7.034-4.043,2.325-2.412,3.781-5.247,3.8-7.4a6.325,6.325,0,0,1,.637,3.386,9.323,9.323,0,0,1-2.8,5.619A8.748,8.748,0,0,1,8092.679,1885.785Zm-2.835-1.072a2.409,2.409,0,0,1-1.244-.293l-.005,0c-.116-.088-.235-.179-.349-.279a2.973,2.973,0,0,1-1.061-2.071c0-2.173,1.681-3.289,3.306-4.367a10.762,10.762,0,0,0,1.779-1.354,9.056,9.056,0,0,0,1.231-1.817c.921-1.623,1.872-3.3,4.408-3.3a2.844,2.844,0,0,1,1.942.961c1.324,1.282.421,5.064-3.034,8.652C8094.55,1883.195,8091.813,1884.714,8089.844,1884.714Zm9.185-11.847c-.035,0-.071,0-.109,0a4.434,4.434,0,0,0-3.922,2.859c-.035.1-.069.2-.1.3l-.015.042a5.073,5.073,0,0,1-1.042,1.967,7.787,7.787,0,0,1-2.136,1.344l-.29.141a4.152,4.152,0,0,0-2.274,3.982,5.228,5.228,0,0,1,2.657-3.183c.164-.08.353-.163.553-.251l.014-.006a7.056,7.056,0,0,0,2.285-1.38,4.962,4.962,0,0,0,1.114-2.163l0-.014c.064-.21.125-.408.194-.593a7.78,7.78,0,0,1,3.173-3.042C8099.093,1872.867,8099.057,1872.867,8099.029,1872.867Zm43.65-5.081h0a6.749,6.749,0,0,1-2.43-.444c2.109-.18,4.8-1.729,7.034-4.044,2.325-2.412,3.781-5.247,3.8-7.4a6.35,6.35,0,0,1,.637,3.386,9.351,9.351,0,0,1-2.8,5.621A8.746,8.746,0,0,1,8142.679,1867.786Zm-2.836-1.071a2.4,2.4,0,0,1-1.243-.293l-.041-.031c-.105-.081-.211-.163-.312-.251a2.966,2.966,0,0,1-1.061-2.073c0-2.174,1.68-3.288,3.3-4.365a10.694,10.694,0,0,0,1.778-1.356,8.907,8.907,0,0,0,1.233-1.819l0-.007c.918-1.616,1.868-3.287,4.4-3.287a2.833,2.833,0,0,1,1.94.961c1.325,1.283.423,5.065-3.032,8.65C8144.552,1865.195,8141.814,1866.714,8139.843,1866.714Zm9.169-11.848-.092,0a4.44,4.44,0,0,0-3.921,2.862c-.035.1-.068.193-.1.292l-.015.043a5.044,5.044,0,0,1-1.046,1.968,7.727,7.727,0,0,1-2.119,1.337l-.042.021-.264.13a4.152,4.152,0,0,0-2.273,3.982,5.221,5.221,0,0,1,2.659-3.183c.159-.078.342-.158.536-.243l.029-.013a7.01,7.01,0,0,0,2.284-1.383,4.958,4.958,0,0,0,1.118-2.173c.064-.21.125-.409.195-.6a7.8,7.8,0,0,1,3.175-3.042h-.012Zm-77.617,5.534a10.83,10.83,0,0,1-3.9-.714c3.387-.29,7.713-2.776,11.291-6.489a23.26,23.26,0,0,0,5.681-9.2h1.31a10.545,10.545,0,0,1,.131,2.761,12.725,12.725,0,0,1-1.332,4.609,17.814,17.814,0,0,1-3.163,4.41,15.744,15.744,0,0,1-4.82,3.46A12.53,12.53,0,0,1,8071.395,1860.4Zm-4.55-1.72a3.788,3.788,0,0,1-2-.471l-.063-.049c-.159-.121-.339-.258-.506-.406a4.758,4.758,0,0,1-1.7-3.325c0-3.491,2.7-5.28,5.305-7.01a17.554,17.554,0,0,0,2.855-2.173,8.834,8.834,0,0,0,.979-1.252h3.5c-.03.074-.062.156-.1.262-.062.171-.123.344-.189.537a8.132,8.132,0,0,1-1.677,3.162,12.587,12.587,0,0,1-3.439,2.163q-.244.118-.455.222a6.664,6.664,0,0,0-3.65,6.391,8.393,8.393,0,0,1,4.267-5.109c.267-.13.576-.265.9-.408a11.284,11.284,0,0,0,3.673-2.22,7.963,7.963,0,0,0,1.793-3.483c.1-.342.2-.664.315-.964a3.91,3.91,0,0,1,.263-.553h6.472a22.17,22.17,0,0,1-5.355,8.47C8074.4,1856.241,8070.008,1858.681,8066.844,1858.681Zm52.11-4.6h0a7.5,7.5,0,0,1-5.407-2.558,8.382,8.382,0,0,1-2.426-4.992,5.792,5.792,0,0,1,.351-2.54h.229a11.566,11.566,0,0,0,3.266,6.1c1.93,2.054,4.266,3.43,6.094,3.591A5.725,5.725,0,0,1,8118.954,1854.085Zm2.453-.952c-1.707,0-4.078-1.349-6.041-3.437a11.015,11.015,0,0,1-3.1-5.7h2.9a3.889,3.889,0,0,1,.95,1.319c.062.169.117.355.17.535a4.444,4.444,0,0,0,.967,1.925,6.009,6.009,0,0,0,1.976,1.225l.009,0c.176.079.342.153.485.225a4.628,4.628,0,0,1,2.3,2.827,3.708,3.708,0,0,0-1.971-3.536l-.251-.126a6.783,6.783,0,0,1-1.851-1.193,4.552,4.552,0,0,1-.905-1.754c-.034-.1-.067-.2-.1-.295a3.809,3.809,0,0,0-.649-1.157h1.894l.025.045.025.045a8.08,8.08,0,0,0,1.069,1.616,9.157,9.157,0,0,0,1.512,1.183l.029.02c1.408.957,2.864,1.947,2.864,3.878a2.656,2.656,0,0,1-.92,1.839c-.088.079-.186.159-.307.252A2.044,2.044,0,0,1,8121.407,1853.134Z"
          transform="translate(-6825 433.414)" fill="#cdc2ac"/>
  </g>
</svg>
