<svg xmlns="http://www.w3.org/2000/svg" width="22.99" height="23" viewBox="0 0 22.99 23">
  <defs>
    <style>.a{fill:#ae9f87;}</style>
  </defs>
  <path class="a"
        d="M17.5,1c-5.878,0-6.691,5.449-8.86,7.7C6.506,10.919,1,12.557,1,17.663a5.258,5.258,0,0,0,1.907,3.755A4.016,4.016,0,0,0,5.8,22.445c3.022,0,7.2-2.184,10.8-5.911,4.991-5.182,6.958-11.388,4.386-13.876A5,5,0,0,0,17.5,1Zm1.467,3.315c.11-.006.209,0,.308,0-1.768,1.025-4.012,2.84-4.606,4.415-.436,1.162-.645,2.71-1.907,4.019-1.184,1.23-3.038,1.839-4.136,2.376A7.633,7.633,0,0,0,4.77,19.746a6.03,6.03,0,0,1,3.3-5.779,13.135,13.135,0,0,0,3.52-2.156,8.638,8.638,0,0,0,1.687-3.344A6.414,6.414,0,0,1,18.969,4.315Zm4.063,1.291c.061,3.3-2.013,7.694-5.765,11.588-3.522,3.654-7.686,5.981-11.016,6.175A10.662,10.662,0,0,0,9.889,24a13.634,13.634,0,0,0,9.754-4.459C23.881,15.142,25.041,9.918,23.032,5.606Z"
        transform="translate(-1 -1)"/>
</svg>
