<svg xmlns="http://www.w3.org/2000/svg" width="19.223" height="22.014" viewBox="0 0 19.223 22.014">
  <defs>
    <style>.a{fill:#ae9f87;}</style>
  </defs>
  <path class="a"
        d="M12.926.986a.88.88,0,0,0-.866.892v2.64a.88.88,0,1,0,1.76,0V1.878a.88.88,0,0,0-.894-.892Zm3.52.88a.88.88,0,0,0-.866.892v1.76a.88.88,0,1,0,1.76,0V2.758a.88.88,0,0,0-.894-.892Zm-7.041.88a.88.88,0,0,0-.866.892v.88a.88.88,0,1,0,1.76,0v-.88a.88.88,0,0,0-.894-.892ZM6.036,7.159a.879.879,0,0,0-.87,1.007L7.056,21.077A2.217,2.217,0,0,0,9.319,23h7.353a2.3,2.3,0,0,0,2.264-1.923l.342-2.477H21.24a2.649,2.649,0,0,0,2.613-2.269l.5-3.52A2.658,2.658,0,0,0,21.74,9.8H20.5l.227-1.64a.881.881,0,0,0-.873-1Zm14.217,4.4H21.74a.863.863,0,0,1,.871,1l-.5,3.52a.871.871,0,0,1-.871.756H19.523Z"
        transform="translate(-5.157 -0.986)"/>
</svg>
