<svg xmlns="http://www.w3.org/2000/svg" width="23.5" height="23.5" viewBox="0 0 23.5 23.5">
  <defs>
    <style>.a{fill:#ae9f87;}</style>
  </defs>
  <path class="a"
        d="M14.75,2a.979.979,0,0,0-.685.279L3.384,11.015l-.036.029-.036.031v0a.978.978,0,0,0,.667,1.694h.979V23.542A1.958,1.958,0,0,0,6.917,25.5H22.583a1.958,1.958,0,0,0,1.958-1.958V12.771h.979a.98.98,0,0,0,.667-1.7l-.015-.011q-.032-.029-.067-.055L24.542,9.728V5.917a.98.98,0,0,0-.979-.979h-.979a.98.98,0,0,0-.979.979V7.326L15.414,2.262A.979.979,0,0,0,14.75,2Zm2.938,12.729H21.6v7.833H17.688Z"
        transform="translate(-3 -2)"/>
</svg>
