<svg xmlns="http://www.w3.org/2000/svg" width="20.586" height="20.586" viewBox="0 0 20.586 20.586">
  <defs>
    <style>.a{fill:#ae9f87;}</style>
  </defs>
  <path class="a"
        d="M6.431,3A3.435,3.435,0,0,0,3,6.431V9.862H7.575v2.287H9.862V9.862h4.575l0,11.437H9.4a2.227,2.227,0,0,0,2.1-1.38,8.465,8.465,0,0,0,.643-3.386V15.58H5.287v.952a9.757,9.757,0,0,0,.625,3.344A2.245,2.245,0,0,0,8.033,21.3H3v2.287H23.586V8.718A5.725,5.725,0,0,0,17.868,3Zm12.58,13.152A1.715,1.715,0,1,1,17.3,17.868,1.716,1.716,0,0,1,19.011,16.152Z"
        transform="translate(-3 -3)"/>
</svg>
