<?xml version="1.0" encoding="iso-8859-1"?>
<!-- Generator: Adobe Illustrator 19.0.0, SVG Export Plug-In . SVG Version: 6.00 Build 0)  -->
<svg version="1.1" id="Capa_1" xmlns="http://www.w3.org/2000/svg" x="0px" y="0px"
     viewBox="0 0 420.272 420.272" style="enable-background:new 0 0 420.272 420.272;" xml:space="preserve">
<g>
	<g>
		<path d="M165.343,377.288c-0.452-1.465-1.315-2.769-2.487-3.758c-40-33.84-37.12-68.4-34-105.04c3.04-35.92,6.16-73.12-32-107.68
			c-2.158-1.983-5.227-2.628-8-1.68c-20.24,6.32-35.12,24.48-41.92,51.28c-6.287,28.412-4.739,57.999,4.48,85.6
			c16.96,54.24,56,93.6,93.28,93.6c5.208,0.007,10.387-0.775,15.36-2.32C164.278,385.988,166.645,381.51,165.343,377.288z
			 M66.936,291.211c-8.338-24.772-9.803-51.341-4.24-76.88c4.88-19.12,14.32-32.48,26.88-38.32c28.64,28.24,26.16,57.44,23.28,91.12
			s-5.92,70.56,26.64,106.08C111.176,369.371,80.696,335.451,66.936,291.211z"/>
	</g>
</g>
  <g>
	<g>
		<path d="M333.416,205.051c-10.611-8.734-24.022-13.337-37.76-12.96c-24,0-50.32,11.28-74.16,30.56
			c-22.88-53.44-65.28-84.32-101.92-73.04c-4.219,1.312-6.576,5.796-5.264,10.015c0.43,1.381,1.226,2.62,2.304,3.585
			c32,29.28,29.76,59.44,26.8,94.48c-2.56,30-5.12,60.96,15.52,91.92c1.458,14.159,8.165,27.259,18.8,36.72
			c3.358,2.871,8.408,2.477,11.279-0.882c0.989-1.157,1.628-2.571,1.841-4.078c7.36-51.92,38.24-67.84,70.88-84.64
			c32-16.48,65.28-33.52,74.32-84.24C336.546,209.719,335.544,206.893,333.416,205.051z M159.416,258.971l-0.08,0
			c2.64-32,5.44-64.48-20.32-95.52c25.84,2.56,53.92,30.24,69.68,70.4c-3.893,3.787-7.653,7.787-11.28,12
			c-17.62,19.963-30.137,43.9-36.48,69.76C157.19,296.957,156.676,277.798,159.416,258.971z M254.776,282.731
			c-30,15.44-63.28,32.16-76.16,78.72v-0.08c-4.588-11.477-5.728-24.044-3.28-36.16c4.993-25.668,16.854-49.5,34.32-68.96
			c25.52-29.76,58.48-48,86-48c8.46-0.31,16.818,1.919,24,6.4C310.936,253.851,284.776,267.291,254.776,282.731z"/>
	</g>
</g>
  <g>
	<g>
		<path d="M357.656,225.531c-2.25-1.761-5.269-2.188-7.92-1.12c-2.717,0.966-4.703,3.32-5.2,6.16c-8,42.96-34.64,56.8-65.84,72.88
			c-33.2,17.04-70.88,36.4-79.44,96.64c-0.383,2.707,0.643,5.422,2.72,7.2c10.611,8.734,24.022,13.337,37.76,12.96
			c32,0,69.6-20.64,98.08-53.84c19.396-21.712,32.53-48.285,38-76.88C380.136,262.251,373.736,239.691,357.656,225.531z
			 M360.056,286.971l-0.08,0.08c-4.993,25.668-16.854,49.5-34.32,68.96c-25.52,29.76-58.48,48-86,48
			c-8.476,0.263-16.836-2.023-24-6.56c8.56-48,38.48-64,70.16-80c28.32-14.56,57.52-29.6,70.16-67.84
			C361.138,261.35,362.562,274.394,360.056,286.971z"/>
	</g>
</g>
  <g>
	<g>
		<path d="M150.136,2.651c-2.954-3.285-8.013-3.553-11.298-0.599c-3.285,2.954-3.553,8.013-0.599,11.298
			c0.265,0.295,0.551,0.569,0.857,0.821c21.52,20.64,14,31.44,2.72,48c-10.32,14.96-24.56,35.52-3.6,63.76
			c2.651,3.535,7.665,4.251,11.2,1.6c3.535-2.651,4.251-7.665,1.6-11.2c-14.24-18.96-6.64-30,3.92-45.2
			C166.776,54.011,181.496,32.811,150.136,2.651z"/>
	</g>
</g>
  <g>
	<g>
		<path d="M220.216,26.651c-3.408-2.812-8.45-2.329-11.262,1.079c-2.521,3.055-2.427,7.496,0.222,10.441
			c21.52,20.64,14,31.44,2.72,48c-10.4,14.96-24.72,35.52-3.6,63.76c2.651,3.535,7.665,4.251,11.2,1.6
			c3.535-2.651,4.251-7.665,1.6-11.2c-14.24-18.96-6.64-30,3.92-45.2C236.856,78.011,251.576,56.811,220.216,26.651z"/>
	</g>
</g>
  <g>
	<g>
		<path d="M290.136,50.651c-3.408-2.812-8.45-2.329-11.262,1.079c-2.521,3.055-2.427,7.496,0.222,10.441
			c21.52,20.64,14,31.44,2.72,48c-10.4,14.96-24.64,35.52-3.6,63.76c2.648,3.537,7.662,4.258,11.199,1.61s4.258-7.662,1.61-11.199
			c-0.003-0.004-0.006-0.007-0.008-0.011c-14.24-18.96-6.64-30,3.92-45.2C306.776,102.011,321.496,80.811,290.136,50.651z"/>
	</g>
</g>
  <g>
</g>
  <g>
</g>
  <g>
</g>
  <g>
</g>
  <g>
</g>
  <g>
</g>
  <g>
</g>
  <g>
</g>
  <g>
</g>
  <g>
</g>
  <g>
</g>
  <g>
</g>
  <g>
</g>
  <g>
</g>
  <g>
</g>
</svg>
