<?xml version="1.0" encoding="iso-8859-1"?>
<!-- Generator: Adobe Illustrator 19.0.0, SVG Export Plug-In . SVG Version: 6.00 Build 0)  -->
<svg version="1.1" id="Capa_1" xmlns="http://www.w3.org/2000/svg" x="0px" y="0px"
     viewBox="0 0 480 480" style="enable-background:new 0 0 480 480;" xml:space="preserve">
<g>
	<g>
		<path d="M415.88,334.648L368,55.336V8c0-4.418-3.582-8-8-8H120c-4.418,0-8,3.582-8,8v47.336L64.12,334.648
			C64.04,335.094,64,335.547,64,336v136c0,4.418,3.582,8,8,8h240c4.418,0,8-3.582,8-8V336.68l40-233.336l40,233.336V464h-64v16h72
			c4.418,0,8-3.582,8-8V336C416,335.547,415.96,335.094,415.88,334.648z M338.168,136H288v16h47.432L304.12,334.648
			c-0.08,0.446-0.12,0.899-0.12,1.352v128H80V336.68L111.656,152H160v-16h-45.6l12.344-72h223.768L338.168,136z M352,48H128V16h224
			V48z"/>
	</g>
</g>
  <g>
	<g>
		<path d="M224,96c-26.51,0-48,21.49-48,48c0.026,26.499,21.501,47.974,48,48c26.51,0,48-21.49,48-48C272,117.49,250.51,96,224,96z
			 M224,176c-17.673,0-32-14.327-32-32s14.327-32,32-32c17.673,0,32,14.327,32,32S241.673,176,224,176z"/>
	</g>
</g>
  <g>
	<g>
		<rect x="168" y="208" width="96" height="16"/>
	</g>
</g>
  <g>
	<g>
		<path d="M234.44,346.176v0.016l-39.56-27.2c-18.077-12.698-43.026-8.337-55.724,9.74c-12.698,18.077-8.337,43.026,9.74,55.724
			c0.22,0.154,0.441,0.306,0.664,0.456l39.56,27.2c18.208,12.515,43.113,7.9,55.628-10.308
			C257.263,383.596,252.648,358.691,234.44,346.176z M198.176,398.936l-39.552-27.2c-9.896-6.829-13.228-19.919-7.8-30.648
			l3.568,4.736c3.731,4.943,8.237,9.249,13.344,12.752l31.64,21.76c4.364,2.994,8.114,6.796,11.048,11.2l7.2,10.864
			C210.946,404.122,203.849,402.857,198.176,398.936z M231.592,392.76c-0.176,0.264-0.424,0.48-0.616,0.736l-7.2-10.816
			c-4.076-6.093-9.282-11.347-15.336-15.48l-31.64-21.808c-3.679-2.527-6.921-5.638-9.6-9.208l-4.592-6.064
			c7.581-3.409,16.39-2.624,23.248,2.072l39.552,27.2C236.328,366.9,239.097,381.838,231.592,392.76z"/>
	</g>
</g>
  <g>
	<g>
		<path d="M240,280h-96c-26.499,0.026-47.974,21.501-48,48v72c0.026,26.499,21.501,47.974,48,48h96
			c26.499-0.026,47.974-21.501,48-48v-72C287.974,301.501,266.499,280.026,240,280z M272,400c0,17.673-14.327,32-32,32h-96
			c-17.673,0-32-14.327-32-32v-72c0-17.673,14.327-32,32-32h96c17.673,0,32,14.327,32,32V400z"/>
	</g>
</g>
  <g>
</g>
  <g>
</g>
  <g>
</g>
  <g>
</g>
  <g>
</g>
  <g>
</g>
  <g>
</g>
  <g>
</g>
  <g>
</g>
  <g>
</g>
  <g>
</g>
  <g>
</g>
  <g>
</g>
  <g>
</g>
  <g>
</g>
</svg>
