<?xml version="1.0" encoding="iso-8859-1"?>
<!-- Generator: Adobe Illustrator 19.0.0, SVG Export Plug-In . SVG Version: 6.00 Build 0)  -->
<svg version="1.1" id="Capa_1" xmlns="http://www.w3.org/2000/svg" xmlns:xlink="http://www.w3.org/1999/xlink" x="0px" y="0px"
	 viewBox="0 0 480.012 480.012" style="enable-background:new 0 0 480.012 480.012;" xml:space="preserve">
<g>
	<g>
		<path d="M232.79,92.596l-15.528,50.48c-3.678,12.017-13.511,21.145-25.768,23.92V48.012c-0.007-3.488-2.273-6.57-5.6-7.616
			l-75.128-24c-3.234-1.021-6.76,0.107-8.8,2.816l-6.04,8.048L77.894,3.212c-2.424-3.244-6.89-4.165-10.4-2.144l-56,32l8,13.888
			l49.832-28.488l16.608,22.12L16.102,133.7c-2.652,3.534-1.937,8.549,1.597,11.2c0.689,0.517,1.457,0.919,2.275,1.192l161,53.512
			c0.813,0.27,1.664,0.408,2.52,0.408c4.418,0,8-3.582,8-8v-8.64c19.39-2.985,35.351-16.822,41.056-35.592l15.528-50.48
			c3.128-10.303,12.648-17.332,23.416-17.288v-16C253.696,63.947,237.963,75.566,232.79,92.596z M175.494,180.924L35.566,134.412
			l75.776-101.048l64.152,20.488V180.924z"/>
	</g>
</g>
<g>
	<g>
		<rect x="295.498" y="158.716" transform="matrix(0.9487 -0.3162 0.3162 0.9487 -42.6167 105.4192)" width="16" height="50.6"/>
	</g>
</g>
<g>
	<g>
		<rect x="327.494" y="160.012" width="16" height="48"/>
	</g>
</g>
<g>
	<g>
		<rect x="342.2" y="176.007" transform="matrix(0.3164 -0.9486 0.9486 0.3164 76.6753 474.4133)" width="50.6" height="16"/>
	</g>
</g>
<g>
	<g>
		<rect x="147.501" y="7.371" transform="matrix(0.3165 -0.9486 0.9486 0.3165 87.2872 161.1841)" width="15.992" height="25.296"/>
	</g>
</g>
<g>
	<g>
		<rect x="327.494" y="304.012" width="16" height="16"/>
	</g>
</g>
<g>
	<g>
		<rect x="327.494" y="336.012" width="16" height="16"/>
	</g>
</g>
<g>
	<g>
		<rect x="327.494" y="384.012" width="16" height="16"/>
	</g>
</g>
<g>
	<g>
		<path d="M452.294,201.532c13.991-6.451,20.104-23.022,13.654-37.013c-6.193-13.433-21.795-19.697-35.558-14.275l-5.408,2.16
			l5.848-13.144c1.794-4.038-0.025-8.765-4.063-10.559c-1.03-0.458-2.146-0.693-3.273-0.689h-12.896l4.488-13.472
			c1.396-4.192-0.87-8.722-5.062-10.118c-0.816-0.272-1.67-0.41-2.53-0.41h-144c-4.418-0.001-8.001,3.58-8.002,7.998
			c0,0.86,0.138,1.714,0.41,2.53l4.488,13.472h-12.896c-4.418-0.001-8,3.581-8.001,7.999c0,1.119,0.235,2.226,0.689,3.249
			l59,132.752h-59.688v16h13.752l-38.056,152.24c-4.286,17.146,6.139,34.519,23.285,38.805c2.536,0.634,5.141,0.955,7.755,0.955
			h179.8c17.673-0.003,31.998-14.332,31.995-32.005c0-2.614-0.321-5.219-0.955-7.755l-38.056-152.24h12.48v-16h-59.688l18.88-42.48
			L452.294,201.532z M436.294,165.108c6.038-2.585,13.027,0.214,15.612,6.252c2.585,6.038-0.214,13.027-6.252,15.612l-45.184,20.536
			l15.2-34.136L436.294,165.108z M396.398,120.012l-2.672,8H277.262l-2.672-8H396.398z M426.102,464.012c-0.024,0-0.048,0-0.072,0
			h-0.024H246.23c-8.837,0-16-7.163-16-16h211.776C442.033,456.822,434.912,463.985,426.102,464.012z M402.518,288.012l36,144
			h-204.8l36-144H402.518z M306.03,248.012h58.928l-10.664,24h-37.6L306.03,248.012z M298.918,232.012l-39.112-88h151.376
			l-39.112,88H298.918z"/>
	</g>
</g>
<g>
</g>
<g>
</g>
<g>
</g>
<g>
</g>
<g>
</g>
<g>
</g>
<g>
</g>
<g>
</g>
<g>
</g>
<g>
</g>
<g>
</g>
<g>
</g>
<g>
</g>
<g>
</g>
<g>
</g>
</svg>
