<svg height="511pt" viewBox="-102 1 511 511.99961" width="511pt" xmlns="http://www.w3.org/2000/svg"><path d="m222.410156 384c14.136719-.007812 25.589844-11.476562 25.582032-25.617188-.007813-14.136718-11.476563-25.589843-25.617188-25.582031-14.136719.007813-25.589844 11.476563-25.582031 25.617188.003906 4.488281 1.183593 8.894531 3.429687 12.78125 4.5625 7.9375 13.03125 12.824219 22.1875 12.800781zm-4.269531-32.980469c1.28125-.753906 2.742187-1.152343 4.226563-1.152343.75.003906 1.492187.101562 2.21875.289062 4.554687 1.214844 7.261718 5.890625 6.046874 10.441406-1.210937 4.554688-5.886718 7.265625-10.441406 6.050782-4.554687-1.214844-7.261718-5.890626-6.050781-10.441407.585937-2.195312 2.019531-4.0625 3.984375-5.195312zm0 0"/><path d="m100.398438 151.101562c3.332031-3.335937 3.332031-8.734374 0-12.066406l-8.53125-8.535156c-3.390626-3.273438-8.792969-3.179688-12.066407.210938-3.195312 3.304687-3.195312 8.546874 0 11.855468l8.53125 8.535156c3.332031 3.328126 8.734375 3.328126 12.066407 0zm0 0"/><path d="m156.601562 99.898438c3.386719 3.277343 8.789063 3.183593 12.0625-.207032 3.195313-3.308594 3.195313-8.550781 0-11.859375l-8.53125-8.53125c-3.390624-3.273437-8.792968-3.179687-12.066406.210938-3.195312 3.304687-3.195312 8.546875 0 11.855469zm0 0"/><path d="m139.53125 176.699219 8.535156 8.535156c3.390625 3.273437 8.792969 3.179687 12.066406-.210937 3.195313-3.308594 3.195313-8.550782 0-11.855469l-8.535156-8.535157c-3.386718-3.273437-8.789062-3.179687-12.066406.210938-3.191406 3.304688-3.191406 8.550781 0 11.855469zm0 0"/><path d="m85.832031 110.933594c4.714844 0 8.535157-3.824219 8.53125-8.535156 0-2.261719-.898437-4.433594-2.496093-6.03125l-8.535157-8.535157c-3.390625-3.273437-8.792969-3.179687-12.066406.210938-3.191406 3.308593-3.191406 8.550781 0 11.855469l8.535156 8.535156c1.597657 1.601562 3.769531 2.5 6.03125 2.5zm0 0"/><path d="m122.464844 142.566406c3.390625 3.273438 8.792968 3.179688 12.066406-.210937 3.195312-3.304688 3.195312-8.546875 0-11.855469l-8.53125-8.535156c-3.390625-3.273438-8.792969-3.179688-12.066406.210937-3.195313 3.308594-3.195313 8.550781 0 11.855469zm0 0"/><path d="m165.132812 113.433594-8.53125 8.535156c-3.390624 3.273438-3.484374 8.675781-.210937 12.0625 3.273437 3.390625 8.675781 3.484375 12.066406.210938.070313-.066407.140625-.136719.210938-.210938l8.53125-8.53125c3.273437-3.390625 3.179687-8.792969-.210938-12.066406-3.304687-3.195313-8.546875-3.195313-11.855469 0zm0 0"/><path d="m108.933594 185.234375 8.53125-8.535156c3.273437-3.390625 3.179687-8.792969-.207032-12.066407-3.308593-3.191406-8.550781-3.191406-11.859374 0l-8.53125 8.535157c-3.390626 3.273437-3.484376 8.675781-.210938 12.066406 3.273438 3.386719 8.675781 3.480469 12.066406.207031.070313-.066406.140625-.136718.210938-.207031zm0 0"/><path d="m119.964844 102.398438c2.265625 0 4.433594-.898438 6.035156-2.5l8.53125-8.53125c3.277344-3.390626 3.183594-8.792969-.207031-12.066407-3.308594-3.195312-8.550781-3.195312-11.855469 0l-8.535156 8.53125c-3.332032 3.335938-3.332032 8.738281.003906 12.070313 1.597656 1.597656 3.765625 2.496094 6.027344 2.496094zm0 0"/><path d="m199.480469 466.621094.109375.066406c15.578125 14.394531 39.871094 13.433594 54.265625-2.144531 13.59375-14.710938 13.59375-37.40625 0-52.117188l-.070313-.113281-.109375-.066406c-15.578125-14.394532-39.871093-13.433594-54.265625 2.144531-13.59375 14.710937-13.59375 37.40625 0 52.117187zm48.484375-27.15625c.0625 11.722656-9.386719 21.273437-21.109375 21.335937-2.730469.015625-5.441407-.496093-7.980469-1.511719l27.582031-27.578124c.984375 2.464843 1.496094 5.097656 1.507813 7.753906zm-21.332032-21.332032c2.65625.011719 5.289063.523438 7.757813 1.511719l-27.582031 27.578125c-4.34375-10.882812.957031-23.230468 11.84375-27.578125 2.539062-1.011719 5.246094-1.527343 7.980468-1.511719zm0 0"/><path d="m26.101562 460.800781c-14.140624 0-25.601562 11.460938-25.601562 25.597657 0 14.140624 11.460938 25.601562 25.601562 25.601562h273.066407c4.710937 0 8.53125-3.820312 8.53125-8.53125 0-.40625-.027344-.8125-.085938-1.214844l-28.925781-202.300781c-3.710938-25.152344-25.234375-43.828125-50.664062-43.953125h-56.855469v-39.132812l40.164062-40.167969c1.601563-1.601563 2.5-3.769531 2.5-6.035157v-162.128906c0-4.714844-3.820312-8.535156-8.53125-8.535156h-153.601562c-4.710938 0-8.53125 3.820312-8.53125 8.535156v170.664063c-.003907 2.59375 1.175781 5.046875 3.199219 6.664062l39.464843 31.574219v38.5625h-25.597656c-4.714844 0-8.535156 3.820312-8.535156 8.53125v85.335938c.003906 1.683593.503906 3.332031 1.433593 4.734374l17.066407 25.601563c1.585937 2.371094 4.25 3.796875 7.101562 3.796875h17.066407c2.851562 0 5.515624-1.425781 7.101562-3.796875l17.066406-25.601563c.929688-1.402343 1.429688-3.050781 1.433594-4.734374v-25.601563h34.132812v76.800781h-34.132812c-3.234375 0-6.191406 1.824219-7.640625 4.71875l-6.167969 12.347656h-37.394531c-4.710937 0-8.53125 3.820313-8.53125 8.535157 0 4.710937 3.820313 8.53125 8.53125 8.53125h42.667969c3.234375.003906 6.191406-1.824219 7.636718-4.71875l6.167969-12.347657h28.859375v42.667969zm127.996094 34.132813h-127.996094c-4.714843 0-8.535156-3.820313-8.535156-8.535156 0-4.710938 3.820313-8.53125 8.535156-8.53125h127.996094zm0-238.933594h-51.199218v-34.132812h51.199218zm108.375 51.199219 26.820313 187.734375h-118.125v-187.734375zm-34.484375-34.132813c12.15625.0625 23.367188 6.554688 29.46875 17.066406h-86.289062v-17.066406zm-167.753906-256h136.53125v34.132813h-136.53125zm0 158.039063v-106.839844h136.53125v98.867187l-37.664063 37.667969h-22.070312c0-4.714843-3.820312-8.535156-8.535156-8.53125-2.261719 0-4.429688.898438-6.03125 2.496094l-6.03125 6.035156h-19.070313zm42.664063 172.203125-13.097657 19.625h-7.933593l-13.101563-19.625v-23.042969h34.132813zm-34.132813-40.109375v-34.132813h85.332031v34.132813zm0 0"/></svg>