<svg xmlns="http://www.w3.org/2000/svg" viewBox="0 0 215.59 198.12"><defs><style>.cls-1{fill:#fff;}.cls-2,.cls-3,.cls-7{fill:none;}.cls-3{stroke:#b5b5b5;}.cls-3,.cls-7{stroke-miterlimit:10;stroke-width:6px;}.cls-4{fill:#e1e3e2;}.cls-5{fill:#cdcdcd;}.cls-6{fill:#b88265;}.cls-7{stroke:#9f8c6f;}</style></defs><g id="Ebene_2" data-name="Ebene 2"><g id="Ebene_2-2" data-name="Ebene 2"><g id="Rechteck_2318" data-name="Rechteck 2318"><rect class="cls-1" width="215.59" height="198.12"/><rect class="cls-2" x="0.29" y="0.38" width="215.02" height="197.37"/></g><g id="Swanneck"><path class="cls-3" d="M51.44,126.06s-48.28-66.12-9-63.58,17.52,4.83,20.16,3.86"/><path class="cls-3" d="M139,140.52s41.9,7.53,38.53-50.64c0,0-2.44-32.56,27.88-22.11"/><path class="cls-4" d="M61.63,61.07h65.91s20.23,89.86,15.26,97.08-87.49,14-94.26-2.28S61.63,61.07,61.63,61.07Z"/><path class="cls-5" d="M79.78,165c-15.62-.41-28.7-2.95-31.24-9-6.77-16.25,13.09-94.79,13.09-94.79h28.6"/><path class="cls-6" d="M61,57.9s50.43-2.65,68,0c0,0-14.62-9.86-25.06-11.78,0,0,8.65-11.78-8.65-10.34,0,0-16.41-4-9,11C86.32,46.78,68.12,49.93,61,57.9Z"/><path class="cls-7" d="M60.68,60.82s44.95-6,68.26,0"/></g></g></g></svg>