<svg xmlns="http://www.w3.org/2000/svg" viewBox="0 0 215.59 198.12"><defs><style>.cls-1,.cls-7{fill:#fff;}.cls-2{fill:#919191;}.cls-2,.cls-3,.cls-6{isolation:isolate;}.cls-3{fill:#d1d1d1;opacity:0.73;}.cls-4{fill:#777;}.cls-5{fill:#4b4b4c;}.cls-6{fill:#9c9b9b;opacity:0.26;}.cls-7{opacity:0.25;}</style></defs><g id="Ebene_2" data-name="Ebene 2"><g id="Ebene_1-2" data-name="Ebene 1"><rect class="cls-1" width="215.59" height="198.12"/><path class="cls-2" d="M85.1,75.4h44.38a0,0,0,0,1,0,0v.73A9.85,9.85,0,0,1,119.63,86H95.12a10,10,0,0,1-10-10V75.4A0,0,0,0,1,85.1,75.4Z"/><path class="cls-3" d="M115.59,168.36H93.82a15.11,15.11,0,0,1-15.07-15.07V76.14l9.67,1.36a134.91,134.91,0,0,0,35.74.25l10.45-1.32v72.9A19.08,19.08,0,0,1,115.59,168.36Z"/><path class="cls-4" d="M132.64,77.57,123.31,79a109.66,109.66,0,0,1-33.25,0L79.62,77.35A10.23,10.23,0,0,1,71,67.24v-32h71.9V65.69A12,12,0,0,1,132.64,77.57Z"/><path class="cls-4" d="M68.14,32.41s3.6,7.91,3.52,9.41-.64-6.6-.64-6.6l.64-2.53Z"/><polygon class="cls-4" points="145.22 32.41 142.85 39.92 138.75 32.41 145.22 32.41"/><ellipse class="cls-5" cx="106.68" cy="32.41" rx="38.54" ry="7.51"/><path class="cls-6" d="M121,173.22H91.22c-10.24,0-18.84-11.11-18.84-21.35L68.29,68.25a1.81,1.81,0,0,1,2.62-1.7l5.37,2.69a144.38,144.38,0,0,0,61,0l5.94-2.67a1.38,1.38,0,0,1,1.95,1.31l-2.93,81.56C142.21,161,132.59,173.22,121,173.22Z"/><polygon class="cls-7" points="101.84 173.22 88.67 173.22 84.04 70.69 98.98 72.28 101.84 173.22"/></g></g></svg>