<svg width="200" height="200" viewBox="0 0 200 200" fill="none" xmlns="http://www.w3.org/2000/svg">
<path d="M95.0231 30H90.4031C89.7514 30 89.2231 30.5283 89.2231 31.18V40.41C89.2231 41.0617 89.7514 41.59 90.4031 41.59H95.0231C95.6748 41.59 96.2031 41.0617 96.2031 40.41V31.18C96.2031 30.5283 95.6748 30 95.0231 30Z" fill="#9F8C6F"/>
<path d="M95.4232 51.46H89.9932V145.6H95.4232V51.46Z" fill="#9F8C6F"/>
<path d="M118.813 143.78H66.2732C65.3344 143.78 64.5732 144.541 64.5732 145.48V146.95C64.5732 147.889 65.3344 148.65 66.2732 148.65H118.813C119.752 148.65 120.513 147.889 120.513 146.95V145.48C120.513 144.541 119.752 143.78 118.813 143.78Z" fill="#9F8C6F"/>
<path opacity="0.4" d="M117.313 53.1201H131.853C132.567 53.1201 133.251 53.4035 133.755 53.908C134.26 54.4125 134.543 55.0967 134.543 55.8101V167.67C134.543 168.384 134.26 169.068 133.755 169.572C133.251 170.077 132.567 170.36 131.853 170.36H117.313" fill="#CDCDCD"/>
<path d="M155.573 119.36H151.243C150.88 119.36 150.531 119.216 150.274 118.959C150.017 118.702 149.873 118.353 149.873 117.99V80.12C149.857 74.8205 147.745 69.7426 143.998 65.9953C140.25 62.248 135.173 60.1358 129.873 60.12L47.603 60.74C47.4165 60.7423 47.2314 60.7062 47.0594 60.634C46.8873 60.5617 46.732 60.4548 46.603 60.32C45.683 59.37 43.603 57.12 43.493 56.51C43.403 55.73 43.163 53.33 44.983 53.05C46.803 52.77 129.863 53.05 129.863 53.05C137.038 53.0658 143.916 55.9226 148.99 60.9955C154.065 66.0684 156.925 72.9445 156.943 80.12V117.96C156.947 118.142 156.915 118.324 156.847 118.493C156.78 118.663 156.68 118.818 156.553 118.948C156.425 119.079 156.273 119.182 156.104 119.253C155.936 119.324 155.755 119.36 155.573 119.36Z" fill="#CDCDCD"/>
<path opacity="0.4" d="M131.823 170.36H59.1332C58.4118 170.36 57.7199 170.074 57.2098 169.563C56.6997 169.053 56.4132 168.361 56.4132 167.64V70.8301L43.8932 57.4301C43.5988 57.0215 43.4236 56.5393 43.387 56.0371C43.3505 55.5348 43.4542 55.0323 43.6864 54.5855C43.9186 54.1387 44.2703 53.7651 44.7023 53.5064C45.1343 53.2477 45.6296 53.1139 46.1332 53.1201H131.863C132.585 53.1201 133.276 53.4066 133.786 53.9167C134.297 54.4268 134.583 55.1187 134.583 55.8401V167.64C134.583 168.001 134.512 168.358 134.372 168.69C134.233 169.023 134.029 169.325 133.772 169.578C133.516 169.831 133.211 170.03 132.876 170.165C132.542 170.299 132.184 170.365 131.823 170.36Z" fill="#E1E3E2"/>
<path opacity="0.4" d="M61.853 164.93H129.133L96.133 166.18C96.133 166.18 70.773 165.43 70.773 166.01L61.853 164.93Z" fill="#E1E3E2"/>
<path d="M132.023 52.12H53.023C52.6347 52.1316 52.2482 52.062 51.8883 51.9157C51.5284 51.7693 51.203 51.5494 50.933 51.27C50.7085 51.0353 50.565 50.7349 50.5236 50.4128C50.4822 50.0907 50.5451 49.7638 50.703 49.48C51.023 48.9 58.963 35.23 92.513 35.23C126.063 35.23 133.993 48.9 134.313 49.48C134.473 49.7633 134.536 50.0906 134.495 50.4131C134.453 50.7356 134.309 51.0362 134.083 51.27C133.816 51.5456 133.496 51.7633 133.142 51.9096C132.787 52.0558 132.406 52.1275 132.023 52.12Z" fill="#B5B5B5"/>
</svg>
