<svg xmlns="http://www.w3.org/2000/svg" width="25" height="25" viewBox="0 0 25 25">
  <path id="icons8-sad"
        d="M14.5,2A12.5,12.5,0,1,0,27,14.5,12.519,12.519,0,0,0,14.5,2Zm0,2.5a10,10,0,1,1-10,10A9.981,9.981,0,0,1,14.5,4.5ZM10.75,12A1.25,1.25,0,1,0,12,13.25,1.25,1.25,0,0,0,10.75,12Zm7.5,0a1.25,1.25,0,1,0,1.25,1.25A1.25,1.25,0,0,0,18.25,12ZM14.5,17.02a9.271,9.271,0,0,0-5.386,1.709l1.453,2.034a6.846,6.846,0,0,1,7.866,0l1.453-2.034A9.264,9.264,0,0,0,14.5,17.02Z"
        transform="translate(-2 -2)" fill="#504027"/>
</svg>
