<svg xmlns="http://www.w3.org/2000/svg" width="24" height="24" viewBox="0 0 24 24">
  <g id="Gruppe_196" data-name="Gruppe 196" transform="translate(-297 -794)">
    <path id="icons8-happy"
          d="M15,3A12,12,0,1,0,27,15,12.015,12.015,0,0,0,15,3Zm0,2A10,10,0,1,1,5,15,9.985,9.985,0,0,1,15,5Zm-4.5,8A1.5,1.5,0,1,0,12,14.5,1.5,1.5,0,0,0,10.5,13Zm9,0A1.5,1.5,0,1,0,21,14.5,1.5,1.5,0,0,0,19.5,13Zm-7.506,5.992a1,1,0,0,0-.52,1.816,5.812,5.812,0,0,0,7.051,0,1,1,0,0,0-1.178-1.617,3.815,3.815,0,0,1-4.7,0,1,1,0,0,0-.557-.2q-.05,0-.1,0Z"
          transform="translate(294 791)" fill="#504027"/>
  </g>
</svg>
