<?xml version="1.0" encoding="UTF-8"?>
<svg xmlns="http://www.w3.org/2000/svg" xmlns:xlink="http://www.w3.org/1999/xlink" viewBox="0 0 50 50" width="50px" height="50px">
<g id="surface1109560">
<path style=" stroke:none;fill-rule:nonzero;fill:rgb(80.392158%,76.078433%,67.450982%);fill-opacity:1;" d="M 25 50 C 11.191406 50 0 38.808594 0 25 C 0 11.191406 11.191406 0 25 0 C 38.808594 0 50 11.191406 50 25 C 50 38.808594 38.808594 50 25 50 Z M 25 50 "/>
<path style=" stroke:none;fill-rule:nonzero;fill:rgb(100%,100%,100%);fill-opacity:1;" d="M 22.292969 9.542969 C 15.714844 9.542969 10.394531 14.863281 10.394531 21.445312 C 10.394531 28.023438 15.714844 33.34375 22.292969 33.34375 C 24.644531 33.34375 26.816406 32.65625 28.660156 31.484375 L 37.257812 40.082031 L 40.230469 37.105469 L 31.742188 28.640625 C 33.269531 26.640625 34.195312 24.160156 34.195312 21.445312 C 34.195312 14.863281 28.871094 9.542969 22.292969 9.542969 Z M 22.292969 12.34375 C 27.332031 12.34375 31.394531 16.402344 31.394531 21.445312 C 31.394531 26.484375 27.332031 30.542969 22.292969 30.542969 C 17.253906 30.542969 13.195312 26.484375 13.195312 21.445312 C 13.195312 16.402344 17.253906 12.34375 22.292969 12.34375 Z M 22.292969 12.34375 "/>
</g>
</svg>
