<svg xmlns="http://www.w3.org/2000/svg" viewBox="0 0 215.59 198.12"><defs><style>.cls-1{fill:#fff;}.cls-2{fill:none;}.cls-3{fill:#b5b5b5;}.cls-4{fill:#e1e3e2;}.cls-5{fill:#cdcdcd;}.cls-6{fill:#b88265;}.cls-7{fill:#4c2f3a;}.cls-8{fill:#9f8c6f;}</style></defs><g id="Ebene_2" data-name="Ebene 2"><g id="Ebene_1-2" data-name="Ebene 1"><g id="Rechteck_2318" data-name="Rechteck 2318"><rect class="cls-1" width="215.59" height="198.12"/><rect class="cls-2" x="0.29" y="0.38" width="215.02" height="197.37"/></g><g id="Siebträger"><rect class="cls-3" x="51.85" y="70.36" width="111.9" height="85.66"/><path class="cls-4" d="M53.28,170.37h109A14.36,14.36,0,0,0,176.66,156H38.94A14.35,14.35,0,0,0,53.28,170.37Z"/><path class="cls-4" d="M162.31,32.65h-109A14.34,14.34,0,0,0,38.94,47V70.36H176.66V47A14.35,14.35,0,0,0,162.31,32.65Z"/><path class="cls-5" d="M92,70.36v7.07a1.88,1.88,0,0,0,2,1.77H121.6a1.88,1.88,0,0,0,2-1.77V70.36Z"/><circle class="cls-6" cx="81.06" cy="51.39" r="2.21"/><circle class="cls-6" cx="132.88" cy="51.39" r="2.21"/><path class="cls-7" d="M96.9,83.3v.58c0,.65.81,1.17,1.81,1.17h18.08c1,0,1.81-.52,1.81-1.17V79.2H96.9V81"/><path class="cls-5" d="M56.81,63.85c-.52.51-3.3,17.71-4,18.47S44.63,88,43.54,89.49s.15,40.68.15,40.68l4.18-.17s-.72-38.52-.12-39.63,7.15-4.93,8.3-6.05,4.63-20.16,4.05-20.57A4.18,4.18,0,0,0,56.81,63.85Z"/><path class="cls-5" d="M44,129.34c-.35.23-2.12,5-1.36,5.92s5.59.39,6.23,0-.59-5.86-1.18-6.07A10.21,10.21,0,0,0,44,129.34Z"/><rect class="cls-7" x="55.63" y="64.53" width="5.11" height="3.58" rx="0.53" transform="translate(16.98 -11.69) rotate(13.42)"/><rect class="cls-3" x="56.05" y="59.2" width="6.02" height="6.94" rx="0.53" transform="translate(16.16 -12) rotate(13.42)"/><circle class="cls-5" cx="61.17" cy="51.39" r="7.17"/><path class="cls-8" d="M61.17,42.06a9.33,9.33,0,1,0,9.33,9.33A9.34,9.34,0,0,0,61.17,42.06Zm0,14.35a5,5,0,1,1,5-5A5,5,0,0,1,61.17,56.41Z"/><path class="cls-5" d="M169.14,133.63c.35.22,2.78,6.7,1.86,7.76s-7.71,1.27-8.51-.3,1.87-7.53,2.45-7.74A12.77,12.77,0,0,1,169.14,133.63Z"/><path class="cls-5" d="M156,64.28c.52.5,3.3,17.71,4,18.46s8.19,5.69,9.28,7.18-.15,44.6-.15,44.6l-4.18-.18s.72-42.43.11-43.55-7.14-4.93-8.29-6.05-4.63-20.15-4.05-20.56A4.13,4.13,0,0,1,156,64.28Z"/><rect class="cls-7" x="152.06" y="64.96" width="5.11" height="3.58" rx="0.53" transform="translate(320.5 95.79) rotate(166.58)"/><rect class="cls-3" x="150.73" y="59.62" width="6.02" height="6.94" rx="0.53" transform="translate(317.93 88.78) rotate(166.58)"/><circle class="cls-5" cx="151.35" cy="51.39" r="7.17"/><path class="cls-8" d="M151.35,42.06a9.33,9.33,0,1,0,9.32,9.33A9.35,9.35,0,0,0,151.35,42.06Zm0,14.35a5,5,0,1,1,5-5A5,5,0,0,1,151.35,56.41Z"/></g></g></g></svg>