<svg width="200" height="200" viewBox="0 0 200 200" fill="none" xmlns="http://www.w3.org/2000/svg">
<path d="M94.06 68.5561C94.06 68.5561 83.43 64.6561 79.41 70.7761C75.39 76.8961 68.49 169.336 68.49 173.086C68.49 176.836 69.66 177.396 73.66 178.836" stroke="#CECDCC" stroke-width="4" stroke-miterlimit="10"/>
<path d="M131.83 184.556C131.83 186.996 114.99 191.246 99.97 191.246C84.95 191.246 70.97 187.326 70.97 184.886C70.97 182.446 84.97 182.386 100.02 182.386C115.07 182.386 131.83 182.096 131.83 184.556Z" fill="#9F8C6F"/>
<path d="M106.27 68.5561C106.27 68.5561 116.9 64.6561 120.92 70.7761C124.94 76.8961 131.83 169.356 131.83 173.106C131.83 176.856 130.68 177.416 126.66 178.856" stroke="#CECDCC" stroke-width="4" stroke-miterlimit="10"/>
<path d="M135.2 11.7061C102.99 46.2261 108.93 63.5561 108.93 63.5561H89.93C91.41 37.2761 62.79 12.7561 62.79 12.7561" fill="#E1E3E1"/>
<path d="M62.79 12.756C62.79 12.756 100.54 2.81604 135.2 11.676L62.79 12.756Z" fill="#CECDCC"/>
<path d="M110.01 63.5859H89.9399V75.8559H110.01V63.5859Z" fill="#CECDCC"/>
<path d="M137.71 177.006C137.71 182.416 138.71 186.926 100.91 186.806C61.29 186.676 64.11 182.416 64.11 177.006C64.11 171.596 80.59 167.206 100.91 167.206C121.23 167.206 137.71 171.556 137.71 177.006Z" fill="#C8C7C7"/>
<path d="M100.89 177.006C115.907 177.006 128.08 175.023 128.08 172.576C128.08 170.129 115.907 168.146 100.89 168.146C85.8733 168.146 73.7 170.129 73.7 172.576C73.7 175.023 85.8733 177.006 100.89 177.006Z" fill="#9F8C6F"/>
<path d="M108.37 74.2261C111.535 74.2261 114.1 71.6607 114.1 68.4961C114.1 65.3315 111.535 62.7661 108.37 62.7661C105.206 62.7661 102.64 65.3315 102.64 68.4961C102.64 71.6607 105.206 74.2261 108.37 74.2261Z" fill="#B78265"/>
<path opacity="0.66" d="M108.93 73.4059C111.642 73.4059 113.84 71.2077 113.84 68.4959C113.84 65.7842 111.642 63.5859 108.93 63.5859C106.218 63.5859 104.02 65.7842 104.02 68.4959C104.02 71.2077 106.218 73.4059 108.93 73.4059Z" fill="#E1E3E1"/>
<path d="M85.4901 99.7461L75.9101 155.556C75.9101 155.556 71.9801 168.896 83.2601 170.956C95.6301 173.206 126.92 175.666 124.58 158.336C121.94 138.846 112.95 99.7061 112.95 99.7061L85.4901 99.7461Z" fill="#E1E3E1"/>
<path d="M111.08 108.386C111.08 108.386 119.16 107.706 120.17 113.766C121.18 119.826 126.85 154.766 126.85 154.766C126.85 154.766 128.52 163.316 121.2 162.056L116 159.826" stroke="#CECDCC" stroke-width="3" stroke-miterlimit="10" stroke-linecap="round"/>
<path opacity="0.84" d="M93.5601 172.296C90.1001 168.646 87.1201 115.906 88.5001 99.7461H92.3501C92.3501 99.7461 94.4701 167.086 98.9401 172.556C97.143 172.693 95.3358 172.605 93.5601 172.296Z" fill="#EFEFEF"/>
</svg>
