<svg xmlns="http://www.w3.org/2000/svg" xml:space="preserve" viewBox="186.3 177.79 79.82 74.45">
  <path d="M214.52 196.83c.28.45.77.69 1.26.69.27 0 .55-.07.8-.23.7-.44.91-1.36.47-2.06-.09-.15-2.2-3.63-.04-6.72 3.32-4.74.17-9.82.04-10.03-.44-.7-1.37-.9-2.07-.46-.7.44-.91 1.37-.46 2.07.02.03 2.22 3.59.04 6.71-3.32 4.74-.17 9.82-.04 10.03zm8.45 0c.28.45.77.69 1.26.69.27 0 .55-.07.8-.23.7-.44.91-1.36.47-2.06-.09-.15-2.2-3.63-.04-6.72 3.32-4.74.17-9.82.04-10.03-.44-.7-1.37-.9-2.07-.46-.7.44-.91 1.37-.46 2.07.02.03 2.22 3.59.04 6.71-3.32 4.74-.18 9.82-.04 10.03zm8.45 0c.28.45.77.69 1.26.69.27 0 .55-.07.8-.23.7-.44.91-1.36.47-2.06-.09-.15-2.2-3.63-.04-6.72 3.32-4.74.17-9.82.04-10.03-.44-.7-1.37-.9-2.07-.46-.7.44-.91 1.37-.46 2.07.02.03 2.22 3.59.04 6.71-3.32 4.74-.18 9.82-.04 10.03zm22.4 12.55v9.77c2.64 0 4.78-2.18 4.78-4.87 0-2.7-2.15-4.9-4.78-4.9z"/>
  <path d="M254.22 202.24h-65.63c-1.27 0-2.29 1.02-2.29 2.29v11.87c0 1.29.08 2.58.19 3.79.34 3.07 1.08 6.05 2.16 8.89l-.02.02c.02.08.04.15.06.21.83 2.14 1.76 4.02 2.71 5.61.53.89 1.08 1.69 1.57 2.41 1.82 2.54 3.36 3.93 3.51 4.08l.02.02c.55.57 1.1 1.08 1.67 1.59.59.53 1.19 1.04 1.82 1.55 1.25.97 2.56 1.86 3.93 2.67 1.04.63 2.1 1.18 3.19 1.67.87.42 1.78.8 2.71 1.14 1.04.38 2.1.7 3.19 1 .83.21 1.65.4 2.5.55 1.06.23 2.12.38 3.19.47.87.09 1.74.13 2.62.15.21.02.44.02.64.02.74 0 1.92-.02 2.64-.08.83-.08 1.67-.15 2.52-.27 1.06-.15 2.14-.34 3.19-.59.89-.21 1.74-.46 2.6-.72 1.1-.34 2.16-.74 3.2-1.18.89-.36 1.74-.78 2.6-1.23 1.1-.57 2.16-1.19 3.2-1.88.89-.59 1.76-1.23 2.6-1.9.32-.25.63-.51.93-.78.78-.66 1.54-1.35 2.26-2.07 2.14-2.14 3.96-4.55 5.46-7.17 1.54-2.62 2.73-5.4 3.55-8.32 5.39-1.16 9.41-6.05 9.41-11.81-.03-6.6-5.36-12-11.9-12zm.62 19.49c-1.06 0-2.01.7-2.26 1.76-.7 3.03-1.84 5.92-3.43 8.59-.46.8-.95 1.57-1.48 2.33v-12.57c0-.89-.7-1.59-1.59-1.59-.89 0-1.59.7-1.59 1.59v16.4c-.64.66-1.35 1.31-2.05 1.92-.19.15-.38.3-.55.46V226.4c0-.87-.72-1.59-1.61-1.59-.87 0-1.59.72-1.59 1.59v16.5c-.83.53-1.71 1.02-2.6 1.48v-13.25c0-.87-.72-1.59-1.61-1.59-.87 0-1.59.72-1.59 1.59v14.62c-.85.32-1.71.59-2.6.83v-17.9c0-.89-.7-1.59-1.59-1.59-.89 0-1.59.7-1.59 1.59v18.58c-.85.15-1.74.25-2.6.3v-21.92c0-.87-.72-1.59-1.59-1.59-.89 0-1.61.72-1.61 1.59v22c-.87-.02-1.74-.08-2.62-.17v-24.02c0-.87-.72-1.59-1.59-1.59-.87 0-1.59.72-1.59 1.59v23.49c-.85-.17-1.69-.38-2.5-.64v-26.64c0-.87-.72-1.59-1.59-1.59-.87 0-1.59.72-1.59 1.59v25.48c-.34-.15-.7-.3-1.04-.47-.34-.15-.66-.32-.99-.49-.23-.13-.46-.25-.68-.38v-17.82c0-.87-.7-1.59-1.59-1.59-.87 0-1.59.72-1.59 1.59v15.8c-.04-.02-.08-.06-.11-.08-.59-.46-1.16-.91-1.71-1.37-.25-.21-.49-.42-.72-.63v-9.84c0-.87-.72-1.57-1.61-1.57-.87 0-1.59.7-1.59 1.57v6.48c-1.29-1.55-2.29-3.03-3.05-4.32-2.21-3.68-3.55-7.91-4.02-12.18 0-.04-.01-.09-.01-.13-.11-1.04-.17-2.16-.17-3.3v-9.56h63.31c4 0 7.26 3.34 7.26 7.43-.04 3.87-2.96 7.11-6.68 7.45z"/>
</svg>
