<svg width="200" height="200" viewBox="0 0 200 200" fill="none" xmlns="http://www.w3.org/2000/svg">
<path d="M130.487 27.54H64.7967C64.535 27.5384 64.2782 27.4684 64.0519 27.3368C63.8256 27.2052 63.6376 27.0167 63.5067 26.79L59.2267 19.21C59.099 18.9847 59.0326 18.7298 59.0342 18.4707C59.0358 18.2117 59.1054 17.9576 59.236 17.7339C59.3666 17.5102 59.5536 17.3247 59.7783 17.1959C60.0031 17.0671 60.2577 16.9996 60.5167 17L134.897 17.1C135.157 17.101 135.412 17.1707 135.637 17.3019C135.862 17.4332 136.048 17.6214 136.177 17.8476C136.306 18.0737 136.373 18.3299 136.371 18.5902C136.369 18.8504 136.299 19.1056 136.167 19.33L131.767 26.81C131.635 27.0322 131.448 27.2163 131.223 27.3443C130.999 27.4723 130.745 27.5397 130.487 27.54Z" fill="#B5B5B5"/>
<path d="M53.6667 27.65L145.667 27.05C145.924 27.0464 146.178 27.103 146.409 27.2152C146.641 27.3273 146.842 27.4919 146.999 27.6959C147.155 27.8999 147.262 28.1376 147.31 28.39C147.358 28.6425 147.347 28.9027 147.277 29.15C143.927 41.15 127.437 100.22 127.477 101.52C127.517 102.82 147.697 165.16 147.697 165.16C147.697 165.16 153.437 182.06 139.787 182.35C126.137 182.64 100.167 182.07 100.167 182.07C100.167 182.07 63.3067 182.07 59.9767 181.4C57.0767 180.8 51.5967 175.19 52.9767 167.92C53.9767 161.31 70.0267 107.92 71.6767 102.4C71.7615 102.103 71.7615 101.787 71.6767 101.49L52.0667 29.73C52.0026 29.4849 51.9955 29.2285 52.0458 28.9802C52.0961 28.732 52.2025 28.4986 52.3569 28.2978C52.5114 28.0971 52.7097 27.9343 52.9367 27.822C53.1637 27.7097 53.4134 27.6509 53.6667 27.65Z" fill="#E1E3E2"/>
<path d="M72.0669 102.65L52.0669 29.98C51.9894 29.7004 51.9791 29.4065 52.0368 29.1223C52.0945 28.838 52.2186 28.5714 52.399 28.3442C52.5794 28.117 52.8109 27.9357 53.0747 27.8151C53.3385 27.6944 53.6271 27.6378 53.9169 27.65L83.4869 27.45C83.9292 27.4496 84.3571 27.6078 84.6928 27.8959C85.0285 28.1839 85.2499 28.5827 85.3169 29.02L96.5269 102.02" fill="#CDCDCD"/>
<path d="M96.5271 102.09L71.7871 101.87C71.7871 101.87 53.9771 160.87 52.9471 167.87C51.5871 175.14 57.0671 180.75 59.9471 181.35C63.2771 182.01 78.8371 182.02 78.8371 182.02" fill="#CECECE"/>
<path d="M129.817 100.31H68.067C67.253 100.309 66.4616 100.043 65.8121 99.552C65.1627 99.0613 64.6905 98.3727 64.467 97.59L60.597 84C60.4408 83.4434 60.4159 82.8581 60.5241 82.2902C60.6322 81.7224 60.8706 81.1873 61.2204 80.727C61.5702 80.2667 62.0219 79.8938 62.5401 79.6375C63.0583 79.3813 63.6289 79.2486 64.207 79.25L133.767 79.42C134.348 79.421 134.921 79.5575 135.44 79.8186C135.96 80.0796 136.411 80.4581 136.758 80.924C137.106 81.3899 137.34 81.9303 137.442 82.5025C137.544 83.0746 137.512 83.6627 137.347 84.22L133.397 97.65C133.168 98.4207 132.695 99.0965 132.05 99.576C131.404 100.056 130.621 100.313 129.817 100.31Z" fill="#B88265"/>
<path d="M129.067 100.31H68.817C67.7771 100.311 66.766 100.651 65.9374 101.279C65.1088 101.907 64.5082 102.789 64.227 103.79L60.977 115.31C60.7757 116.02 60.7422 116.768 60.8789 117.493C61.0156 118.219 61.3188 118.903 61.7647 119.491C62.2106 120.079 62.787 120.556 63.4486 120.884C64.1101 121.212 64.8387 121.382 65.577 121.38L132.397 121.21C133.137 121.208 133.867 121.033 134.529 120.7C135.19 120.367 135.765 119.884 136.207 119.29C136.649 118.696 136.948 118.008 137.078 117.279C137.208 116.55 137.167 115.8 136.957 115.09L133.617 103.74C133.327 102.756 132.728 101.891 131.909 101.273C131.09 100.655 130.093 100.318 129.067 100.31Z" fill="#9F8C6F"/>
<path d="M65.7368 100.48C67.6668 100.78 131.957 100.48 131.957 100.48" stroke="#4C2F3A" stroke-miterlimit="10" stroke-linecap="round"/>
</svg>
