<svg xmlns="http://www.w3.org/2000/svg" viewBox="0 0 215.59 198.12"><defs><style>.cls-1,.cls-5{fill:#fff;}.cls-2{fill:#efefef;}.cls-3{fill:#cfd0d1;}.cls-4{fill:#e1e3e1;}.cls-5{opacity:0.6;}</style></defs><g id="Ebene_2" data-name="Ebene 2"><g id="Ebene_1-2" data-name="Ebene 1"><rect class="cls-1" width="215.59" height="198.12"/><polygon class="cls-2" points="159.47 31.69 59.22 32.88 81.1 86.1 138.87 86.1 159.47 31.69"/><rect class="cls-3" x="64.27" y="86.1" width="91.05" height="2.99" rx="1.5"/><polygon class="cls-2" points="118.47 105.24 101.56 105.24 83.91 89.09 134.72 89.09 118.47 105.24"/><rect class="cls-3" x="40.59" y="140.37" width="27.14" height="6.64" transform="translate(-64.59 46.33) rotate(-30)"/><rect class="cls-4" x="45.26" y="146.13" width="23.12" height="2.54" transform="translate(-66.09 48.16) rotate(-30)"/><path class="cls-2" d="M95.22,131.32,23.05,173.56a.51.51,0,0,1-.77-.51l.34-2.61a4,4,0,0,1,2-3l65.28-37.69a2.26,2.26,0,0,1,1.69-.22l3.52.92A.47.47,0,0,1,95.22,131.32Z"/><rect class="cls-4" x="21.39" y="152.03" width="76.74" height="2.71" rx="1.35" transform="translate(-68.69 50.43) rotate(-30)"/><path class="cls-3" d="M154.07,173.68l-86-.18a6.64,6.64,0,0,1-2.63-.56l-4.67-2A28.66,28.66,0,0,1,50.24,163l-1.9-2.28a.65.65,0,0,1,.5-1.07h124a.45.45,0,0,1,.35.75l-4.56,5.42a9.84,9.84,0,0,1-3.07,2.44l-9.78,5A3.79,3.79,0,0,1,154.07,173.68Z"/><polygon class="cls-5" points="98.71 86.1 87.07 86.1 78.82 32.64 91.59 32.64 98.71 86.1"/><path class="cls-2" d="M99.23,96.46h53.9l-2.65,33.7a52.43,52.43,0,0,1-4.78,18.13L142.56,155a8.08,8.08,0,0,1-7.41,4.67l-49.71-.47a6.42,6.42,0,0,1-5.76-3.7l-2.5-5.33a72.41,72.41,0,0,1-6.52-23.82l-2.89-29.9H99.23"/><path class="cls-5" d="M82.61,96.46s-11.17,40.45,4.82,62.75l5.3,0s-11.13-19.8-2.46-62.8"/></g></g></svg>