<svg xmlns="http://www.w3.org/2000/svg" xmlns:xlink="http://www.w3.org/1999/xlink" viewBox="0,0,256,256" width="50px" height="50px"><g fill="inherit" fill-rule="nonzero" stroke="none" stroke-width="1" stroke-linecap="butt" stroke-linejoin="miter" stroke-miterlimit="10" stroke-dasharray="" stroke-dashoffset="0" font-family="none" font-weight="none" font-size="none" text-anchor="none" style="mix-blend-mode: normal"><g transform="scale(5.12,5.12)"><path d="M23,4c-0.552,0 -1,0.447 -1,1v20c0,0.553 0.448,1 1,1h4c0.552,0 1,-0.447 1,-1v-20c0,-0.553 -0.448,-1 -1,-1zM20,9.36328c-7.189,1.033 -13.88075,4.28116 -19.21875,9.41016l-0.7207,0.69141l5.53516,5.76563l0.72266,-0.69141c3.833,-3.681 8.57464,-6.08492 13.68164,-7.04492zM30,9.36328v8.12891c5.107,0.961 9.84864,3.36392 13.68164,7.04492l0.72266,0.69336l5.53711,-5.76758l-0.7207,-0.69141c-5.339,-5.128 -12.0317,-8.3752 -19.2207,-9.4082zM20,21.57617c-4.068,0.904 -7.83702,2.8887 -10.91602,5.8457l-0.7207,0.69141l5.55859,5.79102l0.72266,-0.69336c1.56,-1.501 3.38647,-2.61327 5.35547,-3.32227zM30,21.57617v8.3125c1.969,0.709 3.79547,1.82026 5.35547,3.32227l0.72266,0.69336l5.55859,-5.79102l-0.7207,-0.69141c-3.079,-2.957 -6.84802,-4.9417 -10.91602,-5.8457zM23,30c-0.552,0 -1,0.447 -1,1v4c0,0.553 0.448,1 1,1h4c0.552,0 1,-0.447 1,-1v-4c0,-0.553 -0.448,-1 -1,-1zM20,34.21094c-0.944,0.484 -1.82337,1.10733 -2.60937,1.86133l-0.7207,0.69336l8.33008,8.67773l8.33008,-8.67773l-0.7207,-0.69336c-0.786,-0.755 -1.66538,-1.37733 -2.60937,-1.86133v0.78906c0,1.654 -1.346,3 -3,3h-4c-1.654,0 -3,-1.346 -3,-3z"></path></g></g></svg>
