<svg width="200" height="200" viewBox="0 0 200 200" fill="none" xmlns="http://www.w3.org/2000/svg">
<path d="M115.569 147.232L66.6295 146.572L66.4395 122.572L116.349 122.922" fill="#D3D3D3"/>
<path d="M116.349 122.922L134.419 123.052L134.609 147.492L115.569 147.232" fill="#B2B2B2"/>
<path d="M167.339 145.722H32.9094C31.9374 145.722 31.1494 146.51 31.1494 147.482V147.492C31.1494 148.464 31.9374 149.252 32.9094 149.252H167.339C168.311 149.252 169.099 148.464 169.099 147.492V147.482C169.099 146.51 168.311 145.722 167.339 145.722Z" fill="#C7C0BD"/>
<path d="M115.569 155.522H130.769C131.737 155.519 132.663 155.134 133.347 154.45C134.031 153.766 134.417 152.839 134.419 151.872V149.252H115.569" fill="#B2B2B2"/>
<path d="M115.569 149.252H68.3794V151.942C68.3794 152.891 68.7566 153.802 69.428 154.473C70.0993 155.145 71.0099 155.522 71.9594 155.522H115.569" fill="#D3D3D3"/>
<path opacity="0.15" d="M88.3995 145.722H80.0195V123.322H88.6595L88.3995 145.722Z" fill="white"/>
<path opacity="0.21" d="M88.3995 145.722H80.0195V149.252H88.3995V145.722Z" fill="white"/>
<path opacity="0.15" d="M88.3995 149.252H80.0195V155.522H88.3995V149.252Z" fill="white"/>
<path d="M116.38 122.922L66.4596 122.572C66.4596 122.572 49.6496 82.6216 49.0496 79.6816C48.4496 76.7416 99.9896 76.1216 99.9896 76.1216C99.9896 76.1216 112.99 76.1216 125.86 76.4816" fill="#D3D3D3"/>
<path d="M125.859 76.4817C138.719 76.8417 151.459 77.5517 150.919 78.9817L134.379 123.052L116.379 122.922" fill="#C4C4C4"/>
<path opacity="0.34" d="M88.6594 123.322H80.0194L73.1294 76.8417L83.0994 76.4917L88.6594 123.322Z" fill="white"/>
<path d="M38.1494 58.3018C38.1494 58.3018 42.8894 59.0918 48.2394 78.9918C48.2762 79.1325 48.341 79.2644 48.4301 79.3795C48.5191 79.4946 48.6305 79.5905 48.7575 79.6615C48.8845 79.7325 49.0246 79.7771 49.1692 79.7926C49.3139 79.8081 49.4602 79.7942 49.5994 79.7518C53.0194 78.7518 65.8294 75.8718 103.189 76.5418C137.519 77.1618 147.709 78.1618 150.649 78.6218C150.971 78.6742 151.301 78.6077 151.577 78.4347C151.853 78.2617 152.056 77.994 152.149 77.6818C153.379 73.5418 157.889 59.7818 163.319 57.5118C169.729 54.7818 91.6494 44.6018 38.1494 58.3018Z" fill="#909092"/>
<path d="M33.0395 53.7817C33.1295 55.5517 33.7295 58.0517 36.3295 59.1317C36.6129 59.2497 36.9181 59.3063 37.2249 59.2976C37.5317 59.289 37.8332 59.2154 38.1095 59.0817C40.9495 57.7217 53.8195 53.2517 100.11 53.3317C146.4 53.4117 160.11 57.1417 163.32 58.3317C163.615 58.4408 163.932 58.4787 164.245 58.4422C164.557 58.4057 164.857 58.2959 165.12 58.1217C166.57 57.1217 169.19 54.3017 164.97 50.8217C157.97 45.0017 87.0995 45.0217 87.0995 45.0217C87.0995 45.0217 47.4595 44.3117 34.6995 51.0217C34.1891 51.2763 33.7618 51.6712 33.4677 52.16C33.1737 52.6489 33.0252 53.2114 33.0395 53.7817Z" fill="#78787A"/>
<mask id="mask0_164_18896" style="mask-type:luminance" maskUnits="userSpaceOnUse" x="38" y="51" width="126" height="29">
<path d="M38.1494 58.3018C38.1494 58.3018 42.8894 59.0918 48.2394 78.9918C48.2762 79.1325 48.341 79.2644 48.4301 79.3795C48.5191 79.4946 48.6305 79.5905 48.7575 79.6615C48.8845 79.7325 49.0246 79.7771 49.1692 79.7926C49.3139 79.8081 49.4602 79.7942 49.5994 79.7518C53.0194 78.7518 65.8294 75.8718 103.189 76.5418C137.519 77.1618 147.709 78.1618 150.649 78.6218C150.971 78.6742 151.301 78.6077 151.577 78.4347C151.853 78.2617 152.056 77.994 152.149 77.6818C153.379 73.5418 157.889 59.7818 163.319 57.5118C169.729 54.7818 91.6494 44.6018 38.1494 58.3018Z" fill="white"/>
</mask>
<g mask="url(#mask0_164_18896)">
<path d="M42.7495 56.8518C42.7495 56.8518 56.6595 76.1318 62.6195 78.1618" stroke="#78787A" stroke-width="0.75" stroke-miterlimit="10"/>
<path d="M47.2993 55.7817C47.2993 55.7817 58.8093 74.9917 72.0293 77.2617" stroke="#78787A" stroke-width="0.75" stroke-miterlimit="10"/>
<path d="M53.9995 55.1318C53.9995 55.1318 67.4295 74.3718 80.5795 77.0818" stroke="#78787A" stroke-width="0.75" stroke-miterlimit="10"/>
<path d="M61.9995 54.3918C61.9995 54.3918 74.8395 72.6518 89.8995 77.0818" stroke="#78787A" stroke-width="0.75" stroke-miterlimit="10"/>
<path d="M71.3794 53.9019C71.3794 53.9019 80.8394 70.3419 99.2794 76.9819" stroke="#78787A" stroke-width="0.75" stroke-miterlimit="10"/>
<path d="M82.7793 53.3518C82.7793 53.3518 88.9493 68.9918 108.319 76.9818" stroke="#78787A" stroke-width="0.75" stroke-miterlimit="10"/>
<path d="M94.1597 53.3518C100.043 63.9432 109.181 72.3586 120.22 77.3518" stroke="#78787A" stroke-width="0.75" stroke-miterlimit="10"/>
<path d="M106.45 53.3518C106.45 53.3518 107.01 65.8218 129.2 77.3518" stroke="#78787A" stroke-width="0.75" stroke-miterlimit="10"/>
<path d="M117.58 53.9019C117.58 53.9019 118.67 67.0919 137.97 77.7219" stroke="#78787A" stroke-width="0.75" stroke-miterlimit="10"/>
<path d="M129.199 54.3918C129.199 54.3918 125.999 65.8418 144.629 78.0118" stroke="#78787A" stroke-width="0.75" stroke-miterlimit="10"/>
<path d="M139.72 54.3918C139.72 54.3918 135.38 62.7818 149.6 78.4818" stroke="#78787A" stroke-width="0.75" stroke-miterlimit="10"/>
<path d="M148.08 55.1318C148.08 55.1318 142.73 61.7818 152.38 77.8518" stroke="#78787A" stroke-width="0.75" stroke-miterlimit="10"/>
<path d="M155.029 55.7817C155.029 55.7817 150.979 60.3517 153.229 74.7817" stroke="#78787A" stroke-width="0.75" stroke-miterlimit="10"/>
<path d="M159.09 56.8518C159.09 56.8518 154.61 62.8518 155.4 69.2918" stroke="#78787A" stroke-width="0.75" stroke-miterlimit="10"/>
<path d="M45.7793 60.9119C45.7793 60.9119 47.6693 71.1419 47.5493 76.9819" stroke="#78787A" stroke-width="0.75" stroke-miterlimit="10"/>
<path d="M49.9996 59.6418C49.9996 59.6418 51.9996 73.7618 49.8696 80.0318" stroke="#78787A" stroke-width="0.75" stroke-miterlimit="10"/>
<path d="M53.9995 55.3718C53.9995 55.3718 58.8995 62.9718 52.6895 79.6418" stroke="#78787A" stroke-width="0.75" stroke-miterlimit="10"/>
<path d="M61.9996 54.3918C61.9996 54.3918 67.7296 62.7818 57.6396 78.8318" stroke="#78787A" stroke-width="0.75" stroke-miterlimit="10"/>
<path d="M71.3797 53.9019C71.3797 53.9019 77.3797 61.6219 63.6797 78.1619" stroke="#78787A" stroke-width="0.75" stroke-miterlimit="10"/>
<path d="M82.7795 53.3518C82.7795 53.3518 88.3095 62.5018 70.2295 77.5618" stroke="#78787A" stroke-width="0.75" stroke-miterlimit="10"/>
<path d="M94.1593 53.3518C94.1593 53.3518 96.3593 67.2318 78.7593 77.3518" stroke="#78787A" stroke-width="0.75" stroke-miterlimit="10"/>
<path d="M106.45 53.9019C106.45 53.9019 105.45 68.1419 88.6797 76.9019" stroke="#78787A" stroke-width="0.75" stroke-miterlimit="10"/>
<path d="M117.58 53.1218C117.58 53.1218 113.37 71.7918 97.5796 77.1218" stroke="#78787A" stroke-width="0.75" stroke-miterlimit="10"/>
<path d="M129.57 53.6218C129.57 53.6218 121.64 72.1918 109.04 76.9818" stroke="#78787A" stroke-width="0.75" stroke-miterlimit="10"/>
<path d="M139.72 54.3918C139.72 54.3918 129.27 74.1218 118.72 77.3918" stroke="#78787A" stroke-width="0.75" stroke-miterlimit="10"/>
<path d="M148.08 55.1318C148.08 55.1318 136.16 75.7818 127.6 77.3818" stroke="#78787A" stroke-width="0.75" stroke-miterlimit="10"/>
<path d="M155.029 55.7817C155.029 55.7817 143.839 74.6917 137.189 77.7817" stroke="#78787A" stroke-width="0.75" stroke-miterlimit="10"/>
<path d="M159.089 56.8518C159.089 56.8518 148.199 76.7218 143.459 78.0718" stroke="#78787A" stroke-width="0.75" stroke-miterlimit="10"/>
<path d="M46.9395 68.5217C46.9395 68.5217 53.8694 77.5217 57.2994 78.6717" stroke="#78787A" stroke-width="0.75" stroke-miterlimit="10"/>
</g>
</svg>
