<svg xmlns="http://www.w3.org/2000/svg" width="20" height="20" viewBox="0 0 20 20">
  <g id="Gruppe_164" data-name="Gruppe 164" transform="translate(-186 -194)">
    <circle id="Ellipse_348" data-name="Ellipse 348" cx="10" cy="10" r="10" transform="translate(186 194)"
            fill="#ae9f87"/>
    <path id="icons8-search"
          d="M18.913,14.4a4.519,4.519,0,1,0,3.193,1.32A4.5,4.5,0,0,0,18.913,14.4Zm-.006.7A3.752,3.752,0,0,1,21.6,16.22,3.791,3.791,0,1,1,18.907,15.1Zm0,.714a3.022,3.022,0,0,0-2.176.916,3.089,3.089,0,0,0-.9,2.069.35.35,0,0,0,.345.369h.012a.364.364,0,0,0,.357-.345,2.413,2.413,0,0,1,.69-1.594,2.359,2.359,0,0,1,1.677-.7.357.357,0,0,0,0-.714ZM16.85,20.3a.357.357,0,1,0,.357.357A.357.357,0,0,0,16.85,20.3ZM22.6,22.261a.33.33,0,0,0-.245.107.345.345,0,0,0,0,.5l.3.3a1.023,1.023,0,0,0-.107.464,1.07,1.07,0,0,0,.309.761l1.522,1.5a1.073,1.073,0,0,0,.761.321A1.112,1.112,0,0,0,25.9,25.9a1.069,1.069,0,0,0,0-1.51l-1.522-1.522a1.07,1.07,0,0,0-.761-.309,1.023,1.023,0,0,0-.464.107l-.3-.3A.359.359,0,0,0,22.6,22.261Zm1.015,1a.324.324,0,0,1,.25.107l1.51,1.51a.353.353,0,0,1-.5.5l-1.51-1.5a.369.369,0,0,1-.107-.262.324.324,0,0,1,.107-.25A.342.342,0,0,1,23.617,23.26Z"
          transform="translate(175.6 184.089)" fill="#fff"/>
  </g>
</svg>
