<svg xmlns="http://www.w3.org/2000/svg" viewBox="0 0 103.63 180.65"><defs><style>.cls-1{fill:#b5b5b5;}.cls-2{fill:#cdcdcd;}.cls-3{fill:#e1e3e2;}.cls-4{fill:#b88265;}</style></defs><g id="Ebene_2" data-name="Ebene 2"><g id="Ebene_1-2" data-name="Ebene 1"><g id="InvertedAeropress"><path class="cls-1" d="M79.3,6.82H25.68s.74-5.77,3.39-6.44,42.82-.3,45.66,0S79.3,6.82,79.3,6.82Z"/><ellipse class="cls-2" cx="51.82" cy="11.44" rx="51.82" ry="6.61"/><path class="cls-3" d="M33.13,109.58v66.49H70.5V109.58c0-6.8,9.23-9,9.23-9v-7H23.9v7S33.13,102.78,33.13,109.58Z"/><polygon class="cls-1" points="52.01 180.65 80.05 180.65 80.05 174.48 70.83 170.36 52.01 170.36 33.2 170.36 23.98 174.48 23.98 180.65 52.01 180.65"/><rect class="cls-1" x="19.67" y="9.22" width="64.69" height="88.83" rx="2.15" transform="translate(104.03 107.27) rotate(180)"/><path class="cls-2" d="M61.47,9.22H84.36a0,0,0,0,1,0,0V98a0,0,0,0,1,0,0H61.47a2.15,2.15,0,0,1-2.15-2.15V11.37a2.15,2.15,0,0,1,2.15-2.15Z" transform="translate(143.67 107.27) rotate(180)"/><path class="cls-4" d="M41.73,36.18a3.54,3.54,0,1,1,3.54,3.54A3.53,3.53,0,0,1,41.73,36.18Z"/><path class="cls-4" d="M41.73,53.63a3.54,3.54,0,1,1,3.54,3.54A3.53,3.53,0,0,1,41.73,53.63Z"/><path class="cls-4" d="M41.73,71.08a3.54,3.54,0,1,1,3.54,3.54A3.53,3.53,0,0,1,41.73,71.08Z"/><path class="cls-3" d="M0,11.81c0-3.86,23.2-7,51.82-7s51.81,3.13,51.81,7"/></g></g></g></svg>