<svg width="200" height="200" viewBox="0 0 200 200" fill="none" xmlns="http://www.w3.org/2000/svg">
<path d="M134.97 65.2697C134.97 65.2697 150.69 49.6797 161.41 67.8797C172.64 87.0497 119.97 128.82 119.97 128.82" stroke="#B5B5B5" stroke-width="6" stroke-miterlimit="10"/>
<path d="M112.03 34.9998H75.22C71.9339 34.9998 69.27 37.6637 69.27 40.9498V41.8398C69.27 45.1259 71.9339 47.7898 75.22 47.7898H112.03C115.316 47.7898 117.98 45.1259 117.98 41.8398V40.9498C117.98 37.6637 115.316 34.9998 112.03 34.9998Z" fill="#B88265"/>
<path d="M134.33 153.88H53.7999C51.1048 153.88 48.9199 156.065 48.9199 158.76V159.48C48.9199 162.175 51.1048 164.36 53.7999 164.36H134.33C137.025 164.36 139.21 162.175 139.21 159.48V158.76C139.21 156.065 137.025 153.88 134.33 153.88Z" fill="#B5B5B5"/>
<path d="M132.41 145.6H55.2202V155.12H132.41V145.6Z" fill="#CDCDCD"/>
<path d="M150.1 42.1797H36.6401V49.1897H150.1V42.1797Z" fill="#B5B5B5"/>
<path d="M36.6401 49.1897C36.6401 49.1897 81.9301 137.67 55.2201 145.6H132.41C132.41 145.6 105.48 140.34 150.11 49.1897H36.6401Z" fill="#E1E3E2"/>
<path d="M73.5301 49.1897H36.6401C36.6401 49.1897 81.9301 137.67 55.2201 145.6H96.9801" fill="#CDCDCD"/>
<path d="M68.0503 56.3398V102.88" stroke="#B5B5B5" stroke-width="2" stroke-miterlimit="10" stroke-linecap="round"/>
<path d="M119.2 56.3398V102.88" stroke="#B5B5B5" stroke-width="2" stroke-miterlimit="10" stroke-linecap="round"/>
<path d="M110.98 56.3398V94.0598" stroke="#B5B5B5" stroke-width="2" stroke-miterlimit="10" stroke-linecap="round"/>
<path d="M103.06 56.3398V86.9998" stroke="#B5B5B5" stroke-width="2" stroke-miterlimit="10" stroke-linecap="round"/>
<path d="M93.9302 56.3398V86.9998" stroke="#B5B5B5" stroke-width="2" stroke-miterlimit="10" stroke-linecap="round"/>
<path d="M85.4102 56.3398V86.9998" stroke="#B5B5B5" stroke-width="2" stroke-miterlimit="10" stroke-linecap="round"/>
<path d="M76.8804 56.3398V94.0598" stroke="#B5B5B5" stroke-width="2" stroke-miterlimit="10" stroke-linecap="round"/>
<path d="M68.0503 117.17C68.0503 117.17 92.4103 65.6697 118.05 117.17" stroke="#B5B5B5" stroke-width="2" stroke-miterlimit="10" stroke-linecap="round"/>
<path d="M75.6602 118.82C75.6602 118.82 93.1602 81.8197 111.59 118.82" stroke="#B5B5B5" stroke-width="2" stroke-miterlimit="10" stroke-linecap="round"/>
</svg>
