<svg width="200" height="200" viewBox="0 0 200 200" fill="none" xmlns="http://www.w3.org/2000/svg">
<path d="M148.5 138.43C148.5 146.69 134.5 148.11 98.08 148.43C59.65 148.82 48 145.11 48 137.9C48 131.69 70.33 131.96 98.08 131.96C125.83 131.96 148.5 132.22 148.5 138.43Z" fill="#C1C1C1"/>
<path d="M148.5 137.94C148.5 144.15 125.83 146.69 98.08 146.69C70.33 146.69 48 144.15 48 137.94C48 131.73 70.33 132 98.08 132C125.83 132 148.5 131.73 148.5 137.94Z" fill="#CFD0D1"/>
<path d="M87.7999 143.87H119.48C120.642 143.87 121.756 143.408 122.577 142.587C123.398 141.766 123.86 140.652 123.86 139.49V137.49L124.86 134.66L86.6699 134.77" fill="#B7B7B7"/>
<path d="M86.66 134.68H76.73L77.97 137.37V139.78C77.97 140.841 78.3914 141.858 79.1416 142.608C79.8917 143.359 80.9091 143.78 81.97 143.78H87.8" fill="#B7B7B7"/>
<path d="M74.25 60.51L45 60.69L75.33 134.45C75.482 134.82 75.7414 135.136 76.0747 135.357C76.4081 135.578 76.8 135.694 77.2 135.69H88.2" fill="#D6D6D6"/>
<path d="M88.2 135.69H124.1C124.557 135.692 125.004 135.556 125.384 135.301C125.764 135.046 126.058 134.684 126.23 134.26L156.77 60L74.25 60.51" fill="#D6D6D6"/>
<path d="M156.77 60C156.77 65 133.48 69 102 69C70.52 69 45 65 45 60C45 55 70.52 51 102 51C133.48 51 156.77 55.03 156.77 60Z" fill="#E1E3E1"/>
<path d="M152.82 60.0001C152.58 64.7201 132.09 66.3101 102.18 66.3101C72.2702 66.3101 48.4702 64.5601 48.4702 59.8701C48.4702 55.1801 72.2702 53.0701 102.2 53.0701C132.13 53.0701 153.07 55.2901 152.82 60.0001Z" fill="#EFEFEF"/>
<path opacity="0.49" d="M123.73 135.69H77.3501C76.9225 135.697 76.5026 135.575 76.1457 135.34C75.7888 135.104 75.5114 134.766 75.3501 134.37L66.6001 112.66L135.26 112.32L125.98 134.2C125.792 134.641 125.479 135.018 125.079 135.283C124.679 135.548 124.21 135.689 123.73 135.69Z" fill="url(#paint0_linear_164_18776)"/>
<path opacity="0.7" d="M100.89 108.67C101.603 108.67 102.18 108.093 102.18 107.38C102.18 106.668 101.603 106.09 100.89 106.09C100.178 106.09 99.6001 106.668 99.6001 107.38C99.6001 108.093 100.178 108.67 100.89 108.67Z" stroke="#1B3A12" stroke-width="0.5" stroke-miterlimit="10"/>
<path opacity="0.7" d="M100.89 110.39V143.82" stroke="#1B3A12" stroke-width="0.5" stroke-miterlimit="10"/>
<defs>
<linearGradient id="paint0_linear_164_18776" x1="100.61" y1="139.04" x2="101.29" y2="81.6501" gradientUnits="userSpaceOnUse">
<stop offset="0.12" stop-color="white"/>
<stop offset="0.69" stop-color="white" stop-opacity="0.6"/>
</linearGradient>
</defs>
</svg>
