<svg xmlns="http://www.w3.org/2000/svg" width="20" height="20" viewBox="0 0 20 20">
  <g id="Gruppe_165" data-name="Gruppe 165" transform="translate(-186 -302)">
    <circle id="Ellipse_355" data-name="Ellipse 355" cx="10" cy="10" r="10" transform="translate(186 302)"
            fill="#ae9f87"/>
    <path id="icons8-unsplash"
          d="M6.986,3A1.77,1.77,0,0,0,5.3,4.131l-.187.522H3.181A1.152,1.152,0,0,0,2,5.755v6.061a1.152,1.152,0,0,0,1.181,1.1h9.45a1.152,1.152,0,0,0,1.181-1.1V5.755a1.152,1.152,0,0,0-1.181-1.1H10.694l-.187-.522A1.77,1.77,0,0,0,8.827,3Zm0,1.1H8.827a.584.584,0,0,1,.561.377l.456,1.276h2.788v6.061H3.181V5.755H5.969l.456-1.276A.585.585,0,0,1,6.986,4.1Zm.921,2.2a2.3,2.3,0,0,0-2.362,2.2,2.3,2.3,0,0,0,2.362,2.2,2.3,2.3,0,0,0,2.362-2.2A2.3,2.3,0,0,0,7.906,6.306Zm0,1.1a1.1,1.1,0,1,1,0,2.2,1.1,1.1,0,1,1,0-2.2Z"
          transform="translate(188 304.082)" fill="#fff"/>
  </g>
</svg>
