<svg xmlns="http://www.w3.org/2000/svg" viewBox="0 0 215.59 198.12"><defs><style>.cls-1,.cls-7{fill:#fff;}.cls-2{fill:#b6b6b5;}.cls-3{fill:#c1c1c1;}.cls-4{fill:#cfd0d1;}.cls-5{fill:#e1e3e1;}.cls-6{fill:#cecece;}.cls-7{opacity:0.42;}.cls-8{fill:#5e5e5e;}</style></defs><g id="Ebene_2" data-name="Ebene 2"><g id="Ebene_1-2" data-name="Ebene 1"><rect class="cls-1" width="215.59" height="198.12"/><path class="cls-2" d="M128.77,159.55l-42.67.15a6,6,0,0,1-5.85-7.49h0l56.06-1.33h0A7.65,7.65,0,0,1,128.77,159.55Z"/><path class="cls-3" d="M156.78,143.11c0,6.21-13.83,11.81-50.25,12.18-38.42.39-50.25-6.46-50.25-12.67s22.5-9.83,50.25-9.83S156.78,136.9,156.78,143.11Z"/><ellipse class="cls-4" cx="106.53" cy="142.62" rx="50.25" ry="11.25"/><polygon class="cls-3" points="167.28 59.37 53.28 65.37 84.78 140.37 132.78 135.87 167.28 59.37"/><path class="cls-3" d="M129,145.62H84.49a2,2,0,0,1-1.78-3l2.07-3.72,48-3-.51,6.75A3.26,3.26,0,0,1,129,145.62Z"/><ellipse class="cls-5" cx="110.28" cy="62.37" rx="57" ry="9" transform="translate(-3.11 5.86) rotate(-3)"/><path class="cls-6" d="M164.36,59.53c.25,4.72-23.68,8.14-53.55,9.7s-54.35.69-54.6-4,23.63-9,53.49-10.52S164.11,54.82,164.36,59.53Z"/><polygon class="cls-7" points="77.47 71.4 92.62 71.84 107.17 139.73 94.23 139.73 77.47 71.4"/><polygon class="cls-7" points="107.17 145.62 94.14 145.62 94.23 139.73 107.17 139.73 107.17 145.62"/><circle class="cls-8" cx="98.12" cy="141.96" r="1.59"/><polygon class="cls-7" points="142.37 66.65 133.31 67.51 135.33 54.16 145.47 54.55 142.37 66.65"/></g></g></svg>