<svg width="200" height="200" viewBox="0 0 200 200" fill="none" xmlns="http://www.w3.org/2000/svg">
<path d="M137.04 39.7099L142.23 39.8499C142.749 39.8643 143.258 39.9917 143.723 40.2231C144.188 40.4545 144.596 40.7845 144.92 41.1899L154.59 53.2599C155.092 53.8951 155.367 54.6803 155.37 55.4899V101.01C155.372 101.591 155.232 102.164 154.962 102.678C154.692 103.193 154.301 103.634 153.822 103.963C153.343 104.292 152.791 104.5 152.214 104.567C151.637 104.634 151.052 104.56 150.51 104.35C148.811 103.68 147.27 102.662 145.988 101.362C144.705 100.062 143.708 98.508 143.06 96.7999C142.896 96.376 142.815 95.9245 142.82 95.4699L143.25 61.5799C143.261 60.7463 142.977 59.9357 142.45 59.2899L138.51 54.4399C138.176 54.0273 137.754 53.6946 137.275 53.4662C136.795 53.2378 136.271 53.1195 135.74 53.1199C135.212 53.1198 134.691 53.0026 134.213 52.7766C133.736 52.5506 133.315 52.2215 132.98 51.8131C132.645 51.4046 132.405 50.927 132.277 50.4146C132.149 49.9022 132.137 49.3678 132.24 48.8499L133.49 42.5799C133.652 41.7614 134.096 41.0256 134.745 40.501C135.393 39.9765 136.206 39.6965 137.04 39.7099Z" fill="#E1E3E2"/>
<path d="M147.95 102.78C148.801 103.502 149.768 104.073 150.81 104.47C151.316 104.659 151.859 104.723 152.395 104.656C152.93 104.589 153.441 104.393 153.885 104.086C154.328 103.778 154.69 103.368 154.94 102.889C155.19 102.411 155.32 101.88 155.32 101.34V55.3401C155.32 54.584 155.063 53.8504 154.59 53.2601L144.85 41.0401C144.547 40.6591 144.165 40.349 143.73 40.1313C143.294 39.9137 142.817 39.7938 142.33 39.7801L136.83 39.6301C136.046 39.6095 135.279 39.8658 134.665 40.354C134.05 40.8422 133.627 41.5312 133.47 42.3001L133.02 44.5001C132.925 44.9329 132.917 45.3804 132.995 45.8166C133.074 46.2527 133.239 46.6689 133.48 47.0409C133.721 47.413 134.033 47.7335 134.399 47.984C134.764 48.2345 135.176 48.4099 135.61 48.5001C145.04 50.5001 144.51 50.3001 146.85 55.9401C153.76 72.5201 147.19 102.11 147.95 102.78Z" fill="#9F8C6F"/>
<path d="M137.531 176.5H59.5905C58.9231 176.501 58.2643 176.349 57.6646 176.057C57.0649 175.764 56.5402 175.337 56.1309 174.81C55.7215 174.283 55.4384 173.669 55.3031 173.016C55.1678 172.362 55.1841 171.686 55.3505 171.04L68.5905 119.36C68.8295 118.423 69.3723 117.592 70.1341 116.997C70.896 116.401 71.8337 116.075 72.8005 116.07L124.571 115.64C125.554 115.63 126.512 115.952 127.289 116.555C128.066 117.157 128.616 118.005 128.851 118.96L141.771 171.07C141.93 171.714 141.94 172.386 141.802 173.035C141.663 173.684 141.379 174.293 140.97 174.816C140.562 175.339 140.04 175.762 139.444 176.054C138.848 176.345 138.194 176.498 137.531 176.5Z" fill="#E1E3E2"/>
<path d="M124.33 176.29L74.8003 176.08L86.5403 115.94L111.64 115.46L124.33 176.29Z" fill="#CDCDCD"/>
<path d="M73.1704 116.08L86.5904 115.95L74.8004 176.08L60.2304 176.37C59.4966 176.385 58.7691 176.23 58.1049 175.918C57.4408 175.605 56.8579 175.144 56.4018 174.568C55.9458 173.993 55.6289 173.32 55.476 172.603C55.3231 171.885 55.3383 171.141 55.5204 170.43L68.5904 119.64C68.8549 118.625 69.4472 117.725 70.2755 117.082C71.1037 116.438 72.1214 116.086 73.1704 116.08Z" fill="#B5B5B5"/>
<path d="M103 31.1C105.25 30.81 107.27 29.5 107.27 27.52C107.27 25.54 104.93 24.01 102.13 24.01C102.13 24.01 107.48 27.36 103 31.1Z" fill="#933B43"/>
<path d="M128.01 117.12L69.5201 117.61L69.3501 103.48L127.93 102.7L128.01 117.12Z" fill="#CDCDCD"/>
<path d="M127.97 117.16L69.6402 117.61L69.4902 103.48L127.92 102.73L127.97 117.16Z" fill="#9B9B9B"/>
<path d="M70.0601 38.5399L139.59 39.5999C139.64 39.602 139.689 39.6147 139.733 39.6372C139.778 39.6596 139.817 39.6913 139.848 39.7302C139.879 39.769 139.902 39.814 139.914 39.8623C139.927 39.9105 139.929 39.9608 139.92 40.0099L128.34 101.01C128.243 101.519 127.973 101.98 127.576 102.313C127.179 102.647 126.679 102.833 126.16 102.84L71.7301 103.5C71.1392 103.505 70.5696 103.279 70.1435 102.87C69.7173 102.461 69.4684 101.901 69.4501 101.31L67.7801 40.8399C67.772 40.5374 67.8252 40.2363 67.9366 39.9549C68.0481 39.6734 68.2154 39.4175 68.4285 39.2026C68.6416 38.9876 68.896 38.8181 69.1764 38.7042C69.4569 38.5903 69.7575 38.5344 70.0601 38.5399Z" fill="#E1E3E2"/>
<path d="M64.8403 67.87L44.3703 41.34C44.1682 41.0799 44.0431 40.7682 44.0093 40.4405C43.9755 40.1128 44.0344 39.7822 44.1792 39.4863C44.324 39.1904 44.549 38.9411 44.8285 38.7667C45.108 38.5924 45.4309 38.4999 45.7603 38.5H75.3503C75.6308 38.4992 75.9074 38.5655 76.1571 38.6933C76.4068 38.8211 76.6223 39.0067 76.7857 39.2347C76.9491 39.4627 77.0556 39.7264 77.0965 40.0039C77.1373 40.2814 77.1112 40.5646 77.0203 40.83L67.9003 67.36C67.7981 67.6615 67.616 67.9295 67.3734 68.1357C67.1309 68.3419 66.8369 68.4784 66.5229 68.5307C66.2089 68.583 65.8866 68.5492 65.5903 68.4329C65.294 68.3165 65.0348 68.122 64.8403 67.87Z" fill="#B5B5B5"/>
<path d="M45.8202 38.52C45.5141 38.5285 45.2162 38.6206 44.9586 38.7861C44.7011 38.9517 44.4936 39.1845 44.3588 39.4593C44.2239 39.7342 44.1667 40.0407 44.1934 40.3458C44.2201 40.6508 44.3296 40.9427 44.5102 41.19L67.1102 70.47L67.3502 68.85C67.3648 68.7234 67.395 68.5991 67.4402 68.48L69.8702 62.27C69.9833 61.9864 70.017 61.6774 69.9676 61.3761C69.9183 61.0748 69.7878 60.7927 69.5902 60.56L49.6802 39.04C49.5211 38.8704 49.329 38.735 49.1158 38.6422C48.9026 38.5493 48.6727 38.501 48.4402 38.5L45.8202 38.52Z" fill="#BFBFBF"/>
<path d="M69.4904 103.5L86.4704 103.25L77.8204 38.5L66.9204 70.08L69.4904 103.5Z" fill="#B5B5B5"/>
<path d="M59.0103 38.5001L99.5703 29.6201L77.8203 38.5001H59.0103Z" fill="#BFBFBF"/>
<path d="M75.8403 38.53L119.88 39.52L110.54 103.01L86.4703 103.25L75.8403 38.53Z" fill="#CDCDCD"/>
<path d="M106.34 29.6201L119.88 39.5201L75.8403 38.5301L99.5703 29.6201H106.34Z" fill="#CDCDCD"/>
<path d="M105.811 29.3301L139.821 39.6101L119.881 39.5201L105.811 29.3301Z" fill="#E1E3E2"/>
<path d="M103.051 31.16C105.392 31.16 107.291 29.5572 107.291 27.58C107.291 25.6028 105.392 24 103.051 24C100.709 24 98.8105 25.6028 98.8105 27.58C98.8105 29.5572 100.709 31.16 103.051 31.16Z" fill="#B88265"/>
</svg>
