<svg width="200" height="200" viewBox="0 0 200 200" fill="none" xmlns="http://www.w3.org/2000/svg">
<path d="M161.195 29L60.9453 30.19L82.8253 83.41H140.595L161.195 29Z" fill="#EFEFEF"/>
<path d="M155.545 83.4099H67.4951C66.6667 83.4099 65.9951 84.0792 65.9951 84.9049C65.9951 85.7306 66.6667 86.3999 67.4951 86.3999H155.545C156.374 86.3999 157.045 85.7306 157.045 84.9049C157.045 84.0792 156.374 83.4099 155.545 83.4099Z" fill="#CFD0D1"/>
<path d="M120.196 102.55H103.286L85.6357 86.3999H136.446L120.196 102.55Z" fill="#EFEFEF"/>
<path d="M65.9766 131.339L42.4727 144.909L45.7927 150.659L69.2966 137.089L65.9766 131.339Z" fill="#CFD0D1"/>
<path d="M67.919 137.832L47.8965 149.392L49.1665 151.592L69.189 140.032L67.919 137.832Z" fill="#E1E3E1"/>
<path d="M96.9455 128.63L24.7755 170.87C24.6927 170.92 24.5973 170.946 24.5004 170.944C24.4035 170.943 24.3092 170.913 24.2284 170.86C24.1476 170.806 24.0837 170.731 24.0442 170.642C24.0048 170.554 23.9913 170.456 24.0055 170.36L24.3455 167.75C24.4207 167.128 24.6409 166.533 24.9883 166.012C25.3357 165.491 25.8005 165.059 26.3455 164.75L91.6255 127.06C92.1385 126.769 92.745 126.69 93.3155 126.84L96.8355 127.76C96.9276 127.783 97.0107 127.833 97.0737 127.904C97.1368 127.975 97.1769 128.063 97.1888 128.157C97.2007 128.251 97.1839 128.347 97.1404 128.431C97.097 128.516 97.029 128.585 96.9455 128.63Z" fill="#EFEFEF"/>
<path d="M92.8648 131.012L28.7443 168.032C28.0986 168.405 27.8774 169.23 28.2502 169.876L28.2552 169.885C28.628 170.53 29.4536 170.752 30.0993 170.379L94.2199 133.359C94.8655 132.986 95.0868 132.16 94.714 131.515L94.709 131.506C94.3362 130.86 93.5105 130.639 92.8648 131.012Z" fill="#E1E3E1"/>
<path d="M155.795 170.99L69.7951 170.81C68.8894 170.805 67.9944 170.614 67.1651 170.25L62.4951 168.25C58.4156 166.458 54.8101 163.739 51.9651 160.31L50.0651 158.03C49.9847 157.935 49.9333 157.819 49.9168 157.696C49.9004 157.573 49.9196 157.447 49.9723 157.335C50.0249 157.222 50.1087 157.127 50.2138 157.061C50.3188 156.994 50.4408 156.959 50.5651 156.96H174.565C174.653 156.957 174.74 156.98 174.815 157.026C174.89 157.072 174.95 157.14 174.988 157.219C175.025 157.299 175.038 157.388 175.025 157.476C175.012 157.563 174.974 157.644 174.915 157.71L170.355 163.13C169.506 164.141 168.462 164.971 167.285 165.57L157.505 170.57C156.976 170.842 156.39 170.986 155.795 170.99Z" fill="#CFD0D1"/>
<path opacity="0.6" d="M100.436 83.41H88.7959L80.5459 29.95H93.3159L100.436 83.41Z" fill="white"/>
<path d="M100.955 93.77H154.855L152.205 127.47C151.714 133.751 150.095 139.893 147.425 145.6L144.285 152.31C143.63 153.718 142.582 154.908 141.268 155.736C139.954 156.564 138.428 156.996 136.875 156.98L87.1651 156.51C85.9537 156.5 84.77 156.147 83.7508 155.492C82.7315 154.837 81.9183 153.907 81.4051 152.81L78.9051 147.48C75.3838 139.972 73.1784 131.915 72.3851 123.66L69.4951 93.76H100.955" fill="#EFEFEF"/>
<path opacity="0.6" d="M84.3354 93.77C84.3354 93.77 73.1654 134.22 89.1554 156.52H94.4554C94.4554 156.52 83.3254 136.72 91.9954 93.72" fill="white"/>
</svg>
