<svg width="200" height="200" viewBox="0 0 200 200" fill="none" xmlns="http://www.w3.org/2000/svg">
<path d="M75.3721 142.39V147.05C75.3721 147.19 75.3998 147.329 75.4537 147.458C75.5076 147.587 75.5866 147.705 75.6861 147.803C75.7856 147.902 75.9036 147.98 76.0334 148.032C76.1631 148.085 76.302 148.112 76.4421 148.11H133.892C134.032 148.112 134.171 148.085 134.301 148.032C134.431 147.98 134.549 147.902 134.648 147.803C134.748 147.705 134.827 147.587 134.88 147.458C134.934 147.329 134.962 147.19 134.962 147.05V141.55C134.961 141.409 134.931 141.269 134.876 141.139C134.82 141.009 134.739 140.891 134.638 140.793C134.537 140.694 134.417 140.617 134.285 140.565C134.154 140.513 134.013 140.488 133.872 140.49L76.4221 141.32C76.1418 141.325 75.8747 141.44 75.6784 141.641C75.482 141.841 75.372 142.11 75.3721 142.39Z" fill="#B5B5B5"/>
<path d="M146.682 114.5C146.682 114.5 192.242 86.4402 197.312 70.2202C202.382 54.0002 168.832 61.0702 168.832 61.0702" stroke="#B5B5B5" stroke-width="4" stroke-miterlimit="10"/>
<path d="M37.3119 52.0002H172.972C173.196 51.9996 173.416 52.0543 173.614 52.1595C173.812 52.2647 173.98 52.417 174.105 52.603C174.23 52.789 174.306 53.0029 174.329 53.2257C174.351 53.4485 174.317 53.6733 174.232 53.8802L145.742 122.51C145.383 123.39 145.337 124.367 145.612 125.277C145.886 126.188 146.466 126.976 147.252 127.51L164.502 139.18C164.734 139.339 164.909 139.567 165.002 139.832C165.096 140.096 165.102 140.384 165.021 140.653C164.939 140.922 164.774 141.157 164.55 141.326C164.325 141.495 164.053 141.587 163.772 141.59H47.0719C46.7753 141.586 46.4879 141.487 46.2521 141.307C46.0164 141.128 45.8448 140.876 45.7629 140.591C45.681 140.306 45.6931 140.003 45.7974 139.725C45.9016 139.447 46.0926 139.211 46.3419 139.05L64.1219 127.95C64.8188 127.514 65.3375 126.843 65.5849 126.059C65.8323 125.274 65.7922 124.428 65.4719 123.67L36.1019 53.7802C36.0181 53.583 35.9852 53.3681 36.0061 53.1549C36.027 52.9418 36.101 52.7373 36.2214 52.5602C36.3418 52.383 36.5047 52.239 36.6952 52.1411C36.8858 52.0433 37.0978 51.9948 37.3119 52.0002Z" fill="#E1E3E2"/>
<path d="M113.172 141.63H47.0719C46.7753 141.626 46.4879 141.527 46.2521 141.347C46.0164 141.168 45.8448 140.916 45.7629 140.631C45.681 140.346 45.6931 140.043 45.7974 139.765C45.9016 139.487 46.0926 139.251 46.3419 139.09L64.1219 127.95C64.8188 127.514 65.3375 126.843 65.5849 126.059C65.8323 125.274 65.7922 124.428 65.4719 123.67L36.1019 53.7802C36.0181 53.583 35.9852 53.3681 36.0061 53.1549C36.027 52.9418 36.101 52.7373 36.2214 52.5602C36.3418 52.383 36.5047 52.239 36.6952 52.1411C36.8858 52.0433 37.0978 51.9948 37.3119 52.0002H86.5319" fill="#CDCDCD"/>
</svg>
