<svg width="200" height="200" viewBox="0 0 200 200" fill="none" xmlns="http://www.w3.org/2000/svg">
<path opacity="0.83" d="M111.762 34.6801L113.172 91.3601C113.172 91.3601 115.412 94.0501 144.332 94.0501C173.252 94.0501 174.642 90.6801 174.642 90.6801L176.272 34.1401L111.762 34.6801Z" fill="#C1C1C1"/>
<path d="M25.8618 84.44H20.1818C19.9475 84.4395 19.7158 84.3903 19.5016 84.2956C19.2873 84.2008 19.0951 84.0625 18.9371 83.8895C18.7791 83.7164 18.6588 83.5125 18.5839 83.2905C18.5089 83.0685 18.481 82.8333 18.5018 82.5999L21.1118 54.1199C21.1688 53.5275 21.4439 52.9774 21.8837 52.5764C22.3235 52.1754 22.8966 51.9522 23.4918 51.95H28.4018L25.8618 84.44Z" fill="#5E5E5E"/>
<path d="M42.6018 57.09L22.3018 57.1399L23.4818 51.95H43.0718L42.6018 57.09Z" fill="#5E5E5E"/>
<path d="M42.9918 85.04L18.3318 84.44L18.7818 79.46H42.9918V85.04Z" fill="#5E5E5E"/>
<path d="M38.8118 94.04L19.0718 93.43L25.4218 87.31L39.7218 87.27L38.8118 94.04Z" fill="#5E5E5E"/>
<path d="M22.5918 121.5L14.7118 122.95L17.3918 91.3201C17.4792 90.3239 17.9225 89.3925 18.6405 88.6964C19.3586 88.0004 20.3033 87.5863 21.3018 87.5301L25.4218 87.3101L22.5918 121.5Z" fill="#5E5E5E"/>
<path d="M34.9418 140.24L33.8318 153.61C28.8318 145.61 22.1218 138.02 17.1618 130.07C15.6649 127.988 14.8129 125.512 14.7118 122.95C17.3318 122.47 22.4318 118.95 22.5918 121.5C22.7518 124.05 34.9418 140.24 34.9418 140.24Z" fill="#5E5E5E"/>
<path d="M182.392 179.93C182.392 179.93 179.992 185.34 153.902 185.66C127.812 185.98 71.7118 186.38 50.1918 185.66C28.6718 184.94 25.4218 179.38 25.4218 179.38L27.6418 161.08C27.6418 161.08 23.0718 165.91 103.912 166.55C184.752 167.19 182.392 160.89 182.392 160.89V179.93Z" fill="#9C9B9B"/>
<path d="M182.392 160.89C182.392 163.79 162.172 166.23 105.532 166.14C60.7818 166.07 27.6418 163.97 27.6418 161.08C27.6418 151.23 63.0818 152.64 105.532 152.64C147.982 152.64 182.392 152.55 182.392 160.89Z" fill="#E1E3E1"/>
<path d="M101.672 83.86C101.674 84.3099 101.519 84.7464 101.234 85.0948C100.95 85.4432 100.553 85.6819 100.112 85.77C97.0218 86.3 88.9118 87.27 70.9318 87.27C53.1118 87.27 44.9318 86.27 41.8318 85.78C41.3725 85.7035 40.9604 85.4531 40.681 85.0806C40.4017 84.7081 40.2766 84.2423 40.3318 83.78L43.0418 59.91C43.0418 59.91 54.3118 60.81 72.1818 60.91C82.0477 61.0373 91.9122 60.5697 101.722 59.51L101.672 83.86Z" fill="#9C9B9B"/>
<path d="M101.732 155.23C101.732 155.23 97.0118 160.68 67.6718 160.68C38.3318 160.68 33.6018 156.26 33.6018 156.26L38.4018 98.8001C38.4018 98.8001 43.6518 101.57 69.6318 101.44C95.6118 101.31 101.632 98.5901 101.632 98.5901L101.732 155.23Z" fill="#9C9B9B"/>
<path d="M182.222 34.0501L38.1618 35.4101L39.9118 18.1101C40.0084 17.1535 40.4568 16.2668 41.17 15.622C41.8832 14.9772 42.8103 14.6201 43.7718 14.6201L178.052 14.0001C179.004 13.9945 179.92 14.3619 180.604 15.0236C181.288 15.6853 181.686 16.5886 181.712 17.5401L182.222 34.0501Z" fill="#5E5E5E"/>
<path d="M174.642 157.2C174.642 157.2 170.462 162.27 143.912 162.27C117.362 162.27 113.172 156.51 113.172 156.51V91.3902C113.172 91.3902 112.742 94.0802 144.332 94.0802C175.922 94.0802 174.642 90.6802 174.642 90.6802V157.2Z" fill="#5E5E5E"/>
<path d="M42.9318 52.35L42.4318 59.94C42.4318 59.94 76.5718 62.52 101.672 59.52V52.52C101.672 52.3922 101.646 52.2656 101.595 52.1485C101.544 52.0313 101.469 51.9261 101.375 51.8395C101.281 51.7529 101.169 51.6869 101.048 51.6457C100.927 51.6045 100.799 51.5889 100.672 51.6C96.5518 51.95 79.3418 53.1 43.8118 51.54C43.7006 51.5347 43.5895 51.5514 43.4849 51.5894C43.3803 51.6273 43.2843 51.6857 43.2024 51.761C43.1205 51.8364 43.0544 51.9273 43.008 52.0284C42.9615 52.1295 42.9356 52.2388 42.9318 52.35Z" fill="#5E5E5E"/>
<path d="M105.412 89.4101C105.412 89.4101 101.492 90.5301 101.042 92.7701C100.592 95.0101 101.802 99.0601 101.802 99.0601C101.802 99.0601 68.5718 105.77 37.8018 98.9401L39.7418 87.2701C39.7418 87.2701 47.0018 91.8801 98.1418 88.1701C98.1418 88.1701 98.7018 88.4001 100.832 86.7201C100.812 86.6801 104.512 87.2801 105.412 89.4101Z" fill="#5E5E5E"/>
<path d="M58.7218 35.6501V37.3401L84.8818 37.0601V35.6501H58.7218Z" fill="#CFD0D1"/>
<path d="M138.662 90.65H126.932L127.732 38.23H137.452L138.662 90.65Z" fill="#B7B7B7"/>
<path d="M136.212 90.65H129.822L128.922 37.72H135.872L136.212 90.65Z" fill="#C1C1C1"/>
<path d="M146.402 47.9302H137.452" stroke="#5E5E5E" stroke-width="0.75" stroke-miterlimit="10" stroke-linecap="round"/>
<path d="M144.402 56.8801H140.002" stroke="#5E5E5E" stroke-width="0.75" stroke-miterlimit="10" stroke-linecap="round"/>
<path d="M146.402 67.0601H138.892" stroke="#5E5E5E" stroke-width="0.75" stroke-miterlimit="10" stroke-linecap="round"/>
<path d="M144.402 77.9399H140.002" stroke="#5E5E5E" stroke-width="0.75" stroke-miterlimit="10" stroke-linecap="round"/>
<path d="M139.642 34.3801H125.962V38.2301H139.642V34.3801Z" fill="#C1C1C1"/>
<path d="M184.102 165.63H182.392V175.96H184.102V165.63Z" fill="#1E1E20"/>
<path d="M185.182 163.3H182.392V165.63H185.182V163.3Z" fill="#1E1E20"/>
<path opacity="0.08" d="M76.3718 160.52L69.6618 160.68L63.2518 160.66V101.44L69.6318 101.46L76.3718 101.43V160.52Z" fill="white"/>
<path opacity="0.08" d="M166.092 160.5L159.462 161.58L152.302 162.04L152.042 94.0301L158.592 93.8601L165.642 93.3701L166.092 160.5Z" fill="white"/>
<path opacity="0.08" d="M75.7718 87.2501L70.8818 87.2701L63.2518 87.2001V60.6401L69.6318 60.9401L76.3718 60.9101L75.7718 87.2501Z" fill="white"/>
<path opacity="0.08" d="M76.3718 101.43L63.2518 101.15V89.6101H76.3718V101.43Z" fill="white"/>
<path opacity="0.08" d="M76.3718 60.64L63.0618 60.46V52.21L76.3718 52.37V60.64Z" fill="white"/>
</svg>
