<svg xmlns="http://www.w3.org/2000/svg" xmlns:xlink="http://www.w3.org/1999/xlink" viewBox="0,0,256,256" width="480px" height="480px"><g transform="translate(51.2,51.2) scale(0.6,0.6)"><g fill="var(--beanconqueror-icon-color)" fill-rule="nonzero" stroke="none" stroke-width="1" stroke-linecap="butt" stroke-linejoin="miter" stroke-miterlimit="10" stroke-dasharray="" stroke-dashoffset="0" font-family="none" font-weight="none" font-size="none" text-anchor="none" style="mix-blend-mode: normal"><path d="M128,341.33333c-117.82075,0 -213.33333,-95.51259 -213.33333,-213.33333v0c0,-117.82075 95.51259,-213.33333 213.33333,-213.33333v0c117.82075,0 213.33333,95.51259 213.33333,213.33333v0c0,117.82075 -95.51259,213.33333 -213.33333,213.33333z" id="shape"></path></g><g fill="#ffffff" fill-rule="nonzero" stroke="none" stroke-width="1" stroke-linecap="butt" stroke-linejoin="miter" stroke-miterlimit="10" stroke-dasharray="" stroke-dashoffset="0" font-family="none" font-weight="none" font-size="none" text-anchor="none" style="mix-blend-mode: normal"><g transform="scale(8.53333,8.53333)"><path d="M4,5c-1.10457,0 -2,0.89543 -2,2c0,1.10457 0.89543,2 2,2c1.10457,0 2,-0.89543 2,-2c0,-1.10457 -0.89543,-2 -2,-2zM10,6c-0.36064,-0.0051 -0.69608,0.18438 -0.87789,0.49587c-0.18181,0.3115 -0.18181,0.69676 0,1.00825c0.18181,0.3115 0.51725,0.50097 0.87789,0.49587h17c0.36064,0.0051 0.69608,-0.18438 0.87789,-0.49587c0.18181,-0.3115 0.18181,-0.69676 0,-1.00825c-0.18181,-0.3115 -0.51725,-0.50097 -0.87789,-0.49587zM4,13c-1.10457,0 -2,0.89543 -2,2c0,1.10457 0.89543,2 2,2c1.10457,0 2,-0.89543 2,-2c0,-1.10457 -0.89543,-2 -2,-2zM10,14c-0.553,0 -1,0.447 -1,1c0,0.553 0.447,1 1,1h7.34961c1.545,-1.249 3.50939,-2 5.65039,-2zM23,16c-3.866,0 -7,3.134 -7,7c0,3.866 3.134,7 7,7c3.866,0 7,-3.134 7,-7c0,-3.866 -3.134,-7 -7,-7zM23,19c0.552,0 1,0.447 1,1v2h2c0.552,0 1,0.447 1,1c0,0.553 -0.448,1 -1,1h-2v2c0,0.553 -0.448,1 -1,1c-0.552,0 -1,-0.447 -1,-1v-2h-2c-0.552,0 -1,-0.447 -1,-1c0,-0.553 0.448,-1 1,-1h2v-2c0,-0.553 0.448,-1 1,-1zM4,21c-1.10457,0 -2,0.89543 -2,2c0,1.10457 0.89543,2 2,2c1.10457,0 2,-0.89543 2,-2c0,-1.10457 -0.89543,-2 -2,-2zM10,22c-0.553,0 -1,0.447 -1,1c0,0.553 0.447,1 1,1h4.05859c-0.037,-0.329 -0.05859,-0.662 -0.05859,-1c0,-0.338 0.02159,-0.671 0.05859,-1z"></path></g></g></g></svg>
