<svg width="200" height="200" viewBox="0 0 200 200" fill="none" xmlns="http://www.w3.org/2000/svg">
<g clip-path="url(#clip0_164_18958)">
<path d="M35.9314 159.675L35.6714 167.245C35.6714 167.245 103.081 169.905 104.191 170.395C104.191 170.395 103.931 171.395 104.191 171.545C104.451 171.695 108.771 173.055 108.641 173.725C108.511 174.395 149.821 177.725 149.821 177.725L182.631 178.215L187.351 173.945C162.538 169.811 137.445 167.585 112.291 167.285L99.3514 165.285L51.6314 161.095L38.5614 159.675H35.9314Z" fill="#9C9B9B"/>
<path d="M193.622 178.175C193.622 178.175 196.832 169.965 164.112 169.175C131.392 168.385 35.6716 158.605 35.6716 158.605C35.6062 159.851 35.6062 161.099 35.6716 162.345C35.7916 163.765 51.0416 164.205 51.0416 164.205C51.0416 164.205 50.7416 162.135 53.5316 162.205C56.3216 162.275 104.222 166.355 104.222 166.355C104.699 166.632 105.062 167.07 105.245 167.591C105.428 168.111 105.42 168.68 105.222 169.195C105.222 169.195 175.602 171.635 179.872 172.815C182.64 173.687 185.146 175.237 187.162 177.325L193.622 178.175Z" fill="#EFEFEF"/>
<path d="M5.03125 159.675L7.28125 146.485C7.28125 146.485 25.2812 157.845 37.4012 158.785L36.9912 164.345L5.03125 159.675Z" fill="#D0D0CF"/>
<path d="M80.9212 19.4754C80.9212 19.4754 92.0712 9.47539 105.471 25.0554C118.871 40.6354 94.0812 34.5354 94.0812 34.5354C90.1266 33.6391 86.0171 33.6802 82.0812 34.6554C76.0612 36.3154 80.9212 19.4754 80.9212 19.4754Z" fill="#CECDCC"/>
<path d="M90.9414 36.8554V32.2254L100.591 17.2854C100.591 17.2854 178.431 60.6154 197.851 112.135V112.275C198.683 113.554 199.191 115.016 199.331 116.535C199.331 118.535 194.951 122.055 194.061 121.995C193.171 121.935 153.551 59.7054 103.761 38.7954C103.761 38.7954 96.6914 35.8554 90.9414 36.8554Z" fill="#EFEFEF"/>
<path d="M63.1915 21.9153C63.1915 21.9153 40.6015 16.7953 22.1015 71.8953C3.60149 126.995 7.28149 146.485 7.28149 146.485L27.7615 159.055H37.3615C37.3615 159.055 42.8215 126.055 60.0115 114.705C60.0115 114.705 62.5015 112.095 62.2615 109.245C62.0215 106.395 45.6615 94.6653 45.6615 94.6653C45.6615 94.6653 52.9015 42.0153 63.1515 35.6053C63.1515 35.6053 70.2515 34.7753 71.6515 33.1153C73.0515 31.4553 63.1915 21.9153 63.1915 21.9153Z" fill="#EFEFEF"/>
<path d="M0.581351 163.675C0.491351 163.945 -0.748649 176.485 0.581351 177.105C1.91135 177.725 134.701 192.315 193.751 182.105C193.751 182.105 195.441 177.925 192.861 175.525C190.281 173.125 104.371 181.795 0.941351 163.675" fill="#CECDCC"/>
<path d="M5.03148 159.675C5.03148 159.675 45.0315 165.095 50.7415 166.965L102.761 174.795C102.761 174.795 32.6515 170.795 0.451476 163.845C0.491476 163.855 -0.128522 162.345 5.03148 159.675Z" fill="#EFEFEF"/>
<path d="M95.9812 16.2153C96.4012 16.4153 85.0712 25.7053 84.9812 26.8953C85.0335 27.7351 85.294 28.5487 85.7391 29.2627C86.1843 29.9767 86.8002 30.5687 87.5312 30.9853C87.5312 30.9853 89.3712 35.9853 88.6012 37.3853C86.2855 40.3463 83.0537 42.4563 79.4112 43.3853C73.6012 44.6853 70.4112 39.7653 72.9512 35.2053C72.9512 35.2053 72.9512 32.3553 69.7412 33.0653C66.5312 33.7753 63.0412 34.3753 61.3812 27.9053C59.7212 21.4353 74.7812 15.6353 74.7812 15.6353C74.7812 15.6353 86.0212 11.5953 95.9812 16.2153Z" fill="#E1E3E1"/>
<path d="M67.2712 42.5154H91.8312C92.892 42.5154 93.9094 42.9368 94.6596 43.687C95.4097 44.4371 95.8312 45.4545 95.8312 46.5154V58.1754H64.9312V44.8654C64.9311 44.2438 65.1774 43.6476 65.6159 43.2072C66.0545 42.7668 66.6496 42.518 67.2712 42.5154Z" fill="#E1E3E1"/>
<path d="M94.8512 57.6953H65.9613C64.0669 57.6953 62.5312 59.231 62.5312 61.1253V78.0953C62.5312 79.9897 64.0669 81.5253 65.9613 81.5253H94.8512C96.7456 81.5253 98.2812 79.9897 98.2812 78.0953V61.1253C98.2812 59.231 96.7456 57.6953 94.8512 57.6953Z" fill="#9C9B9B"/>
<path d="M95.7514 81.1753H65.4014C64.8933 81.1753 64.4814 81.5872 64.4814 82.0953V84.8753C64.4814 85.3834 64.8933 85.7953 65.4014 85.7953H95.7514C96.2595 85.7953 96.6714 85.3834 96.6714 84.8753V82.0953C96.6714 81.5872 96.2595 81.1753 95.7514 81.1753Z" fill="#E1E3E1"/>
<path d="M95.8812 85.7954H65.7312L62.7012 94.5154H98.4612L95.8812 85.7954Z" fill="#B78265"/>
<path d="M40.7613 95.0153L37.3813 110.135C37.3813 110.135 40.7613 113.135 64.6013 109.065C64.6013 109.065 92.1714 108.715 98.9214 105.515C105.671 102.315 104.311 103.515 105.001 99.6453C105.691 95.7753 103.551 93.9453 103.551 93.9453L40.7613 95.0153Z" fill="#E1E3E1"/>
<path d="M78.4413 39.8254C80.1865 39.8254 81.6012 38.4106 81.6012 36.6654C81.6012 34.9202 80.1865 33.5054 78.4413 33.5054C76.696 33.5054 75.2812 34.9202 75.2812 36.6654C75.2812 38.4106 76.696 39.8254 78.4413 39.8254Z" fill="#9C9B9B"/>
<path d="M68.0912 30.2153C69.8364 30.2153 71.2512 28.8005 71.2512 27.0553C71.2512 25.31 69.8364 23.8953 68.0912 23.8953C66.3459 23.8953 64.9312 25.31 64.9312 27.0553C64.9312 28.8005 66.3459 30.2153 68.0912 30.2153Z" fill="#9C9B9B"/>
</g>
<defs>
<clipPath id="clip0_164_18958">
<rect width="200" height="200" fill="white"/>
</clipPath>
</defs>
</svg>
