<svg xmlns="http://www.w3.org/2000/svg" viewBox="0 0 215.59 198.12"><defs><style>.cls-1{fill:#fff;}.cls-2,.cls-3,.cls-8{fill:none;}.cls-3,.cls-8{stroke:#b5b5b5;stroke-miterlimit:10;}.cls-3{stroke-width:6px;}.cls-4{fill:#b88265;}.cls-5{fill:#b5b5b5;}.cls-6{fill:#cdcdcd;}.cls-7{fill:#e1e3e2;}.cls-8{stroke-linecap:round;stroke-width:2px;}</style></defs><g id="Ebene_2" data-name="Ebene 2"><g id="Ebene_5" data-name="Ebene 5"><g id="Rechteck_2318" data-name="Rechteck 2318"><rect class="cls-1" width="215.59" height="198.12"/><rect class="cls-2" x="0.29" y="0.38" width="215.02" height="197.37"/></g><g id="BlueDripper"><path class="cls-3" d="M146.56,67.45S162.28,51.86,173,70.06C184.23,89.23,131.56,131,131.56,131"/><rect class="cls-4" x="80.86" y="37.18" width="48.71" height="12.79" rx="5.95"/><rect class="cls-5" x="60.51" y="156.06" width="90.29" height="10.48" rx="4.88"/><rect class="cls-6" x="66.81" y="147.78" width="77.19" height="9.52"/><rect class="cls-5" x="48.23" y="44.36" width="113.46" height="7.01"/><path class="cls-7" d="M48.23,51.37s45.29,88.48,18.58,96.41H144s-26.93-5.26,17.7-96.41Z"/><path class="cls-6" d="M85.12,51.37H48.23s45.29,88.48,18.58,96.41h41.76"/><line class="cls-8" x1="79.64" y1="58.52" x2="79.64" y2="105.06"/><line class="cls-8" x1="130.79" y1="58.52" x2="130.79" y2="105.06"/><line class="cls-8" x1="122.57" y1="58.52" x2="122.57" y2="96.24"/><line class="cls-8" x1="114.65" y1="58.52" x2="114.65" y2="89.18"/><line class="cls-8" x1="105.52" y1="58.52" x2="105.52" y2="89.18"/><line class="cls-8" x1="97" y1="58.52" x2="97" y2="89.18"/><line class="cls-8" x1="88.47" y1="58.52" x2="88.47" y2="96.24"/><path class="cls-8" d="M79.64,119.35s24.36-51.5,50,0"/><path class="cls-8" d="M87.25,121s17.5-37,35.93,0"/></g></g></g></svg>