<?xml version="1.0" encoding="UTF-8"?>
<svg xmlns="http://www.w3.org/2000/svg" xmlns:xlink="http://www.w3.org/1999/xlink" viewBox="0 0 32 32" width="32px" height="32px">
<g id="surface20938479">
<path style=" stroke:none;fill-rule:nonzero;fill:var(--beanconqueror-icon-color);fill-opacity:1;" d="M 16 32 C 7.164062 32 0 24.835938 0 16 C 0 7.164062 7.164062 0 16 0 C 24.835938 0 32 7.164062 32 16 C 32 24.835938 24.835938 32 16 32 Z M 16 32 "/>
<path style=" stroke:none;fill-rule:nonzero;fill:rgb(100%,100%,100%);fill-opacity:1;" d="M 22.972656 6.878906 L 22.59375 6.964844 C 22.59375 6.964844 19.894531 7.515625 18.257812 9.152344 C 17.511719 9.898438 16.976562 10.644531 16.617188 11.277344 C 16.554688 11.390625 16.527344 11.476562 16.476562 11.578125 L 15.996094 11.101562 L 15.007812 12.09375 L 15.761719 12.847656 L 9.761719 18.847656 L 7.761719 18.847656 L 6.5625 20.046875 L 11.953125 25.4375 L 13.152344 24.238281 L 13.152344 22.238281 L 19.152344 16.238281 L 19.90625 16.992188 L 20.898438 16.003906 L 20.421875 15.523438 C 20.523438 15.472656 20.609375 15.445312 20.722656 15.382812 C 21.351562 15.023438 22.101562 14.488281 22.847656 13.742188 C 24.484375 12.105469 25.035156 9.40625 25.035156 9.40625 L 25.121094 9.027344 Z M 22.5625 8.445312 L 23.554688 9.4375 C 23.414062 9.929688 22.878906 11.734375 21.859375 12.753906 C 21.203125 13.40625 20.550781 13.871094 20.03125 14.164062 C 19.773438 14.308594 19.546875 14.414062 19.378906 14.476562 C 19.375 14.476562 19.378906 14.476562 19.375 14.476562 L 17.523438 12.625 C 17.523438 12.621094 17.523438 12.625 17.523438 12.621094 C 17.585938 12.453125 17.691406 12.226562 17.835938 11.964844 C 18.128906 11.445312 18.59375 10.796875 19.246094 10.140625 C 20.265625 9.121094 22.070312 8.585938 22.5625 8.445312 Z M 21.511719 9.746094 C 21.320312 9.746094 21.128906 9.820312 20.984375 9.964844 L 18.753906 12.195312 L 19.804688 13.246094 L 22.035156 11.015625 C 22.324219 10.726562 22.324219 10.253906 22.035156 9.964844 C 21.890625 9.820312 21.699219 9.746094 21.511719 9.746094 Z M 16.753906 13.835938 L 18.164062 15.246094 L 12.601562 20.808594 L 11.191406 19.398438 Z M 8.742188 20.246094 L 10.0625 20.246094 L 11.753906 21.9375 L 11.753906 23.257812 Z M 8.742188 20.246094 "/>
</g>
</svg>
