<svg xmlns="http://www.w3.org/2000/svg" width="220.832" height="182.409" viewBox="0 0 220.832 182.409">
  <g id="Gruppe_203" data-name="Gruppe 203" transform="translate(-62.168 -135.775)">
    <circle id="Ellipse_419" data-name="Ellipse 419" cx="75" cy="75" r="75" transform="translate(133 160)"
            fill="#ff5957" opacity="0.494"/>
    <g id="Gruppe_169" data-name="Gruppe 169" transform="translate(-224.14 62.571)">
      <rect id="Rechteck_2167" data-name="Rechteck 2167" width="97.499" height="62.584" rx="25.502"
            transform="translate(315.438 110.213)" fill="#5c3844"/>
      <rect id="Rechteck_2168" data-name="Rechteck 2168" width="156.275" height="14.285" rx="3.502"
            transform="translate(286.308 147.413)" fill="#77455a"/>
      <rect id="Rechteck_2169" data-name="Rechteck 2169" width="156.275" height="14.285" rx="3.502"
            transform="translate(286.308 241.328)" fill="#77455a"/>
      <rect id="Rechteck_2170" data-name="Rechteck 2170" width="123.413" height="8.042"
            transform="translate(302.589 139.371)" fill="#5c3844"/>
      <rect id="Rechteck_2171" data-name="Rechteck 2171" width="33.973" height="6.582"
            transform="translate(347.389 104.085)" fill="#643e4b"/>
      <rect id="Rechteck_2172" data-name="Rechteck 2172" width="31.164" height="8.137" rx="3.316"
            transform="translate(368.208 75.149) rotate(90)" fill="#643e4b"/>
      <rect id="Rechteck_2173" data-name="Rechteck 2173" width="40.3" height="8.137" rx="3.316"
            transform="translate(347.261 88.461)" fill="#d84e50"/>
      <rect id="Rechteck_2174" data-name="Rechteck 2174" width="27.212" height="8.137" rx="3.316"
            transform="translate(379.377 91.307) rotate(-38.21)" fill="#d84e50"/>
      <rect id="Rechteck_2175" data-name="Rechteck 2175" width="137.128" height="79.927"
            transform="translate(295.166 161.641)" fill="#97485c"/>
      <rect id="Rechteck_2176" data-name="Rechteck 2176" width="39.165" height="80.167"
            transform="translate(393.111 161.359)" fill="#7f445c"/>
      <g id="Gruppe_168" data-name="Gruppe 168" transform="translate(311.978 177.806)">
        <rect id="Rechteck_2177" data-name="Rechteck 2177" width="105.485" height="47.301" transform="translate(0 0)"
              fill="#ff5957"/>
        <rect id="Rechteck_2178" data-name="Rechteck 2178" width="23.362" height="44.863"
              transform="translate(81.023 1.225)" fill="#d84e50"/>
      </g>
      <rect id="Rechteck_2179" data-name="Rechteck 2179" width="57.034" height="14.285" rx="3.502"
            transform="translate(385.549 147.419)" fill="#643e4b"/>
      <rect id="Rechteck_2180" data-name="Rechteck 2180" width="57.034" height="13.98" rx="3.502"
            transform="translate(385.549 241.389)" fill="#643e4b"/>
      <rect id="Rechteck_2181" data-name="Rechteck 2181" width="60.297" height="7.739"
            transform="translate(365.695 139.377)" fill="#4c2f3a"/>
      <rect id="Rechteck_2182" data-name="Rechteck 2182" width="12.22" height="6.615"
            transform="translate(369.179 104.083)" fill="#4c2f3a"/>
      <rect id="Rechteck_2183" data-name="Rechteck 2183" width="50.367" height="14.104"
            transform="translate(384.441 147.507)" fill="#643e4b"/>
      <rect id="Rechteck_2184" data-name="Rechteck 2184" width="50.367" height="13.923"
            transform="translate(384.441 241.508)" fill="#643e4b"/>
      <path id="Pfad_1364" data-name="Pfad 1364"
            d="M421.262,133.938s25.056,15.076,20.951,28.757h22.5s7.45-30.38-17.99-29.2Z"
            transform="translate(-52.088 -23.259)" fill="#4c2f3a"/>
      <rect id="Rechteck_2185" data-name="Rechteck 2185" width="44.425" height="14.219" rx="3.316"
            transform="translate(398.201 73.204)" fill="#c1484e"/>
      <rect id="Rechteck_2186" data-name="Rechteck 2186" width="10.053" height="14.219" rx="3.316"
            transform="translate(432.573 73.204)" fill="#aa3f4a"/>
    </g>
  </g>
</svg>
