<svg width="200" height="200" viewBox="0 0 200 200" fill="none" xmlns="http://www.w3.org/2000/svg">
<g opacity="0.51">
<path d="M132.639 99.6698L131.729 99.1198L128.479 97.8598C118.199 95.0898 84.479 96.7698 78.479 97.8598C74.259 98.6198 71.029 101.86 69.479 103.79C68.839 104.3 68.369 104.79 68.149 104.95H68.579L68.439 105.16L69.859 105.04L71.689 105.21C76.829 105.74 76.169 110.09 76.169 110.09C76.169 110.09 76.699 155.54 76.169 173.72C75.639 191.9 77.829 187.59 82.579 191C87.329 194.41 107.479 193.24 119.199 192.58C130.919 191.92 131.849 184.14 131.849 184.14C131.849 184.14 130.579 142.42 130.569 136.14C130.569 129.32 132.479 101.67 132.639 99.6698Z" fill="#E1E3E1"/>
<path d="M67.949 105.09L68.099 104.95C67.479 104.95 67.949 105.09 67.949 105.09Z" fill="#E1E3E1"/>
</g>
<path opacity="0.51" d="M130.119 91.0999H74.519V93.5999H130.119V91.0999Z" fill="#E1E3E1"/>
<path d="M128.539 93.5999H76.229V96.2399H128.539V93.5999Z" fill="#E1E3E1"/>
<path opacity="0.22" d="M117.729 121.47H87.039L85.479 96.2297H120.269L117.729 121.47Z" fill="#B78265"/>
<path opacity="0.26" d="M67.949 105C67.949 105 72.819 100.12 77.039 100.38C81.259 100.64 113.139 104.86 132.639 99.4597C132.639 99.4597 130.569 128.97 130.569 136.1C130.569 142.33 131.849 184.1 131.849 184.1C131.849 184.1 130.929 191.87 119.199 192.53C107.469 193.19 87.309 194.38 82.569 190.95C77.829 187.52 75.569 191.87 76.119 173.69C76.669 155.51 76.119 110.05 76.119 110.05C76.119 110.05 76.769 105.7 71.639 105.18C66.509 104.66 67.949 105 67.949 105Z" fill="#9C9B9B"/>
<path d="M129.009 66.1398H75.349L77.759 36.0498H125.489L129.009 66.1398Z" fill="#CECDCC"/>
<path d="M115.379 66.1396H90.769V70.7796H115.379V66.1396Z" fill="#B6B6B5"/>
<path d="M110.329 70.7798H95.999V76.3098H110.329V70.7798Z" fill="#CECDCC"/>
<path d="M103.169 78.2496C107.123 78.2496 110.329 77.3856 110.329 76.3196C110.329 75.2537 107.123 74.3896 103.169 74.3896C99.2146 74.3896 96.009 75.2537 96.009 76.3196C96.009 77.3856 99.2146 78.2496 103.169 78.2496Z" fill="#CECDCC"/>
<path opacity="0.51" d="M129.009 15.7397H75.349V66.1397H129.009V15.7397Z" fill="#E1E3E1"/>
<path opacity="0.51" d="M127.909 82.7798L129.289 82.5698L128.289 66.0298H76.189L75.399 82.5898L78.299 82.7998L77.539 86.5898H128.829L127.989 82.7698L127.909 82.7798Z" fill="#E1E3E1"/>
<path d="M131.129 11.5098H73.339C73.1828 11.51 73.031 11.4579 72.9077 11.3619C72.7845 11.2658 72.697 11.1313 72.659 10.9798L71.589 6.85976C71.5649 6.77045 71.5587 6.67725 71.5709 6.58555C71.583 6.49384 71.6132 6.40545 71.6597 6.32548C71.7062 6.24552 71.768 6.17555 71.8417 6.11965C71.9154 6.06374 71.9995 6.02299 72.089 5.99976H72.269H132.089C132.275 5.99976 132.453 6.07351 132.584 6.20478C132.715 6.33606 132.789 6.5141 132.789 6.69976C132.794 6.75298 132.794 6.80653 132.789 6.85976L131.789 10.9898C131.75 11.1362 131.665 11.266 131.546 11.3598C131.427 11.4536 131.28 11.5062 131.129 11.5098Z" fill="#E1E3E1"/>
<path opacity="0.22" d="M74.269 11.5098H130.349C130.349 12.1728 130.086 12.8087 129.617 13.2775C129.148 13.7464 128.512 14.0098 127.849 14.0098H76.549C75.947 14.0098 75.3696 13.7706 74.9439 13.3449C74.5182 12.9192 74.279 12.3418 74.279 11.7398V11.5098H74.269Z" fill="#B78265"/>
</svg>
