<svg width="200" height="200" viewBox="0 0 200 200" fill="none" xmlns="http://www.w3.org/2000/svg">
<path opacity="0.4" d="M37.5385 45.0825C36.8385 44.3825 36.2085 42.4425 37.1985 42.3525C57.1985 40.5025 156.378 40.6925 161.258 42.7625C166.648 45.0425 126.978 89.4425 117.628 140.992C117.628 140.992 117.628 140.992 117.628 141.052C117.488 141.612 116.258 149.052 117.008 154.212C117.548 157.842 90.1685 156.402 83.7685 155.802C83.6148 155.787 83.466 155.74 83.3312 155.664C83.1965 155.589 83.0786 155.487 82.9849 155.364C82.8912 155.241 82.8236 155.1 82.7864 154.951C82.7492 154.801 82.7431 154.645 82.7685 154.492C83.0785 152.602 83.2685 148.362 81.1485 141.022C78.2585 131.082 52.5785 59.8625 37.5385 45.0825Z" fill="#9C9B9B"/>
<mask id="mask0_164_19356" style="mask-type:luminance" maskUnits="userSpaceOnUse" x="36" y="41" width="126" height="116">
<path d="M37.5385 45.0825C36.8385 44.3825 36.2085 42.4425 37.1985 42.3525C57.1985 40.5025 156.378 40.6925 161.258 42.7625C166.648 45.0425 126.978 89.4425 117.628 140.992C117.628 140.992 117.628 140.992 117.628 141.052C117.488 141.612 116.258 149.052 117.008 154.212C117.548 157.842 90.1685 156.402 83.7685 155.802C83.6148 155.787 83.466 155.74 83.3312 155.664C83.1965 155.589 83.0786 155.487 82.9849 155.364C82.8912 155.241 82.8236 155.1 82.7864 154.951C82.7492 154.801 82.7431 154.645 82.7685 154.492C83.0785 152.602 83.2685 148.362 81.1485 141.022C78.2585 131.082 52.5785 59.8625 37.5385 45.0825Z" fill="white"/>
</mask>
<g mask="url(#mask0_164_19356)">
<path d="M34.0185 17.4724C105.758 17.4724 105.758 47.4724 177.498 47.4724" stroke="#9B9B9B" stroke-miterlimit="10"/>
<path d="M34.0185 20.5425C105.758 20.5425 105.758 50.5425 177.498 50.5425" stroke="#9B9B9B" stroke-miterlimit="10"/>
<path d="M34.0185 23.6023C105.758 23.6023 105.758 53.6023 177.498 53.6023" stroke="#9B9B9B" stroke-miterlimit="10"/>
<path d="M34.0185 26.6724C105.758 26.6724 105.758 56.6724 177.498 56.6724" stroke="#9B9B9B" stroke-miterlimit="10"/>
<path d="M34.0185 29.7324C105.758 29.7324 105.758 59.7324 177.498 59.7324" stroke="#9B9B9B" stroke-miterlimit="10"/>
<path d="M34.0185 32.7925C105.758 32.7925 105.758 62.7925 177.498 62.7925" stroke="#9B9B9B" stroke-miterlimit="10"/>
<path d="M34.0185 35.8523C105.758 35.8523 105.758 65.8523 177.498 65.8523" stroke="#9B9B9B" stroke-miterlimit="10"/>
<path d="M34.0185 38.9224C105.758 38.9224 105.758 68.9224 177.498 68.9224" stroke="#9B9B9B" stroke-miterlimit="10"/>
<path d="M34.0185 41.9824C105.758 41.9824 105.758 71.9824 177.498 71.9824" stroke="#9B9B9B" stroke-miterlimit="10"/>
<path d="M34.0185 45.0425C105.758 45.0425 105.758 75.0425 177.498 75.0425" stroke="#9B9B9B" stroke-miterlimit="10"/>
<path d="M34.0185 48.1123C105.758 48.1123 105.758 78.1123 177.498 78.1123" stroke="#9B9B9B" stroke-miterlimit="10"/>
<path d="M34.0185 51.1724C105.758 51.1724 105.758 81.1724 177.498 81.1724" stroke="#9B9B9B" stroke-miterlimit="10"/>
<path d="M34.0185 54.2324C105.758 54.2324 105.758 84.2324 177.498 84.2324" stroke="#9B9B9B" stroke-miterlimit="10"/>
<path d="M34.0185 57.3025C105.758 57.3025 105.758 87.3025 177.498 87.3025" stroke="#9B9B9B" stroke-miterlimit="10"/>
<path d="M34.0185 60.3623C105.758 60.3623 105.758 90.3623 177.498 90.3623" stroke="#9B9B9B" stroke-miterlimit="10"/>
<path d="M34.0185 63.4224C105.758 63.4224 105.758 93.4224 177.498 93.4224" stroke="#9B9B9B" stroke-miterlimit="10"/>
<path d="M34.0185 66.4924C105.758 66.4924 105.758 96.4924 177.498 96.4924" stroke="#9B9B9B" stroke-miterlimit="10"/>
<path d="M34.0185 69.5525C105.758 69.5525 105.758 99.5525 177.498 99.5525" stroke="#9B9B9B" stroke-miterlimit="10"/>
<path d="M34.0185 72.6123C105.758 72.6123 105.758 102.612 177.498 102.612" stroke="#9B9B9B" stroke-miterlimit="10"/>
<path d="M34.0185 75.6724C105.758 75.6724 105.758 105.672 177.498 105.672" stroke="#9B9B9B" stroke-miterlimit="10"/>
<path d="M34.0185 78.7424C105.758 78.7424 105.758 108.742 177.498 108.742" stroke="#9B9B9B" stroke-miterlimit="10"/>
<path d="M34.0185 81.8025C105.758 81.8025 105.758 111.802 177.498 111.802" stroke="#9B9B9B" stroke-miterlimit="10"/>
<path d="M34.0185 84.8723C105.758 84.8723 105.758 114.872 177.498 114.872" stroke="#9B9B9B" stroke-miterlimit="10"/>
<path d="M34.0185 87.9324C105.758 87.9324 105.758 117.932 177.498 117.932" stroke="#9B9B9B" stroke-miterlimit="10"/>
<path d="M34.0185 90.9924C105.758 90.9924 105.758 120.992 177.498 120.992" stroke="#9B9B9B" stroke-miterlimit="10"/>
<path d="M34.0185 94.0625C105.758 94.0625 105.758 124.062 177.498 124.062" stroke="#9B9B9B" stroke-miterlimit="10"/>
<path d="M34.0185 97.1223C105.758 97.1223 105.758 127.122 177.498 127.122" stroke="#9B9B9B" stroke-miterlimit="10"/>
<path d="M34.0185 100.182C105.758 100.182 105.758 130.182 177.498 130.182" stroke="#9B9B9B" stroke-miterlimit="10"/>
<path d="M34.0185 103.252C105.758 103.252 105.758 133.252 177.498 133.252" stroke="#9B9B9B" stroke-miterlimit="10"/>
<path d="M34.0185 106.312C105.758 106.312 105.758 136.312 177.498 136.312" stroke="#9B9B9B" stroke-miterlimit="10"/>
<path d="M34.0185 109.372C105.758 109.372 105.758 139.372 177.498 139.372" stroke="#9B9B9B" stroke-miterlimit="10"/>
<path d="M34.0185 112.442C105.758 112.442 105.758 142.442 177.498 142.442" stroke="#9B9B9B" stroke-miterlimit="10"/>
<path d="M34.0185 115.502C105.758 115.502 105.758 145.502 177.498 145.502" stroke="#9B9B9B" stroke-miterlimit="10"/>
<path d="M34.0185 118.562C105.758 118.562 105.758 148.562 177.498 148.562" stroke="#9B9B9B" stroke-miterlimit="10"/>
<path d="M34.0185 121.672C105.758 121.672 105.758 151.672 177.498 151.672" stroke="#9B9B9B" stroke-miterlimit="10"/>
<path d="M34.0185 124.672C105.758 124.672 105.758 154.672 177.498 154.672" stroke="#9B9B9B" stroke-miterlimit="10"/>
<path d="M34.0185 127.752C105.758 127.752 105.758 157.752 177.498 157.752" stroke="#9B9B9B" stroke-miterlimit="10"/>
<path d="M34.0185 130.823C105.758 130.823 105.758 160.823 177.498 160.823" stroke="#9B9B9B" stroke-miterlimit="10"/>
<path d="M34.0185 133.882C105.758 133.882 105.758 163.882 177.498 163.882" stroke="#9B9B9B" stroke-miterlimit="10"/>
<path d="M34.0185 136.942C105.758 136.942 105.758 166.942 177.498 166.942" stroke="#9B9B9B" stroke-miterlimit="10"/>
<path d="M34.0185 140.012C105.758 140.012 105.758 170.012 177.498 170.012" stroke="#9B9B9B" stroke-miterlimit="10"/>
<path d="M34.0185 143.073C105.758 143.073 105.758 173.073 177.498 173.073" stroke="#9B9B9B" stroke-miterlimit="10"/>
<path d="M34.0185 146.132C105.758 146.132 105.758 176.132 177.498 176.132" stroke="#9B9B9B" stroke-miterlimit="10"/>
</g>
<path opacity="0.45" d="M152.498 99.9524H48.3785C48.3785 99.9524 24.6585 48.5924 30.1885 43.8924C35.7185 39.1924 164.818 40.9824 169.858 43.8924C174.898 46.8024 152.498 99.9524 152.498 99.9524Z" fill="#E1E3E1"/>
<path opacity="0.45" d="M164.838 141.492C160.988 144.292 35.8385 146.552 35.0985 141.312C34.3585 136.072 45.0985 124.152 47.4085 115.012C49.7185 105.872 154.608 108.822 152.978 114.472C151.348 120.122 168.698 138.672 164.838 141.492Z" fill="#E1E3E1"/>
<path opacity="0.45" d="M135.238 158.863H67.2384C66.3888 158.865 65.5728 158.531 64.9692 157.933C64.3656 157.335 64.0237 156.522 64.0184 155.673V144.223L137.568 143.603V156.533C137.568 157.151 137.323 157.743 136.886 158.18C136.449 158.617 135.856 158.863 135.238 158.863Z" fill="#E1E3E1"/>
<path opacity="0.45" d="M146.578 101.122H54.7885C54.7885 101.122 30.0285 49.8624 35.0085 45.6724C39.9885 41.4824 160.918 42.3624 165.398 44.9824C169.878 47.6024 146.578 101.122 146.578 101.122Z" fill="#E1E3E1"/>
<path opacity="0.45" d="M158.148 138.253C154.678 140.783 42.0585 142.813 41.3785 138.103C40.6985 133.393 50.3285 122.673 52.4585 114.433C54.5885 106.193 148.938 108.853 147.458 113.933C145.978 119.013 161.618 135.733 158.148 138.253Z" fill="#E1E3E1"/>
<path opacity="0.45" d="M131.118 155.322H69.2984C68.524 155.322 67.7813 155.015 67.2337 154.467C66.6861 153.92 66.3784 153.177 66.3784 152.402V144.272L133.238 143.742V153.202C133.238 153.481 133.184 153.757 133.077 154.014C132.971 154.271 132.814 154.505 132.618 154.701C132.421 154.898 132.187 155.055 131.93 155.161C131.673 155.268 131.397 155.322 131.118 155.322Z" fill="#E1E3E1"/>
<path d="M152.888 99.9524H47.1185V115.652H152.888V99.9524Z" fill="#B39654"/>
<path opacity="0.23" d="M73.7785 99.9524H62.2585V115.652H73.7785V99.9524Z" fill="white"/>
<path opacity="0.12" d="M132.208 99.9524H128.608V115.652H132.208V99.9524Z" fill="white"/>
<path opacity="0.18" d="M141.968 99.9524H134.608V115.652H141.968V99.9524Z" fill="white"/>
</svg>
