<svg xmlns="http://www.w3.org/2000/svg" width="18" height="18" viewBox="0 0 18 18">
  <path id="icons8-target" d="M23,14a9,9,0,1,0,9,9A9,9,0,0,0,23,14Zm0,1.08A7.92,7.92,0,1,1,15.08,23,7.92,7.92,0,0,1,23,15.08Zm0,1.458A6.462,6.462,0,1,0,29.462,23,6.468,6.468,0,0,0,23,16.538Zm0,1.08A5.382,5.382,0,1,1,17.618,23,5.385,5.385,0,0,1,23,17.618Zm0,1.458A3.924,3.924,0,1,0,26.924,23,3.933,3.933,0,0,0,23,19.076Zm0,1.08A2.844,2.844,0,1,1,20.156,23,2.85,2.85,0,0,1,23,20.156Zm0,1.98a.864.864,0,1,0,.864.864A.864.864,0,0,0,23,22.136Z" transform="translate(-14 -14)" fill="#AE9F87"/>
</svg>
