<svg xmlns="http://www.w3.org/2000/svg" xmlns:xlink="http://www.w3.org/1999/xlink" viewBox="0,0,256,256" width="100px" height="100px"><g transform="translate(38.4,38.4) scale(0.7,0.7)"><g fill-opacity="0" fill="var(--beanconqueror-icon-color)" fill-rule="nonzero" stroke="none" stroke-width="1" stroke-linecap="butt" stroke-linejoin="miter" stroke-miterlimit="10" stroke-dasharray="" stroke-dashoffset="0" font-family="none" font-weight="none" font-size="none" text-anchor="none" style="mix-blend-mode: normal"><path d="M-54.85714,310.85714v-365.71429h365.71429v365.71429z" id="bgRectangle"></path></g><g fill="var(--beanconqueror-icon-color)" fill-rule="nonzero" stroke="none" stroke-width="1" stroke-linecap="butt" stroke-linejoin="miter" stroke-miterlimit="10" stroke-dasharray="" stroke-dashoffset="0" font-family="none" font-weight="none" font-size="none" text-anchor="none" style="mix-blend-mode: normal"><path d="M128,310.85714c-100.98921,0 -182.85714,-81.86793 -182.85714,-182.85714v0c0,-100.98921 81.86793,-182.85714 182.85714,-182.85714v0c100.98921,0 182.85714,81.86793 182.85714,182.85714v0c0,100.98921 -81.86793,182.85714 -182.85714,182.85714z" id="shape"></path></g><g fill="#ffffff" fill-rule="nonzero" stroke="none" stroke-width="1" stroke-linecap="butt" stroke-linejoin="miter" stroke-miterlimit="10" stroke-dasharray="" stroke-dashoffset="0" font-family="none" font-weight="none" font-size="none" text-anchor="none" style="mix-blend-mode: normal"><g transform="scale(5.12,5.12)"><path d="M9,4c-2.74952,0 -5,2.25048 -5,5v32c0,2.74952 2.25048,5 5,5h32c2.74952,0 5,-2.25048 5,-5v-32c0,-2.74952 -2.25048,-5 -5,-5zM9,6h32c1.66848,0 3,1.33152 3,3v32c0,1.66848 -1.33152,3 -3,3h-32c-1.66848,0 -3,-1.33152 -3,-3v-32c0,-1.66848 1.33152,-3 3,-3zM11,8v1v12h28v-13zM13,10h24v9h-24zM18,11c-0.55226,0.00006 -0.99994,0.44774 -1,1v5c0.00006,0.55226 0.44774,0.99994 1,1h3c0.55226,-0.00006 0.99994,-0.44774 1,-1v-5c-0.00006,-0.55226 -0.44774,-0.99994 -1,-1zM27,11c-0.55226,0.00006 -0.99994,0.44774 -1,1v5c0.00006,0.55226 0.44774,0.99994 1,1h3c0.55226,-0.00006 0.99994,-0.44774 1,-1v-5c-0.00006,-0.55226 -0.44774,-0.99994 -1,-1zM33,11v7h2v-7zM19,13h1v3h-1zM28,13h1v3h-1zM23,16v2h2v-2zM12.24219,24.77344c-0.35231,-0.00831 -0.683,0.16941 -0.87046,0.46783c-0.18746,0.29842 -0.20403,0.67347 -0.04361,0.98725c0.89264,1.79912 1.9696,3.31265 3.16602,4.57227c-0.03241,0.24398 -0.04909,0.50243 -0.04883,0.7793c-0.033,1.785 0.52805,3.53825 1.62305,5.03125c0.962,1.308 2.34624,2.35428 4.11523,3.11328c0.254,0.109 0.52111,0.16211 0.78711,0.16211c0.448,0 0.89095,-0.14945 1.25195,-0.43945l0.00195,-0.00195c0.397,0.392 0.67116,0.64886 0.78516,0.75586c0.337,0.317 0.79386,0.52955 1.25586,0.56055c0.242,0.016 0.49667,0.02344 0.76367,0.02344c2.451,0 5.0715,-0.71208 7.1875,-1.95508c2.868,-1.686 4.23678,-3.34331 5.42578,-6.57031c0.779,-2.114 0.53977,-4.27367 0.50977,-4.51367c-0.104,-0.833 -0.71716,-1.51217 -1.53516,-1.70117c-0.151,-0.035 -0.30022,-0.05273 -0.44922,-0.05273c-0.666,0 -1.30273,0.3332 -1.67773,0.9082c-0.246,0.378 -0.53273,0.46336 -1.92773,0.56836c-1.062,0.08 -2.38356,0.1797 -3.72656,0.8457c-0.786,0.389 -1.67634,0.83203 -2.65234,0.83203c-0.218,0 -0.44016,-0.02341 -0.66016,-0.06641c-0.286,-0.056 -0.95583,-0.28244 -1.17383,-0.39844c-0.23,-0.12 -0.35455,-0.19514 -0.43555,-0.24414l-0.06641,-0.03906c-0.309,-0.182 -0.66058,-0.2793 -1.01758,-0.2793c-0.047,0 -0.09558,0.00286 -0.14258,0.00586c-0.432,0.031 -0.97005,0.07509 -1.49805,0.12109c-0.04,-0.101 -0.08848,-0.19992 -0.14648,-0.29492c-0.368,-0.608 -1.02289,-0.96484 -1.71289,-0.96484c-0.15,0 -0.30017,0.01578 -0.45117,0.05078c-1.39487,0.32434 -2.51909,0.93363 -3.44531,1.83398c-0.85052,-1.00719 -1.6372,-2.16625 -2.31445,-3.53125c-0.16277,-0.3385 -0.50147,-0.55726 -0.87695,-0.56641zM36.16797,27.99219c0,0 0.2297,1.85522 -0.4043,3.57422c-1.057,2.87 -2.1385,4.11211 -4.5625,5.53711c-2.1,1.234 -4.43388,1.68164 -6.17187,1.68164c-0.219,0 -0.42895,-0.00748 -0.62695,-0.02148c-0.115,-0.109 -0.50399,-0.46973 -1.08398,-1.05273c-0.659,-0.664 -1.41289,-1.47973 -1.71289,-1.92773c-0.098,-0.144 -0.25783,-0.22656 -0.42383,-0.22656c-0.062,0 -0.12555,0.01116 -0.18555,0.03516c-0.222,0.088 -0.35336,0.31864 -0.31836,0.55664c0.092,0.61 0.19892,1.23128 0.29492,1.73828c-1.28,-0.549 -2.47106,-1.34598 -3.28906,-2.45898c-0.61032,-0.83232 -1.01937,-1.79136 -1.16992,-2.84375c5.24665,3.92347 11.96745,3.75039 16.51563,0.19531c0.30042,-0.21316 0.45933,-0.57421 0.41363,-0.93973c-0.04571,-0.36551 -0.28864,-0.67631 -0.63229,-0.80894c-0.34366,-0.13262 -0.7324,-0.0656 -1.0118,0.17444c-4.08465,3.19276 -10.29101,3.33328 -14.98047,-0.89453c0.77841,-0.75777 1.66738,-1.12783 2.51367,-1.32422c-0.282,0.326 -0.50781,0.63477 -0.50781,0.63477c-0.117,0.164 -0.12444,0.38264 -0.02344,0.55664c0.092,0.16 0.2585,0.25586 0.4375,0.25586c0.017,0 0.03573,0.00005 0.05273,-0.00195c0,0 2.26906,-0.2215 3.53906,-0.3125c0.099,0.058 0.25699,0.15813 0.58398,0.32813c0.411,0.218 1.27452,0.5077 1.72852,0.5957c0.362,0.071 0.70802,0.10156 1.04102,0.10156c1.428,0 2.59701,-0.57106 3.54102,-1.03906c2.409,-1.193 5.03336,0.05172 6.44336,-2.11328z"></path></g></g></g></svg>