<svg fill-rule="nonzero" height="64px" viewBox="0,0,256,256" width="64px" xmlns="http://www.w3.org/2000/svg" xmlns:xlink="http://www.w3.org/1999/xlink"><g transform="translate(40,40) scale(0.6875,0.6875)"><g fill="#cdc2ac" fill-rule="nonzero" font-family="none" font-size="none" font-weight="none" stroke="none" stroke-dasharray="" stroke-dashoffset="0" stroke-linecap="butt" stroke-linejoin="miter" stroke-miterlimit="10" stroke-width="1" style="mix-blend-mode: normal" text-anchor="none"><path d="M128,314.18182c-102.82538,0 -186.18182,-83.35644 -186.18182,-186.18182v0c0,-102.82538 83.35644,-186.18182 186.18182,-186.18182v0c102.82538,0 186.18182,83.35644 186.18182,186.18182v0c0,102.82538 -83.35644,186.18182 -186.18182,186.18182z" id="shape"></path></g><g fill="#ffffff" fill-rule="nonzero" font-family="none" font-size="none" font-weight="none" stroke="none" stroke-dasharray="" stroke-dashoffset="0" stroke-linecap="butt" stroke-linejoin="miter" stroke-miterlimit="10" stroke-width="1" style="mix-blend-mode: normal" text-anchor="none"><g transform="scale(2,2)"><path d="M64.75391,6.00391c-14.12228,-0.17598 -28.29687,4.75625 -39.45312,14.79687c-1.3,1.2 -1.30156,3.19844 -0.10156,4.39844c1.1,1.1 2.90156,1.20156 4.10156,0.10156c9.6,-8.6 21.79922,-13.30078 34.69922,-13.30078c11.2,0 21.90078,3.49961 30.80078,10.09961h-4.70117c-1.6,0 -3.09922,1.20078 -3.19922,2.80078c-0.1,1.7 1.3,3.19922 3,3.19922h13c1.7,0 3,-1.3 3,-3v-12.79883c0,-1.6 -1.20078,-3.10117 -2.80078,-3.20117c-1.7,-0.1 -3.19922,1.3 -3.19922,3v6.30078c-10.26562,-8.10937 -22.68565,-12.24121 -35.14648,-12.39648zM114.25977,38.82813c-0.39063,0.00937 -0.78516,0.09648 -1.16016,0.27148c-1.5,0.7 -2.2,2.4 -1.5,4c8.7,19.8 4.50117,42.50078 -10.79883,57.80078c-9.9,9.7 -22.90078,15.09961 -36.80078,15.09961c-11.2,0 -21.90078,-3.49961 -30.80078,-10.09961h4.90039c1.7,0 3,-1.3 3,-3c0,-1.7 -1.3,-3 -3,-3h-13c-1.7,0 -3,1.3 -3,3v13c0,1.7 1.3,3 3,3c1.7,0 3,-1.3 3,-3v-6.30078c10.5,8.2 23.20039,12.40039 35.90039,12.40039c14.9,0 29.7,-5.7 41,-17c17.1,-17.1 21.79961,-42.30039 12.09961,-64.40039c-0.525,-1.125 -1.66797,-1.79961 -2.83984,-1.77148zM13.3418,39.58594c-1.16719,0.01406 -2.29219,0.68945 -2.74219,1.81445c-2.4,5.8 -3.90039,11.89961 -4.40039,18.09961c-0.1,1.7 1.10078,3.09922 2.80078,3.19922h0.19922c1.6,0 2.9,-1.19883 3,-2.79883c0.4,-5.6 1.80039,-11.10117 3.90039,-16.20117c0.6,-1.5 -0.09961,-3.19844 -1.59961,-3.89844c-0.375,-0.15 -0.76914,-0.21953 -1.1582,-0.21484zM11.5,77.69922c-0.76926,-0.0001 -1.50705,0.30544 -2.051,0.84939c-0.54395,0.54395 -0.84949,1.28174 -0.84939,2.051c-0.0001,0.76926 0.30544,1.50705 0.84939,2.051c0.54395,0.54395 1.28174,0.84949 2.051,0.84939c0.76926,0.0001 1.50705,-0.30544 2.051,-0.84939c0.54395,-0.54395 0.84949,-1.28174 0.84939,-2.051c0.0001,-0.76926 -0.30544,-1.50705 -0.84939,-2.051c-0.54395,-0.54395 -1.28174,-0.84949 -2.051,-0.84939z"></path></g></g></g></svg>
