<svg xmlns="http://www.w3.org/2000/svg" xmlns:xlink="http://www.w3.org/1999/xlink" viewBox="0 0 215.59 198.12"><defs><style>.cls-1,.cls-5{fill:none;}.cls-10,.cls-2,.cls-8,.cls-9{fill:#fff;}.cls-3{fill:#9c9b9b;opacity:0.4;}.cls-4{clip-path:url(#clip-path);}.cls-5{stroke:#9b9b9b;stroke-miterlimit:10;}.cls-6{fill:#e1e3e1;opacity:0.45;}.cls-7{fill:#b39654;}.cls-8{opacity:0.23;}.cls-9{opacity:0.12;}.cls-10{opacity:0.18;}</style><clipPath id="clip-path"><path class="cls-1" d="M41.62,49.41c-.7-.7-1.33-2.64-.34-2.73,20-1.85,119.18-1.66,124.06.41,5.39,2.28-34.28,46.68-43.63,98.23,0,0,0,0,0,.06-.14.56-1.37,8-.62,13.16.54,3.63-26.84,2.19-33.24,1.59a1.13,1.13,0,0,1-1-1.31c.31-1.89.5-6.13-1.62-13.47C82.34,135.41,56.66,64.19,41.62,49.41Z"/></clipPath></defs><g id="Ebene_2" data-name="Ebene 2"><g id="Ebene_1-2" data-name="Ebene 1"><g id="Tornado_Duo" data-name="Tornado Duo"><rect class="cls-2" width="215.59" height="198.12"/><path class="cls-3" d="M41.62,49.41c-.7-.7-1.33-2.64-.34-2.73,20-1.85,119.18-1.66,124.06.41,5.39,2.28-34.28,46.68-43.63,98.23,0,0,0,0,0,.06-.14.56-1.37,8-.62,13.16.54,3.63-26.84,2.19-33.24,1.59a1.13,1.13,0,0,1-1-1.31c.31-1.89.5-6.13-1.62-13.47C82.34,135.41,56.66,64.19,41.62,49.41Z"/><g class="cls-4"><path class="cls-5" d="M38.1,21.8c71.74,0,71.74,30,143.48,30"/><path class="cls-5" d="M38.1,24.87c71.74,0,71.74,30,143.48,30"/><path class="cls-5" d="M38.1,27.93c71.74,0,71.74,30,143.48,30"/><path class="cls-5" d="M38.1,31c71.74,0,71.74,30,143.48,30"/><path class="cls-5" d="M38.1,34.06c71.74,0,71.74,30,143.48,30"/><path class="cls-5" d="M38.1,37.12c71.74,0,71.74,30,143.48,30"/><path class="cls-5" d="M38.1,40.18c71.74,0,71.74,30,143.48,30"/><path class="cls-5" d="M38.1,43.25c71.74,0,71.74,30,143.48,30"/><path class="cls-5" d="M38.1,46.31c71.74,0,71.74,30,143.48,30"/><path class="cls-5" d="M38.1,49.37c71.74,0,71.74,30,143.48,30"/><path class="cls-5" d="M38.1,52.44c71.74,0,71.74,30,143.48,30"/><path class="cls-5" d="M38.1,55.5c71.74,0,71.74,30,143.48,30"/><path class="cls-5" d="M38.1,58.56c71.74,0,71.74,30,143.48,30"/><path class="cls-5" d="M38.1,61.63c71.74,0,71.74,30,143.48,30"/><path class="cls-5" d="M38.1,64.69c71.74,0,71.74,30,143.48,30"/><path class="cls-5" d="M38.1,67.75c71.74,0,71.74,30,143.48,30"/><path class="cls-5" d="M38.1,70.82c71.74,0,71.74,30,143.48,30"/><path class="cls-5" d="M38.1,73.88c71.74,0,71.74,30,143.48,30"/><path class="cls-5" d="M38.1,76.94c71.74,0,71.74,30,143.48,30"/><path class="cls-5" d="M38.1,80c71.74,0,71.74,30,143.48,30"/><path class="cls-5" d="M38.1,83.07c71.74,0,71.74,30,143.48,30"/><path class="cls-5" d="M38.1,86.13c71.74,0,71.74,30,143.48,30"/><path class="cls-5" d="M38.1,89.2c71.74,0,71.74,30,143.48,30"/><path class="cls-5" d="M38.1,92.26c71.74,0,71.74,30,143.48,30"/><path class="cls-5" d="M38.1,95.32c71.74,0,71.74,30,143.48,30"/><path class="cls-5" d="M38.1,98.39c71.74,0,71.74,30,143.48,30"/><path class="cls-5" d="M38.1,101.45c71.74,0,71.74,30,143.48,30"/><path class="cls-5" d="M38.1,104.51c71.74,0,71.74,30,143.48,30"/><path class="cls-5" d="M38.1,107.58c71.74,0,71.74,30,143.48,30"/><path class="cls-5" d="M38.1,110.64c71.74,0,71.74,30,143.48,30"/><path class="cls-5" d="M38.1,113.7c71.74,0,71.74,30,143.48,30"/><path class="cls-5" d="M38.1,116.77c71.74,0,71.74,30,143.48,30"/><path class="cls-5" d="M38.1,119.83c71.74,0,71.74,30,143.48,30"/><path class="cls-5" d="M38.1,122.89c71.74,0,71.74,30,143.48,30"/><path class="cls-5" d="M38.1,126c71.74,0,71.74,30,143.48,30"/><path class="cls-5" d="M38.1,129c71.74,0,71.74,30,143.48,30"/><path class="cls-5" d="M38.1,132.08c71.74,0,71.74,30,143.48,30"/><path class="cls-5" d="M38.1,135.15c71.74,0,71.74,30,143.48,30"/><path class="cls-5" d="M38.1,138.21c71.74,0,71.74,30,143.48,30"/><path class="cls-5" d="M38.1,141.27c71.74,0,71.74,30,143.48,30"/><path class="cls-5" d="M38.1,144.34c71.74,0,71.74,30,143.48,30"/><path class="cls-5" d="M38.1,147.4c71.74,0,71.74,30,143.48,30"/><path class="cls-5" d="M38.1,150.46c71.74,0,71.74,30,143.48,30"/></g><path class="cls-6" d="M156.58,104.28H52.46S28.74,52.92,34.27,48.22s134.63-2.91,139.67,0S156.58,104.28,156.58,104.28Z"/><path class="cls-6" d="M168.92,145.82c-3.85,2.8-129,5.06-129.74-.18s10-17.16,12.31-26.3,107.2-6.19,105.57-.54S172.78,143,168.92,145.82Z"/><path class="cls-6" d="M139.32,163.19h-68A3.21,3.21,0,0,1,68.1,160V148.55l73.55-.62v12.93A2.33,2.33,0,0,1,139.32,163.19Z"/><path class="cls-6" d="M150.66,105.45H58.87S34.11,54.19,39.09,50,165,46.69,169.48,49.31,150.66,105.45,150.66,105.45Z"/><path class="cls-6" d="M162.23,142.58c-3.47,2.53-116.09,4.56-116.77-.15S54.41,127,56.54,118.76s96.48-5.58,95-.5S165.7,140.06,162.23,142.58Z"/><path class="cls-6" d="M135.2,159.65H73.38a2.92,2.92,0,0,1-2.92-2.92V148.6l66.86-.53v9.46A2.12,2.12,0,0,1,135.2,159.65Z"/><rect class="cls-7" x="51.2" y="104.28" width="105.77" height="15.7"/><rect class="cls-8" x="66.34" y="104.28" width="11.52" height="15.7"/><rect class="cls-9" x="132.69" y="104.28" width="3.6" height="15.7"/><rect class="cls-10" x="138.69" y="104.28" width="7.36" height="15.7"/></g></g></g></svg>