<svg xmlns="http://www.w3.org/2000/svg" width="16" height="20.571" viewBox="0 0 16 20.571">
  <path id="icons8-place_marker" d="M33.11,14a7.941,7.941,0,0,0-6.527,12.561.429.429,0,0,0,.082.123l5.642,7.5.021.021a1.015,1.015,0,0,0,.783.371,1.087,1.087,0,0,0,.783-.371l.021-.021,5.621-7.5a.642.642,0,0,0,.144-.185A7.96,7.96,0,0,0,33.11,14Zm0,1.236a6.754,6.754,0,0,1,6.754,6.733,6.673,6.673,0,0,1-1.215,3.851c-.021.021-.041.041-.041.062l-5.5,7.331L27.633,25.9l-.021-.021c0-.021-.021-.02-.041-.041a6.721,6.721,0,0,1,5.539-10.6Zm0,2.7A3.78,3.78,0,1,0,37,21.722,3.838,3.838,0,0,0,33.11,17.933Zm0,1.236a2.546,2.546,0,1,1-2.656,2.553A2.6,2.6,0,0,1,33.11,19.168Z" transform="translate(-25.1 -14)" fill="#AE9F87"/>
</svg>
