<?xml version="1.0" encoding="UTF-8" standalone="no"?>
<svg
   xmlns:dc="http://purl.org/dc/elements/1.1/"
   xmlns:cc="http://creativecommons.org/ns#"
   xmlns:rdf="http://www.w3.org/1999/02/22-rdf-syntax-ns#"
   xmlns:svg="http://www.w3.org/2000/svg"
   xmlns="http://www.w3.org/2000/svg"
   viewBox="0 0 325.33334 789.33331"
   height="789.33331"
   width="325.33334"
   xml:space="preserve"
   id="svg2"
   version="1.1"><metadata
     id="metadata8"><rdf:RDF><cc:Work
         rdf:about=""><dc:format>image/svg+xml</dc:format><dc:type
           rdf:resource="http://purl.org/dc/dcmitype/StillImage" /></cc:Work></rdf:RDF></metadata><defs
     id="defs6" /><g
     transform="matrix(1.3333333,0,0,-1.3333333,0,789.33333)"
     id="g10"><g
       transform="scale(0.1)"
       id="g12"><path
         id="path14"
         style="fill:#000000;fill-opacity:1;fill-rule:nonzero;stroke:none"
         d="m 390,5896.99 c -3.98,-13.98 10,-70.97 33.98,-143.01 102.04,-305 94.032,-455 -41.992,-782.96 C 336.02,4858.98 330,4836.99 330,4775 c 1.02,-101.99 51.988,-208.01 158.012,-325 20.968,-23.01 40.968,-40 43.008,-36.99 2.96,1.99 -4.032,45 -16.02,95.97 -33.98,153.01 -28.98,206.02 36.02,383.01 138.98,381.02 137.96,526.99 -3.008,816.02 -46.024,95 -125,211.99 -143.012,211.99 -5,0 -11.988,-10 -15,-23.01 z M 586.02,5333.98 C 586.02,5240 558.012,5125 490,4938.01 458.98,4853.98 431.02,4760 428.012,4730 l -6.024,-55 -13.008,35 c -21.992,60 -15.968,93.01 42.04,236.02 71.992,180 102.96,296.99 110.968,412.96 5,74.03 8.012,89.03 15,70 5,-12.96 10,-55.97 9.032,-95 z" /><path
         id="path16"
         style="fill:#000000;fill-opacity:1;fill-rule:nonzero;stroke:none"
         d="M 250,5648.01 C 258.012,5516.02 246.02,5373.98 218.98,5280 210,5250 181.02,5178.01 155,5120 98.9805,4996.99 86.9883,4958.01 75,4846.99 55,4673.98 93.9805,4463.98 171.988,4330 213.98,4258.98 333.98,4126.99 403.98,4076.02 466.988,4030 625,3938.98 625,3948.98 c 0,5 -43.98,65 -98.98,135 -161.02,208.01 -247.04,397.04 -258.008,567.04 -8.012,115.97 8.008,206.99 70,408.98 50,163.01 50.968,166.02 50.968,300 0,116.02 -2.96,143.98 -22.96,200 -20,58.98 -105,210 -117.04,210 -2.96,0 -1.992,-55 1.02,-121.99 z m 61.988,-415 C 303.98,5201.02 281.02,5121.99 261.02,5056.02 165,4745 176.02,4531.99 301.02,4300 c 33.98,-63.98 21.992,-55 -35,25 C 195,4425 160,4525 145,4663.98 c -15,134.03 -1.02,242.04 45,351.02 18.012,43.98 48.98,118.01 68.98,165 23.008,56.99 40,116.99 48.008,180 l 13.012,95 3.012,-81.99 C 325,5326.99 320,5266.02 311.988,5233.01 Z" /><path
         id="path18"
         style="fill:#000000;fill-opacity:1;fill-rule:nonzero;stroke:none"
         d="m 1408.01,5440 c -106.02,-38.01 -205,-130 -266.02,-248.01 -28.98,-55.97 -38.98,-65.97 -108.01,-105.97 -40.968,-24.03 -111.992,-72.04 -156.992,-105 C 638.012,4800 618.98,4670 783.98,4333.98 903.98,4090 1090,3838.98 1181.02,3795 c 60.97,-28.98 145.97,-16.02 238.98,33.98 l 76.02,41.02 18.98,-46.02 c 11.02,-25 33.01,-75.97 50,-113.98 48.01,-108.98 41.99,-141.99 -55,-296.02 -68.01,-107.96 -100,-190.97 -171.02,-436.99 -55.97,-193.98 -93.98,-298.98 -162.96,-450 l -38.01,-81.99 -35,70 c -109.998,216.99 -189.03,438.98 -191.022,530 -0.968,51.02 6.024,75 41.024,151.02 48.008,103.98 50.968,136.99 21.988,241.99 -16.02,55.97 -20,101.99 -20,210 0,128.01 -1.988,141.99 -23.012,173.01 -28.976,43.98 -75.968,56.99 -200,57.96 -108.008,1.02 -155.968,-12.96 -180,-50.97 C 536.988,3805 515,3526.02 515,3375 c 0,-85 30,-160 136.988,-340 80,-133.98 121.024,-245 254.032,-683.98 60.968,-202.04 78.98,-250 103.98,-277.04 36.99,-38.98 98.98,-58.98 151.02,-50 72.96,14.03 206.99,170 318.98,371.02 21.02,36.02 38.98,63.98 41.02,61.99 6.99,-5.97 -16.02,-293.01 -31.02,-405 C 1440,1695 1365,1603.98 790,1196.99 358.98,891.02 113.012,661.988 31.0195,490 1.01953,428.012 0,418.98 0,300 0,185 1.98828,170 26.0195,125 43.9805,88.9805 63.9805,68.0117 96.0195,50 136.988,26.9883 148.98,25 265,26.0195 411.988,26.9883 516.02,51.9883 875,168.012 1438.01,351.988 1533.98,375 1673.01,366.988 1898.98,353.012 2040,278.98 2201.02,90 l 76.99,-90 h 48.01 c 36.99,0 55,6.01953 77.96,26.0195 29.03,23.9805 31.02,30 31.02,92.9605 0,78.008 -30,149.032 -125,297.04 -80,122.96 -91.02,151.992 -108.98,283.98 -22.04,160 -30,183.98 -75,221.988 l -39.03,33.012 19.03,23.98 c 25,30 48.98,113.01 48.98,167.04 0,23.98 -8.98,80.97 -20,127.96 -31.02,134.03 -76.02,386.02 -103.98,576.02 -70,490 -67.04,580 37.96,1116.99 54.03,274.03 57.04,351.99 22.04,483.01 -13.01,46.99 -93.01,251.02 -178.01,453.01 l -155,368.98 28.01,71.02 C 1825,4445 1845,4553.98 1845,4663.98 c 0,113.01 -13.01,179.03 -50,261.02 -36.02,81.99 -78.98,128.01 -151.99,165 l -61.02,30 H 1705 l 48.98,-61.99 c 28.01,-35 64.03,-91.02 81.02,-125 l 31.02,-61.99 -6.02,-656.02 33.98,-90 c 19.03,-48.98 73.01,-166.02 120,-260 65,-128.98 98.01,-183.01 136.02,-221.99 46.99,-49.03 55,-53.01 96.99,-53.01 55,0 106.02,16.02 136.02,43.01 18.01,16.99 21.99,30.97 21.99,78.98 0,31.02 -8.01,76.99 -16.99,100 -28.01,71.99 -138.01,270 -141.02,255 -1.99,-8.01 8.01,-58.98 21.99,-113.01 C 2298.01,3838.01 2310,3760 2300,3760 c -25,0 -78.98,48.98 -108.01,98.01 -60,100.97 -93.01,203.01 -128.01,396.99 -25,136.99 -28.98,281.99 -15,560 7.04,153.01 6.02,188.98 -6.99,241.99 -48.98,188.01 -188.01,335 -365.97,386.99 -74.03,22.04 -201.02,20 -268.01,-3.98 z m 310,-88.01 C 1840,5295 1928.98,5186.02 1971.02,5045 c 15,-53.01 15.97,-81.02 7.96,-235 -13.98,-271.02 -10,-418.01 15,-563.98 52.04,-299.03 135,-482.04 243.01,-537.04 24.03,-11.99 53.01,-18.98 69.03,-16.99 36.99,6.02 36.99,-5.97 0,-21.99 -51.02,-21.02 -82.04,-10 -123.01,45 -46.99,61.02 -171.99,306.99 -219.03,430 l -33.98,90 3.01,321.02 c 3.01,296.99 1.99,325 -16.02,371.99 -23.98,63.01 -98.01,175 -146.99,221.99 l -36.02,35 -120.97,3.01 c -76.02,1.99 -138.01,-1.02 -166.99,-9.03 -50,-12.96 -156.02,-62.96 -165,-76.99 -3.01,-5 33.98,-11.99 81.99,-15 285.97,-20.97 398.01,-128.98 410,-391.99 5,-121.99 -14.03,-226.99 -63.01,-346.02 -13.98,-33.98 -25,-68.98 -25,-75.97 0,-8.01 68.01,-176.99 151.99,-376.02 193.01,-461.99 200,-480.97 205,-591.99 4.03,-78.98 -0.97,-121.02 -45,-345 -75,-378.98 -85,-463.01 -78.98,-670 6.99,-233.01 65.97,-658.01 135,-963.98 15,-68.01 26.99,-150 26.99,-188.01 C 2078.98,1046.99 2046.99,998.98 1951.99,950 1915,931.02 1885,911.988 1885,908.012 c 0,-5 28.98,-8.012 65,-8.012 68.01,0 121.02,-16.02 143.01,-43.012 6.99,-8.008 20,-55 28.01,-103.976 41.99,-251.024 36.99,-235 120,-365 132.96,-210 158.98,-288.012 105,-314.0315 -22.04,-10.9688 -27.04,-6.9922 -81.02,54.9995 -151.02,175 -275,255 -456.99,293.008 -78.01,16.024 -121.02,19.032 -208.01,15 C 1471.99,431.02 1371.02,405 988.98,280 456.02,106.02 281.02,68.0117 163.98,100 108.98,115 86.0195,146.988 68.0117,235 53.9805,306.02 53.9805,318.012 68.9805,378.012 93.9805,481.02 136.988,541.988 290,695 c 161.988,161.988 258.98,240 615,495 141.99,101.99 295,216.99 340,255 150,128.01 246.99,273.01 283.98,425 39.03,161.99 70,521.02 64.03,760 l -3.01,135 -41.99,-86.99 c -141.99,-295 -326.99,-566.02 -399.03,-584.03 -33.98,-8.98 -81.99,14.03 -97.96,45 -8.01,14.03 -53.008,154.03 -101.02,310 -125,408.01 -153.98,485 -241.02,633.01 C 620,3233.01 583.012,3318.98 583.012,3375 c 0,21.99 5,123.01 11.988,225 8.98,146.99 15,188.01 28.012,198.01 10,6.99 48.008,11.99 103.008,11.99 87.96,0 136.992,-11.02 150.968,-33.01 C 881.02,3770 885,3703.98 885,3630 c 0,-105 3.98,-151.02 20,-205 26.988,-93.98 26.02,-108.98 -15,-193.01 -63.98,-133.01 -63.98,-216.99 0,-400 41.988,-120.97 93.012,-238.98 168.01,-388.01 86.99,-170.97 73.01,-170.97 155,-2.96 93.98,191.99 131.99,293.98 193.01,511.99 65,228.98 95.97,308.01 170,428.01 113.98,185.97 115.97,215.97 17.96,442.96 -50,116.02 -75,164.03 -82.96,158.01 -162.04,-128.01 -241.02,-155.97 -313.01,-113.01 -71.99,45 -236.99,276.02 -339.03,476.02 -72.96,143.98 -102.96,228.98 -110.968,311.99 -5,54.03 -3.012,66.99 20,105 48.976,84.03 230,231.99 356.988,293.01 28.01,13.01 43.98,33.01 73.01,90 60,116.02 153.98,203.01 256.99,236.02 13.98,5 63.01,6.99 110,5.97 71.99,-3.01 96.02,-8.01 153.01,-35 z" /></g></g></svg>