<svg xmlns="http://www.w3.org/2000/svg" viewBox="0 0 158.9 205.42">
  <defs>
    <style>
      .cls-1{fill:#c1484e;}.cls-2{fill:#933b43;}.cls-3{fill:#643e4b;}.cls-4{fill:#6d3d55;}.cls-5{fill:#ff5957;}.cls-6{fill:#d84e50;}.cls-7{fill:#a55169;}.cls-8{fill:#7f445c;}.cls-9{fill:#97485c;}
    </style>
  </defs>
  <g id="Ebene_2" data-name="Ebene 2">
    <g id="Ebene_1-2" data-name="Ebene 1">
      <ellipse class="cls-1" cx="81.19" cy="4.78" rx="5.66" ry="4.78"/>
      <path class="cls-2" d="M81.13,9.48c3-.4,5.7-2.15,5.7-4.79S83.7,0,80,0C80,0,87.1,4.48,81.13,9.48Z"/>
      <polygon class="cls-3" points="134.65 205.42 15.71 205.42 36.36 124.84 114.52 124.19 134.65 205.42"/>
      <polygon class="cls-4" points="109.59 205.14 43.51 204.86 59.18 124.65 92.65 124 109.59 205.14"/>
      <polygon class="cls-5" points="114.49 124.22 36.47 124.87 36.25 106.02 114.39 104.97 114.49 124.22"/>
      <polygon class="cls-6" points="59.27 124.96 36.63 124.87 36.41 106.02 59.07 105.72 59.27 124.96"/>
      <polygon class="cls-7" points="34.06 19.34 130.45 20.82 114.45 105.11 36.43 106.05 34.06 19.34"/>
      <polygon class="cls-8" points="32.89 61.96 0 19.34 47.54 19.34 32.89 61.96"/>
      <path class="cls-9" d="M130.5,21l13.15.36L158.9,40.44v68.17a18,18,0,0,1-16.75-12.25l.6-47.85L135,39H126.9Z"/>
      <path class="cls-4"
            d="M149.07,105.21c4,3.52,9.83,3.4,9.83,3.4l0-68.27L143.62,21.2l-13.16-.35s-.75,3.75-2.24,10.94c17.12,3.65,15.9,2.54,19.35,10.84C156.81,64.84,148.05,104.32,149.07,105.21Z"/>
      <polygon class="cls-8" points="36.47 124.87 59.18 124.65 43.51 204.86 15.71 205.42 36.47 124.87"/>
      <polygon class="cls-4" points="0.36 19.41 33.25 62.03 33.61 59.61 37.44 49.79 9.34 19.34 0.36 19.41"/>
      <polygon class="cls-8" points="36.43 106.05 59.07 105.72 47.54 19.34 33 61.47 36.43 106.05"/>
      <path class="cls-4" d="M27.6,19.34c.22-.66,4.32-9.88,4.32-9.88h94.35l4.18,11.36Z"/>
    </g>
  </g>
</svg>
