<?xml version="1.0" encoding="UTF-8"?>
<svg xmlns="http://www.w3.org/2000/svg" xmlns:xlink="http://www.w3.org/1999/xlink" viewBox="0 0 96 96">
<g id="surface33225501">
<path d="M 38.398438 0 L 38.398438 11.585938 L 52.800781 25.988281 L 52.800781 35.832031 L 43.199219 42.234375 L 43.199219 33.601562 C 43.199219 28.351562 38.847656 24 33.601562 24 L 14.398438 24 C 9.152344 24 4.800781 28.351562 4.800781 33.601562 L 4.800781 86.398438 C 4.800781 91.648438 9.152344 96 14.398438 96 L 81.601562 96 C 86.847656 96 91.199219 91.648438 91.199219 86.398438 L 91.199219 72 L 96 72 L 96 62.398438 L 43.199219 62.398438 L 43.199219 53.773438 L 59.054688 43.199219 L 69.1875 43.199219 L 80.195312 32.195312 L 73.40625 25.40625 L 65.210938 33.601562 L 62.398438 33.601562 L 62.398438 25.988281 L 76.800781 11.585938 L 76.800781 0 Z M 49.988281 9.601562 L 65.210938 9.601562 L 57.601562 17.210938 Z M 14.398438 33.601562 L 33.601562 33.601562 L 33.601562 72 L 81.601562 72 L 81.601562 86.398438 L 14.398438 86.398438 Z M 24 38.398438 C 21.347656 38.398438 19.199219 40.550781 19.199219 43.199219 C 19.199219 45.851562 21.347656 48 24 48 C 26.652344 48 28.800781 45.851562 28.800781 43.199219 C 28.800781 40.550781 26.652344 38.398438 24 38.398438 Z M 24 52.800781 C 21.347656 52.800781 19.199219 54.949219 19.199219 57.601562 C 19.199219 60.25 21.347656 62.398438 24 62.398438 C 26.652344 62.398438 28.800781 60.25 28.800781 57.601562 C 28.800781 54.949219 26.652344 52.800781 24 52.800781 Z M 24 52.800781 "/>
</g>
</svg>
