<svg xmlns="http://www.w3.org/2000/svg" xmlns:xlink="http://www.w3.org/1999/xlink" viewBox="0 0 215.59 198.12"><defs><style>.cls-1{fill:#fff;}.cls-2{fill:#c1c1c1;}.cls-3{fill:#cfd0d1;}.cls-4{fill:#b7b7b7;}.cls-5{fill:#d6d6d6;}.cls-6{fill:#e1e3e1;}.cls-7{fill:#efefef;}.cls-8{opacity:0.49;fill:url(#Unbenannter_Verlauf_9);}.cls-9{fill:none;stroke:#1b3a12;stroke-miterlimit:10;stroke-width:0.5px;opacity:0.7;}</style><linearGradient id="Unbenannter_Verlauf_9" x1="108.41" y1="143.17" x2="109.09" y2="85.78" gradientUnits="userSpaceOnUse"><stop offset="0.12" stop-color="#fff"/><stop offset="0.69" stop-color="#fff" stop-opacity="0.6"/></linearGradient></defs><g id="Ebene_2" data-name="Ebene 2"><g id="Ebene_1-2" data-name="Ebene 1"><g id="December_Dripper" data-name="December Dripper"><rect class="cls-1" width="215.59" height="198.12"/><path class="cls-2" d="M156.3,142.56c0,8.26-14,9.68-50.42,10-38.43.39-50.08-3.32-50.08-10.53,0-6.21,22.33-5.94,50.08-5.94S156.3,136.35,156.3,142.56Z"/><path class="cls-3" d="M156.3,142.07c0,6.21-22.67,8.75-50.42,8.75s-50.08-2.54-50.08-8.75,22.33-5.94,50.08-5.94S156.3,135.86,156.3,142.07Z"/><path class="cls-4" d="M95.6,148h31.68a4.38,4.38,0,0,0,4.38-4.38v-2l1-2.83-38.19.11"/><path class="cls-4" d="M94.46,138.81l-9.93,0,1.24,2.69v2.41a4,4,0,0,0,4,4H95.6"/><path class="cls-5" d="M82.05,64.64l-29.25.18,30.33,73.76A2,2,0,0,0,85,139.82H96"/><path class="cls-5" d="M96,139.82h35.9a2.29,2.29,0,0,0,2.13-1.43l30.54-74.26-82.52.51"/><path class="cls-6" d="M164.57,64.13c0,5-23.29,9-54.77,9s-57-4-57-9,25.52-9,57-9S164.57,59.16,164.57,64.13Z"/><path class="cls-7" d="M160.62,64.13c-.24,4.72-20.73,6.31-50.64,6.31S56.27,68.69,56.27,64,80.07,57.2,110,57.2,160.87,59.42,160.62,64.13Z"/><path class="cls-8" d="M131.53,139.82H85.15a2.12,2.12,0,0,1-2-1.32L74.4,116.79l68.66-.34-9.28,21.88A2.45,2.45,0,0,1,131.53,139.82Z"/><circle class="cls-9" cx="108.69" cy="111.51" r="1.29"/><line class="cls-9" x1="108.69" y1="114.52" x2="108.69" y2="147.95"/></g></g></g></svg>