<?xml version="1.0" encoding="UTF-8"?>
<svg xmlns="http://www.w3.org/2000/svg" xmlns:xlink="http://www.w3.org/1999/xlink" viewBox="0 0 64 64" width="64px" height="64px">
<g id="surface29739149">
<path style=" stroke:none;fill-rule:nonzero;fill:var(--beanconqueror-icon-color);fill-opacity:1;" d="M 56.070312 0.5625 L 54.773438 0.859375 C 54.773438 0.859375 45.511719 2.753906 39.902344 8.359375 C 37.339844 10.921875 35.503906 13.484375 34.28125 15.644531 C 34.066406 16.027344 33.96875 16.324219 33.789062 16.679688 L 32.15625 15.046875 L 28.761719 18.4375 L 31.347656 21.027344 L 10.773438 41.601562 L 3.917969 41.601562 L -0.195312 45.714844 L 18.285156 64.195312 L 22.398438 60.082031 L 22.398438 53.226562 L 42.972656 32.652344 L 45.5625 35.238281 L 48.953125 31.84375 L 47.320312 30.210938 C 47.675781 30.03125 47.96875 29.933594 48.351562 29.71875 C 50.511719 28.496094 53.078125 26.660156 55.640625 24.097656 C 61.246094 18.488281 63.140625 9.226562 63.140625 9.226562 L 63.4375 7.929688 Z M 54.664062 5.941406 L 58.058594 9.335938 C 57.578125 11.023438 55.742188 17.207031 52.246094 20.703125 C 50.007812 22.941406 47.765625 24.535156 45.988281 25.539062 C 45.097656 26.042969 44.320312 26.402344 43.746094 26.613281 C 43.734375 26.617188 43.742188 26.613281 43.726562 26.617188 L 37.382812 20.273438 C 37.386719 20.253906 37.378906 20.265625 37.386719 20.25 C 37.597656 19.675781 37.957031 18.898438 38.460938 18.007812 C 39.464844 16.226562 41.058594 13.992188 43.296875 11.753906 C 46.792969 8.261719 52.976562 6.421875 54.664062 5.941406 Z M 51.054688 10.398438 C 50.402344 10.398438 49.75 10.648438 49.253906 11.144531 L 41.601562 18.800781 L 45.199219 22.398438 L 52.855469 14.746094 C 53.847656 13.75 53.847656 12.140625 52.855469 11.144531 C 52.359375 10.648438 51.707031 10.398438 51.054688 10.398438 Z M 34.742188 24.421875 L 39.578125 29.257812 L 20.515625 48.320312 L 15.679688 43.484375 Z M 7.277344 46.398438 L 11.804688 46.398438 L 17.601562 52.195312 L 17.601562 56.722656 Z M 7.277344 46.398438 "/>
</g>
</svg>
