<svg xmlns="http://www.w3.org/2000/svg" width="40" height="40" viewBox="0 0 40 40">
  <g id="Gruppe_109" data-name="Gruppe 109" transform="translate(-186.667 -521.333)">
    <g id="Komponente_17_3" data-name="Komponente 17 – 3" transform="translate(186.667 521.333)">
      <g id="Gruppe_87" data-name="Gruppe 87" transform="translate(35.333 17.667) rotate(180)">
        <g id="Gruppe_8" data-name="Gruppe 8" transform="translate(622.333 336.667)">
          <path id="bg" d="M20,0A20,20,0,1,1,0,20,20,20,0,0,1,20,0Z" transform="translate(-627 -359)" fill="#CDC2AC"/>
        </g>
      </g>
    </g>
    <g id="Gruppe_94" data-name="Gruppe 94" transform="translate(733.329 904.178) rotate(-19)">
      <path id="icons8-coffee_beans"
            d="M8.544,3C5.482,3,3,6.1,3,9.93A7.331,7.331,0,0,0,5.884,16.01a7.229,7.229,0,0,1-.065-2.08A9.147,9.147,0,0,1,8.372,8.678a2.442,2.442,0,0,0-.33-2.428.694.694,0,0,1,1-.962,3.488,3.488,0,0,1,.868,2.073,9.058,9.058,0,0,1,3.176-1.4A5.322,5.322,0,0,0,8.544,3Zm6.131,4.158A7.647,7.647,0,0,0,9.5,9.5c-2.69,2.69-3.125,6.613-.974,8.765s6.075,1.716,8.765-.974,3.126-6.613.974-8.765A4.873,4.873,0,0,0,14.675,7.158Zm1.658,2.631a.685.685,0,0,1,.673.693c-.012.956-.749,2.935-3.449,3.58-2.329.558-2.395,2.254-2.4,2.271A.689.689,0,0,1,9.783,16.3a4.083,4.083,0,0,1,3.454-3.578c2.3-.551,2.387-2.2,2.39-2.266A.692.692,0,0,1,16.333,9.789Z"
            transform="translate(-393 -522.948)" fill="#fff"/>
      <path id="icons8-hot_springs"
            d="M.736,0A7.593,7.593,0,0,0,0,3.118,4.954,4.954,0,0,0,.758,5.37a4.53,4.53,0,0,1,.628,1.8,11.009,11.009,0,0,1-.5,2.707l1.321.411a11.377,11.377,0,0,0,.563-3.118,5.339,5.339,0,0,0-.758-2.425,5.111,5.111,0,0,1-.628-1.624A6.547,6.547,0,0,1,1.971.628ZM2.772,2.837A5.727,5.727,0,0,0,3.53,5.2a5.57,5.57,0,0,1,.628,2.209,13.069,13.069,0,0,1-.65,3.27s2.036-1.521,2.036-3.27a6.67,6.67,0,0,0-.758-2.772,6.147,6.147,0,0,1-.628-1.8Z"
            transform="matrix(0.951, 0.309, -0.309, 0.951, -377.149, -528.859)" fill="#fff"/>
    </g>
  </g>
</svg>
