<?xml version="1.0" encoding="UTF-8"?>
<svg xmlns="http://www.w3.org/2000/svg" xmlns:xlink="http://www.w3.org/1999/xlink" viewBox="0 0 64 64" width="64px" height="64px">
<g id="surface21250966">
<path style=" stroke:none;fill-rule:nonzero;fill-opacity:1;" d="M 57 0.5 L 7 0.5 C 3.398438 0.5 0.5 3.398438 0.5 7 L 0.5 14 C 0.5 14.851562 1.148438 15.5 2 15.5 L 62 15.5 C 62.851562 15.5 63.5 14.851562 63.5 14 L 63.5 7 C 63.5 3.398438 60.601562 0.5 57 0.5 Z M 11 9.5 L 9 9.5 C 8.148438 9.5 7.5 8.851562 7.5 8 C 7.5 7.148438 8.148438 6.5 9 6.5 L 11 6.5 C 11.851562 6.5 12.5 7.148438 12.5 8 C 12.5 8.851562 11.851562 9.5 11 9.5 Z M 19 9.5 L 17 9.5 C 16.148438 9.5 15.5 8.851562 15.5 8 C 15.5 7.148438 16.148438 6.5 17 6.5 L 19 6.5 C 19.851562 6.5 20.5 7.148438 20.5 8 C 20.5 8.851562 19.851562 9.5 19 9.5 Z M 55 9.5 L 38 9.5 C 37.148438 9.5 36.5 8.851562 36.5 8 C 36.5 7.148438 37.148438 6.5 38 6.5 L 55 6.5 C 55.851562 6.5 56.5 7.148438 56.5 8 C 56.5 8.851562 55.851562 9.5 55 9.5 Z M 62 18.5 L 2 18.5 C 1.148438 18.5 0.5 19.148438 0.5 20 L 0.5 57 C 0.5 60.601562 3.398438 63.5 7 63.5 L 57 63.5 C 60.601562 63.5 63.5 60.601562 63.5 57 L 63.5 20 C 63.5 19.148438 62.851562 18.5 62 18.5 Z M 44.449219 36.25 C 44.300781 37.648438 43.699219 39.050781 42.601562 40.148438 L 33.449219 49.351562 C 32.648438 50.148438 31.398438 50.148438 30.601562 49.351562 L 21.351562 40.148438 C 18.699219 37.5 18.851562 33.148438 21.75 30.75 C 24.300781 28.601562 28.148438 28.898438 30.5 31.300781 L 31.25 32.050781 C 31.648438 32.449219 32.25 32.449219 32.648438 32.050781 L 33.550781 31.148438 C 36.050781 28.648438 40.101562 28.648438 42.601562 31.148438 C 44.050781 32.550781 44.648438 34.449219 44.449219 36.25 Z M 44.449219 36.25 "/>
</g>
</svg>
