<svg xmlns="http://www.w3.org/2000/svg" viewBox="0 0 148.49 203.42"><defs><style>.cls-1{fill:#e1e3e2;}.cls-2{fill:#9f8c6f;}.cls-3{fill:#cdcdcd;}.cls-4{fill:#b5b5b5;}.cls-5{fill:#933b43;}.cls-6{fill:#9b9b9b;}.cls-7{fill:#bfbfbf;}.cls-8{fill:#b88265;}</style></defs><g id="Ebene_2" data-name="Ebene 2"><g id="Ebene_1-2" data-name="Ebene 1"><g id="Bialetti"><path class="cls-1" d="M124.1,21l6.93.19a4.75,4.75,0,0,1,3.59,1.79L147.45,39a4.73,4.73,0,0,1,1,3v60.73a4.76,4.76,0,0,1-6.48,4.45,17.53,17.53,0,0,1-9.94-10.07,4.65,4.65,0,0,1-.31-1.77l.56-45.21a4.75,4.75,0,0,0-1.06-3.06L126,40.6a4.76,4.76,0,0,0-3.7-1.76h0a4.77,4.77,0,0,1-4.67-5.69l1.68-8.37A4.76,4.76,0,0,1,124.1,21Z"/><path class="cls-2" d="M138.66,105.08a12.7,12.7,0,0,0,3.82,2.26,4.45,4.45,0,0,0,6-4.17l0-61.4a4.45,4.45,0,0,0-1-2.77l-13-16.3A4.42,4.42,0,0,0,131.14,21l-7.34-.2a4.44,4.44,0,0,0-4.48,3.55l-.61,2.94a4.46,4.46,0,0,0,3.47,5.26c12.57,2.62,11.86,2.41,15,9.93C146.41,64.71,137.65,104.2,138.66,105.08Z"/><path class="cls-1" d="M124.76,203.42H20.82a5.84,5.84,0,0,1-5.66-7.29L32.82,127.2a5.84,5.84,0,0,1,5.61-4.39l69.06-.58a5.84,5.84,0,0,1,5.71,4.44l17.23,69.51A5.84,5.84,0,0,1,124.76,203.42Z"/><polygon class="cls-3" points="107.16 203.14 41.08 202.86 56.75 122.65 90.22 122 107.16 203.14"/><path class="cls-4" d="M38.91,122.82l17.84-.17L41.08,202.86l-19.43.39a6.35,6.35,0,0,1-6.28-7.92l17.46-67.75A6.35,6.35,0,0,1,38.91,122.82Z"/><path class="cls-5" d="M78.7,9.48c3-.4,5.7-2.15,5.7-4.79S81.28,0,77.54,0C77.54,0,84.68,4.48,78.7,9.48Z"/><polygon class="cls-3" points="112.06 124.22 34.05 124.87 33.82 106.02 111.96 104.97 112.06 124.22"/><polygon class="cls-6" points="112.02 124.26 34.21 124.87 34.01 106.02 111.95 105.01 112.02 124.26"/><path class="cls-1" d="M34.77,19.39l92.71,1.42a.46.46,0,0,1,.44.55L112.48,102.7a3,3,0,0,1-2.91,2.44L37,106a3,3,0,0,1-3-2.91L31.72,22.47A3,3,0,0,1,34.77,19.39Z"/><path class="cls-4" d="M27.8,58.51.49,23.12a2.35,2.35,0,0,1,1.86-3.78H41.83a2.35,2.35,0,0,1,2.22,3.11L31.88,57.84A2.35,2.35,0,0,1,27.8,58.51Z"/><path class="cls-7" d="M2.43,19.37A2.24,2.24,0,0,0,.68,23L30.83,62l.31-2.17a2.62,2.62,0,0,1,.13-.48l3.24-8.29a2.24,2.24,0,0,0-.44-2.32L7.58,20.07a2.2,2.2,0,0,0-1.66-.72Z"/><polygon class="cls-4" points="34.01 106.05 56.65 105.72 45.12 19.34 30.57 61.47 34.01 106.05"/><polygon class="cls-7" points="20.02 19.35 74.12 7.5 45.12 19.34 20.02 19.35"/><polygon class="cls-3" points="42.47 19.39 101.22 20.7 88.77 105.39 56.65 105.72 42.47 19.39"/><polygon class="cls-3" points="83.16 7.5 101.22 20.7 42.47 19.39 74.12 7.5 83.16 7.5"/><polygon class="cls-1" points="82.45 7.11 127.82 20.82 101.22 20.7 82.45 7.11"/><ellipse class="cls-8" cx="78.76" cy="4.78" rx="5.66" ry="4.78"/></g></g></g></svg>