<svg width="200" height="200" viewBox="0 0 200 200" fill="none" xmlns="http://www.w3.org/2000/svg">
<path d="M31.71 92.4781C31.71 92.4781 34.91 159.338 45.63 157.788C45.63 157.788 51.03 162.018 70.84 154.788C85.78 149.348 125.48 137.078 136.52 111.998C136.52 111.998 142.18 102.888 116.97 81.5381L92.53 58.5381" fill="#CECDCC"/>
<path d="M96.13 145.098C86.38 149.378 76.36 153.098 70.76 155.098C50.95 162.318 42.76 157.208 42.76 157.208C35.58 151.648 31.62 92.7881 31.62 92.7881L58.99 77.5081" fill="#B6B6B5"/>
<path d="M110.15 53.0981C108.25 54.2681 105.97 55.5281 103.23 56.8981L102.99 57.0181C101.83 57.5281 91.39 62.4681 85.56 76.8681C80.03 90.4681 56.5 91.6481 51.56 91.7481C51.0507 91.7586 50.5425 91.698 50.05 91.5681C47.64 90.9181 37.7 89.2481 18.34 98.5681C3.78 105.568 0.119995 101.408 0.119995 98.4081C0.119995 96.6381 2.18 96.1781 3.68 95.2281L26.88 80.3781C27.1348 80.215 27.3756 80.031 27.6 79.8281C32.015 75.814 35.7353 71.097 38.61 65.8681C42.73 57.8681 64.86 52.6681 68.61 53.4281C71.21 53.9681 91.86 44.8681 105.86 41.4281C111.78 39.9781 115.39 49.8681 110.15 53.0981Z" fill="#9C9B9B"/>
<path d="M108.95 50.9281C107.05 52.0981 104.77 53.3681 102.03 54.7381L101.79 54.8481C100.63 55.3581 90.2 60.2981 84.36 74.6681C78.98 87.8681 56.58 89.3781 50.8 89.5381C50.0427 89.5584 49.286 89.4776 48.55 89.2981C45.7 88.6181 35.79 87.3881 17.13 96.3681C2.57 103.368 0 100.368 0 97.3681C0.0129564 96.4925 0.24598 95.6342 0.677616 94.8723C1.10925 94.1104 1.72563 93.4693 2.47 93.0081L25.68 78.2081C25.9311 78.0479 26.1686 77.8673 26.39 77.6681C30.7972 73.6569 34.5136 68.9472 37.39 63.7281C41.51 55.7281 60.87 50.5981 67.39 51.2881C73.53 51.9381 90.87 44.6181 104.86 41.1781C110.8 39.7081 114.16 47.7281 108.95 50.9281Z" fill="#E1E3E1"/>
<path d="M63.7249 78.9721C80.3128 71.237 91.5991 60.3327 88.9336 54.6165C86.2681 48.9003 70.6602 50.537 54.0723 58.272C37.4844 66.0071 26.198 76.9115 28.8635 82.6276C31.529 88.3438 47.137 86.7072 63.7249 78.9721Z" fill="#B6B6B5"/>
<path d="M88.17 53.6682C90.39 58.4382 77 68.6682 63.17 75.1382C49.34 81.6082 29.51 86.4282 28.5 81.2682C27.03 73.7982 41.31 64.3282 55.13 57.8682C68.95 51.4082 85.95 48.8682 88.17 53.6682Z" fill="#E1E3E1"/>
</svg>
