<svg xmlns="http://www.w3.org/2000/svg" xmlns:xlink="http://www.w3.org/1999/xlink" viewBox="0,0,256,256" width="50px" height="50px" fill-rule="nonzero"><g transform="translate(46.08,46.08) scale(0.64,0.64)"><g fill="var(--beanconqueror-icon-color)" fill-rule="nonzero" stroke="none" stroke-width="1" stroke-linecap="butt" stroke-linejoin="miter" stroke-miterlimit="10" stroke-dasharray="" stroke-dashoffset="0" font-family="none" font-weight="none" font-size="none" text-anchor="none" style="mix-blend-mode: normal"><path d="M128,328c-110.45695,0 -200,-89.54305 -200,-200v0c0,-110.45695 89.54305,-200 200,-200v0c110.45695,0 200,89.54305 200,200v0c0,110.45695 -89.54305,200 -200,200z" id="shape"></path></g><g fill="#ffffff" fill-rule="nonzero" stroke="none" stroke-width="1" stroke-linecap="butt" stroke-linejoin="miter" stroke-miterlimit="10" stroke-dasharray="" stroke-dashoffset="0" font-family="none" font-weight="none" font-size="none" text-anchor="none" style="mix-blend-mode: normal"><g transform="scale(5.12,5.12)"><path d="M19.3125,0.03125c-0.19141,0 -0.37891,0.04688 -0.5625,0.125l-7.15625,2.96875c-0.73828,0.30859 -1.10937,1.16797 -0.8125,1.90625c0,0.01172 0,0.01953 0,0.03125l0.78125,1.875c0.30469,0.74219 1.19141,1.09375 1.9375,0.78125l0.75,-0.3125l0.875,2.25l-0.15625,0.0625c-0.28516,0.11328 -0.51172,0.18359 -0.75,0.3125c-0.23828,0.12891 -0.58594,0.375 -0.75,0.78125c-0.16406,0.40625 -0.07422,0.77344 0,1.03125c0.07422,0.25781 0.16797,0.46875 0.28125,0.75c0,0.01172 0,0.01953 0,0.03125l0.1875,0.5l-0.4375,0.15625c-5.20312,2.11719 -7.73047,8.08594 -5.625,13.28125c0,0.01172 0,0.01953 0,0.03125l2.28125,5.40625c-0.78125,1.14063 -1.25,2.52344 -1.25,4c0,3.41016 2.43359,6.27344 5.65625,6.9375c0,0.01953 0,0.04297 0,0.0625c0.19531,0.34375 0.40625,0.67188 0.625,1h-5.3125c-1.61328,0 -2.875,1.38672 -2.875,3v2c0,0.55078 0.44922,1 1,1h34c0.55078,0 1,-0.44922 1,-1v-2c0,-1.61328 -1.26172,-3 -2.875,-3h-2.8125c1.84766,-0.78906 2.78906,-2.89453 2.0625,-4.78125c-0.55859,-1.44922 -1.9375,-2.38672 -3.40625,-2.4375c-0.48828,-0.01562 -0.98437,0.0625 -1.46875,0.25l-9.84375,3.8125c-0.01172,0 -0.01953,0 -0.03125,0c-0.38281,0.15234 -0.87109,0.14063 -1.4375,-0.09375c-0.43359,-0.17969 -0.85547,-0.50781 -1.25,-0.875c0.73047,-1.11328 1.15625,-2.45312 1.15625,-3.875c0,-0.45703 -0.07422,-0.91016 -0.15625,-1.34375l12.9375,-5.28125c0.53516,-0.13672 0.85547,-0.68359 0.71875,-1.21875c-0.13672,-0.53516 -0.68359,-0.85547 -1.21875,-0.71875c-0.08594,0.01172 -0.16797,0.03125 -0.25,0.0625l-12.84375,5.28125c-1.04687,-2.03125 -3.02344,-3.50781 -5.375,-3.8125l-2.0625,-5.21875c-0.55078,-1.36328 0.10156,-2.91016 1.46875,-3.46875c0.01172,0 0.01953,0 0.03125,0l0.5,-0.21875l1.5,3.65625c0.01563,0.0625 0.03516,0.12891 0.0625,0.1875l1,2.4375c0.10156,0.23828 0.29297,0.42969 0.53125,0.53125l2.875,1.21875c0.24219,0.09766 0.50781,0.09766 0.75,0l4.09375,-1.625c0.23828,-0.10156 0.42969,-0.29297 0.53125,-0.53125l1.25,-2.875c0.09766,-0.24219 0.09766,-0.50781 0,-0.75l-0.96875,-2.3125c0,-0.01953 0,-0.04297 0,-0.0625v-0.03125c-0.01172,-0.01172 -0.01953,-0.01953 -0.03125,-0.03125c0,-0.01953 0,-0.04297 0,-0.0625c-0.01953,-0.04297 -0.03906,-0.08594 -0.0625,-0.125l-4.625,-11.1875c-0.11328,-0.28125 -0.1875,-0.48437 -0.3125,-0.71875c-0.125,-0.23437 -0.33594,-0.57422 -0.75,-0.75c-0.41406,-0.17578 -0.77734,-0.10547 -1.03125,-0.03125c-0.25391,0.07422 -0.46875,0.16797 -0.75,0.28125l-0.1875,0.0625l-0.90625,-2.25l0.84375,-0.34375c0.72656,-0.30469 1.10547,-1.16797 0.8125,-1.90625v-0.03125l-0.78125,-1.875c-0.23828,-0.54687 -0.80078,-0.90234 -1.375,-0.90625zM19.03125,2.1875l0.40625,0.90625l-6.21875,2.59375l-0.40625,-0.90625zM17.96875,5.84375l0.90625,2.28125l-1.875,0.78125l-0.90625,-2.28125zM21.84375,9.09375c0.02734,0.0625 0.03125,0.07813 0.0625,0.15625c0,0.01172 0,0.01953 0,0.03125l4.3125,10.40625l-6.34375,2.53125l-4.28125,-10.34375c-0.00391,-0.01172 0.00391,-0.01953 0,-0.03125c-0.03906,-0.09375 -0.06641,-0.11328 -0.09375,-0.1875c0.07422,-0.03125 0.08594,-0.05469 0.1875,-0.09375c0.01172,0 0.01953,0 0.03125,0l5.9375,-2.40625c0.09375,-0.03906 0.11328,-0.03516 0.1875,-0.0625zM14.71875,14.9375l1.34375,3.28125l-0.5,0.1875c-2.37109,0.96875 -3.52344,3.71875 -2.5625,6.09375l1.78125,4.53125c-1.16406,0.20313 -2.22656,0.67578 -3.125,1.375l-1.9375,-4.59375c-1.69141,-4.17578 0.32813,-8.92969 4.5,-10.65625c0.01563,-0.00391 0.01563,-0.02734 0.03125,-0.03125zM26.96875,21.5625l0.46875,1.09375l-0.9375,2.125l-3.28125,1.3125l-2.125,-0.90625l-0.4375,-1.09375zM16,31.09375c2.72656,0 4.90625,2.17969 4.90625,4.90625c0,2.72656 -2.17969,4.90625 -4.90625,4.90625c-2.72656,0 -4.90625,-2.17969 -4.90625,-4.90625c0,-2.72656 2.17969,-4.90625 4.90625,-4.90625zM35.90625,38.78125c0.6875,0.02344 1.32813,0.46484 1.59375,1.15625c0.35547,0.92188 -0.10937,1.92578 -1.03125,2.28125l-4.65625,1.78125h-14.125c-0.22266,-0.25 -0.46484,-0.58984 -0.71875,-0.96875c1.36719,-0.1875 2.61719,-0.76562 3.625,-1.625c0.54688,0.49609 1.16406,0.90625 1.84375,1.1875c0.90625,0.375 1.94922,0.49219 2.9375,0.09375l9.84375,-3.78125c0.23047,-0.08984 0.45703,-0.13281 0.6875,-0.125zM9.875,46h30.25c0.45703,0 0.875,0.40234 0.875,1v1h-32v-1c0,-0.59766 0.41797,-1 0.875,-1z"></path></g></g></g></svg>