<svg xmlns="http://www.w3.org/2000/svg" viewBox="0 0 205.28 168.86"><defs><style>.cls-1{fill:#b5b5b5;}.cls-2{fill:#cdcdcd;}.cls-3{fill:#e1e3e2;}.cls-4{fill:none;stroke:#b5b5b5;stroke-miterlimit:10;stroke-width:5px;}.cls-5{fill:#b88265;}</style></defs><g id="Ebene_2" data-name="Ebene 2"><g id="Ebene_2-2" data-name="Ebene 2"><g id="Turkish"><rect class="cls-1" x="18.41" width="88.07" height="8.49" rx="3.63"/><path class="cls-2" d="M24.77,8.49S39.2,21.9,34.06,51H93.29s-5.93-24.37,7.48-42.47Z"/><path class="cls-3" d="M63.75,8.49h-39S39.2,21.9,34.06,51H60.44"/><path class="cls-2" d="M34.06,51S-8.19,118.24,1.42,135.45,18.63,162.72,28.47,167s72.3,0,72.3,0,36.34-24.42,24.27-54.91L93.29,51Z"/><path class="cls-3" d="M60.44,51H34.06S-8.19,118.24,1.42,135.45,18.63,162.72,28.47,167c3.41,1.47,13.12,1.92,24.37,1.89"/><line class="cls-4" x1="99.61" y1="63.12" x2="163.26" y2="24.88"/><path class="cls-5" d="M123.92,43.65l7.93,10.44,32.48-17.85s.75-5.28,8-4.28c0,0,3.53-8.67,12.72-7.54l19.26-13.19s6-14.46-12.72-10.56L172.13,12.48s.76,5.16-6.55,3.65c0,0,0,6.78-7.67,4.77Z"/></g></g></g></svg>