<svg xmlns="http://www.w3.org/2000/svg" viewBox="0 0 145.69 78.08">
  <defs>
    <style>
      .cls-1{fill:#8c4d6a;}.cls-2{fill:#a06281;}.cls-3{fill:none;stroke:#97485c;stroke-miterlimit:10;stroke-width:4px;}.cls-4{fill:#a55169;}.cls-5{fill:#7f445c;opacity:0.41;}
    </style>
  </defs>
  <g id="Ebene_2" data-name="Ebene 2">
    <g id="Ebene_1-2" data-name="Ebene 1">
      <path class="cls-1" d="M40.69,71.55H92s-.71,5.53-3.24,6.17-41,.29-43.7,0S40.69,71.55,40.69,71.55Z"/>
      <ellipse class="cls-2" cx="66.99" cy="66.5" rx="49.59" ry="7.32"/>
      <path class="cls-3" d="M126.47,4.91s27-.3,13.36,23.47A52.8,52.8,0,0,1,99.75,49.57"/>
      <rect class="cls-1" x="41.99" y="58.14" width="45.58" height="10.64" rx="4.85"/>
      <rect class="cls-4" x="37.57" y="50.26" width="54.43" height="14.03" rx="4.85"/>
      <rect class="cls-1" x="31.98" y="41.33" width="65.6" height="17.85" rx="4.85"/>
      <rect class="cls-4" x="27.22" y="34.97" width="75.13" height="17.85" rx="4.85"/>
      <rect class="cls-1" x="21.96" y="29.44" width="84.32" height="17.85" rx="4.85"/>
      <rect class="cls-4" x="17.4" y="23.49" width="93.5" height="17.85" rx="4.85"/>
      <rect class="cls-1" x="13.46" y="17.12" width="101.39" height="17.85" rx="4.85"/>
      <rect class="cls-4" x="10.4" y="10.53" width="107.79" height="17.85" rx="4.85"/>
      <rect class="cls-1" x="5.46" y="4.54" width="117.38" height="17.85" rx="4.85"/>
      <rect class="cls-4" width="128.59" height="13.46" rx="4.85"/>
      <path class="cls-5"
            d="M35.45,0H4.85A4.85,4.85,0,0,0,0,4.85V8.61a4.85,4.85,0,0,0,4.85,4.85h.61v4.07a4.86,4.86,0,0,0,4.85,4.86h.09v1.13A4.86,4.86,0,0,0,13.46,28v2.08a4.84,4.84,0,0,0,3.94,4.76v1.61A4.85,4.85,0,0,0,22,41.31v1.13a4.86,4.86,0,0,0,4.86,4.85h.4V48A4.86,4.86,0,0,0,32,52.81v1.52a4.85,4.85,0,0,0,4.85,4.85h.74v.25A4.84,4.84,0,0,0,42,64.25a4.84,4.84,0,0,0,4.82,4.53H52.5"/>
    </g>
  </g>
</svg>
