<?xml version="1.0" encoding="UTF-8"?>
<svg xmlns="http://www.w3.org/2000/svg" xmlns:xlink="http://www.w3.org/1999/xlink" viewBox="0 0 50 50" width="32px" height="32px">
<g id="surface21532649">
<path style=" stroke:none;fill-rule:nonzero;fill:var(--beanconqueror-icon-color);fill-opacity:1;" d="M 25 50 C 11.191406 50 0 38.808594 0 25 C 0 11.191406 11.191406 0 25 0 C 38.808594 0 50 11.191406 50 25 C 50 38.808594 38.808594 50 25 50 Z M 25 50 "/>
<path style=" stroke:none;fill-rule:nonzero;fill:rgb(100%,100%,100%);fill-opacity:1;" d="M 15.199219 10.300781 C 14.050781 10.300781 13.101562 11.25 13.101562 12.398438 L 13.101562 37.601562 C 13.101562 38.75 14.050781 39.699219 15.199219 39.699219 L 34.800781 39.699219 C 35.949219 39.699219 36.898438 38.75 36.898438 37.601562 L 36.898438 12.398438 C 36.898438 11.25 35.949219 10.300781 34.800781 10.300781 Z M 15.199219 11.699219 L 34.800781 11.699219 C 35.1875 11.699219 35.5 12.011719 35.5 12.398438 L 35.5 37.601562 C 35.5 37.988281 35.1875 38.300781 34.800781 38.300781 L 15.199219 38.300781 C 14.8125 38.300781 14.5 37.988281 14.5 37.601562 L 14.5 12.398438 C 14.5 12.011719 14.8125 11.699219 15.199219 11.699219 Z M 15.898438 13.101562 L 15.898438 20.101562 L 34.101562 20.101562 L 34.101562 13.101562 Z M 17.300781 14.5 L 32.699219 14.5 L 32.699219 18.699219 L 17.300781 18.699219 Z M 24.300781 15.898438 L 24.300781 17.300781 L 25.699219 17.300781 L 25.699219 15.898438 Z M 27.101562 15.898438 L 27.101562 17.300781 L 28.5 17.300781 L 28.5 15.898438 Z M 29.898438 15.898438 L 29.898438 17.300781 L 31.300781 17.300781 L 31.300781 15.898438 Z M 16.46875 22.898438 C 16.136719 22.960938 15.894531 23.257812 15.898438 23.601562 L 15.898438 36.199219 C 15.898438 36.585938 16.214844 36.898438 16.601562 36.898438 L 33.398438 36.898438 C 33.785156 36.898438 34.101562 36.585938 34.101562 36.199219 L 34.101562 23.601562 C 34.101562 23.214844 33.785156 22.898438 33.398438 22.898438 L 16.601562 22.898438 C 16.578125 22.898438 16.554688 22.898438 16.535156 22.898438 C 16.511719 22.898438 16.492188 22.898438 16.46875 22.898438 Z M 17.300781 24.300781 L 20.101562 24.300781 L 20.101562 27.101562 L 17.300781 27.101562 Z M 21.5 24.300781 L 24.300781 24.300781 L 24.300781 27.101562 L 21.5 27.101562 Z M 25.699219 24.300781 L 28.5 24.300781 L 28.5 27.101562 L 25.699219 27.101562 Z M 29.898438 24.300781 L 32.699219 24.300781 L 32.699219 27.101562 L 29.898438 27.101562 Z M 17.300781 28.5 L 20.101562 28.5 L 20.101562 31.300781 L 17.300781 31.300781 Z M 21.5 28.5 L 24.300781 28.5 L 24.300781 31.300781 L 21.5 31.300781 Z M 25.699219 28.5 L 28.5 28.5 L 28.5 31.300781 L 25.699219 31.300781 Z M 29.898438 28.5 L 32.699219 28.5 L 32.699219 31.300781 L 29.898438 31.300781 Z M 17.300781 32.699219 L 20.101562 32.699219 L 20.101562 35.5 L 17.300781 35.5 Z M 21.5 32.699219 L 24.300781 32.699219 L 24.300781 35.5 L 21.5 35.5 Z M 25.699219 32.699219 L 28.5 32.699219 L 28.5 35.5 L 25.699219 35.5 Z M 29.898438 32.699219 L 32.699219 32.699219 L 32.699219 35.5 L 29.898438 35.5 Z M 29.898438 32.699219 "/>
</g>
</svg>
