<svg xmlns="http://www.w3.org/2000/svg" width="20" height="20" viewBox="0 0 20 20">
  <g id="Gruppe_219" data-name="Gruppe 219" transform="translate(1750 857)">
    <circle id="Ellipse_421" data-name="Ellipse 421" cx="10" cy="10" r="10" transform="translate(-1750 -857)" fill="#ae9f87"/>
    <path id="icons8-marker" d="M9.342,2A4.342,4.342,0,0,0,5,6.342C5,8.8,7.732,12.434,8.862,13.83a.616.616,0,0,0,.96,0c1.13-1.4,3.862-5.028,3.862-7.488A4.342,4.342,0,0,0,9.342,2Zm0,5.893a1.551,1.551,0,1,1,1.551-1.551A1.551,1.551,0,0,1,9.342,7.893Z" transform="translate(-1749 -854.619)" fill="#fff"/>
  </g>
</svg>
