<svg width="200" height="200" viewBox="0 0 200 200" fill="none" xmlns="http://www.w3.org/2000/svg">
<path d="M136.4 61.4499C136.35 66.8299 114.52 70.4499 88.8001 70.9399C52.7401 71.5799 34.8701 65.3199 34.8701 61.1899C34.8701 57.0599 56.2201 49.3799 85.3701 49.4299C115.05 49.4899 136.44 57.3199 136.4 61.4499Z" fill="#D5E1E5"/>
<path d="M84.7802 151.11C96.0081 151.11 105.11 149.78 105.11 148.14C105.11 146.5 96.0081 145.17 84.7802 145.17C73.5522 145.17 64.4502 146.5 64.4502 148.14C64.4502 149.78 73.5522 151.11 84.7802 151.11Z" fill="#BED4D9"/>
<path d="M132.01 133.17C131.33 145.97 109.94 148.84 83.8798 148.84C57.8198 148.84 37.3098 143.92 37.8798 132.76C38.2598 125.76 57.7798 123.48 83.8798 123.48C109.98 123.48 132.38 126.17 132.01 133.17Z" fill="#D5E1E5"/>
<path d="M131.81 132.17C131.81 139.92 109.99 144.84 85.1701 144.84C60.3501 144.84 38.8701 138.42 38.8701 130.67C38.8701 122.92 60.3501 116.75 85.1701 116.75C109.99 116.75 131.81 124.37 131.81 132.17Z" fill="#80B9C3"/>
<path d="M136.99 57.3701C139.379 57.6885 141.807 57.5218 144.13 56.8801C148.42 55.8801 158.48 55.7501 162.86 61.1001C167.24 66.4501 173.33 76.5901 163.59 87.6301C153.85 98.6701 134.31 114.88 134.31 114.88C134.31 114.88 124.76 124.28 120.87 130.71C120.718 130.958 120.489 131.148 120.217 131.252C119.946 131.355 119.648 131.365 119.37 131.28C118.22 130.93 116.27 130.36 114.68 130.05C110.6 129.24 129.12 111.47 129.12 111.47L145.59 95.9001L156.29 87.3001C156.29 87.3001 163.35 80.9801 163.11 77.0801C162.87 73.1801 163.19 68.7301 156.62 65.5601C150.05 62.3901 138.12 69.3801 138.12 69.3801L132.53 77.2401L137.75 64.3001C138.29 62.9603 138.34 61.4728 137.89 60.1001L136.99 57.3701Z" fill="#D5E1E5"/>
<path d="M136.84 66.4401C136.84 66.4401 147.17 60.4401 152.54 60.8501C156.7 61.2101 163.1 60.8501 166.99 67.6501C166.99 67.6501 163.05 55.4901 150.27 56.3801C147.155 56.2757 144.041 56.6124 141.02 57.3801C139.177 57.6698 137.297 57.6257 135.47 57.2501C135.47 57.2501 138.96 60.9701 138.23 62.8701C137.5 64.7701 136.84 66.4401 136.84 66.4401Z" fill="#A4C6CC"/>
<path d="M94.2398 67.17C94.2398 76.44 90.6698 84.02 87.1898 84.02C83.7098 84.02 80.5698 76.47 80.5698 67.17C80.5698 57.87 83.7098 50.47 87.1898 50.47C90.6698 50.47 94.2398 57.94 94.2398 67.17Z" fill="#9DC3CC"/>
<path d="M80.51 60.02C79.36 66.64 79.75 73.17 77.27 73.17C74.79 73.17 73.61 65.06 71.65 58.75C70.2 54.12 73.09 51.26 75.56 51.26C78.03 51.26 81.46 54.54 80.51 60.02Z" fill="#9DC3CC"/>
<path d="M72.6699 63.5801C74.0999 68.9001 78.0499 78.01 74.7599 78.01C71.4699 78.01 60.4699 76.1701 60.7799 63.5801C60.9199 58.0701 60.3399 51.8 63.6199 51.8C66.8999 51.8 71.2299 58.2301 72.6699 63.5801Z" fill="#9DC3CC"/>
<path d="M59.4198 62.3C60.1598 65.65 61.3298 69.72 59.4798 69.72C57.6298 69.72 54.3398 65.91 52.6998 62.3C51.2198 59.03 51.6998 53.78 53.5398 53.78C55.3798 53.78 58.6398 58.79 59.4198 62.3Z" fill="#9DC3CC"/>
<path d="M52.1698 62.2401C53.2298 65.2401 58.4598 72.7201 56.2798 72.7201C54.0998 72.7201 45.8198 70.3201 44.6398 62.2201C44.1798 59.0601 43.2198 55.3 45.4098 55.3C47.5998 55.3 51.1198 59.3301 52.1698 62.2401Z" fill="#9DC3CC"/>
<path d="M43.92 62.8301C44.36 64.0701 45.85 67.7401 44.8 67.7401C43.75 67.7401 41.12 65.4901 40.65 63.5501C40.35 62.2801 38.65 58.6101 39.65 58.6101C40.65 58.6101 43.52 61.6901 43.92 62.8301Z" fill="#9DC3CC"/>
<path d="M102.97 58.35C102.97 62.42 98.4498 73.68 96.7298 73.68C95.0098 73.68 93.8198 62.48 93.8198 58.41C93.8198 54.34 97.1798 51.04 98.8998 51.04C100.62 51.04 102.97 54.28 102.97 58.35Z" fill="#9DC3CC"/>
<path d="M113.55 61.2599C113.96 77.2599 107.02 73.6499 104.75 74.8699C99.9201 77.4599 97.3901 72.9799 102.75 61.4999C104.99 56.7299 107.63 51.6899 110.21 51.6899C112.79 51.6899 113.41 55.9899 113.55 61.2599Z" fill="#9DC3CC"/>
<path d="M122.72 59.56C122.72 62.96 115.28 71.56 114.05 71.56C112.82 71.56 114.73 64.56 114.73 61.22C114.73 57.88 119.44 54.45 120.67 54.45C121.9 54.45 122.72 56.17 122.72 59.56Z" fill="#9DC3CC"/>
<path d="M130.12 61.5C130.12 64 125.34 71.05 124.34 71.05C123.34 71.05 112.97 75.61 122.51 62.6C123.99 60.6 128.32 56.25 129.32 56.25C130.32 56.25 130.12 59.01 130.12 61.5Z" fill="#9DC3CC"/>
<path d="M32.27 62.1699C32.27 62.1699 37.9 74.1699 88.2 72.7699C138.5 71.3699 138.51 63.5899 138.51 63.5899L137.05 70.1699C137.05 70.1699 103.3 131.24 101.7 131.88C100.1 132.52 73.57 134.47 67.89 131.08C62.21 127.69 34.21 68.3099 32.27 62.1699Z" fill="#A4C6CC"/>
<path d="M82 49C53.59 49 32 56.55 32 60.91C32 65.27 47.48 73.91 81.71 73.26C110.11 72.72 138.52 72.45 138.35 61.53C138.23 53.84 110.41 49 82 49ZM86 70.47C57.62 70.47 35.12 65.76 35.12 61.4C35.12 57.04 56.72 49.49 85.12 49.49C113.52 49.49 136.41 57.25 136.41 61.61C136.41 65.97 114.44 70.47 86.03 70.47H86Z" fill="#EAEAEA"/>
<path opacity="0.45" d="M64.5 72.8999C64.5 72.8999 73.83 73.5999 77 73.3399C77 73.3399 81.49 125.56 83.17 133.05L72.6 132.61L64.5 72.8999Z" fill="#D5E1E5"/>
<path opacity="0.4" d="M72.6 132.61L83.17 133.05L78.56 144.55C78.56 144.55 68.85 143.99 67.96 143.55L72.6 132.61Z" fill="#D5E1E5"/>
</svg>
