<svg width="200" height="200" viewBox="0 0 200 200" fill="none" xmlns="http://www.w3.org/2000/svg">
<g opacity="0.51">
<path d="M132.567 99.6898L131.657 99.1398L128.407 97.8798C118.127 95.1098 84.4067 96.7898 78.4067 97.8798C74.1867 98.6398 70.9567 101.88 69.4067 103.81C68.7667 104.32 68.2967 104.81 68.0767 104.97H68.5067L68.3667 105.18L69.7867 105.06L71.6167 105.23C76.7567 105.76 76.0967 110.11 76.0967 110.11C76.0967 110.11 76.6267 155.56 76.0967 173.74C75.5667 191.92 77.7567 187.61 82.5067 191.02C87.2567 194.43 107.407 193.26 119.127 192.6C130.847 191.94 131.777 184.16 131.777 184.16C131.777 184.16 130.507 142.44 130.497 136.16C130.497 129.34 132.407 101.69 132.567 99.6898Z" fill="#E1E3E1"/>
<path d="M67.8767 105.11L68.0267 104.97C67.4067 104.97 67.8767 105.11 67.8767 105.11Z" fill="#E1E3E1"/>
</g>
<path opacity="0.51" d="M130.047 91.1199H74.4468V93.6199H130.047V91.1199Z" fill="#E1E3E1"/>
<path d="M128.467 93.6199H76.1567V96.2599H128.467V93.6199Z" fill="#E1E3E1"/>
<path opacity="0.22" d="M117.657 121.49H86.9667L85.4067 96.2498H120.197L117.657 121.49Z" fill="#B78265"/>
<path opacity="0.26" d="M67.8766 105.02C67.8766 105.02 72.7466 100.14 76.9666 100.4C81.1866 100.66 113.067 104.88 132.567 99.4797C132.567 99.4797 130.497 128.99 130.497 136.12C130.497 142.35 131.777 184.12 131.777 184.12C131.777 184.12 130.857 191.89 119.127 192.55C107.397 193.21 87.2366 194.4 82.4966 190.97C77.7566 187.54 75.4966 191.89 76.0466 173.71C76.5966 155.53 76.0466 110.07 76.0466 110.07C76.0466 110.07 76.6966 105.72 71.5666 105.2C66.4366 104.68 67.8766 105.02 67.8766 105.02Z" fill="#9C9B9B"/>
<path d="M128.936 66.1598H75.2764L77.6864 36.0698H125.416L128.936 66.1598Z" fill="#CECDCC"/>
<path d="M115.307 66.1597H90.6968V70.7997H115.307V66.1597Z" fill="#B6B6B5"/>
<path d="M110.257 70.7998H95.9268V76.3298H110.257V70.7998Z" fill="#CECDCC"/>
<path d="M103.097 78.2697C107.051 78.2697 110.257 77.4056 110.257 76.3397C110.257 75.2738 107.051 74.4097 103.097 74.4097C99.1422 74.4097 95.9365 75.2738 95.9365 76.3397C95.9365 77.4056 99.1422 78.2697 103.097 78.2697Z" fill="#CECDCC"/>
<path opacity="0.51" d="M128.936 15.7598H75.2764V66.1598H128.936V15.7598Z" fill="#E1E3E1"/>
<path opacity="0.51" d="M127.837 82.7998L129.217 82.5898L128.217 66.0498H76.1167L75.3267 82.6098L78.2267 82.8198L77.4667 86.6098H128.757L127.917 82.7898L127.837 82.7998Z" fill="#E1E3E1"/>
<path d="M131.057 11.5298H73.2667C73.11 11.5318 72.9573 11.4804 72.8337 11.384C72.7101 11.2877 72.623 11.1522 72.5867 10.9998L71.5167 6.87976C71.489 6.77581 71.4857 6.66689 71.507 6.56144C71.5282 6.45599 71.5735 6.35686 71.6393 6.27174C71.705 6.18663 71.7895 6.11781 71.8862 6.07064C71.9829 6.02347 72.0891 5.99922 72.1967 5.99976H132.017C132.122 5.99999 132.226 6.02401 132.321 6.07004C132.416 6.11607 132.499 6.18292 132.564 6.2656C132.63 6.34828 132.676 6.44466 132.698 6.54754C132.721 6.65042 132.721 6.75715 132.697 6.85976L131.697 10.9898C131.664 11.1375 131.584 11.2704 131.468 11.3679C131.352 11.4655 131.208 11.5224 131.057 11.5298Z" fill="#E1E3E1"/>
<path opacity="0.22" d="M74.1968 11.5298H130.277C130.277 12.1928 130.013 12.8287 129.545 13.2976C129.076 13.7664 128.44 14.0298 127.777 14.0298H76.4768C75.8747 14.0298 75.2974 13.7906 74.8716 13.3649C74.4459 12.9392 74.2068 12.3618 74.2068 11.7598V11.5298H74.1968Z" fill="#B78265"/>
</svg>
