<svg xmlns="http://www.w3.org/2000/svg" viewBox="0 0 88.12 187.68"><defs><style>.cls-1{fill:#c1c1c1;}.cls-2{fill:#b5b5b5;}.cls-3{fill:#cdcdcd;}.cls-4{fill:#919191;}.cls-5,.cls-6{fill:#e1e3e2;}.cls-6{opacity:0.62;}.cls-7{fill:#b88265;}</style></defs><g id="Ebene_2" data-name="Ebene 2"><g id="Ebene_2-2" data-name="Ebene 2"><g id="DelterPress"><rect class="cls-1" x="23.58" y="6.46" width="39.72" height="85.55"/><ellipse class="cls-2" cx="44.06" cy="95.68" rx="25.94" ry="11.16"/><ellipse class="cls-3" cx="44.35" cy="89.88" rx="21.28" ry="8.68"/><rect class="cls-2" x="10.62" y="147.06" width="66.87" height="40.62" rx="20.31"/><ellipse class="cls-3" cx="44.35" cy="155.99" rx="28.7" ry="10.76"/><path class="cls-4" d="M10.8,164.68.41,170a.74.74,0,0,0-.13,1.24l7.2,5.65a2.63,2.63,0,0,0,1.37.55l4.78.46"/><path class="cls-4" d="M77.32,165l10.39,5.28a.75.75,0,0,1,.13,1.25l-7.2,5.64a2.66,2.66,0,0,1-1.37.55l-4.78.47"/><ellipse class="cls-2" cx="42.98" cy="3.6" rx="22.63" ry="3.6"/><path class="cls-2" d="M23.58,8.32s-9.56.15-10,0a12.65,12.65,0,0,1-2.33-1C10.12,6.5,10,4.07,11.7,3.51l8.65-.46L23,2.29,30.54,1l8-.59h2.56S57.53.09,59.41.37,71.6,2.63,72.34,4a1.13,1.13,0,0,1-.45,1.62.44.44,0,0,0-.08.73l.44.4c.42.37.17,1-.43,1.07-3.39.51-12.17,1.65-16.4.3L51.2,7.32"/><ellipse class="cls-5" cx="43.44" cy="3.97" rx="14.87" ry="2.89"/><path class="cls-6" d="M21.41,44.79H66.89a6,6,0,0,1,6,6v101a15,15,0,0,1-15,15H29.55a14.11,14.11,0,0,1-14.11-14.11V50.76a6,6,0,0,1,6-6Z"/><ellipse class="cls-7" cx="29.74" cy="153.86" rx="2.13" ry="1.07"/><ellipse class="cls-7" cx="30.54" cy="157.06" rx="2.13" ry="1.07"/><ellipse class="cls-7" cx="31.87" cy="160.26" rx="2.13" ry="1.07"/><ellipse class="cls-7" cx="36.14" cy="153.86" rx="2.13" ry="1.07"/><ellipse class="cls-7" cx="36.94" cy="157.06" rx="2.13" ry="1.07"/><ellipse class="cls-7" cx="38.27" cy="160.26" rx="2.13" ry="1.07"/><ellipse class="cls-7" cx="42.37" cy="153.86" rx="2.13" ry="1.07"/><ellipse class="cls-7" cx="43.17" cy="157.06" rx="2.13" ry="1.07"/><ellipse class="cls-7" cx="44.5" cy="160.26" rx="2.13" ry="1.07"/><ellipse class="cls-7" cx="48.77" cy="153.86" rx="2.13" ry="1.07"/><ellipse class="cls-7" cx="49.57" cy="157.06" rx="2.13" ry="1.07"/><ellipse class="cls-7" cx="50.9" cy="160.26" rx="2.13" ry="1.07"/><ellipse class="cls-7" cx="54.9" cy="153.52" rx="2.13" ry="1.07"/><ellipse class="cls-7" cx="55.7" cy="156.72" rx="2.13" ry="1.07"/><ellipse class="cls-7" cx="57.03" cy="159.92" rx="2.13" ry="1.07"/></g></g></g></svg>