<svg xmlns="http://www.w3.org/2000/svg" viewBox="0 0 129.31 129.36"><defs><style>.cls-1,.cls-6{fill:none;stroke:#b5b5b5;stroke-miterlimit:10;}.cls-1{stroke-width:6px;}.cls-2{fill:#b88265;}.cls-3{fill:#b5b5b5;}.cls-4{fill:#cdcdcd;}.cls-5{fill:#e1e3e2;}.cls-6{stroke-linecap:round;stroke-width:2px;}</style></defs><g id="Ebene_2" data-name="Ebene 2"><g id="Ebene_5" data-name="Ebene 5"><g id="BlueDripper"><path class="cls-1" d="M98.33,30.27s15.72-15.59,26.41,2.61C136,52.05,83.33,93.77,83.33,93.77"/><rect class="cls-2" x="32.63" width="48.71" height="12.79" rx="5.95"/><rect class="cls-3" x="12.28" y="118.88" width="90.29" height="10.48" rx="4.88"/><rect class="cls-4" x="18.58" y="110.6" width="77.19" height="9.52"/><rect class="cls-3" y="7.18" width="113.46" height="7.01"/><path class="cls-5" d="M0,14.19s45.29,88.48,18.58,96.41H95.76s-26.93-5.27,17.7-96.41Z"/><path class="cls-4" d="M36.89,14.19H0s45.29,88.48,18.58,96.41H60.34"/><line class="cls-6" x1="31.41" y1="21.34" x2="31.41" y2="67.88"/><line class="cls-6" x1="82.55" y1="21.34" x2="82.55" y2="67.88"/><line class="cls-6" x1="74.34" y1="21.34" x2="74.34" y2="59.06"/><line class="cls-6" x1="66.42" y1="21.34" x2="66.42" y2="51.99"/><line class="cls-6" x1="57.29" y1="21.34" x2="57.29" y2="51.99"/><line class="cls-6" x1="48.77" y1="21.34" x2="48.77" y2="51.99"/><line class="cls-6" x1="40.24" y1="21.34" x2="40.24" y2="59.06"/><path class="cls-6" d="M31.41,82.17s24.36-51.5,50,0"/><path class="cls-6" d="M39,83.78s17.5-37,35.92,0"/></g></g></g></svg>