<svg xmlns="http://www.w3.org/2000/svg" viewBox="0 0 154.05 190.39"><defs><style>.cls-1{fill:#9f8c6f;}.cls-2,.cls-3{fill:#cdcdcd;}.cls-2,.cls-4{opacity:0.4;}.cls-4{fill:#e1e3e2;}.cls-5{fill:#b5b5b5;}</style></defs><g id="Ebene_2" data-name="Ebene 2"><g id="Ebene_1-2" data-name="Ebene 1"><g id="FrenchPress"><rect class="cls-1" x="62.19" width="9.47" height="15.72" rx="1.18"/><rect class="cls-1" x="63.24" y="29.1" width="7.37" height="127.7"/><rect class="cls-1" x="28.75" y="154.34" width="75.88" height="6.61" rx="1.7"/><path class="cls-2" d="M100.3,31.35H120A3.64,3.64,0,0,1,123.66,35V186.75a3.64,3.64,0,0,1-3.64,3.64H100.3"/><path class="cls-3" d="M152.2,121.21h-5.88a1.86,1.86,0,0,1-1.86-1.86V68a27.21,27.21,0,0,0-27.18-27.18l-111.6.82a1.86,1.86,0,0,1-1.35-.56C3.1,39.83.21,36.77.12,35.94c-.12-1.06-.44-4.31,2-4.69s115.13,0,115.13,0A36.81,36.81,0,0,1,154.05,68v51.32A1.85,1.85,0,0,1,152.2,121.21Z"/><path class="cls-4" d="M120,190.39H21.39a3.69,3.69,0,0,1-3.69-3.68V55.38L.71,37.21a3.68,3.68,0,0,1,3-5.86H120A3.68,3.68,0,0,1,123.66,35V186.71A3.68,3.68,0,0,1,120,190.39Z"/><path class="cls-4" d="M25.07,183H116.3l-44.79,1.7s-34.4-1-34.4-.24Z"/><path class="cls-5" d="M120.25,29.94H13.13a3.81,3.81,0,0,1-2.84-1.15A2.07,2.07,0,0,1,10,26.36C10.42,25.58,21.19,7,66.69,7S123,25.58,123.4,26.36a2.07,2.07,0,0,1-.31,2.43A3.8,3.8,0,0,1,120.25,29.94Z"/></g></g></g></svg>