<svg xmlns="http://www.w3.org/2000/svg" viewBox="0 0 159.88 85.79"><defs><style>.cls-1{fill:#cdcdcd;}.cls-2{fill:#e1e3e2;}.cls-3{fill:none;stroke:#cdcdcd;stroke-miterlimit:10;stroke-width:4px;}.cls-4{fill:#b5b5b5;opacity:0.23;}</style></defs><g id="Ebene_2" data-name="Ebene 2"><g id="Ebene_1-2" data-name="Ebene 1"><g id="KalitaWave"><path class="cls-1" d="M44.7,78.62h56.38s-.77,6.07-3.56,6.77-45,.32-48,0S44.7,78.62,44.7,78.62Z"/><ellipse class="cls-2" cx="73.6" cy="73.06" rx="54.48" ry="8.04"/><path class="cls-3" d="M139,5.39s29.7-.33,14.69,25.79a58,58,0,0,1-44,23.28"/><rect class="cls-1" x="46.13" y="63.88" width="50.07" height="11.69" rx="4.85"/><rect class="cls-2" x="41.27" y="55.22" width="59.81" height="15.41" rx="4.85"/><rect class="cls-1" x="35.13" y="45.41" width="72.07" height="19.61" rx="4.85"/><rect class="cls-2" x="29.9" y="38.42" width="82.55" height="19.61" rx="4.85"/><rect class="cls-1" x="24.13" y="32.35" width="92.64" height="19.61" rx="4.85"/><rect class="cls-2" x="19.12" y="25.8" width="102.72" height="19.61" rx="4.85"/><rect class="cls-1" x="14.79" y="18.81" width="111.4" height="19.61" rx="4.85"/><rect class="cls-2" x="11.42" y="11.57" width="118.43" height="19.61" rx="4.85"/><rect class="cls-1" x="6" y="4.98" width="128.97" height="19.61" rx="4.85"/><rect class="cls-2" width="141.28" height="14.79" rx="4.85"/><path class="cls-4" d="M39,0H5.33A5.33,5.33,0,0,0,0,5.33V9.46a5.33,5.33,0,0,0,5.33,5.33H6v4.47a5.34,5.34,0,0,0,5.33,5.34h.09v1.25a5.32,5.32,0,0,0,3.37,4.94v2.3a5.32,5.32,0,0,0,4.33,5.23v1.76a5.32,5.32,0,0,0,5,5.3v1.25A5.33,5.33,0,0,0,29.46,52h.44v.74A5.33,5.33,0,0,0,35.13,58v1.67A5.34,5.34,0,0,0,40.46,65h.81v.27a5.33,5.33,0,0,0,4.9,5.29,5.32,5.32,0,0,0,5.29,5h6.23"/></g></g></g></svg>