<svg xmlns="http://www.w3.org/2000/svg" width="24.002" height="8.992" viewBox="0 0 24.002 8.992">
  <path id="icons8-abc" d="M20.455,7.988a3.621,3.621,0,0,0-1.939.516,3.342,3.342,0,0,0-1.283,1.475,5.2,5.2,0,0,0-.449,2.223v.535a4.62,4.62,0,0,0,.975,3.111,3.341,3.341,0,0,0,2.674,1.133,3.721,3.721,0,0,0,2.5-.811,3.087,3.087,0,0,0,1.053-2.225v0H22.17a1.715,1.715,0,0,1-.479,1.18,1.806,1.806,0,0,1-1.26.383,1.523,1.523,0,0,1-1.369-.654,3.848,3.848,0,0,1-.434-2.074v-.66a3.587,3.587,0,0,1,.465-2,1.55,1.55,0,0,1,1.361-.646A1.779,1.779,0,0,1,21.7,9.85a1.814,1.814,0,0,1,.479,1.229H24A3.313,3.313,0,0,0,22.922,8.8,3.632,3.632,0,0,0,20.455,7.988ZM3.291,8.109,0,16.859H1.938l.607-1.8H5.736l.615,1.8H8.287L4.979,8.109Zm5.822,0v8.75h3.438a3.683,3.683,0,0,0,2.318-.662,2.3,2.3,0,0,0,.814-1.91,1.993,1.993,0,0,0-.393-1.25,1.873,1.873,0,0,0-1.072-.68,1.921,1.921,0,0,0,.93-.717,1.96,1.96,0,0,0,.334-1.133,2.08,2.08,0,0,0-.832-1.789,4.1,4.1,0,0,0-2.441-.609Zm1.82,1.461h1.275a1.853,1.853,0,0,1,1.1.26,1,1,0,0,1,.35.857q0,1.063-1.379,1.088H10.934Zm-6.8.75L5.246,13.6H3.035Zm6.8,2.73H12.6q1.257.018,1.256,1.219a1.035,1.035,0,0,1-.361.838,1.516,1.516,0,0,1-1,.3H10.934Z" transform="translate(0 -7.988)" fill="#cdc2ac"/>
</svg>
