<svg xmlns="http://www.w3.org/2000/svg" viewBox="0 0 215.59 198.12"><defs><style>.cls-1{fill:#fff;}.cls-2,.cls-9{fill:none;stroke:#cecdcc;stroke-miterlimit:10;}.cls-2{stroke-width:4px;}.cls-3{fill:#9f8c6f;}.cls-4,.cls-8{fill:#e1e3e1;}.cls-5{fill:#cecdcc;}.cls-6{fill:#c8c7c7;}.cls-7{fill:#b78265;}.cls-8{opacity:0.66;}.cls-9{stroke-linecap:round;stroke-width:3px;}.cls-10{fill:#efefef;isolation:isolate;opacity:0.84;}</style></defs><g id="Ebene_2" data-name="Ebene 2"><g id="Ebene_1-2" data-name="Ebene 1"><rect class="cls-1" width="215.59" height="198.12"/><path class="cls-2" d="M105.4,68s-10.63-3.9-14.65,2.22S79.83,168.78,79.83,172.53,81,176.84,85,178.28"/><path class="cls-3" d="M143.17,184c0,2.44-16.84,6.69-31.86,6.69s-29-3.92-29-6.36,14-2.5,29.05-2.5S143.17,181.54,143.17,184Z"/><path class="cls-2" d="M117.61,68s10.63-3.9,14.65,2.22,10.91,98.58,10.91,102.33-1.15,4.31-5.17,5.75"/><path class="cls-4" d="M146.54,11.15C114.33,45.67,120.27,63,120.27,63h-19C102.75,36.72,74.13,12.2,74.13,12.2"/><path class="cls-5" d="M74.13,12.2s37.75-9.94,72.41-1.08Z"/><rect class="cls-5" x="101.28" y="63.03" width="20.07" height="12.27"/><path class="cls-6" d="M149.05,176.45c0,5.41,1,9.92-36.8,9.8-39.62-.13-36.8-4.39-36.8-9.8s16.48-9.8,36.8-9.8S149.05,171,149.05,176.45Z"/><ellipse class="cls-3" cx="112.23" cy="172.02" rx="27.19" ry="4.43"/><circle class="cls-7" cx="119.71" cy="67.94" r="5.73"/><circle class="cls-8" cx="120.27" cy="67.94" r="4.91"/><path class="cls-4" d="M96.83,99.19,87.25,155s-3.93,13.34,7.35,15.4c12.37,2.25,43.66,4.71,41.32-12.62-2.64-19.49-11.63-58.63-11.63-58.63Z"/><path class="cls-9" d="M122.42,107.83s8.08-.68,9.09,5.38,6.68,41,6.68,41,1.67,8.55-5.65,7.29l-5.2-2.23"/><path class="cls-10" d="M104.9,171.74c-3.46-3.65-6.44-56.39-5.06-72.55h3.85s2.12,67.34,6.59,72.81A21.76,21.76,0,0,1,104.9,171.74Z"/></g></g></svg>