<svg xmlns="http://www.w3.org/2000/svg" width="34" height="37.778" viewBox="0 0 34 37.778">
  <defs>
    <style>.a{fill:#ccc;}</style>
  </defs>
  <path class="a"
        d="M13.444,2a1.89,1.89,0,0,0-1.889,1.889V5.778a1.889,1.889,0,1,0,3.778,0V3.889A1.89,1.89,0,0,0,13.444,2ZM21,3.889a1.889,1.889,0,1,0,1.889,1.889A1.89,1.89,0,0,0,21,3.889ZM5.889,11.444A1.89,1.89,0,0,0,4,13.333V32.222a7.556,7.556,0,0,0,7.556,7.556H22.889a7.556,7.556,0,0,0,7.556-7.556V30.333h3.778A3.777,3.777,0,0,0,38,26.556V19a3.777,3.777,0,0,0-3.778-3.778H30.444V13.333a1.89,1.89,0,0,0-1.889-1.889ZM30.444,19h3.778v7.556H30.444Z"
        transform="translate(-4 -2)"/>
</svg>
