<svg xmlns="http://www.w3.org/2000/svg" width="17.794" height="17.802" viewBox="0 0 17.794 17.802">
  <style>
    .fill-full{
    background-color:red!important;
    }
  </style>
  <g id="Gruppe_216" data-name="Gruppe 216" transform="translate(-702.83 1590.802)">
    <path id="icons8-java_bean"
          d="M13.772,1C9.223,1,8.594,5.218,6.915,6.96,5.262,8.678,1,9.945,1,13.9A4.069,4.069,0,0,0,2.476,16.8a3.109,3.109,0,0,0,2.237.795c2.339,0,5.576-1.69,8.356-4.575,3.863-4.01,5.386-8.814,3.395-10.74A3.872,3.872,0,0,0,13.772,1Zm1.135,2.566c.085,0,.162,0,.238,0-1.368.793-3.105,2.2-3.565,3.417a7.53,7.53,0,0,1-1.476,3.111,10.557,10.557,0,0,1-3.2,1.839,5.908,5.908,0,0,0-2.986,3.576,4.668,4.668,0,0,1,2.554-4.473A10.166,10.166,0,0,0,9.2,9.367,6.686,6.686,0,0,0,10.5,6.779,4.964,4.964,0,0,1,14.908,3.566Zm3.145,1c.047,2.552-1.558,5.955-4.462,8.969-2.726,2.828-5.949,4.629-8.526,4.78A8.252,8.252,0,0,0,7.88,18.8a10.553,10.553,0,0,0,7.55-3.451C18.709,11.946,19.608,7.9,18.052,4.565Z"
          transform="translate(701.83 -1591.802)" fill="#aea89f"/>
    <path id="Schnittmenge_8" data-name="Schnittmenge 8"
          d="M6.894,24.512A11.958,11.958,0,0,0,13,21.882V24.4a9.454,9.454,0,0,1-3.29.6A8.251,8.251,0,0,1,6.894,24.512ZM4.306,23A4.072,4.072,0,0,1,2.83,20.1c0-3.952,4.262-5.219,5.916-6.936C10.033,11.821,10.7,9.028,13,7.8V11.73a4.816,4.816,0,0,0-.667,1.247,6.7,6.7,0,0,1-1.306,2.588A10.161,10.161,0,0,1,8.3,17.234a4.669,4.669,0,0,0-2.555,4.474,5.91,5.91,0,0,1,2.986-3.577,10.557,10.557,0,0,0,3.2-1.84A4.775,4.775,0,0,0,13,14.453v6.5c-2.271,1.816-4.636,2.84-6.458,2.84A3.11,3.11,0,0,1,4.306,23Z"
          transform="translate(700 -1598)" class="fill-full"/>
  </g>
</svg>
