<svg width="200" height="200" viewBox="0 0 200 200" fill="none" xmlns="http://www.w3.org/2000/svg">
<path d="M77.6201 169.2H122.11C122.11 169.2 121.49 173.99 119.29 174.54C117.09 175.09 83.7701 174.79 81.4101 174.54C79.0501 174.29 77.6201 169.2 77.6201 169.2Z" fill="#B5B5B5"/>
<path d="M100.43 170.86C124.167 170.86 143.41 168.402 143.41 165.37C143.41 162.338 124.167 159.88 100.43 159.88C76.693 159.88 57.4502 162.338 57.4502 165.37C57.4502 168.402 76.693 170.86 100.43 170.86Z" fill="#CDCDCD"/>
<path d="M115.93 83.9603V28.7903H84.93V83.9603C84.92 89.6403 77.29 91.4103 77.29 91.4103V97.2503H123.6V91.4103C123.6 91.4103 115.93 89.6403 115.93 83.9603Z" fill="#E1E3E2"/>
<path d="M100.26 25.0002H77V30.1202L84.65 33.5302H100.26H115.87L123.52 30.1202V25.0002H100.26Z" fill="#B5B5B5"/>
<path d="M124.94 93.5203H75.5797C74.3923 93.5203 73.4297 94.4829 73.4297 95.6703V165.06C73.4297 166.248 74.3923 167.21 75.5797 167.21H124.94C126.127 167.21 127.09 166.248 127.09 165.06V95.6703C127.09 94.4829 126.127 93.5203 124.94 93.5203Z" fill="#B5B5B5"/>
<path d="M75.5797 93.5203H94.1997V167.21H75.5797C75.0095 167.21 74.4626 166.984 74.0594 166.581C73.6562 166.177 73.4297 165.63 73.4297 165.06V95.6403C73.4376 95.0753 73.6676 94.5361 74.0699 94.1393C74.4723 93.7426 75.0146 93.5202 75.5797 93.5203Z" fill="#CDCDCD"/>
<path d="M108.79 144.84C108.792 145.422 108.621 145.992 108.299 146.477C107.977 146.962 107.517 147.341 106.98 147.564C106.442 147.788 105.85 147.847 105.279 147.734C104.708 147.621 104.183 147.341 103.771 146.929C103.359 146.517 103.079 145.993 102.966 145.421C102.853 144.85 102.912 144.258 103.136 143.72C103.36 143.183 103.738 142.724 104.223 142.401C104.708 142.079 105.278 141.908 105.86 141.91C106.637 141.91 107.382 142.219 107.932 142.768C108.481 143.318 108.79 144.063 108.79 144.84Z" fill="#B88265"/>
<path d="M108.79 130.37C108.79 130.952 108.617 131.521 108.294 132.005C107.97 132.488 107.511 132.865 106.973 133.087C106.435 133.31 105.843 133.367 105.273 133.253C104.702 133.139 104.178 132.858 103.768 132.446C103.357 132.033 103.078 131.509 102.965 130.938C102.853 130.367 102.913 129.775 103.137 129.238C103.361 128.701 103.739 128.243 104.224 127.921C104.709 127.599 105.278 127.428 105.86 127.43C106.246 127.43 106.628 127.506 106.984 127.654C107.34 127.802 107.663 128.019 107.936 128.292C108.208 128.565 108.423 128.889 108.57 129.246C108.717 129.602 108.791 129.985 108.79 130.37Z" fill="#B88265"/>
<path d="M108.79 115.89C108.792 116.473 108.621 117.042 108.299 117.527C107.977 118.012 107.517 118.391 106.98 118.614C106.442 118.838 105.85 118.897 105.279 118.784C104.708 118.671 104.183 118.391 103.771 117.979C103.359 117.567 103.079 117.043 102.966 116.471C102.853 115.9 102.912 115.308 103.136 114.771C103.36 114.233 103.738 113.774 104.223 113.452C104.708 113.129 105.278 112.958 105.86 112.96C106.637 112.96 107.382 113.269 107.932 113.818C108.481 114.368 108.79 115.113 108.79 115.89Z" fill="#B88265"/>
<path d="M143.41 165.06C143.41 168.26 124.16 170.86 100.41 170.86C76.6602 170.86 57.4102 168.26 57.4102 165.06" fill="#E1E3E2"/>
</svg>
