<svg xmlns="http://www.w3.org/2000/svg" viewBox="0 0 215.59 198.12"><defs><style>.cls-1{fill:#fff;}.cls-2{fill:#9c9b9b;}.cls-3{fill:#b6b6b5;}.cls-4{fill:#cfd0d1;}.cls-5,.cls-8{fill:#e1e3e1;}.cls-6,.cls-7{fill:#f0f1ef;}.cls-7{stroke:#f0f1ef;}.cls-11,.cls-7,.cls-8,.cls-9{stroke-miterlimit:10;}.cls-8{stroke:#e1e3e1;}.cls-9{fill:#f0f0f1;stroke:#f0f0f1;}.cls-10{fill:#b78265;}.cls-11{fill:none;stroke:#3c3c3b;stroke-linecap:round;stroke-width:2px;}</style></defs><g id="Ebene_2" data-name="Ebene 2"><g id="Ebene_1-2" data-name="Ebene 1"><rect class="cls-1" width="215.59" height="198.12"/><path class="cls-2" d="M63.28,135.79c-22,16.94,17.65,18.36,33.86,17.39,28.81-2.58,58.12,6.06,76.76-10.2,0,0,3.53,5.19,4.39,19.72,0,0,.76,6.25-2.31,8.57-20.25,15.3-37.49,7.57-63.54,7-6.12-.88-56.75,5.3-61-10.21C51.46,168,53.78,139.27,63.28,135.79Z"/><path class="cls-3" d="M60,138.1c-3.09,3-5,6.87-.88,10.56,0,0,11.71,7.88,40.93,4.29,0,0,35.71.6,38.84.94s35.6-2.52,35-11.68-35.48-9.78-35.48-9.78H74.24A20.42,20.42,0,0,0,60,138.1Z"/><path class="cls-4" d="M121.13,136.32v6.09s-.32,5.3,21.6,6.07,25-6.07,25-6.07v-6.09"/><ellipse class="cls-5" cx="144.44" cy="136.32" rx="23.31" ry="6.09"/><path class="cls-6" d="M127.39,56.46l-.87,77.75s17.22,9.74,35.83,0V56.46S147.22,61.68,127.39,56.46Z"/><path class="cls-5" d="M127.39,56.46l9.42-8.69s11.66,1.22,17.05,0l8.49,8.69S140.58,62.72,127.39,56.46Z"/><polygon class="cls-6" points="154.38 48.3 136.29 48.3 140.29 35.07 149.86 35.07 154.38 48.3"/><path class="cls-6" d="M132.5,30.4v4.7a40.72,40.72,0,0,1,5.83,1.3c1.83.7,5.39.31,5.39.31a9.81,9.81,0,0,0,6.09-.35A9.27,9.27,0,0,0,156,35l1.26-1.29-.2-4S134.81,29.23,132.5,30.4Z"/><path class="cls-4" d="M137.71,29.78a25.42,25.42,0,0,0-5.21.62v4.7s2.81.45,4.72.92"/><rect class="cls-3" x="110.87" y="66.81" width="16.52" height="13.04"/><path class="cls-7" d="M89.76,82.78h26.81a2.3,2.3,0,0,1,2.3,2.3V86a6.77,6.77,0,0,1-6.77,6.77H94.32a5.89,5.89,0,0,1-5.89-5.89V84.11A1.33,1.33,0,0,1,89.76,82.78Z"/><polygon class="cls-8" points="118.3 82.94 88.75 82.78 90.98 79.25 116.08 79.36 118.3 82.94"/><path class="cls-7" d="M116.08,78.9H91V66.81c0-.94-.42-3,1.7-1.71s18.36,1.22,22.25,0c1.39-.63,1.27.57,1.28,1.27Z"/><ellipse class="cls-8" cx="103.58" cy="64.88" rx="12.5" ry="2.53"/><path class="cls-9" d="M96.42,64.5l4.69-23.65,9.14,3s5.91-1.74,7.91.35,3.56,9.48-2.7,9.48-5.74.08-5.56,3,2.35,4.09.61,6.61S96.42,64.5,96.42,64.5Z"/><path class="cls-8" d="M105.31,53.35h-1.48a.82.82,0,0,1-.82-.87l1.29-19.27h3.17l-1.29,19.32A.87.87,0,0,1,105.31,53.35Z"/><ellipse class="cls-4" cx="105.84" cy="28.73" rx="3.26" ry="3.97"/><polygon class="cls-4" points="108.04 33.53 103.78 33.53 103.25 30.77 108.64 30.77 108.04 33.53"/><polygon class="cls-8" points="46.98 26 45.89 30.62 97 45.6 98.54 40.55 46.98 26"/><path class="cls-10" d="M24.73,18.93c-.57,1.86-1.39,4.58-2,6.47a2.12,2.12,0,0,0,1.56,2.68l34.12,7.31a.88.88,0,0,0,1-.6l1.88-6.16a.61.61,0,0,0-.41-.76L27.44,17.5A2.17,2.17,0,0,0,24.73,18.93Z"/><line class="cls-11" x1="72.58" y1="136.84" x2="70.43" y2="146.76"/><line class="cls-11" x1="76.87" y1="136.32" x2="74.95" y2="147.68"/><line class="cls-11" x1="81.16" y1="136.32" x2="79.36" y2="147.68"/><line class="cls-11" x1="85.1" y1="137.08" x2="83.77" y2="146.76"/><line class="cls-11" x1="89.62" y1="137.48" x2="88.17" y2="146.41"/><line class="cls-11" x1="93.85" y1="137.48" x2="92.52" y2="147.16"/><line class="cls-11" x1="98.14" y1="136.32" x2="97.04" y2="147.68"/><line class="cls-11" x1="102.43" y1="136.84" x2="101.62" y2="147.16"/><line class="cls-11" x1="106.49" y1="137.48" x2="106.03" y2="146.76"/><path class="cls-4" d="M91.56,36.83,89.2,45.18l24.9,7.73a3,3,0,0,0,1.74,0,4.79,4.79,0,0,0,3.55-4.7c.19-4.63-5.82-5.57-7.15-5.85S91.56,36.83,91.56,36.83Z"/><path class="cls-2" d="M132.5,30.4s4-.88,5.64.16,5.33,2,9.51,0c0,0,4.17,1.62,5.68,1.16s3.41-.83,3.71-2C157.5,28,139.58,22.87,132.5,30.4Z"/><circle class="cls-2" cx="115.36" cy="48.16" r="1.42"/><circle class="cls-2" cx="106.11" cy="45.59" r="1.42"/></g></g></svg>