<svg xmlns="http://www.w3.org/2000/svg" width="22.012" height="25.006" viewBox="0 0 22.012 25.006">
  <defs>
    <style></style>
  </defs>
  <path class="a"
        d="M26,1.994a1,1,0,0,0-.451.111L23.764,3H16.729A2,2,0,1,0,14,5.73V7H7.164A.993.993,0,0,0,6.2,8.281,4.766,4.766,0,0,0,9,11H21a4.766,4.766,0,0,0,2.8-2.719A1,1,0,0,0,22.834,7H16V5.729A2,2,0,0,0,16.73,5H24a1,1,0,0,0,.447-.106l2-1A1,1,0,0,0,26,1.994ZM6,13a1,1,0,1,0,0,2V25a1,1,0,1,0,0,2H24a1,1,0,1,0,0-2V15a1,1,0,1,0,0-2Zm5,8h8v4H11Z"
        transform="translate(-5 -1.994)"/>
</svg>
