<svg xmlns="http://www.w3.org/2000/svg" viewBox="0 0 215.59 198.12"><defs><style>.cls-1{fill:#fff;}.cls-2{fill:none;}.cls-3{fill:#c1c1c1;}.cls-4{fill:#b5b5b5;}.cls-5{fill:#cdcdcd;}.cls-6{fill:#919191;}.cls-7,.cls-8{fill:#e1e3e2;}.cls-8{opacity:0.62;}.cls-9{fill:#b88265;}</style></defs><g id="Ebene_2" data-name="Ebene 2"><g id="Ebene_2-2" data-name="Ebene 2"><g id="Rechteck_2318" data-name="Rechteck 2318"><rect class="cls-1" width="215.59" height="198.12"/><rect class="cls-2" x="0.29" y="0.38" width="215.02" height="197.37"/></g><g id="DelterPress"><rect class="cls-3" x="94" y="24.11" width="34.93" height="75.23"/><ellipse class="cls-4" cx="112.01" cy="102.57" rx="22.81" ry="9.81"/><ellipse class="cls-5" cx="112.27" cy="97.47" rx="18.71" ry="7.64"/><rect class="cls-4" x="82.61" y="147.75" width="58.81" height="35.72" rx="17.86"/><ellipse class="cls-5" cx="112.27" cy="155.61" rx="25.24" ry="9.46"/><path class="cls-6" d="M82.76,163.24l-9.14,4.65a.65.65,0,0,0-.1,1.09l6.33,5a2.27,2.27,0,0,0,1.2.48l4.2.41"/><path class="cls-6" d="M141.27,163.49l9.14,4.65a.66.66,0,0,1,.1,1.1l-6.33,5a2.27,2.27,0,0,1-1.2.48l-4.2.41"/><ellipse class="cls-4" cx="111.07" cy="21.59" rx="19.9" ry="3.17"/><path class="cls-4" d="M94,25.74s-8.4.14-8.77,0a11,11,0,0,1-2-.85c-1-.75-1.09-2.88.38-3.38l7.6-.4,2.31-.68,6.66-1.16,7.05-.52h2.25s14.43-.25,16.08,0,10.72,2,11.38,3.16a1,1,0,0,1-.4,1.43.39.39,0,0,0-.07.64l.39.35c.36.33.15.86-.38.94-3,.46-10.71,1.45-14.42.26l-3.71-.67"/><ellipse class="cls-7" cx="111.47" cy="21.91" rx="13.08" ry="2.54"/><path class="cls-8" d="M92.82,57.81h38.55a6,6,0,0,1,6,6v86.33a15,15,0,0,1-15,15H101A14.11,14.11,0,0,1,86.85,151V63.78a6,6,0,0,1,6-6Z"/><ellipse class="cls-9" cx="99.42" cy="153.73" rx="1.88" ry="0.94"/><ellipse class="cls-9" cx="100.12" cy="156.54" rx="1.88" ry="0.94"/><ellipse class="cls-9" cx="101.3" cy="159.36" rx="1.88" ry="0.94"/><ellipse class="cls-9" cx="105.05" cy="153.73" rx="1.88" ry="0.94"/><ellipse class="cls-9" cx="105.75" cy="156.54" rx="1.88" ry="0.94"/><ellipse class="cls-9" cx="106.92" cy="159.36" rx="1.88" ry="0.94"/><ellipse class="cls-9" cx="110.53" cy="153.73" rx="1.88" ry="0.94"/><ellipse class="cls-9" cx="111.23" cy="156.54" rx="1.88" ry="0.94"/><ellipse class="cls-9" cx="112.41" cy="159.36" rx="1.88" ry="0.94"/><ellipse class="cls-9" cx="116.16" cy="153.73" rx="1.88" ry="0.94"/><ellipse class="cls-9" cx="116.86" cy="156.54" rx="1.88" ry="0.94"/><ellipse class="cls-9" cx="118.03" cy="159.36" rx="1.88" ry="0.94"/><ellipse class="cls-9" cx="121.55" cy="153.43" rx="1.88" ry="0.94"/><ellipse class="cls-9" cx="122.25" cy="156.24" rx="1.88" ry="0.94"/><ellipse class="cls-9" cx="123.42" cy="159.06" rx="1.88" ry="0.94"/></g></g></g></svg>