<svg xmlns="http://www.w3.org/2000/svg" viewBox="0 0 235.06 207.34">
  <defs>
    <style>
      .cls-1,.cls-2{fill:none;stroke-miterlimit:10;stroke-width:9px;}.cls-1{stroke:#7f445c;}.cls-2{stroke:#97485c;}.cls-3{fill:#97485c;}.cls-4{fill:#d84e50;}.cls-5{fill:#7f445c;}.cls-6{fill:#936164;}
    </style>
  </defs>
  <g id="Ebene_2" data-name="Ebene 2">
    <g id="Ebene_1-2" data-name="Ebene 1">
      <path class="cls-1" d="M192.39,110.73c55.66-2.24,50.53,66.48-15.88,57.11"/>
      <path class="cls-2" d="M185.73,113.16c55.65-2.24,50.6,64.05-15.8,54.68"/>
      <path class="cls-3"
            d="M192.39,98.13c0,69.58-13.67,107.94-50.2,108.88-20.69.53-69.43-.94-95.64-.93C11.91,206.09,0,143.92,0,98.13"/>
      <path class="cls-4" d="M44.4,206C11.09,202.92,0,143.92,0,98.13l10.61,0S15.87,155.34,44.4,206Z"/>
      <path class="cls-5" d="M131.34,207.07c48.1,4.13,61-39.3,61-108.89l-40.45-.05S164.29,153.74,131.34,207.07Z"/>
      <path class="cls-6"
            d="M5.86,93.35s-7-45.8,12.52-46.39S39.26,66.24,39.26,66.24,37.87,86.11,47.61,89,67.11,92,69.89,90.2s7.23-10.58,14.62-10.52c8.37.08,10.51,2.12,18.47,7.9,0,0,23.29-3.86,32,10.59L6.36,98.09Z"/>
      <circle class="cls-6" cx="69.1" cy="56.69" r="7.58"/>
      <circle class="cls-6" cx="54.27" cy="34.43" r="5.04"/>
      <circle class="cls-6" cx="81.33" cy="7.44" r="7.44"/>
      <circle class="cls-6" cx="77.36" cy="31.6" r="2.61"/>
    </g>
  </g>
</svg>
