<svg width="200" height="200" viewBox="0 0 200 200" fill="none" xmlns="http://www.w3.org/2000/svg">
<path d="M116.991 22.6899H82.061V97.9199H116.991V22.6899Z" fill="#C1C1C1"/>
<path d="M100.071 110.96C112.668 110.96 122.881 106.568 122.881 101.15C122.881 95.7322 112.668 91.3401 100.071 91.3401C87.4731 91.3401 77.2607 95.7322 77.2607 101.15C77.2607 106.568 87.4731 110.96 100.071 110.96Z" fill="#B5B5B5"/>
<path d="M100.331 103.69C110.664 103.69 119.041 100.269 119.041 96.0499C119.041 91.8305 110.664 88.4099 100.331 88.4099C89.9978 88.4099 81.6211 91.8305 81.6211 96.0499C81.6211 100.269 89.9978 103.69 100.331 103.69Z" fill="#CDCDCD"/>
<path d="M111.621 146.33H88.5309C78.6671 146.33 70.6709 154.326 70.6709 164.19C70.6709 174.054 78.6671 182.05 88.5309 182.05H111.621C121.485 182.05 129.481 174.054 129.481 164.19C129.481 154.326 121.485 146.33 111.621 146.33Z" fill="#B5B5B5"/>
<path d="M100.331 163.65C114.27 163.65 125.571 159.415 125.571 154.19C125.571 148.965 114.27 144.73 100.331 144.73C86.3912 144.73 75.0908 148.965 75.0908 154.19C75.0908 159.415 86.3912 163.65 100.331 163.65Z" fill="#CDCDCD"/>
<path d="M70.8209 161.82L61.6809 166.47C61.5841 166.52 61.5015 166.594 61.4407 166.684C61.3799 166.775 61.3428 166.879 61.3328 166.988C61.3228 167.096 61.3403 167.206 61.3837 167.306C61.427 167.406 61.4948 167.493 61.5809 167.56L67.9109 172.56C68.2559 172.833 68.6728 173 69.1109 173.04L73.3109 173.45" fill="#919191"/>
<path d="M129.331 162.07L138.471 166.72C138.568 166.772 138.65 166.846 138.711 166.938C138.771 167.029 138.808 167.134 138.818 167.243C138.828 167.352 138.811 167.462 138.768 167.563C138.724 167.664 138.657 167.752 138.571 167.82L132.241 172.82C131.896 173.093 131.479 173.26 131.041 173.3L126.841 173.71" fill="#919191"/>
<path d="M99.131 23.34C110.121 23.34 119.031 21.9207 119.031 20.17C119.031 18.4193 110.121 17 99.131 17C88.1405 17 79.231 18.4193 79.231 20.17C79.231 21.9207 88.1405 23.34 99.131 23.34Z" fill="#B5B5B5"/>
<path d="M82.0607 24.3201C82.0607 24.3201 73.6607 24.4601 73.2907 24.3201C72.5976 24.1035 71.9277 23.8188 71.2907 23.4701C70.2907 22.7201 70.2007 20.5901 71.6707 20.0901L79.2707 19.6901L81.5807 19.0101L88.2407 17.8501L95.2907 17.3301H97.5407C97.5407 17.3301 111.971 17.0801 113.621 17.3301C115.271 17.5801 124.341 19.3301 125.001 20.4901C125.076 20.6084 125.125 20.7411 125.145 20.8796C125.165 21.018 125.156 21.1592 125.119 21.294C125.081 21.4288 125.015 21.5542 124.926 21.662C124.837 21.7699 124.726 21.8578 124.601 21.9201C124.545 21.95 124.497 21.9931 124.461 22.0456C124.426 22.0982 124.404 22.1586 124.397 22.2216C124.39 22.2847 124.399 22.3485 124.422 22.4074C124.445 22.4664 124.483 22.5188 124.531 22.5601L124.921 22.9101C125.281 23.2401 125.071 23.7701 124.541 23.8501C121.541 24.3101 113.831 25.3001 110.121 24.1101L106.411 23.4401" fill="#B5B5B5"/>
<path d="M99.5307 23.03C106.755 23.03 112.611 21.8928 112.611 20.49C112.611 19.0871 106.755 17.95 99.5307 17.95C92.3068 17.95 86.4507 19.0871 86.4507 20.49C86.4507 21.8928 92.3068 23.03 99.5307 23.03Z" fill="#E1E3E2"/>
<path opacity="0.62" d="M80.8807 56.3901H119.431C121.022 56.3901 122.548 57.0223 123.673 58.1475C124.799 59.2727 125.431 60.7988 125.431 62.3901V148.72C125.431 152.698 123.85 156.514 121.037 159.327C118.224 162.14 114.409 163.72 110.431 163.72H89.0607C87.2018 163.725 85.3603 163.363 83.6418 162.655C81.9233 161.946 80.3618 160.905 79.0469 159.591C77.732 158.277 76.6897 156.716 75.9799 154.998C75.2701 153.28 74.9067 151.439 74.9107 149.58V62.3601C74.9107 60.7688 75.5428 59.2427 76.668 58.1175C77.7933 56.9923 79.3194 56.3601 80.9107 56.3601L80.8807 56.3901Z" fill="#E1E3E2"/>
<path d="M87.4811 153.25C88.5194 153.25 89.3611 152.829 89.3611 152.31C89.3611 151.791 88.5194 151.37 87.4811 151.37C86.4428 151.37 85.6011 151.791 85.6011 152.31C85.6011 152.829 86.4428 153.25 87.4811 153.25Z" fill="#B88265"/>
<path d="M88.1808 156.06C89.2191 156.06 90.0608 155.639 90.0608 155.12C90.0608 154.601 89.2191 154.18 88.1808 154.18C87.1425 154.18 86.3008 154.601 86.3008 155.12C86.3008 155.639 87.1425 156.06 88.1808 156.06Z" fill="#B88265"/>
<path d="M89.361 158.88C90.3993 158.88 91.241 158.459 91.241 157.94C91.241 157.421 90.3993 157 89.361 157C88.3227 157 87.481 157.421 87.481 157.94C87.481 158.459 88.3227 158.88 89.361 158.88Z" fill="#B88265"/>
<path d="M93.111 153.25C94.1493 153.25 94.991 152.829 94.991 152.31C94.991 151.791 94.1493 151.37 93.111 151.37C92.0727 151.37 91.231 151.791 91.231 152.31C91.231 152.829 92.0727 153.25 93.111 153.25Z" fill="#B88265"/>
<path d="M93.8107 156.06C94.849 156.06 95.6907 155.639 95.6907 155.12C95.6907 154.601 94.849 154.18 93.8107 154.18C92.7724 154.18 91.9307 154.601 91.9307 155.12C91.9307 155.639 92.7724 156.06 93.8107 156.06Z" fill="#B88265"/>
<path d="M94.9811 158.88C96.0194 158.88 96.8611 158.459 96.8611 157.94C96.8611 157.421 96.0194 157 94.9811 157C93.9428 157 93.1011 157.421 93.1011 157.94C93.1011 158.459 93.9428 158.88 94.9811 158.88Z" fill="#B88265"/>
<path d="M98.5909 153.25C99.6292 153.25 100.471 152.829 100.471 152.31C100.471 151.791 99.6292 151.37 98.5909 151.37C97.5526 151.37 96.7109 151.791 96.7109 152.31C96.7109 152.829 97.5526 153.25 98.5909 153.25Z" fill="#B88265"/>
<path d="M99.2906 156.06C100.329 156.06 101.171 155.639 101.171 155.12C101.171 154.601 100.329 154.18 99.2906 154.18C98.2524 154.18 97.4106 154.601 97.4106 155.12C97.4106 155.639 98.2524 156.06 99.2906 156.06Z" fill="#B88265"/>
<path d="M100.471 158.88C101.509 158.88 102.351 158.459 102.351 157.94C102.351 157.421 101.509 157 100.471 157C99.4325 157 98.5908 157.421 98.5908 157.94C98.5908 158.459 99.4325 158.88 100.471 158.88Z" fill="#B88265"/>
<path d="M104.221 153.25C105.259 153.25 106.101 152.829 106.101 152.31C106.101 151.791 105.259 151.37 104.221 151.37C103.183 151.37 102.341 151.791 102.341 152.31C102.341 152.829 103.183 153.25 104.221 153.25Z" fill="#B88265"/>
<path d="M104.921 156.06C105.959 156.06 106.801 155.639 106.801 155.12C106.801 154.601 105.959 154.18 104.921 154.18C103.883 154.18 103.041 154.601 103.041 155.12C103.041 155.639 103.883 156.06 104.921 156.06Z" fill="#B88265"/>
<path d="M106.091 158.88C107.129 158.88 107.971 158.459 107.971 157.94C107.971 157.421 107.129 157 106.091 157C105.053 157 104.211 157.421 104.211 157.94C104.211 158.459 105.053 158.88 106.091 158.88Z" fill="#B88265"/>
<path d="M109.611 152.95C110.649 152.95 111.491 152.529 111.491 152.01C111.491 151.491 110.649 151.07 109.611 151.07C108.573 151.07 107.731 151.491 107.731 152.01C107.731 152.529 108.573 152.95 109.611 152.95Z" fill="#B88265"/>
<path d="M110.311 155.76C111.349 155.76 112.191 155.339 112.191 154.82C112.191 154.301 111.349 153.88 110.311 153.88C109.272 153.88 108.431 154.301 108.431 154.82C108.431 155.339 109.272 155.76 110.311 155.76Z" fill="#B88265"/>
<path d="M111.481 158.58C112.519 158.58 113.361 158.159 113.361 157.64C113.361 157.121 112.519 156.7 111.481 156.7C110.443 156.7 109.601 157.121 109.601 157.64C109.601 158.159 110.443 158.58 111.481 158.58Z" fill="#B88265"/>
</svg>
