<svg xmlns="http://www.w3.org/2000/svg" width="25.259" height="25.259" viewBox="0 0 25.259 25.259">
  <path id="icons8-sad"
        d="M14.63,2a12.63,12.63,0,1,0,12.63,12.63A12.649,12.649,0,0,0,14.63,2Zm0,2.526a10.1,10.1,0,1,1-10.1,10.1A10.085,10.085,0,0,1,14.63,4.526ZM10.841,12.1A1.263,1.263,0,1,0,12.1,13.367,1.263,1.263,0,0,0,10.841,12.1Zm7.578,0a1.263,1.263,0,1,0,1.263,1.263A1.263,1.263,0,0,0,18.419,12.1ZM14.63,17.175A9.367,9.367,0,0,0,9.188,18.9l1.468,2.055a6.917,6.917,0,0,1,7.948,0L20.071,18.9A9.36,9.36,0,0,0,14.63,17.175Z"
        transform="translate(-2 -2)" fill="#504027"/>
</svg>
