<svg xmlns="http://www.w3.org/2000/svg" width="76" height="79.356" viewBox="0 0 76 79.356">
  <g id="Gruppe_207" data-name="Gruppe 207" transform="translate(-71 -302.991)">
    <circle id="Ellipse_368" data-name="Ellipse 368" cx="38" cy="38" r="38" transform="translate(71 305)" fill="#ff5957"
            opacity="0.494"/>
    <g id="Gruppe_172" data-name="Gruppe 172" transform="translate(-179.14 -134.067)">
      <path id="Pfad_1373" data-name="Pfad 1373" d="M308.391,442.114H276.056l-2.858-5.056,38.14.048Z"
            transform="translate(-5.119)" fill="#643e4b"/>
      <path id="Pfad_1374" data-name="Pfad 1374"
            d="M264.978,450.1l46.229-.3s-9.8,35.043-9.783,35.733,9.7,30.533,9.7,30.533,2.75,8.1-3.8,8.244-19.007-.132-19.007-.132-17.681,0-19.28-.322c-1.391-.288-4.018-2.977-3.367-6.465.492-3.342,9.039-31.65,9.039-31.65Z"
            transform="translate(0 -7.937)" fill="#97485c"/>
      <path id="Pfad_1375" data-name="Pfad 1375" d="M274.859,486.4l-9.881-35.974,16.1-.105,5.491,35.8"
            transform="translate(0 -8.263)" fill="#7f445c"/>
      <path id="Pfad_1376" data-name="Pfad 1376"
            d="M287.54,545.1l-11.865-.1s-8.547,28.308-9.039,31.651c-.651,3.488,1.976,6.176,3.366,6.464,1.6.319,9.062.322,9.062.322"
            transform="translate(-0.969 -67.22)" fill="#7f445c"/>
      <path id="Pfad_1377" data-name="Pfad 1377" d="M290.767,544.991" transform="translate(-16.061 -67.22)"
            fill="#7f445c"/>
      <path id="Pfad_1378" data-name="Pfad 1378" d="M310.015,526.317H277.681L274.822,516.2l38.14.1Z"
            transform="translate(-6.131 -49.291)" fill="#ff5957"/>
      <path id="Pfad_1379" data-name="Pfad 1379" d="M310.015,543.014H277.681l-2.858,10.113,38.14-.1Z"
            transform="translate(-6.131 -65.988)" fill="#d84e50"/>
      <g id="Gruppe_171" data-name="Gruppe 171" transform="translate(271.336 475.43)">
        <path id="Pfad_1380" data-name="Pfad 1380" d="M281.833,543.145c.95.209,32.62,0,32.62,0"
              transform="translate(-281.833 -541.5)" fill="none" stroke="#4c2f3a" stroke-linecap="round"
              stroke-miterlimit="10" stroke-width="0.75"/>
        <circle id="Ellipse_411" data-name="Ellipse 411" cx="1.605" cy="1.605" r="1.605" transform="translate(23.564 0)"
                fill="#b23b44" stroke="#4c2f3a" stroke-miterlimit="10" stroke-width="0.5"/>
        <line id="Linie_71" data-name="Linie 71" y2="6.728" transform="translate(23.565 1.605)" fill="none"
              stroke="#4c2f3a" stroke-linecap="round" stroke-miterlimit="10" stroke-width="0.5"/>
        <line id="Linie_72" data-name="Linie 72" y2="12.706" transform="translate(26.769 1.496)" fill="none"
              stroke="#4c2f3a" stroke-linecap="round" stroke-miterlimit="10" stroke-width="0.5"/>
      </g>
      <path id="Pfad_1381" data-name="Pfad 1381"
            d="M308.391,594.255c2.031,6.308,3.8,11.776,3.8,11.776s2.75,8.1-3.8,8.244-19.007-.132-19.007-.132-17.681,0-19.28-.322c-1.39-.288-4.018-2.977-3.367-6.465.2-1.37,1.757-6.937,3.523-13.029"
            transform="translate(-1.036 -97.901)" fill="#643e4b" opacity="0.53"/>
    </g>
  </g>
</svg>
