<?xml version="1.0" encoding="UTF-8"?>
<svg xmlns="http://www.w3.org/2000/svg" xmlns:xlink="http://www.w3.org/1999/xlink" viewBox="0 0 24 24" width="24px" height="24px">
<g id="surface65042061">
<path style=" stroke:none;fill-rule:nonzero;fill:rgb(80.392158%,76.078433%,67.450982%);fill-opacity:1;" d="M 12 24 C 5.371094 24 0 18.628906 0 12 C 0 5.371094 5.371094 0 12 0 C 18.628906 0 24 5.371094 24 12 C 24 18.628906 18.628906 24 12 24 Z M 12 24 "/>
<path style=" stroke:none;fill-rule:nonzero;fill:rgb(100%,100%,100%);fill-opacity:1;" d="M 4.199219 4.199219 L 4.199219 10.050781 L 10.050781 10.050781 L 10.050781 4.199219 Z M 11.351562 4.199219 L 11.351562 5.5 L 12.648438 5.5 L 12.648438 4.199219 Z M 13.949219 4.199219 L 13.949219 10.050781 L 19.800781 10.050781 L 19.800781 4.199219 Z M 5.5 5.5 L 8.75 5.5 L 8.75 8.75 L 5.5 8.75 Z M 15.25 5.5 L 18.5 5.5 L 18.5 8.75 L 15.25 8.75 Z M 6.148438 6.148438 L 6.148438 8.101562 L 8.101562 8.101562 L 8.101562 6.148438 Z M 15.898438 6.148438 L 15.898438 8.101562 L 17.851562 8.101562 L 17.851562 6.148438 Z M 11.351562 6.800781 L 11.351562 9.398438 L 12.648438 9.398438 L 12.648438 6.800781 Z M 4.199219 10.699219 L 4.199219 12 L 5.5 12 L 5.5 10.699219 Z M 5.5 12 L 5.5 13.300781 L 8.101562 13.300781 L 8.101562 12 L 9.398438 12 L 9.398438 13.300781 L 14.601562 13.300781 L 14.601562 12 L 15.898438 12 L 15.898438 10.699219 L 12.648438 10.699219 L 12.648438 12 L 12 12 L 12 10.699219 L 6.800781 10.699219 L 6.800781 12 Z M 15.898438 12 L 15.898438 13.300781 L 19.800781 13.300781 L 19.800781 12 L 18.5 12 L 18.5 10.699219 L 17.199219 10.699219 L 17.199219 12 Z M 4.199219 13.949219 L 4.199219 19.800781 L 10.050781 19.800781 L 10.050781 13.949219 Z M 12.648438 14.601562 L 12.648438 15.898438 L 11.351562 15.898438 L 11.351562 18.5 L 12.648438 18.5 L 12.648438 17.199219 L 13.949219 17.199219 L 13.949219 15.898438 L 15.25 15.898438 L 15.25 14.601562 Z M 15.25 15.898438 L 15.25 17.199219 L 13.949219 17.199219 L 13.949219 19.800781 L 15.25 19.800781 L 15.25 18.5 L 16.550781 18.5 L 16.550781 17.199219 L 17.199219 17.199219 L 17.199219 18.5 L 16.550781 18.5 L 16.550781 19.800781 L 17.851562 19.800781 L 17.851562 18.5 L 18.5 18.5 L 18.5 17.199219 L 19.800781 17.199219 L 19.800781 14.601562 L 16.550781 14.601562 L 16.550781 15.898438 Z M 18.5 18.5 L 18.5 19.800781 L 19.800781 19.800781 L 19.800781 18.5 Z M 5.5 15.25 L 8.75 15.25 L 8.75 18.5 L 5.5 18.5 Z M 6.148438 15.898438 L 6.148438 17.851562 L 8.101562 17.851562 L 8.101562 15.898438 Z M 6.148438 15.898438 "/>
</g>
</svg>
