<svg xmlns="http://www.w3.org/2000/svg" width="15.317" height="14.59" viewBox="0 0 15.317 14.59">
  <path id="icons8-star" d="M3.1,15.59a.436.436,0,0,1-.184-.061.34.34,0,0,1-.123-.337l1.349-5.027L.1,6.885a.291.291,0,0,1-.123-.337.294.294,0,0,1,.276-.215l5.211-.276,1.87-4.873A.406.406,0,0,1,7.638,1a.31.31,0,0,1,.276.184l1.87,4.873,5.211.276a.294.294,0,0,1,.276.215.346.346,0,0,1-.092.337l-4.046,3.28,1.349,5.027a.306.306,0,0,1-.123.337.276.276,0,0,1-.337,0l-4.383-2.82-4.383,2.82A.169.169,0,0,1,3.1,15.59Z" transform="translate(0.036 -1)" fill="#504027"/>
</svg>
