<?xml version="1.0" encoding="UTF-8"?>
<svg xmlns="http://www.w3.org/2000/svg" xmlns:xlink="http://www.w3.org/1999/xlink" viewBox="0 0 60 60" width="60px" height="60px">
<g id="surface157294265">
<path style=" stroke:none;fill-rule:nonzero;fill:var(--beanconqueror-icon-color);fill-opacity:1;" d="M 30 60 C 13.429688 60 0 46.570312 0 30 C 0 13.429688 13.429688 0 30 0 C 46.570312 0 60 13.429688 60 30 C 60 46.570312 46.570312 60 30 60 Z M 30 60 "/>
<path style=" stroke:none;fill-rule:nonzero;fill:rgb(100%,100%,100%);fill-opacity:1;" d="M 16.199219 12 C 13.882812 12 12 13.882812 12 16.199219 L 12 43.800781 C 12 46.117188 13.882812 48 16.199219 48 L 43.800781 48 C 46.117188 48 48 46.117188 48 43.800781 L 48 16.199219 C 48 13.882812 46.117188 12 43.800781 12 C 43.46875 12 43.199219 12.269531 43.199219 12.601562 C 43.199219 12.929688 43.46875 13.199219 43.800781 13.199219 C 45.453125 13.199219 46.800781 14.546875 46.800781 16.199219 L 46.800781 43.800781 C 46.800781 45.453125 45.453125 46.800781 43.800781 46.800781 L 16.199219 46.800781 C 14.546875 46.800781 13.199219 45.453125 13.199219 43.800781 L 13.199219 16.199219 C 13.199219 14.546875 14.546875 13.199219 16.199219 13.199219 L 40.21875 13.199219 C 40.546875 13.199219 40.816406 12.929688 40.816406 12.601562 C 40.816406 12.269531 40.546875 12 40.21875 12 Z M 23.023438 15.675781 C 22.03125 15.675781 21.226562 16.484375 21.226562 17.476562 L 21.226562 20.476562 C 21.226562 21.46875 22.03125 22.273438 23.023438 22.273438 L 24 22.273438 C 24.992188 22.273438 25.800781 21.46875 25.800781 20.476562 L 25.800781 17.476562 C 25.800781 16.484375 24.992188 15.675781 24 15.675781 Z M 31.425781 15.675781 C 30.433594 15.675781 29.625 16.484375 29.625 17.476562 L 29.625 20.476562 C 29.625 21.46875 30.433594 22.273438 31.425781 22.273438 L 32.398438 22.273438 C 33.390625 22.273438 34.199219 21.46875 34.199219 20.476562 L 34.199219 17.476562 C 34.199219 16.484375 33.390625 15.675781 32.398438 15.675781 Z M 37.425781 15.675781 C 36.433594 15.675781 35.625 16.484375 35.625 17.476562 L 35.625 20.476562 C 35.625 21.46875 36.433594 22.273438 37.425781 22.273438 L 38.398438 22.273438 C 39.390625 22.273438 40.199219 21.46875 40.199219 20.476562 L 40.199219 17.476562 C 40.199219 16.484375 39.390625 15.675781 38.398438 15.675781 Z M 23.023438 16.875 L 24 16.875 C 24.332031 16.875 24.601562 17.144531 24.601562 17.476562 L 24.601562 20.476562 C 24.601562 20.804688 24.332031 21.074219 24 21.074219 L 23.023438 21.074219 C 22.695312 21.074219 22.425781 20.804688 22.425781 20.476562 L 22.425781 17.476562 C 22.425781 17.144531 22.695312 16.875 23.023438 16.875 Z M 31.425781 16.875 L 32.398438 16.875 C 32.730469 16.875 33 17.144531 33 17.476562 L 33 20.476562 C 33 20.804688 32.730469 21.074219 32.398438 21.074219 L 31.425781 21.074219 C 31.09375 21.074219 30.824219 20.804688 30.824219 20.476562 L 30.824219 17.476562 C 30.824219 17.144531 31.09375 16.875 31.425781 16.875 Z M 37.425781 16.875 L 38.398438 16.875 C 38.730469 16.875 39 17.144531 39 17.476562 L 39 20.476562 C 39 20.804688 38.730469 21.074219 38.398438 21.074219 L 37.425781 21.074219 C 37.09375 21.074219 36.824219 20.804688 36.824219 20.476562 L 36.824219 17.476562 C 36.824219 17.144531 37.09375 16.875 37.425781 16.875 Z M 27.675781 19.441406 C 27.34375 19.441406 27.074219 19.707031 27.074219 20.039062 L 27.074219 20.699219 C 27.074219 21.03125 27.34375 21.300781 27.675781 21.300781 C 28.007812 21.300781 28.273438 21.03125 28.273438 20.699219 L 28.273438 20.039062 C 28.273438 19.707031 28.007812 19.441406 27.675781 19.441406 Z M 29.023438 39.976562 C 28.695312 39.976562 28.425781 40.242188 28.425781 40.574219 C 28.425781 40.90625 28.695312 41.175781 29.023438 41.175781 L 30.976562 41.175781 C 31.304688 41.175781 31.574219 40.90625 31.574219 40.574219 C 31.574219 40.242188 31.304688 39.976562 30.976562 39.976562 Z M 29.023438 39.976562 "/>
<path style=" stroke:none;fill-rule:nonzero;fill:rgb(100%,100%,100%);fill-opacity:1;" d="M 37.070312 25.855469 L 37.070312 28.753906 L 31.753906 28.753906 L 31.753906 43.214844 L 28.175781 43.214844 L 28.175781 28.753906 L 22.929688 28.753906 L 22.929688 25.855469 Z M 37.070312 25.855469 "/>
</g>
</svg>
