<svg xmlns="http://www.w3.org/2000/svg" width="20" height="20" viewBox="0 0 20 20">
  <g id="Gruppe_218" data-name="Gruppe 218" transform="translate(1275 961)">
    <g id="Gruppe_217" data-name="Gruppe 217" transform="translate(-1461 -1155)">
      <circle id="Ellipse_348" data-name="Ellipse 348" cx="10" cy="10" r="10" transform="translate(186 194)" fill="#ae9f87"/>
    </g>
    <path id="icons8-radar" d="M10.9,3a7.9,7.9,0,1,0,7.9,7.9A7.9,7.9,0,0,0,10.9,3Zm0,.718a7.139,7.139,0,0,1,4.814,1.865L14.7,6.59a5.743,5.743,0,0,0-7.7.089A1.06,1.06,0,0,0,6.59,6.59a1.076,1.076,0,0,0-.83,1.762A5.455,5.455,0,0,0,5.154,10.9a5.711,5.711,0,0,0,4.7,5.633,1.066,1.066,0,0,0,2.087-.012A5.725,5.725,0,0,0,15.209,7.1l1.01-1.01A7.174,7.174,0,1,1,10.9,3.718Zm0,2.154a4.99,4.99,0,0,1,3.286,1.234L13.18,8.128h-.012a3.552,3.552,0,0,0-2.264-.82,3.59,3.59,0,1,0,2.558,6.1.72.72,0,0,0,.673-.718.71.71,0,0,0-.022-.191,3.552,3.552,0,0,0-.438-3.871V8.621L14.7,7.612a5,5,0,0,1-2.828,8.2,1.066,1.066,0,0,0-1.93.012A4.993,4.993,0,0,1,5.873,10.9a4.735,4.735,0,0,1,.5-2.181,1.066,1.066,0,0,0,.213.022A1.083,1.083,0,0,0,7.668,7.668a1.066,1.066,0,0,0-.139-.505A4.951,4.951,0,0,1,10.9,5.873ZM6.59,7.309a.355.355,0,1,1-.355.355A.355.355,0,0,1,6.59,7.309Zm4.309.718a2.855,2.855,0,0,1,1.762.606l-1.3,1.3a1.06,1.06,0,0,0-.46-.112A1.077,1.077,0,1,0,11.977,10.9a1.06,1.06,0,0,0-.112-.46l1.3-1.3a2.855,2.855,0,0,1,.6,1.762,2.888,2.888,0,0,1-.213,1.088.715.715,0,0,0-.763,1.066A2.872,2.872,0,1,1,10.9,8.027Zm0,2.513a.355.355,0,1,1-.25.1.355.355,0,0,1,.25-.1Zm0,5.386a.355.355,0,1,1-.25.1.355.355,0,0,1,.25-.1Z" transform="translate(-1276 -962.007)" fill="#fff"/>
  </g>
</svg>
