<svg xmlns="http://www.w3.org/2000/svg" width="17.791" height="17.791" viewBox="0 0 17.791 17.791">
  <path id="icons8-radar"
        d="M11.9,3a8.9,8.9,0,1,0,8.9,8.9A8.9,8.9,0,0,0,11.9,3Zm0,.809a8.039,8.039,0,0,1,5.421,2.1L16.179,7.043a6.467,6.467,0,0,0-8.668.1,1.194,1.194,0,0,0-.468-.1,1.212,1.212,0,0,0-.935,1.984A6.143,6.143,0,0,0,5.426,11.9a6.431,6.431,0,0,0,5.294,6.343,1.2,1.2,0,0,0,2.35-.013A6.447,6.447,0,0,0,16.748,7.612l1.137-1.137A8.079,8.079,0,1,1,11.9,3.809Zm0,2.426a5.619,5.619,0,0,1,3.7,1.39l-1.137,1.15s-.009,0-.013,0A4,4,0,0,0,11.9,7.852a4.043,4.043,0,1,0,2.881,6.874.811.811,0,0,0,.758-.809.8.8,0,0,0-.025-.215,4,4,0,0,0-.493-4.359s0-.009,0-.013l1.15-1.137a5.632,5.632,0,0,1-3.184,9.237,1.2,1.2,0,0,0-2.173.013A5.622,5.622,0,0,1,6.235,11.9,5.332,5.332,0,0,1,6.8,9.444a1.2,1.2,0,0,0,.24.025A1.219,1.219,0,0,0,8.257,8.257,1.2,1.2,0,0,0,8.1,7.688,5.575,5.575,0,0,1,11.9,6.235ZM7.043,7.852a.4.4,0,1,1-.4.4A.4.4,0,0,1,7.043,7.852Zm4.852.809a3.215,3.215,0,0,1,1.984.682l-1.466,1.466a1.194,1.194,0,0,0-.518-.126A1.213,1.213,0,1,0,13.109,11.9a1.194,1.194,0,0,0-.126-.518l1.466-1.466A3.215,3.215,0,0,1,15.13,11.9a3.253,3.253,0,0,1-.24,1.226.805.805,0,0,0-.859,1.2A3.234,3.234,0,1,1,11.9,8.661Zm0,2.83a.4.4,0,1,1-.4.4A.4.4,0,0,1,11.9,11.491Zm0,6.065a.4.4,0,1,1-.4.4A.4.4,0,0,1,11.9,17.556Z"
        transform="translate(-3 -3)" fill="#fff"/>
</svg>
