<svg xmlns="http://www.w3.org/2000/svg" viewBox="0 0 215.59 198.12"><defs><style>.cls-1{fill:#fff;}.cls-2{fill:#b6b6b5;}.cls-3{fill:#cecdcc;}.cls-4,.cls-5,.cls-6{fill:none;stroke-miterlimit:10;}.cls-4,.cls-6{stroke:#b6b6b5;}.cls-4{stroke-width:3px;}.cls-5{stroke:#cecdcc;stroke-width:2px;}.cls-6{stroke-width:4px;}.cls-7{fill:#9c9b9b;}.cls-8{fill:#9f8c6f;}</style></defs><g id="Ebene_2" data-name="Ebene 2"><g id="Ebene_1-2" data-name="Ebene 1"><rect class="cls-1" width="215.59" height="198.12"/><circle class="cls-2" cx="107.93" cy="21.05" r="11.88"/><ellipse class="cls-3" cx="107.81" cy="119.83" rx="19.26" ry="5.88"/><path class="cls-2" d="M103.93,125.59c-8.78-.55-15.38-2.92-15.38-5.76,0-2.61,5.59-4.82,13.32-5.59"/><rect class="cls-3" x="88.55" y="88.45" width="38.51" height="31.38"/><polyline class="cls-2" points="97.61 88.45 88.55 88.45 88.55 119.83 102.84 119.83"/><path class="cls-4" d="M98,25.72s-9.74-2.6-14.15,2.05-30.1,97.94-30.1,97.94"/><path class="cls-4" d="M97.08,35.12s-10.75-3.19-13,4.89-26.44,87.62-26.44,87.62"/><path class="cls-4" d="M43,138.44s-1.76-15.16,11.84-11.3c12.21,3.46,4.74,15.67,4.74,15.67"/><path class="cls-4" d="M117.56,25.72s9.74-2.6,14.15,2.05,30.1,97.94,30.1,97.94"/><path class="cls-4" d="M118.51,35.12s10.75-3.19,13,4.89,26.44,87.62,26.44,87.62"/><path class="cls-4" d="M172.58,138.44s1.76-15.16-11.84-11.3c-12.21,3.46-4.74,15.67-4.74,15.67"/><rect class="cls-3" x="104.03" y="124.5" width="8.16" height="10.02"/><path class="cls-5" d="M87.53,82.37S77.11,78,74.78,88.45v85.68"/><path class="cls-5" d="M87.87,86.54s-5.23-2.22-6.71,1.91v85.68"/><path class="cls-5" d="M128.76,82.2s10.42-4.34,12.75,6.08V174"/><path class="cls-5" d="M128.42,86.37s5.23-2.22,6.71,1.91V174"/><rect class="cls-3" x="62.96" y="172.79" width="90.78" height="6.19"/><rect class="cls-6" x="65.99" y="178.98" width="84.71" height="2.77"/><path class="cls-2" d="M99.67,29.58S89.8,45.19,86.3,47.94s0,40.51,0,40.51h43.27V46.94s-12-12.21-13.37-17.36"/><path class="cls-7" d="M99.77,29.58S89.91,45.19,86.41,47.94s0,40.51,0,40.51h20.85"/><circle class="cls-8" cx="107.93" cy="20.77" r="5.56"/></g></g></svg>