<svg xmlns="http://www.w3.org/2000/svg" viewBox="0 0 215.59 198.12"><defs><style>.cls-1{fill:#fff;}.cls-2{fill:none;}.cls-3{fill:#b5b5b5;}.cls-4{fill:#cdcdcd;}.cls-5{fill:#e1e3e2;}.cls-6{fill:#b88265;}</style></defs><g id="Ebene_2" data-name="Ebene 2"><g id="Ebene_1-2" data-name="Ebene 1"><g id="Rechteck_2318" data-name="Rechteck 2318"><rect class="cls-1" width="215.59" height="198.12"/><rect class="cls-2" x="0.29" y="0.38" width="215.02" height="197.37"/></g><g id="InvertedAeropress"><path class="cls-3" d="M131.94,30.37H87.61s.61-4.78,2.81-5.33,35.39-.25,37.74,0S131.94,30.37,131.94,30.37Z"/><ellipse class="cls-4" cx="109.22" cy="34.18" rx="42.83" ry="5.47"/><path class="cls-5" d="M93.77,115.3v55h30.89v-55c0-5.62,7.63-7.42,7.63-7.42v-5.82H86.15v5.82S93.77,109.68,93.77,115.3Z"/><polygon class="cls-3" points="109.38 174.05 132.56 174.05 132.56 168.95 124.93 165.55 109.38 165.55 93.83 165.55 86.2 168.95 86.2 174.05 109.38 174.05"/><rect class="cls-3" x="82.65" y="32.35" width="53.47" height="73.42" rx="2.15" transform="translate(218.76 138.12) rotate(180)"/><path class="cls-4" d="M117.57,32.35h18.55a0,0,0,0,1,0,0v73.42a0,0,0,0,1,0,0H117.57a2.15,2.15,0,0,1-2.15-2.15V34.5A2.15,2.15,0,0,1,117.57,32.35Z" transform="translate(251.53 138.12) rotate(180)"/><path class="cls-6" d="M100.88,54.64a2.93,2.93,0,1,1,2.92,2.92A2.93,2.93,0,0,1,100.88,54.64Z"/><path class="cls-6" d="M100.88,69.06A2.93,2.93,0,1,1,103.8,72,2.92,2.92,0,0,1,100.88,69.06Z"/><path class="cls-6" d="M100.88,83.48a2.93,2.93,0,1,1,2.92,2.93A2.92,2.92,0,0,1,100.88,83.48Z"/><path class="cls-5" d="M66.39,34.49c0-3.19,19.17-5.78,42.83-5.78s42.83,2.59,42.83,5.78"/></g></g></g></svg>