<svg fill-rule="nonzero" height="480px" viewBox="0,0,256,256" width="480px" xmlns="http://www.w3.org/2000/svg" xmlns:xlink="http://www.w3.org/1999/xlink"><g fill="#ae9f87" fill-rule="nonzero" font-family="none" font-size="none" font-weight="none" stroke="none" stroke-dasharray="" stroke-dashoffset="0" stroke-linecap="butt" stroke-linejoin="miter" stroke-miterlimit="10" stroke-width="1" style="mix-blend-mode: normal" text-anchor="none"><g transform="scale(0.53333,0.53333)"><path d="M56,0c-30.878,0 -56,25.122 -56,56v368c0,30.878 25.122,56 56,56h368c30.879,0 56,-25.122 56,-56v-368c0,-30.878 -25.121,-56 -56,-56c-4.418,0 -8,3.582 -8,8c0,4.418 3.582,8 8,8c22.056,0 40,17.944 40,40v368c0,22.056 -17.944,40 -40,40h-368c-22.056,0 -40,-17.944 -40,-40v-368c0,-22.056 17.944,-40 40,-40h320.22656c4.418,0 8,-3.582 8,-8c0,-4.418 -3.582,-8 -8,-8zM147,49c-13.234,0 -24,10.766 -24,24v40c0,13.234 10.766,24 24,24h13c13.234,0 24,-10.766 24,-24v-40c0,-13.234 -10.766,-24 -24,-24zM259,49c-13.233,0 -24,10.766 -24,24v40c0,13.234 10.767,24 24,24h13c13.233,0 24,-10.766 24,-24v-40c0,-13.234 -10.767,-24 -24,-24zM339,49c-13.233,0 -24,10.766 -24,24v40c0,13.234 10.767,24 24,24h13c13.233,0 24,-10.766 24,-24v-40c0,-13.234 -10.767,-24 -24,-24zM147,65h13c4.411,0 8,3.589 8,8v40c0,4.411 -3.589,8 -8,8h-13c-4.411,0 -8,-3.589 -8,-8v-40c0,-4.411 3.589,-8 8,-8zM259,65h13c4.411,0 8,3.589 8,8v40c0,4.411 -3.589,8 -8,8h-13c-4.411,0 -8,-3.589 -8,-8v-40c0,-4.411 3.589,-8 8,-8zM339,65h13c4.411,0 8,3.589 8,8v40c0,4.411 -3.589,8 -8,8h-13c-4.411,0 -8,-3.589 -8,-8v-40c0,-4.411 3.589,-8 8,-8zM209,99.19336c-4.418,0 -8,3.582 -8,8v8.80664c0,4.418 3.582,8 8,8c4.418,0 8,-3.582 8,-8v-8.80664c0,-4.418 -3.582,-8 -8,-8zM227,373c-4.418,0 -8,3.582 -8,8c0,4.418 3.582,8 8,8h26c4.418,0 8,-3.582 8,-8c0,-4.418 -3.582,-8 -8,-8z"></path></g></g></svg>
