<svg xmlns="http://www.w3.org/2000/svg" width="20" height="20" viewBox="0 0 20 20">
  <g id="Gruppe_159" data-name="Gruppe 159" transform="translate(-186 -266)">
    <circle id="Ellipse_354" data-name="Ellipse 354" cx="10" cy="10" r="10" transform="translate(186 266)"
            fill="#ae9f87"/>
    <path id="icons8-edit"
          d="M8.051,1.063,2.306,6.807,1.074,10.678,4.945,9.446,10.69,3.7a2.919,2.919,0,0,0-.88-1.759A2.92,2.92,0,0,0,8.051,1.063Zm.165.715a2.083,2.083,0,0,1,1.136.587,2.619,2.619,0,0,1,.623,1.173l-.8.8L7.419,2.574l.632-.632ZM2.791,7.248a2.526,2.526,0,0,1,1.054.659A2.046,2.046,0,0,1,4.5,8.919l.019.022-1.561.5-.658-.658Z"
          transform="translate(189.926 270.185)" fill="#fff"/>
  </g>
</svg>
