<svg xmlns="http://www.w3.org/2000/svg" width="19" height="19" viewBox="0 0 19 19">
  <path id="icons8-cancel" d="M15.5,6A9.507,9.507,0,0,0,6,15.5,9.507,9.507,0,0,0,15.5,25,9.507,9.507,0,0,0,25,15.5,9.507,9.507,0,0,0,15.5,6Zm0,.983a8.5,8.5,0,0,1,6.028,2.49,8.407,8.407,0,0,1,2.49,6.028A8.524,8.524,0,0,1,9.472,21.528,8.407,8.407,0,0,1,6.983,15.5a8.5,8.5,0,0,1,2.49-6.028A8.407,8.407,0,0,1,15.5,6.983ZM13.3,12.8a.455.455,0,0,0-.338.147.475.475,0,0,0,0,.688L14.812,15.5l-1.867,1.851a.475.475,0,0,0,0,.688.475.475,0,0,0,.688,0L15.5,16.188l1.851,1.851a.475.475,0,0,0,.688,0,.475.475,0,0,0,0-.688L16.188,15.5l1.851-1.851a.51.51,0,0,0,.016-.7.475.475,0,0,0-.688,0L15.5,14.812l-1.851-1.867A.5.5,0,0,0,13.3,12.8Z" transform="translate(-6 -6)" fill="#9f8c6f"/>
</svg>
