<svg xmlns="http://www.w3.org/2000/svg" width="76" height="80.184" viewBox="0 0 76 80.184">
  <g id="Gruppe_213" data-name="Gruppe 213" transform="translate(-29 -146)">
    <circle id="Ellipse_368" data-name="Ellipse 368" cx="38" cy="38" r="38" transform="translate(29 150)" fill="#ff5957"
            opacity="0.494"/>
    <g id="Gruppe_194" data-name="Gruppe 194" transform="translate(-254.14 72.796)">
      <rect id="Rechteck_2167" data-name="Rechteck 2167" width="42.859" height="27.511" rx="13.756"
            transform="translate(299.113 89.472)" fill="#5c3844"/>
      <rect id="Rechteck_2168" data-name="Rechteck 2168" width="68.696" height="6.279" rx="3.14"
            transform="translate(286.308 105.825)" fill="#77455a"/>
      <rect id="Rechteck_2169" data-name="Rechteck 2169" width="68.696" height="6.279" rx="3.14"
            transform="translate(286.308 147.109)" fill="#77455a"/>
      <rect id="Rechteck_2170" data-name="Rechteck 2170" width="54.251" height="3.535"
            transform="translate(293.465 102.29)" fill="#5c3844"/>
      <rect id="Rechteck_2171" data-name="Rechteck 2171" width="14.934" height="2.894"
            transform="translate(313.158 86.779)" fill="#643e4b"/>
      <rect id="Rechteck_2172" data-name="Rechteck 2172" width="13.699" height="3.577" rx="1.789"
            transform="translate(322.31 74.059) rotate(90)" fill="#643e4b"/>
      <rect id="Rechteck_2173" data-name="Rechteck 2173" width="17.715" height="3.577" rx="1.789"
            transform="translate(313.102 79.911)" fill="#d84e50"/>
      <rect id="Rechteck_2174" data-name="Rechteck 2174" width="11.962" height="3.577" rx="1.789"
            transform="translate(327.22 81.162) rotate(-38.21)" fill="#d84e50"/>
      <rect id="Rechteck_2175" data-name="Rechteck 2175" width="60.279" height="35.135"
            transform="translate(290.202 112.08)" fill="#97485c"/>
      <rect id="Rechteck_2176" data-name="Rechteck 2176" width="17.217" height="35.24"
            transform="translate(333.257 111.956)" fill="#7f445c"/>
      <g id="Gruppe_168" data-name="Gruppe 168" transform="translate(297.592 119.186)">
        <rect id="Rechteck_2177" data-name="Rechteck 2177" width="46.369" height="20.793" transform="translate(0)"
              fill="#ff5957"/>
        <rect id="Rechteck_2178" data-name="Rechteck 2178" width="10.269" height="19.721"
              transform="translate(35.616 0.538)" fill="#d84e50"/>
      </g>
      <rect id="Rechteck_2179" data-name="Rechteck 2179" width="25.071" height="6.279" rx="3.14"
            transform="translate(329.933 105.828)" fill="#643e4b"/>
      <rect id="Rechteck_2180" data-name="Rechteck 2180" width="25.071" height="6.145" rx="3.073"
            transform="translate(329.933 147.136)" fill="#643e4b"/>
      <rect id="Rechteck_2181" data-name="Rechteck 2181" width="26.506" height="3.402"
            transform="translate(321.205 102.293)" fill="#4c2f3a"/>
      <rect id="Rechteck_2182" data-name="Rechteck 2182" width="5.372" height="2.908"
            transform="translate(322.737 86.778)" fill="#4c2f3a"/>
      <rect id="Rechteck_2183" data-name="Rechteck 2183" width="22.14" height="6.2"
            transform="translate(329.446 105.867)" fill="#643e4b"/>
      <rect id="Rechteck_2184" data-name="Rechteck 2184" width="22.14" height="6.12"
            transform="translate(329.446 147.188)" fill="#643e4b"/>
      <path id="Pfad_1364" data-name="Pfad 1364"
            d="M421.262,133.673s11.014,6.627,9.21,12.641h9.89s3.275-13.354-7.908-12.834Z"
            transform="translate(-98.527 -43.995)" fill="#4c2f3a"/>
      <rect id="Rechteck_2185" data-name="Rechteck 2185" width="19.529" height="6.251" rx="3.125"
            transform="translate(335.494 73.204)" fill="#c1484e"/>
      <rect id="Rechteck_2186" data-name="Rechteck 2186" width="4.419" height="6.251" rx="2.21"
            transform="translate(350.604 73.204)" fill="#aa3f4a"/>
    </g>
  </g>
</svg>
