<svg width="200" height="200" viewBox="0 0 200 200" fill="none" xmlns="http://www.w3.org/2000/svg">
<path d="M141.5 138.43C141.5 146.69 127.5 148.11 91.08 148.43C52.65 148.82 41 145.11 41 137.9C41 131.69 63.33 131.96 91.08 131.96C118.83 131.96 141.5 132.22 141.5 138.43Z" fill="#C1C1C1"/>
<path d="M141.5 137.94C141.5 144.15 118.83 146.69 91.08 146.69C63.33 146.69 41 144.15 41 137.94C41 131.73 63.33 132 91.08 132C118.83 132 141.5 131.73 141.5 137.94Z" fill="#CFD0D1"/>
<path d="M80.7999 143.87H112.48C113.642 143.87 114.756 143.408 115.577 142.587C116.398 141.766 116.86 140.652 116.86 139.49V137.49L117.86 134.66L79.6699 134.77" fill="#B7B7B7"/>
<path d="M79.66 134.68H69.73L70.97 137.37V139.78C70.97 140.841 71.3914 141.858 72.1416 142.608C72.8917 143.359 73.9091 143.78 74.97 143.78H80.8" fill="#B7B7B7"/>
<path d="M67.25 60.51L38 60.69L68.33 134.45C68.482 134.82 68.7414 135.136 69.0747 135.357C69.4081 135.578 69.8 135.694 70.2 135.69H81.2" fill="#D6D6D6"/>
<path d="M81.2 135.69H117.1C117.557 135.692 118.004 135.556 118.384 135.301C118.764 135.046 119.058 134.684 119.23 134.26L149.77 60L67.25 60.51" fill="#D6D6D6"/>
<path d="M149.77 60C149.77 65 126.48 69 95 69C63.52 69 38 65 38 60C38 55 63.52 51 95 51C126.48 51 149.77 55.03 149.77 60Z" fill="#E1E3E1"/>
<path d="M145.82 60.0001C145.58 64.7201 125.09 66.3101 95.1802 66.3101C65.2702 66.3101 41.4702 64.5601 41.4702 59.8701C41.4702 55.1801 65.2702 53.0701 95.2002 53.0701C125.13 53.0701 146.07 55.2901 145.82 60.0001Z" fill="#EFEFEF"/>
<path opacity="0.49" d="M116.73 135.69H70.3501C69.9225 135.697 69.5026 135.575 69.1457 135.34C68.7888 135.104 68.5114 134.766 68.3501 134.37L59.6001 112.66L128.26 112.32L118.98 134.2C118.792 134.641 118.479 135.018 118.079 135.283C117.679 135.548 117.21 135.689 116.73 135.69Z" fill="url(#paint0_linear_164_18776)"/>
<path opacity="0.7" d="M93.8901 108.67C94.6025 108.67 95.1801 108.093 95.1801 107.38C95.1801 106.668 94.6025 106.09 93.8901 106.09C93.1777 106.09 92.6001 106.668 92.6001 107.38C92.6001 108.093 93.1777 108.67 93.8901 108.67Z" stroke="#1B3A12" stroke-width="0.5" stroke-miterlimit="10"/>
<path opacity="0.7" d="M93.8901 110.39V143.82" stroke="#1B3A12" stroke-width="0.5" stroke-miterlimit="10"/>
<defs>
<linearGradient id="paint0_linear_164_18776" x1="93.6101" y1="139.04" x2="94.2901" y2="81.6501" gradientUnits="userSpaceOnUse">
<stop offset="0.12" stop-color="white"/>
<stop offset="0.69" stop-color="white" stop-opacity="0.6"/>
</linearGradient>
</defs>
</svg>
