<svg xmlns="http://www.w3.org/2000/svg" viewBox="0 0 163.87 96.12"><defs><style>.cls-1{fill:#b5b5b5;}.cls-2{fill:none;stroke:#b5b5b5;stroke-miterlimit:10;stroke-width:4px;}.cls-3{fill:#e1e3e2;}.cls-4{fill:#cdcdcd;}</style></defs><g id="Ebene_2" data-name="Ebene 2"><g id="Ebene_2-2" data-name="Ebene 2"><g id="Dripper"><path class="cls-1" d="M39.38,90.4v4.65a1.07,1.07,0,0,0,1.06,1.07H97.9A1.07,1.07,0,0,0,99,95.05V89.56a1.07,1.07,0,0,0-1.08-1.07l-57.45.84A1.07,1.07,0,0,0,39.38,90.4Z"/><path class="cls-2" d="M110.68,62.51s45.57-28.07,50.66-44.28-28.48-9.15-28.48-9.15"/><path class="cls-3" d="M1.29,0H137a1.35,1.35,0,0,1,1.25,1.88L109.75,70.51a4.17,4.17,0,0,0,1.51,5l17.25,11.67a1.31,1.31,0,0,1-.74,2.4H11.07a1.37,1.37,0,0,1-.73-2.54L28.12,75.92a3.48,3.48,0,0,0,1.36-4.29L.1,1.78A1.29,1.29,0,0,1,1.29,0Z"/><path class="cls-4" d="M77.17,89.63H11.07a1.37,1.37,0,0,1-.73-2.54L28.12,75.92a3.48,3.48,0,0,0,1.36-4.29L.1,1.78A1.29,1.29,0,0,1,1.29,0H50.54"/></g></g></g></svg>