<?xml version="1.0" encoding="UTF-8"?>
<svg xmlns="http://www.w3.org/2000/svg" xmlns:xlink="http://www.w3.org/1999/xlink" viewBox="0 0 144 144" width="144px" height="144px">
<g id="surface27073124">
<path style=" stroke:none;fill-rule:nonzero;fill:rgb(68.235296%,62.352943%,52.941179%);fill-opacity:1;" d="M 70.429688 5.933594 C 67.945312 5.972656 65.964844 8.015625 66 10.5 C 66 16.5 63.9375 17.484375 60.1875 20.484375 C 56.4375 23.484375 51 28.5 51 37.5 C 50.976562 39.121094 51.828125 40.632812 53.230469 41.449219 C 54.632812 42.269531 56.367188 42.269531 57.769531 41.449219 C 59.171875 40.632812 60.023438 39.121094 60 37.5 C 60 31.5 62.0625 30.515625 65.8125 27.515625 C 69.5625 24.515625 75 19.5 75 10.5 C 75.015625 9.28125 74.542969 8.109375 73.679688 7.25 C 72.820312 6.390625 71.648438 5.917969 70.429688 5.9375 Z M 88.429688 11.9375 C 85.945312 11.972656 83.964844 14.015625 84 16.5 C 84 18.75 83.566406 19.691406 82.953125 20.5625 C 82.335938 21.429688 81.296875 22.277344 79.800781 23.402344 C 78.296875 24.527344 76.335938 25.929688 74.703125 28.25 C 73.066406 30.566406 72 33.75 72 37.5 C 71.976562 39.121094 72.828125 40.632812 74.230469 41.449219 C 75.632812 42.269531 77.367188 42.269531 78.769531 41.449219 C 80.171875 40.632812 81.023438 39.121094 81 37.5 C 81 35.25 81.433594 34.308594 82.050781 33.441406 C 82.664062 32.570312 83.703125 31.722656 85.203125 30.597656 C 86.703125 29.472656 88.664062 28.070312 90.300781 25.753906 C 91.933594 23.433594 93 20.25 93 16.5 C 93.015625 15.28125 92.542969 14.109375 91.679688 13.25 C 90.820312 12.390625 89.648438 11.917969 88.429688 11.9375 Z M 19.5 48 C 17.878906 47.976562 16.367188 48.828125 15.550781 50.230469 C 14.730469 51.632812 14.730469 53.367188 15.550781 54.769531 C 16.367188 56.171875 17.878906 57.023438 19.5 57 L 21 57 L 21 112.5 C 21 124.90625 31.09375 135 43.5 135 L 88.5 135 C 100.90625 135 111 124.90625 111 112.5 L 111 111 L 114 111 C 125.546875 111 135 101.546875 135 90 C 135 78.453125 125.546875 69 114 69 L 111 69 L 111 57 L 112.5 57 C 114.121094 57.023438 115.632812 56.171875 116.449219 54.769531 C 117.269531 53.367188 117.269531 51.632812 116.449219 50.230469 C 115.632812 48.828125 114.121094 47.976562 112.5 48 Z M 55.609375 75.035156 C 58.800781 74.902344 62.042969 76.136719 64.417969 78.511719 L 66 80.09375 L 67.582031 78.511719 C 71.378906 74.710938 77.402344 73.835938 81.878906 76.804688 C 88.035156 80.882812 88.640625 89.269531 83.707031 94.203125 L 67.664062 110.246094 C 66.746094 111.164062 65.253906 111.164062 64.335938 110.246094 L 48.292969 94.203125 C 43.359375 89.265625 43.964844 80.886719 50.121094 76.804688 C 51.800781 75.691406 53.695312 75.117188 55.609375 75.035156 Z M 111 78 L 114 78 C 120.683594 78 126 83.316406 126 90 C 126 96.683594 120.683594 102 114 102 L 111 102 Z M 111 78 "/>
</g>
</svg>
