<svg xmlns="http://www.w3.org/2000/svg" viewBox="0 0 215.59 198.12"><defs><style>.cls-1{fill:#fff;}.cls-2,.cls-6{fill:none;}.cls-3{fill:#b5b5b5;}.cls-4{fill:#cdcdcd;}.cls-5{fill:#e1e3e2;}.cls-6{stroke:#b5b5b5;stroke-miterlimit:10;stroke-width:5px;}.cls-7{fill:#b88265;}</style></defs><g id="Ebene_2" data-name="Ebene 2"><g id="Ebene_2-2" data-name="Ebene 2"><g id="Rechteck_2318" data-name="Rechteck 2318"><rect class="cls-1" width="215.59" height="198.12"/><rect class="cls-2" x="0.29" y="0.38" width="215.02" height="197.37"/></g><g id="Turkish"><rect class="cls-3" x="58.38" y="41.28" width="67.75" height="6.53" rx="3.26"/><path class="cls-4" d="M63.27,47.81s11.11,10.31,7.15,32.67H116s-4.57-18.75,5.74-32.67Z"/><path class="cls-5" d="M93.26,47.81h-30s11.11,10.31,7.15,32.67H90.71"/><path class="cls-4" d="M70.42,80.48s-32.5,51.75-25.1,65,13.24,21,20.8,24.24,55.61,0,55.61,0,28-18.78,18.67-42.23L116,80.48Z"/><path class="cls-5" d="M90.71,80.48H70.42s-32.5,51.75-25.1,65,13.24,21,20.8,24.24c2.62,1.13,10.09,1.48,18.75,1.45"/><line class="cls-6" x1="120.84" y1="89.83" x2="169.8" y2="60.42"/><path class="cls-7" d="M139.54,74.86l6.1,8,25-13.73s.58-4.06,6.2-3.28c0,0,2.71-6.68,9.78-5.81l14.81-10.15s4.65-11.12-9.78-8.12l-15,9.09s.58,4-5,2.8c0,0,0,5.22-5.91,3.68Z"/></g></g></g></svg>