<svg width="200" height="200" viewBox="0 0 200 200" fill="none" xmlns="http://www.w3.org/2000/svg">
<path d="M54.8198 40.9998H172.28V136.75C172.28 142.505 169.994 148.024 165.924 152.094C161.854 156.164 156.335 158.45 150.58 158.45H75.9098C70.3111 158.45 64.9417 156.226 60.9828 152.267C57.0239 148.308 54.7998 142.938 54.7998 137.34V40.9998H54.8198Z" fill="#E1E3E2"/>
<path d="M63.5298 102.74H163.17V127.38C163.17 133.135 160.884 138.654 156.814 142.724C152.744 146.794 147.225 149.08 141.47 149.08H84.6398C81.8676 149.08 79.1225 148.534 76.5613 147.473C74.0002 146.412 71.673 144.857 69.7128 142.897C67.7525 140.937 66.1976 138.609 65.1367 136.048C64.0758 133.487 63.5298 130.742 63.5298 127.97V102.74Z" fill="#B7A388"/>
<path d="M130.18 148.91C129.03 149.02 127.87 149.08 126.7 149.08H88.9096C85.5797 149.08 82.2825 148.424 79.2062 147.149C76.13 145.875 73.335 144.006 70.9809 141.651C68.6268 139.296 66.7597 136.501 65.4864 133.424C64.213 130.347 63.5583 127.05 63.5596 123.72V102.72H113.38" fill="#9F8C6F"/>
<path d="M55.7696 61.0999H42.0996C42.0996 61.0999 31.4396 62.4299 28.0996 74.7599V104.08C28.0996 104.08 32.6296 125.24 54.9096 125.91" stroke="#CDCDCD" stroke-width="6" stroke-miterlimit="10"/>
<path d="M92.5794 158.45C92.5794 158.45 73.2694 128.86 78.0894 72.2097H89.0394C89.0394 72.2097 87.1094 144.94 111.239 158.45H92.5794Z" fill="#EFEFEF"/>
</svg>
