<svg width="200" height="200" viewBox="0 0 200 200" fill="none" xmlns="http://www.w3.org/2000/svg">
<path d="M40.6405 136.385C18.6405 153.325 58.2905 154.745 74.5005 153.775C103.311 151.195 132.621 159.836 151.261 143.576C151.261 143.576 154.791 148.766 155.651 163.296C155.651 163.296 156.411 169.546 153.341 171.866C133.091 187.166 115.851 179.436 89.8005 178.866C83.6805 177.986 33.0505 184.166 28.8005 168.656C28.8205 168.596 31.1405 139.865 40.6405 136.385Z" fill="#9C9B9B"/>
<path d="M37.3603 138.696C34.2703 141.696 32.3603 145.566 36.4803 149.256C36.4803 149.256 48.1903 157.136 77.4103 153.546C77.4103 153.546 113.12 154.146 116.25 154.486C119.38 154.826 151.85 151.966 151.25 142.806C150.65 133.646 115.77 133.026 115.77 133.026H51.6003C46.2975 132.995 41.1907 135.028 37.3603 138.696Z" fill="#B6B6B5"/>
<path d="M98.4905 136.916V143.006C98.4905 143.006 98.1705 148.306 120.09 149.076C142.01 149.846 145.09 143.006 145.09 143.006V136.916" fill="#CFD0D1"/>
<path d="M121.8 143.006C134.674 143.006 145.11 140.279 145.11 136.916C145.11 133.552 134.674 130.826 121.8 130.826C108.927 130.826 98.4905 133.552 98.4905 136.916C98.4905 140.279 108.927 143.006 121.8 143.006Z" fill="#E1E3E1"/>
<path d="M104.75 57.0557L103.88 134.806C103.88 134.806 121.1 144.546 139.71 134.806V57.0557C139.71 57.0557 124.58 62.2757 104.75 57.0557Z" fill="#F0F1EF"/>
<path d="M104.75 57.0557L114.17 48.3657C114.17 48.3657 125.83 49.5857 131.22 48.3657L139.71 57.0557C139.71 57.0557 117.94 63.3157 104.75 57.0557Z" fill="#E1E3E1"/>
<path d="M131.74 48.8955H113.65L117.65 35.6655H127.22L131.74 48.8955Z" fill="#F0F1EF"/>
<path d="M109.86 30.9955V35.6955C111.833 35.9855 113.781 36.42 115.69 36.9955C117.52 37.6955 121.08 37.3055 121.08 37.3055C123.096 37.839 125.229 37.7164 127.17 36.9555C129.329 37.2435 131.521 36.762 133.36 35.5955L134.62 34.3055L134.42 30.3055C134.42 30.3055 112.17 29.8255 109.86 30.9955Z" fill="#F0F1EF"/>
<path d="M115.07 30.3755C113.317 30.4019 111.571 30.6097 109.86 30.9955V35.6955C109.86 35.6955 112.67 36.1455 114.58 36.6155" fill="#CFD0D1"/>
<path d="M104.75 67.4055H88.2305V80.4455H104.75V67.4055Z" fill="#B6B6B5"/>
<path d="M67.1205 83.3755H93.9305C94.5405 83.3755 95.1255 83.6178 95.5569 84.0491C95.9882 84.4805 96.2305 85.0655 96.2305 85.6755V86.5955C96.2305 88.391 95.5173 90.113 94.2476 91.3826C92.978 92.6522 91.256 93.3655 89.4605 93.3655H71.6805C70.1184 93.3655 68.6203 92.7449 67.5157 91.6404C66.4111 90.5358 65.7905 89.0376 65.7905 87.4755V84.7055C65.7905 84.3528 65.9307 84.0145 66.1801 83.765C66.4295 83.5156 66.7678 83.3755 67.1205 83.3755Z" fill="#F0F1EF" stroke="#F0F1EF" stroke-miterlimit="10"/>
<path d="M95.6604 83.5357L66.1104 83.3757L68.3404 79.8457L93.4404 79.9557L95.6604 83.5357Z" fill="#E1E3E1" stroke="#E1E3E1" stroke-miterlimit="10"/>
<path d="M93.4405 79.4956H68.3605V67.4056C68.3605 66.4656 67.9405 64.4056 70.0605 65.6956C72.1805 66.9856 88.4205 66.9156 92.3105 65.6956C93.7005 65.0656 93.5805 66.2656 93.5905 66.9656L93.4405 79.4956Z" fill="#F0F1EF" stroke="#F0F1EF" stroke-miterlimit="10"/>
<path d="M80.9404 68.0056C87.844 68.0056 93.4404 66.8728 93.4404 65.4756C93.4404 64.0783 87.844 62.9456 80.9404 62.9456C74.0369 62.9456 68.4404 64.0783 68.4404 65.4756C68.4404 66.8728 74.0369 68.0056 80.9404 68.0056Z" fill="#E1E3E1" stroke="#E1E3E1" stroke-miterlimit="10"/>
<path d="M73.7805 65.0956L78.4705 41.4456L87.6105 44.4456C87.6105 44.4456 93.5205 42.7056 95.5205 44.7956C97.5205 46.8856 99.0805 54.2756 92.8205 54.2756C86.5605 54.2756 87.0805 54.3556 87.2605 57.2756C87.4405 60.1956 89.6105 61.3656 87.8705 63.8856C86.1305 66.4056 73.7805 65.0956 73.7805 65.0956Z" fill="#F0F0F1" stroke="#F0F0F1" stroke-miterlimit="10"/>
<path d="M82.6704 53.9457H81.1904C81.0784 53.9459 80.9675 53.9231 80.8646 53.8788C80.7617 53.8345 80.669 53.7696 80.5922 53.6881C80.5153 53.6066 80.456 53.5102 80.4179 53.4048C80.3797 53.2995 80.3636 53.1875 80.3704 53.0757L81.6604 33.8057H84.8304L83.5404 53.1257C83.5276 53.3476 83.4304 53.5563 83.2686 53.7088C83.1068 53.8613 82.8927 53.946 82.6704 53.9457Z" fill="#E1E3E1" stroke="#E1E3E1" stroke-miterlimit="10"/>
<path d="M83.2004 33.2957C85.0009 33.2957 86.4604 31.5183 86.4604 29.3257C86.4604 27.1331 85.0009 25.3557 83.2004 25.3557C81.4 25.3557 79.9404 27.1331 79.9404 29.3257C79.9404 31.5183 81.4 33.2957 83.2004 33.2957Z" fill="#CFD0D1"/>
<path d="M85.4004 34.1257H81.1404L80.6104 31.3657H86.0004L85.4004 34.1257Z" fill="#CFD0D1"/>
<path d="M24.3405 26.5957L23.2505 31.2157L74.3605 46.1957L75.9005 41.1457L24.3405 26.5957Z" fill="#E1E3E1" stroke="#E1E3E1" stroke-miterlimit="10"/>
<path d="M2.09045 19.5256C1.52045 21.3856 0.700453 24.1056 0.0904534 25.9956C0.00639734 26.2741 -0.019459 26.5668 0.0144913 26.8557C0.0484416 27.1446 0.141472 27.4234 0.287797 27.6748C0.434122 27.9261 0.630611 28.1447 0.865037 28.3169C1.09946 28.4891 1.36681 28.6112 1.65045 28.6756L35.7705 35.9856C35.9816 36.0249 36.1999 35.9856 36.3841 35.875C36.5683 35.7645 36.7057 35.5904 36.7705 35.3856L38.6505 29.2256C38.6735 29.1488 38.6812 29.0682 38.6731 28.9884C38.665 28.9086 38.6412 28.8312 38.6031 28.7606C38.565 28.69 38.5134 28.6276 38.4511 28.577C38.3889 28.5264 38.3173 28.4885 38.2405 28.4656L4.80045 18.0956C4.25145 17.9268 3.65792 17.9825 3.14993 18.2506C2.64195 18.5186 2.26095 18.9771 2.09045 19.5256Z" fill="#B78265"/>
<path d="M49.9405 137.436L47.7905 147.356" stroke="#3C3C3B" stroke-width="2" stroke-miterlimit="10" stroke-linecap="round"/>
<path d="M54.2306 136.916L52.3105 148.276" stroke="#3C3C3B" stroke-width="2" stroke-miterlimit="10" stroke-linecap="round"/>
<path d="M58.5205 136.916L56.7205 148.276" stroke="#3C3C3B" stroke-width="2" stroke-miterlimit="10" stroke-linecap="round"/>
<path d="M62.4604 137.676L61.1304 147.356" stroke="#3C3C3B" stroke-width="2" stroke-miterlimit="10" stroke-linecap="round"/>
<path d="M66.9805 138.076L65.5305 147.006" stroke="#3C3C3B" stroke-width="2" stroke-miterlimit="10" stroke-linecap="round"/>
<path d="M71.2104 138.076L69.8804 147.756" stroke="#3C3C3B" stroke-width="2" stroke-miterlimit="10" stroke-linecap="round"/>
<path d="M75.5004 136.916L74.4004 148.276" stroke="#3C3C3B" stroke-width="2" stroke-miterlimit="10" stroke-linecap="round"/>
<path d="M79.7905 137.436L78.9805 147.756" stroke="#3C3C3B" stroke-width="2" stroke-miterlimit="10" stroke-linecap="round"/>
<path d="M83.8504 138.076L83.3904 147.356" stroke="#3C3C3B" stroke-width="2" stroke-miterlimit="10" stroke-linecap="round"/>
<path d="M68.9205 37.4255L66.5605 45.7755L91.4605 53.5055C92.0278 53.6774 92.6333 53.6774 93.2005 53.5055C94.2312 53.2294 95.1402 52.6171 95.7833 51.7657C96.4264 50.9142 96.7668 49.8724 96.7505 48.8055C96.9405 44.1755 90.9305 43.2355 89.6005 42.9555C88.2705 42.6755 68.9205 37.4255 68.9205 37.4255Z" fill="#CFD0D1"/>
<path d="M109.86 30.9956C109.86 30.9956 113.86 30.1156 115.5 31.1556C117.14 32.1956 120.83 33.1556 125.01 31.1556C125.01 31.1556 129.18 32.7756 130.69 32.3156C132.2 31.8556 134.1 31.4856 134.4 30.3156C134.86 28.5956 116.94 23.4656 109.86 30.9956Z" fill="#9C9B9B"/>
<path d="M92.7205 50.1757C93.5048 50.1757 94.1405 49.5399 94.1405 48.7557C94.1405 47.9714 93.5048 47.3357 92.7205 47.3357C91.9363 47.3357 91.3005 47.9714 91.3005 48.7557C91.3005 49.5399 91.9363 50.1757 92.7205 50.1757Z" fill="#9C9B9B"/>
<path d="M83.4705 47.6056C84.2548 47.6056 84.8905 46.9699 84.8905 46.1856C84.8905 45.4014 84.2548 44.7656 83.4705 44.7656C82.6863 44.7656 82.0505 45.4014 82.0505 46.1856C82.0505 46.9699 82.6863 47.6056 83.4705 47.6056Z" fill="#9C9B9B"/>
</svg>
