<svg width="200" height="200" viewBox="0 0 200 200" fill="none" xmlns="http://www.w3.org/2000/svg">
<path d="M171.62 85.418H184C184 85.418 193.66 86.628 196.68 97.798V124.368C196.68 124.368 192.59 143.538 172.36 144.138" stroke="#CDCDCD" stroke-width="6" stroke-miterlimit="10"/>
<path d="M75 56.438H173.28V160.688C173.28 165.25 171.468 169.625 168.242 172.85C165.017 176.076 160.642 177.888 156.08 177.888H92.35C90.0726 177.893 87.8166 177.449 85.7112 176.581C83.6057 175.713 81.6923 174.438 80.0806 172.829C78.4688 171.22 77.1904 169.308 76.3186 167.205C75.4468 165.101 74.9987 162.845 75 160.568V56.438Z" fill="#E1E3E2"/>
<path d="M157.156 27.1649L147.126 23.0002L99.8691 136.809L109.899 140.973L157.156 27.1649Z" fill="#B88265"/>
<path d="M157.137 121.153L163.045 89.7642L131.657 83.8559L125.748 115.245L157.137 121.153Z" fill="#CDCDCD"/>
<path d="M128.562 108.164L105.977 85.5791L83.3916 108.164L105.977 130.749L128.562 108.164Z" fill="#CDCDCD"/>
<path d="M137.92 98.8079H105.98V130.748H137.92V98.8079Z" fill="#EFEFEF"/>
<path d="M75 113.568H173.28V159.698C173.28 164.525 171.363 169.154 167.949 172.567C164.536 175.98 159.907 177.898 155.08 177.898H92.88C90.533 177.903 88.2081 177.445 86.0383 176.55C83.8686 175.656 81.8968 174.341 80.2358 172.683C78.5748 171.025 77.2574 169.055 76.3589 166.887C75.4605 164.719 74.9987 162.395 75 160.048V113.568Z" fill="#9F8C6F"/>
<path d="M133 113.568H173.32V160.128C173.32 162.461 172.86 164.772 171.967 166.928C171.074 169.084 169.765 171.043 168.115 172.693C166.465 174.343 164.506 175.652 162.35 176.545C160.194 177.438 157.884 177.898 155.55 177.898H133V113.568Z" fill="#B7A388"/>
<path opacity="0.84" d="M101 177.888C101 177.888 83.5399 151.068 87.9199 99.748H97.8299C97.8299 99.748 96.0799 165.638 118 177.888H101Z" fill="#EFEFEF"/>
</svg>
