<svg width="200" height="200" viewBox="0 0 200 200" fill="none" xmlns="http://www.w3.org/2000/svg">
<path d="M35.3375 125.764C35.3375 125.764 -12.9425 59.6441 26.3375 62.1841C65.6175 64.7241 43.8575 67.0141 46.4975 66.0441" stroke="#B5B5B5" stroke-width="6" stroke-miterlimit="10"/>
<path d="M122.897 140.224C122.897 140.224 164.797 147.754 161.427 89.5842C161.427 89.5842 158.987 57.0242 189.307 67.4742" stroke="#B5B5B5" stroke-width="6" stroke-miterlimit="10"/>
<path d="M45.5275 60.7742H111.437C111.437 60.7742 131.667 150.634 126.697 157.854C121.727 165.074 39.2075 171.854 32.4375 155.574C25.6675 139.294 45.5275 60.7742 45.5275 60.7742Z" fill="#E1E3E2"/>
<path d="M63.6775 164.704C48.0575 164.294 34.9775 161.754 32.4375 155.704C25.6675 139.454 45.5275 60.9141 45.5275 60.9141H74.1275" fill="#CDCDCD"/>
<path d="M44.8975 57.6042C44.8975 57.6042 95.3275 54.9542 112.897 57.6042C112.897 57.6042 98.2775 47.7442 87.8375 45.8242C87.8375 45.8242 96.4875 34.0442 79.1875 35.4842C79.1875 35.4842 62.7775 31.4842 70.1875 46.4842C70.2175 46.4842 52.0175 49.6342 44.8975 57.6042Z" fill="#B88265"/>
<path d="M44.5775 60.5241C44.5775 60.5241 89.5275 54.5241 112.837 60.5241" stroke="#9F8C6F" stroke-width="6" stroke-miterlimit="10"/>
</svg>
