<?xml version="1.0" standalone="no"?>
<!DOCTYPE svg PUBLIC "-//W3C//DTD SVG 20010904//EN"
 "http://www.w3.org/TR/2001/REC-SVG-20010904/DTD/svg10.dtd">
<svg version="1.0" xmlns="http://www.w3.org/2000/svg"
 width="206.000000pt" height="245.000000pt" viewBox="0 0 206.000000 245.000000"
 preserveAspectRatio="xMidYMid meet">

<g transform="translate(0.000000,245.000000) scale(0.100000,-0.100000)"
fill="#000000" stroke="none">
<path d="M815 2264 c-115 -95 -211 -174 -213 -174 -4 0 12 27 49 88 13 22 12
25 -21 53 -19 16 -39 29 -45 29 -25 -1 -585 -469 -585 -490 0 -17 145 -371
197 -483 114 -241 334 -637 387 -695 31 -35 70 -52 120 -54 36 -2 43 -5 34
-16 -6 -7 -25 -20 -42 -29 l-31 -16 180 -49 c98 -27 185 -54 192 -60 18 -15
16 -55 -3 -62 -9 -3 -39 -6 -67 -7 -56 0 -140 -28 -137 -44 2 -14 192 -245
201 -245 5 0 186 216 232 277 17 23 -12 68 -99 153 -130 126 -138 153 -81 266
56 112 55 115 -3 211 -58 93 -58 85 8 163 l30 35 -1 -51 c-1 -41 7 -67 41
-134 32 -63 39 -86 32 -100 -6 -10 -10 -39 -10 -63 l0 -45 34 34 c27 27 42 34
73 34 22 0 47 6 56 13 9 6 48 79 86 162 67 143 69 150 50 163 -16 11 -19 25
-19 85 1 67 2 70 15 47 8 -14 14 -35 15 -46 0 -12 6 -27 14 -33 12 -10 23 2
64 71 53 90 84 156 95 200 l7 27 -41 -14 c-67 -24 -76 -19 -37 19 20 19 44 55
53 80 15 38 15 50 5 83 -7 21 -22 51 -33 66 l-19 29 -30 -36 c-32 -39 -56 -49
-38 -17 16 31 12 93 -9 127 -17 28 -87 81 -95 73 -2 -2 -12 -22 -22 -44 l-17
-40 -7 47 c-8 62 -30 84 -108 108 -35 11 -66 20 -67 20 -2 0 -5 -17 -7 -37
l-4 -38 -13 33 c-21 53 -52 62 -188 58 -132 -4 -204 -21 -308 -70 -60 -28
-193 -132 -182 -142 2 -2 28 9 58 25 91 49 168 65 314 65 113 -1 141 -4 210
-27 220 -72 302 -233 178 -348 -85 -80 -250 -116 -454 -99 -201 17 -358 71
-445 154 -24 23 -44 37 -44 31 0 -23 30 -96 50 -126 27 -37 14 -37 -37 0 -54
39 -104 100 -138 167 l-29 57 65 62 c131 123 330 238 609 351 187 76 202 76
375 5 281 -113 446 -207 609 -346 90 -78 90 -55 -1 -270 -145 -340 -305 -629
-492 -893 -73 -103 -83 -130 -55 -153 8 -7 22 -26 31 -43 l16 -30 23 29 c50
63 189 272 271 408 139 233 302 575 402 847 51 137 62 115 -112 215 -142 82
-161 96 -288 222 l-136 135 -101 -51 c-56 -28 -104 -51 -107 -51 -3 0 5 15 19
33 l26 34 -144 126 c-79 70 -146 127 -148 126 -1 0 -97 -79 -213 -175z"/>
</g>
</svg>
