<svg xmlns="http://www.w3.org/2000/svg" width="40" height="40" viewBox="0 0 40 40">
  <g id="Gruppe_440" data-name="Gruppe 440" transform="translate(331.333 376.667)">
    <g id="Gruppe_439" data-name="Gruppe 439" transform="translate(-918.333 -695.667) rotate(180)">
      <path id="bg" d="M20,0A20,20,0,1,1,0,20,20,20,0,0,1,20,0Z" transform="translate(-627 -359)" fill="#cdc2ac"/>
    </g>
    <path id="icons8-synchronize" d="M18.376,6a12.019,12.019,0,0,0-8.208,3.078.635.635,0,0,0-.021.915.616.616,0,0,0,.853.021,10.809,10.809,0,0,1,13.626-.666h-.978a.657.657,0,0,0-.666.583.635.635,0,0,0,.624.666h2.7a.613.613,0,0,0,.624-.624V7.31a.658.658,0,0,0-.583-.666.635.635,0,0,0-.666.624V8.579A12.021,12.021,0,0,0,18.376,6Zm10.3,6.829a.6.6,0,0,0-.241.056.625.625,0,0,0-.312.832,10.817,10.817,0,0,1-16.31,13.065h1.019a.624.624,0,1,0,0-1.248h-2.7a.613.613,0,0,0-.624.624v2.7a.624.624,0,1,0,1.248,0V27.552a12.141,12.141,0,0,0,7.469,2.58A12.076,12.076,0,0,0,29.266,13.2.64.64,0,0,0,28.675,12.829Zm-20.994.158a.619.619,0,0,0-.57.377,12.473,12.473,0,0,0-.915,3.765.615.615,0,0,0,.583.666h.041a.618.618,0,0,0,.624-.582,10.949,10.949,0,0,1,.811-3.37.636.636,0,0,0-.333-.811A.628.628,0,0,0,7.681,12.987ZM7.3,20.915a.6.6,0,1,0,.6.6.6.6,0,0,0-.6-.6Z" transform="translate(-329.193 -375.131)" fill="#fff"/>
  </g>
</svg>
