<svg xmlns="http://www.w3.org/2000/svg" viewBox="0 0 215.59 198.12"><defs><style>.cls-1{fill:#fff;}.cls-2,.cls-3{fill:none;}.cls-3{stroke:#cdcdcd;stroke-miterlimit:10;stroke-width:6px;}.cls-4{fill:#e1e3e2;}.cls-5{fill:#b88265;}.cls-6{fill:#cdcdcd;}.cls-10,.cls-7{fill:#efefef;}.cls-8{fill:#9f8c6f;}.cls-9{fill:#b7a388;}.cls-10{opacity:0.84;}</style></defs><g id="Ebene_2" data-name="Ebene 2"><g id="Ebene_6" data-name="Ebene 6"><g id="Rechteck_2318" data-name="Rechteck 2318"><rect class="cls-1" width="215.59" height="198.12"/><rect class="cls-2" x="0.29" y="0.38" width="215.02" height="197.37"/></g><path class="cls-3" d="M153.62,77.85H166s9.66,1.21,12.68,12.38V116.8s-4.09,19.17-24.32,19.77"/><path class="cls-4" d="M57,48.87h98.28a0,0,0,0,1,0,0V153.12a17.2,17.2,0,0,1-17.2,17.2H74.35A17.31,17.31,0,0,1,57,153V48.87A0,0,0,0,1,57,48.87Z"/><rect class="cls-5" x="105.09" y="12.8" width="10.86" height="123.23" transform="translate(36.98 -36.69) rotate(22.55)"/><rect class="cls-6" x="110.43" y="78.97" width="31.94" height="31.94" transform="translate(243.08 -11.72) rotate(100.66)"/><rect class="cls-6" x="72.01" y="84.63" width="31.94" height="31.94" transform="translate(96.9 -32.75) rotate(45)"/><rect class="cls-7" x="87.98" y="91.24" width="31.94" height="31.94"/><path class="cls-8" d="M57,106h98.28a0,0,0,0,1,0,0v46.13a18.2,18.2,0,0,1-18.2,18.2H74.88A17.84,17.84,0,0,1,57,152.48V106A0,0,0,0,1,57,106Z"/><path class="cls-9" d="M115,106h40.32a0,0,0,0,1,0,0v46.56a17.77,17.77,0,0,1-17.77,17.77H115a0,0,0,0,1,0,0V106A0,0,0,0,1,115,106Z"/><path class="cls-10" d="M83,170.32S65.54,143.5,69.92,92.18h9.91S78.08,158.07,100,170.32Z"/></g></g></svg>