<svg xmlns="http://www.w3.org/2000/svg" viewBox="0 0 215.59 198.12"><defs><style>.cls-1{fill:#fff;}.cls-2{fill:none;}.cls-3{fill:#e1e3e2;}.cls-4{fill:#9f8c6f;}.cls-5{fill:#cdcdcd;}.cls-6{fill:#b5b5b5;}.cls-7{fill:#933b43;}.cls-8{fill:#9b9b9b;}.cls-9{fill:#bfbfbf;}.cls-10{fill:#b88265;}</style></defs><g id="Ebene_2" data-name="Ebene 2"><g id="Ebene_1-2" data-name="Ebene 1"><g id="Rechteck_2318" data-name="Rechteck 2318"><rect class="cls-1" width="215.59" height="198.12"/><rect class="cls-2" x="0.29" y="0.38" width="215.02" height="197.37"/></g><g id="Bialetti"><path class="cls-3" d="M147.45,38.52l5.19.14A3.57,3.57,0,0,1,155.33,40L165,52.07a3.62,3.62,0,0,1,.78,2.23V99.82a3.57,3.57,0,0,1-4.86,3.34,13.11,13.11,0,0,1-7.45-7.55,3.56,3.56,0,0,1-.24-1.33l.43-33.89a3.55,3.55,0,0,0-.8-2.29l-3.94-4.85a3.56,3.56,0,0,0-2.77-1.32h0a3.57,3.57,0,0,1-3.5-4.27l1.25-6.27A3.56,3.56,0,0,1,147.45,38.52Z"/><path class="cls-4" d="M158.36,101.59a9.83,9.83,0,0,0,2.86,1.69,3.34,3.34,0,0,0,4.51-3.13l0-46a3.33,3.33,0,0,0-.73-2.08l-9.74-12.22a3.34,3.34,0,0,0-2.52-1.26l-5.5-.15a3.34,3.34,0,0,0-3.36,2.67l-.45,2.2a3.35,3.35,0,0,0,2.59,4c9.43,2,8.9,1.8,11.24,7.44C164.17,71.33,157.6,100.92,158.36,101.59Z"/><path class="cls-3" d="M147.94,175.31H70a4.37,4.37,0,0,1-4.24-5.46L79,118.17a4.37,4.37,0,0,1,4.21-3.29l51.77-.43a4.36,4.36,0,0,1,4.28,3.32l12.92,52.11A4.38,4.38,0,0,1,147.94,175.31Z"/><polygon class="cls-5" points="134.74 175.1 85.21 174.89 96.95 114.75 122.05 114.27 134.74 175.1"/><path class="cls-6" d="M83.58,114.89,97,114.76,85.21,174.89l-14.57.29a4.76,4.76,0,0,1-4.71-5.94L79,118.45A4.76,4.76,0,0,1,83.58,114.89Z"/><path class="cls-7" d="M113.41,29.91c2.25-.29,4.27-1.6,4.27-3.58s-2.34-3.51-5.14-3.51C112.54,22.82,117.89,26.17,113.41,29.91Z"/><polygon class="cls-5" points="138.42 115.93 79.93 116.42 79.76 102.29 138.34 101.51 138.42 115.93"/><polygon class="cls-8" points="138.38 115.97 80.05 116.42 79.9 102.29 138.33 101.54 138.38 115.97"/><path class="cls-3" d="M80.47,37.35,150,38.41a.35.35,0,0,1,.33.41l-11.58,61a2.25,2.25,0,0,1-2.18,1.83l-54.43.66a2.26,2.26,0,0,1-2.28-2.19L78.19,39.65A2.24,2.24,0,0,1,80.47,37.35Z"/><path class="cls-6" d="M75.25,66.68,54.78,40.15a1.76,1.76,0,0,1,1.39-2.84H85.76a1.76,1.76,0,0,1,1.67,2.33L78.31,66.17A1.76,1.76,0,0,1,75.25,66.68Z"/><path class="cls-9" d="M56.23,37.33A1.68,1.68,0,0,0,54.92,40l22.6,29.28.24-1.62a1.54,1.54,0,0,1,.09-.37l2.43-6.21A1.68,1.68,0,0,0,80,59.37L60.09,37.85a1.71,1.71,0,0,0-1.24-.54Z"/><polygon class="cls-6" points="79.9 102.31 96.88 102.06 88.23 37.31 77.33 68.89 79.9 102.31"/><polygon class="cls-9" points="69.42 37.31 109.98 28.43 88.23 37.31 69.42 37.31"/><polygon class="cls-5" points="86.25 37.34 130.29 38.33 120.95 101.82 96.88 102.06 86.25 37.34"/><polygon class="cls-5" points="116.75 28.43 130.29 38.33 86.25 37.34 109.98 28.43 116.75 28.43"/><polygon class="cls-3" points="116.22 28.14 150.23 38.42 130.29 38.33 116.22 28.14"/><ellipse class="cls-10" cx="113.46" cy="26.39" rx="4.24" ry="3.58"/></g></g></g></svg>