<svg xmlns="http://www.w3.org/2000/svg" width="19.737" height="23.326" viewBox="0 0 19.737 23.326">
  <path id="icons8-cup" d="M8.383,1V6.383h1.794V1Zm3.589,1.794V6.383h1.794V2.794ZM3,8.177V19.84a4.5,4.5,0,0,0,4.486,4.486h7.177a4.5,4.5,0,0,0,4.486-4.486v-.9h.9a2.705,2.705,0,0,0,2.691-2.691V12.663a2.705,2.705,0,0,0-2.691-2.691h-.9V8.177ZM4.794,9.972h12.56V19.84a2.676,2.676,0,0,1-2.691,2.691H7.486A2.676,2.676,0,0,1,4.794,19.84Zm14.354,1.794h.9a.885.885,0,0,1,.9.9v3.589a.885.885,0,0,1-.9.9h-.9Z" transform="translate(-3 -1)" />
</svg>
