<svg width="200" height="200" viewBox="0 0 200 200" fill="none" xmlns="http://www.w3.org/2000/svg">
<path d="M69.8708 132.35H120.321C120.321 132.35 119.631 137.79 117.141 138.42C114.651 139.05 76.8408 138.7 74.1408 138.42C71.4408 138.14 69.8708 132.35 69.8708 132.35Z" fill="#D3D3D3"/>
<path d="M95.7307 134.58C122.655 134.58 144.481 131.361 144.481 127.39C144.481 123.419 122.655 120.2 95.7307 120.2C68.8068 120.2 46.9807 123.419 46.9807 127.39C46.9807 131.361 68.8068 134.58 95.7307 134.58Z" fill="#E1E3E2"/>
<path d="M154.211 66.83C154.211 66.83 180.791 66.53 167.361 89.9C162.747 96.0795 156.816 101.155 149.998 104.76C143.18 108.364 135.646 110.407 127.941 110.74" stroke="#CDCDCD" stroke-width="4" stroke-miterlimit="10"/>
<path d="M111.111 119.17H76.0009C73.3223 119.17 71.1509 121.341 71.1509 124.02V124.78C71.1509 127.459 73.3223 129.63 76.0009 129.63H111.111C113.789 129.63 115.961 127.459 115.961 124.78V124.02C115.961 121.341 113.789 119.17 111.111 119.17Z" fill="#D3D3D3"/>
<path d="M115.471 111.42H71.6508C68.9722 111.42 66.8008 113.591 66.8008 116.27V120.36C66.8008 123.039 68.9722 125.21 71.6508 125.21H115.471C118.149 125.21 120.321 123.039 120.321 120.36V116.27C120.321 113.591 118.149 111.42 115.471 111.42Z" fill="#E1E3E2"/>
<path d="M120.961 102.64H66.1608C63.4822 102.64 61.3108 104.811 61.3108 107.49V115.34C61.3108 118.018 63.4822 120.19 66.1608 120.19H120.961C123.639 120.19 125.811 118.018 125.811 115.34V107.49C125.811 104.811 123.639 102.64 120.961 102.64Z" fill="#D3D3D3"/>
<path d="M125.651 96.3799H61.4809C58.8023 96.3799 56.6309 98.5513 56.6309 101.23V109.08C56.6309 111.758 58.8023 113.93 61.4809 113.93H125.651C128.329 113.93 130.501 111.758 130.501 109.08V101.23C130.501 98.5513 128.329 96.3799 125.651 96.3799Z" fill="#E1E3E2"/>
<path d="M129.511 90.95H56.3109C53.6324 90.95 51.4609 93.1214 51.4609 95.7999V103.65C51.4609 106.329 53.6324 108.5 56.3109 108.5H129.511C132.19 108.5 134.361 106.329 134.361 103.65V95.7999C134.361 93.1214 132.19 90.95 129.511 90.95Z" fill="#D3D3D3"/>
<path d="M134.061 85.0901H51.8307C49.1521 85.0901 46.9807 87.2615 46.9807 89.9401V97.7901C46.9807 100.469 49.1521 102.64 51.8307 102.64H134.061C136.739 102.64 138.911 100.469 138.911 97.7901V89.9401C138.911 87.2615 136.739 85.0901 134.061 85.0901Z" fill="#E1E3E2"/>
<path d="M137.941 78.8301H47.9508C45.2722 78.8301 43.1008 81.0015 43.1008 83.6801V91.5301C43.1008 94.2087 45.2722 96.3801 47.9508 96.3801H137.941C140.619 96.3801 142.791 94.2087 142.791 91.5301V83.6801C142.791 81.0015 140.619 78.8301 137.941 78.8301Z" fill="#D3D3D3"/>
<path d="M141.231 72.3501H44.9408C42.2622 72.3501 40.0908 74.5215 40.0908 77.2001V85.0501C40.0908 87.7287 42.2622 89.9001 44.9408 89.9001H141.231C143.909 89.9001 146.081 87.7287 146.081 85.0501V77.2001C146.081 74.5215 143.909 72.3501 141.231 72.3501Z" fill="#E1E3E2"/>
<path d="M145.801 66.46H40.0907C37.4121 66.46 35.2407 68.6314 35.2407 71.31V79.16C35.2407 81.8385 37.4121 84.01 40.0907 84.01H145.801C148.479 84.01 150.651 81.8385 150.651 79.16V71.31C150.651 68.6314 148.479 66.46 145.801 66.46Z" fill="#D3D3D3"/>
<path d="M151.451 62H34.7209C32.0423 62 29.8708 64.1714 29.8708 66.85V70.39C29.8708 73.0686 32.0423 75.24 34.7209 75.24H151.451C154.129 75.24 156.301 73.0686 156.301 70.39V66.85C156.301 64.1714 154.129 62 151.451 62Z" fill="#E1E3E2"/>
<path opacity="0.23" d="M64.7308 62H34.6108C33.3457 62 32.1325 62.5026 31.2379 63.3971C30.3434 64.2917 29.8408 65.5049 29.8408 66.77V70.47C29.8408 71.7351 30.3434 72.9484 31.2379 73.8429C32.1325 74.7375 33.3457 75.24 34.6108 75.24H35.2108V79.24C35.2095 79.8668 35.332 80.4876 35.5712 81.067C35.8105 81.6463 36.1618 82.1726 36.605 82.6158C37.0482 83.059 37.5745 83.4103 38.1539 83.6496C38.7332 83.8888 39.354 84.0113 39.9808 84.01H40.0608V85.12C40.0607 86.0737 40.3465 87.0055 40.8812 87.7952C41.416 88.5849 42.1752 89.1961 43.0608 89.55V91.55C43.0623 92.6596 43.4505 93.734 44.1587 94.5882C44.8669 95.4424 45.8507 96.023 46.9408 96.23V97.81C46.9414 99.0226 47.4058 100.189 48.2387 101.07C49.0717 101.952 50.2101 102.481 51.4208 102.55V103.67C51.4235 104.934 51.9269 106.146 52.8208 107.04C53.7148 107.934 54.9266 108.437 56.1908 108.44H56.6108V109.12C56.6132 110.368 57.1046 111.565 57.9795 112.455C58.8543 113.345 60.0431 113.856 61.2908 113.88V115.38C61.2895 116.007 61.412 116.628 61.6512 117.207C61.8905 117.786 62.2418 118.313 62.685 118.756C63.1282 119.199 63.6545 119.55 64.2339 119.79C64.8132 120.029 65.434 120.151 66.0608 120.15H66.7808V120.4C66.7822 121.595 67.2338 122.745 68.0456 123.622C68.8574 124.498 69.9697 125.037 71.1608 125.13C71.2394 126.334 71.7727 127.464 72.6527 128.29C73.5327 129.116 74.6938 129.578 75.9008 129.58H81.4708" fill="#B5B5B5"/>
</svg>
