<svg xmlns="http://www.w3.org/2000/svg" viewBox="0 0 374 262"><defs><style>.cls-1,.cls-5{fill:none;}.cls-2{fill:#e1e3e2;}.cls-3{fill:#b7a388;}.cls-4{fill:#9f8c6f;}.cls-5{stroke:#cdcdcd;stroke-miterlimit:10;stroke-width:6px;}.cls-6,.cls-9{fill:#efefef;}.cls-7{fill:#b88265;}.cls-8{fill:#cdcdcd;}.cls-9{opacity:0.84;}.cls-10{fill:#d1d1d1;opacity:0.51;}</style></defs><g id="Ebene_2" data-name="Ebene 2"><g id="Ebene_6" data-name="Ebene 6"><rect class="cls-1" width="374" height="262"/><path class="cls-2" d="M84.28,100h95.85a0,0,0,0,1,0,0v74.14a21.7,21.7,0,0,1-21.7,21.7h-53A21.11,21.11,0,0,1,84.28,174.7V100A0,0,0,0,1,84.28,100Z" transform="translate(45.3 -30.42) rotate(15.81)"/><path class="cls-3" d="M85.57,149.5h81.31a0,0,0,0,1,0,0v16.11a21.7,21.7,0,0,1-21.7,21.7h-38.5A21.11,21.11,0,0,1,85.57,166.2V149.5a0,0,0,0,1,0,0Z" transform="translate(50.66 -28.02) rotate(15.81)"/><path class="cls-4" d="M134.32,190.21c-.92-.17-1.85-.39-2.77-.65l-29.69-8.41a20.69,20.69,0,0,1-14.27-25.54l4.67-16.47,39.11,11.07"/><path class="cls-5" d="M95.42,104.71l-10.73-3s-8.66-1.33-14,7.61l-6.52,23S63,149.93,80.37,155.42"/><path class="cls-6" d="M102.67,189.34s-8.57-27.54,7.81-70.94l8.59,2.44s-17.69,56.67-1.74,72.65Z"/><path class="cls-5" d="M274.59,87.26l10.25-4.39s8.42-2.42,14.88,5.75l9.42,22s3.42,17.32-13.12,25"/><path class="cls-2" d="M202.31,75.67h88.52a0,0,0,0,1,0,0v92.19a17.2,17.2,0,0,1-17.2,17.2h-54a17.31,17.31,0,0,1-17.31-17.31V75.67a0,0,0,0,1,0,0Z" transform="translate(-31.41 107.62) rotate(-23.19)"/><rect class="cls-7" x="232.79" y="44.21" width="9.78" height="110.99" transform="matrix(1, -0.01, 0.01, 1, -1.1, 2.66)"/><rect class="cls-8" x="243.73" y="96.68" width="28.77" height="28.77" transform="translate(310.53 -165) rotate(77.47)"/><rect class="cls-8" x="213.92" y="114.99" width="28.77" height="28.77" transform="translate(64.42 -75.57) rotate(21.81)"/><rect class="cls-6" x="229.49" y="114.8" width="28.77" height="28.77" transform="translate(-31.17 106.46) rotate(-23.19)"/><path class="cls-4" d="M212.44,125H301a0,0,0,0,1,0,0v39.74a18.2,18.2,0,0,1-18.2,18.2H230.28a17.84,17.84,0,0,1-17.84-17.84V125a0,0,0,0,1,0,0Z" transform="translate(-39.9 113.52) rotate(-23.19)"/><path class="cls-3" d="M262.53,114.76h36.32a0,0,0,0,1,0,0v40.17a17.77,17.77,0,0,1-17.77,17.77H262.53a0,0,0,0,1,0,0V114.76A0,0,0,0,1,262.53,114.76Z" transform="translate(-33.92 122.13) rotate(-23.19)"/><path class="cls-9" d="M248.94,188.85s-24-16-38.57-60l8.21-3.51s21.91,55.17,44.36,57.55Z"/><path id="heart" class="cls-10" d="M171.23,83.69c-1.92-.36-3.85,1-5,3.28-2.51-.55-4.79.09-5.71,1.82-1.25,2.37.52,5.87,4,7.84A14.5,14.5,0,0,0,171.2,98a1,1,0,0,0,1-.45,12.22,12.22,0,0,0,2.68-5.85C175.51,87.77,173.87,84.2,171.23,83.69Z"/><path id="heart-2" data-name="heart" class="cls-10" d="M188.83,68.83c-1.42-1.35-3.78-1.24-6,.06-1.82-1.82-4.08-2.52-5.79-1.55-2.33,1.31-2.74,5.22-.9,8.73a14.37,14.37,0,0,0,4.91,4.75,1,1,0,0,0,1.09.17,12.13,12.13,0,0,0,5.42-3.47C190.23,74.57,190.77,70.68,188.83,68.83Z"/></g></g></svg>