<svg xmlns="http://www.w3.org/2000/svg" viewBox="0 0 215.59 198.12"><defs><style>.cls-1{fill:#fff;}.cls-2,.cls-4{fill:none;}.cls-3{fill:#b5b5b5;}.cls-4{stroke:#b5b5b5;stroke-miterlimit:10;stroke-width:4px;}.cls-5{fill:#e1e3e2;}.cls-6{fill:#cdcdcd;}</style></defs><g id="Ebene_2" data-name="Ebene 2"><g id="Ebene_2-2" data-name="Ebene 2"><g id="Rechteck_2318" data-name="Rechteck 2318"><rect class="cls-1" width="215.59" height="198.12"/><rect class="cls-2" x="0.29" y="0.38" width="215.02" height="197.37"/></g><g id="Dripper"><path class="cls-3" d="M73.06,147.44v4.66a1.06,1.06,0,0,0,1.07,1.06h57.45a1.06,1.06,0,0,0,1.07-1.06v-5.5a1.07,1.07,0,0,0-1.09-1.06l-57.45.83A1.07,1.07,0,0,0,73.06,147.44Z"/><path class="cls-4" d="M144.37,119.55S189.93,91.49,195,75.27s-28.48-9.15-28.48-9.15"/><path class="cls-5" d="M35,57.05H170.66a1.36,1.36,0,0,1,1.26,1.88l-28.49,68.63a4.15,4.15,0,0,0,1.51,5l17.25,11.67a1.32,1.32,0,0,1-.73,2.41H44.76a1.38,1.38,0,0,1-.73-2.54L61.81,133a3.46,3.46,0,0,0,1.35-4.28L33.79,58.83A1.28,1.28,0,0,1,35,57.05Z"/><path class="cls-6" d="M110.86,146.68H44.76a1.38,1.38,0,0,1-.73-2.54L61.81,133a3.46,3.46,0,0,0,1.35-4.28L33.79,58.83A1.28,1.28,0,0,1,35,57.05H84.22"/></g></g></g></svg>