<svg xmlns="http://www.w3.org/2000/svg" viewBox="0 0 215.59 198.12"><defs><style>.cls-1{fill:#fff;}.cls-2,.cls-6{fill:none;}.cls-3{fill:#e1e3e2;}.cls-4{fill:#b7a388;}.cls-5{fill:#9f8c6f;}.cls-6{stroke:#cdcdcd;stroke-miterlimit:10;stroke-width:6px;}.cls-7{fill:#efefef;}</style></defs><g id="Ebene_2" data-name="Ebene 2"><g id="Ebene_6" data-name="Ebene 6"><g id="Rechteck_2318" data-name="Rechteck 2318"><rect class="cls-1" width="215.59" height="198.12"/><rect class="cls-2" x="0.29" y="0.38" width="215.02" height="197.37"/></g><path class="cls-3" d="M52.91,45.14H170.37a0,0,0,0,1,0,0v95.75a21.7,21.7,0,0,1-21.7,21.7H74a21.11,21.11,0,0,1-21.11-21.11V45.14A0,0,0,0,1,52.91,45.14Z"/><path class="cls-4" d="M61.62,106.88h99.64a0,0,0,0,1,0,0v24.64a21.7,21.7,0,0,1-21.7,21.7H82.73a21.11,21.11,0,0,1-21.11-21.11V106.88a0,0,0,0,1,0,0Z"/><path class="cls-5" d="M128.27,153.05c-1.15.11-2.31.17-3.48.17H87a25.35,25.35,0,0,1-25.35-25.36v-21h49.82"/><path class="cls-6" d="M53.86,65.24H40.19s-10.66,1.33-14,13.66v29.32S30.72,129.38,53,130.05"/><path class="cls-7" d="M90.67,162.59S71.36,133,76.18,76.35H87.13s-1.93,72.73,22.2,86.24Z"/></g></g></svg>