<svg xmlns="http://www.w3.org/2000/svg" viewBox="0 0 99.17 172.88">
  <defs>
    <style>
      .cls-1{fill:#8c4d6a;}.cls-2{fill:#a06281;}.cls-3{fill:#a55169;}.cls-4{fill:#7f445c;}.cls-5{fill:#6d3d55;}.cls-6{fill:#ff5957;opacity:0.61;}.cls-7{fill:#aa6f8f;}
    </style>
  </defs>
  <g id="Ebene_2" data-name="Ebene 2">
    <g id="Ebene_1-2" data-name="Ebene 1">
      <path class="cls-1" d="M23.28,166.35H74.6s-.71,5.53-3.25,6.17-41,.28-43.7,0S23.28,166.35,23.28,166.35Z"/>
      <ellipse class="cls-2" cx="49.59" cy="161.94" rx="49.59" ry="6.33"/>
      <path class="cls-3" d="M67.47,68V4.38H31.7V68c0,6.5-8.82,8.59-8.82,8.59v6.74H76.3V76.61S67.47,74.52,67.47,68Z"/>
      <polygon class="cls-4"
               points="49.4 0 22.57 0 22.57 5.91 31.39 9.85 49.4 9.85 67.4 9.85 76.23 5.91 76.23 0 49.4 0"/>
      <rect class="cls-5" x="18.45" y="79.05" width="61.9" height="85" rx="2.15"/>
      <path class="cls-4"
            d="M20.59,79.05H42.41a0,0,0,0,1,0,0v85a0,0,0,0,1,0,0H20.59a2.15,2.15,0,0,1-2.15-2.15V81.2A2.15,2.15,0,0,1,20.59,79.05Z"/>
      <path class="cls-6" d="M59.24,138.25a3.39,3.39,0,1,1-3.39-3.38A3.39,3.39,0,0,1,59.24,138.25Z"/>
      <path class="cls-6" d="M59.24,121.56a3.39,3.39,0,1,1-3.39-3.39A3.39,3.39,0,0,1,59.24,121.56Z"/>
      <path class="cls-6" d="M59.24,104.86a3.39,3.39,0,1,1-3.39-3.39A3.38,3.38,0,0,1,59.24,104.86Z"/>
      <path class="cls-7" d="M99.17,161.58c0,3.69-22.2,6.69-49.58,6.69S0,165.27,0,161.58"/>
    </g>
  </g>
</svg>
