<svg width="200" height="200" viewBox="0 0 200 200" fill="none" xmlns="http://www.w3.org/2000/svg">
<path d="M120.646 35.0237H59.4159C57.6154 35.0237 56.1559 36.4832 56.1559 38.2837V38.2937C56.1559 40.0941 57.6154 41.5537 59.4159 41.5537H120.646C122.446 41.5537 123.906 40.0941 123.906 38.2937V38.2837C123.906 36.4832 122.446 35.0237 120.646 35.0237Z" fill="#B5B5B5"/>
<path d="M61.0459 41.5537C61.0459 41.5537 72.1559 51.8637 68.1959 74.2237H113.776C113.776 74.2237 109.206 55.4737 119.516 41.5537H61.0459Z" fill="#CDCDCD"/>
<path d="M91.0359 41.5537H61.0359C61.0359 41.5537 72.1459 51.8637 68.1859 74.2237H88.4859" fill="#E1E3E2"/>
<path d="M68.1959 74.2236C68.1959 74.2236 35.6959 125.974 43.0959 139.224C50.4959 152.474 56.3359 160.224 63.8959 163.464C71.4559 166.704 119.506 163.464 119.506 163.464C119.506 163.464 147.506 144.684 138.176 121.234L113.776 74.2236H68.1959Z" fill="#CDCDCD"/>
<path d="M88.4859 74.2236H68.1959C68.1959 74.2236 35.6959 125.974 43.0959 139.224C50.4959 152.474 56.3359 160.224 63.8959 163.464C66.5159 164.594 73.9859 164.944 82.6459 164.914" fill="#E1E3E2"/>
<path d="M118.616 83.5736L167.576 54.1636" stroke="#B5B5B5" stroke-width="5" stroke-miterlimit="10"/>
<path d="M137.316 68.6037L143.416 76.6037L168.416 62.8737C168.416 62.8737 168.996 58.8137 174.616 59.5937C174.616 59.5937 177.326 52.9137 184.396 53.7837L199.206 43.6337C199.206 43.6337 203.856 32.5137 189.426 35.5137L174.426 44.6037C174.426 44.6037 175.006 48.6037 169.426 47.4037C169.426 47.4037 169.426 52.6237 163.516 51.0837L137.316 68.6037Z" fill="#B88265"/>
</svg>
