<svg xmlns="http://www.w3.org/2000/svg" width="35.5" height="35.5" viewBox="0 0 35.5 35.5">
  <defs>
    <style>.a{fill:var(--beanconqueror-icon-color-inactive);}</style>
  </defs>
  <path class="a"
        d="M14.833,3C8.3,3,3,9.622,3,17.792c0,5.6,2.487,10.469,6.157,12.98a15.43,15.43,0,0,1-.139-4.44,19.525,19.525,0,0,1,5.449-11.212,5.213,5.213,0,0,0-.7-5.183,1.48,1.48,0,0,1,2.132-2.054,7.446,7.446,0,0,1,1.852,4.426,19.336,19.336,0,0,1,6.781-2.993C22.384,5.5,18.845,3,14.833,3Zm13.087,8.875a16.323,16.323,0,0,0-11.048,5c-5.742,5.742-6.671,14.116-2.08,18.709S27.76,39.245,33.5,33.5s6.673-14.116,2.08-18.709A10.4,10.4,0,0,0,27.921,11.875Zm3.539,5.616A1.463,1.463,0,0,1,32.9,18.971c-.025,2.041-1.6,6.264-7.361,7.641-4.972,1.191-5.112,4.811-5.114,4.848a1.471,1.471,0,0,1-2.941-.069c.047-2.043,1.653-6.27,7.373-7.639,4.911-1.176,5.1-4.688,5.1-4.836A1.477,1.477,0,0,1,31.46,17.491Z"
        transform="translate(-3 -3)"/>
</svg>
