<svg width="200" height="200" viewBox="0 0 200 200" fill="none" xmlns="http://www.w3.org/2000/svg">
<path d="M100.005 37.76C106.566 37.76 111.885 32.4411 111.885 25.88C111.885 19.3189 106.566 14 100.005 14C93.4434 14 88.1245 19.3189 88.1245 25.88C88.1245 32.4411 93.4434 37.76 100.005 37.76Z" fill="#B6B6B5"/>
<path d="M99.8845 130.54C110.522 130.54 119.145 127.907 119.145 124.66C119.145 121.413 110.522 118.78 99.8845 118.78C89.2475 118.78 80.6245 121.413 80.6245 124.66C80.6245 127.907 89.2475 130.54 99.8845 130.54Z" fill="#CECDCC"/>
<path d="M96.0045 130.42C87.2245 129.87 80.6245 127.5 80.6245 124.66C80.6245 122.05 86.2145 119.84 93.9445 119.07" fill="#B6B6B5"/>
<path d="M119.135 93.28H80.6245V124.66H119.135V93.28Z" fill="#CECDCC"/>
<path d="M89.6845 93.28H80.6245V124.66H94.9145" fill="#B6B6B5"/>
<path d="M90.0742 30.5501C90.0742 30.5501 80.3342 27.9501 75.9242 32.6001C71.5142 37.2501 45.8242 130.54 45.8242 130.54" stroke="#B6B6B5" stroke-width="3" stroke-miterlimit="10"/>
<path d="M89.1544 39.9501C89.1544 39.9501 78.4044 36.7601 76.1544 44.8401C73.9044 52.9201 49.7144 132.46 49.7144 132.46" stroke="#B6B6B5" stroke-width="3" stroke-miterlimit="10"/>
<path d="M35.0744 143.27C35.0744 143.27 33.3144 128.11 46.9144 131.97C59.1244 135.43 51.6544 147.64 51.6544 147.64" stroke="#B6B6B5" stroke-width="3" stroke-miterlimit="10"/>
<path d="M109.634 30.5501C109.634 30.5501 119.374 27.9501 123.784 32.6001C128.194 37.2501 153.884 130.54 153.884 130.54" stroke="#B6B6B5" stroke-width="3" stroke-miterlimit="10"/>
<path d="M110.584 39.9501C110.584 39.9501 121.334 36.7601 123.584 44.8401C125.834 52.9201 150.024 132.46 150.024 132.46" stroke="#B6B6B5" stroke-width="3" stroke-miterlimit="10"/>
<path d="M164.654 143.27C164.654 143.27 166.414 128.11 152.814 131.97C140.604 135.43 148.074 147.64 148.074 147.64" stroke="#B6B6B5" stroke-width="3" stroke-miterlimit="10"/>
<path d="M104.264 129.33H96.1045V139.35H104.264V129.33Z" fill="#CECDCC"/>
<path d="M79.6045 87.1999C79.6045 87.1999 69.1845 82.8299 66.8545 93.2799V178.96" stroke="#CECDCC" stroke-width="2" stroke-miterlimit="10"/>
<path d="M79.9444 91.37C79.9444 91.37 74.7144 89.15 73.2344 93.28V178.96" stroke="#CECDCC" stroke-width="2" stroke-miterlimit="10"/>
<path d="M120.834 87.0301C120.834 87.0301 131.254 82.6901 133.584 93.1101V178.83" stroke="#CECDCC" stroke-width="2" stroke-miterlimit="10"/>
<path d="M120.495 91.1999C120.495 91.1999 125.725 88.9799 127.205 93.1099V178.83" stroke="#CECDCC" stroke-width="2" stroke-miterlimit="10"/>
<path d="M145.814 177.62H55.0342V183.81H145.814V177.62Z" fill="#CECDCC"/>
<path d="M142.774 183.81H58.0645V186.58H142.774V183.81Z" stroke="#B6B6B5" stroke-width="4" stroke-miterlimit="10"/>
<path d="M91.7444 34.4099C91.7444 34.4099 81.8744 50.0199 78.3744 52.7699C74.8744 55.5199 78.3744 93.2799 78.3744 93.2799H121.644V51.7699C121.644 51.7699 109.644 39.5599 108.274 34.4099" fill="#B6B6B5"/>
<path d="M91.8443 34.4099C91.8443 34.4099 81.9843 50.0199 78.4843 52.7699C74.9843 55.5199 78.4843 93.2799 78.4843 93.2799H99.3343" fill="#9C9B9B"/>
<path d="M100.004 31.16C103.075 31.16 105.564 28.6707 105.564 25.6C105.564 22.5293 103.075 20.04 100.004 20.04C96.9336 20.04 94.4443 22.5293 94.4443 25.6C94.4443 28.6707 96.9336 31.16 100.004 31.16Z" fill="#9F8C6F"/>
</svg>
