<svg width="200" height="200" viewBox="0 0 200 200" fill="none" xmlns="http://www.w3.org/2000/svg">
<path d="M156.112 68.71H44.2118V154.37H156.112V68.71Z" fill="#B5B5B5"/>
<path d="M45.6418 168.72H154.642C156.53 168.723 158.4 168.353 160.146 167.632C161.891 166.911 163.477 165.852 164.812 164.518C166.148 163.183 167.207 161.598 167.93 159.853C168.652 158.108 169.023 156.238 169.022 154.35H31.3018C31.2991 156.235 31.668 158.103 32.3874 159.845C33.1068 161.588 34.1625 163.172 35.4942 164.506C36.8259 165.841 38.4075 166.9 40.1487 167.623C41.8899 168.346 43.7565 168.719 45.6418 168.72Z" fill="#E1E3E2"/>
<path d="M154.672 31H45.6718C43.7852 30.9961 41.9165 31.3644 40.1726 32.0839C38.4286 32.8034 36.8438 33.86 35.5089 35.193C34.174 36.5261 33.1153 38.1094 32.3933 39.8523C31.6714 41.5953 31.3004 43.4635 31.3018 45.35V68.71H169.022V45.35C169.022 41.5442 167.51 37.8942 164.819 35.203C162.128 32.5119 158.478 31 154.672 31Z" fill="#E1E3E2"/>
<path d="M84.3618 68.71V75.78C84.3758 76.0279 84.4388 76.2706 84.5471 76.494C84.6554 76.7175 84.8069 76.9173 84.9929 77.0818C85.1788 77.2464 85.3956 77.3725 85.6305 77.4529C85.8655 77.5332 86.114 77.5662 86.3618 77.55H113.962C114.21 77.5662 114.458 77.5332 114.693 77.4529C114.928 77.3725 115.145 77.2464 115.331 77.0818C115.517 76.9173 115.668 76.7175 115.777 76.494C115.885 76.2706 115.948 76.0279 115.962 75.78V68.71H84.3618Z" fill="#CDCDCD"/>
<path d="M73.4218 51.95C74.6423 51.95 75.6318 50.9606 75.6318 49.74C75.6318 48.5195 74.6423 47.53 73.4218 47.53C72.2012 47.53 71.2118 48.5195 71.2118 49.74C71.2118 50.9606 72.2012 51.95 73.4218 51.95Z" fill="#B88265"/>
<path d="M125.242 51.95C126.462 51.95 127.452 50.9606 127.452 49.74C127.452 48.5195 126.462 47.53 125.242 47.53C124.021 47.53 123.032 48.5195 123.032 49.74C123.032 50.9606 124.021 51.95 125.242 51.95Z" fill="#B88265"/>
<path d="M89.2617 81.6501V82.23C89.2617 82.88 90.0717 83.4001 91.0717 83.4001H109.152C110.152 83.4001 110.962 82.88 110.962 82.23V77.55H89.2617V79.3501" fill="#4C2F3A"/>
<path d="M49.1718 62.1999C48.6518 62.7099 45.8718 79.9099 45.1718 80.6699C44.4718 81.4299 36.9918 86.3499 35.9018 87.8399C34.8118 89.3299 36.0518 128.52 36.0518 128.52L40.2318 128.35C40.2318 128.35 39.5118 89.8299 40.1118 88.7199C40.7118 87.6099 47.2618 83.7899 48.4118 82.6699C49.5618 81.5499 53.0418 62.5099 52.4618 62.0999C51.9352 61.8931 51.372 61.7953 50.8065 61.8125C50.241 61.8297 49.6848 61.9615 49.1718 62.1999Z" fill="#CDCDCD"/>
<path d="M36.3618 127.69C36.0118 127.92 34.2418 132.69 35.0018 133.61C35.7618 134.53 40.5918 134 41.2318 133.61C41.8718 133.22 40.6418 127.75 40.0518 127.54C38.8229 127.365 37.5725 127.416 36.3618 127.69Z" fill="#CDCDCD"/>
<path d="M52.9311 63.4021L48.9917 62.4621C48.707 62.3942 48.4211 62.5699 48.3532 62.8546L47.7683 65.3058C47.7004 65.5906 47.8761 65.8764 48.1608 65.9444L52.1003 66.8843C52.385 66.9523 52.6709 66.7765 52.7388 66.4918L53.3237 64.0406C53.3916 63.7559 53.2159 63.47 52.9311 63.4021Z" fill="#4C2F3A"/>
<path d="M54.6419 58.2163L49.8173 57.0651C49.5326 56.9972 49.2467 57.1729 49.1788 57.4577L47.8141 63.1771C47.7461 63.4618 47.9219 63.7477 48.2066 63.8156L53.0312 64.9668C53.3159 65.0347 53.6018 64.859 53.6697 64.5743L55.0344 58.8548C55.1023 58.5701 54.9266 58.2842 54.6419 58.2163Z" fill="#B5B5B5"/>
<path d="M53.5318 56.9101C57.4917 56.9101 60.7018 53.6999 60.7018 49.7401C60.7018 45.7802 57.4917 42.5701 53.5318 42.5701C49.5719 42.5701 46.3618 45.7802 46.3618 49.7401C46.3618 53.6999 49.5719 56.9101 53.5318 56.9101Z" fill="#CDCDCD"/>
<path d="M53.5318 40.4099C51.6865 40.4099 49.8826 40.9571 48.3483 41.9823C46.814 43.0075 45.6182 44.4646 44.912 46.1695C44.2058 47.8743 44.0211 49.7503 44.3811 51.5601C44.7411 53.3699 45.6297 55.0324 46.9345 56.3372C48.2393 57.642 49.9018 58.5306 51.7116 58.8906C53.5214 59.2506 55.3974 59.0659 57.1022 58.3597C58.8071 57.6535 60.2642 56.4577 61.2894 54.9234C62.3146 53.3891 62.8618 51.5852 62.8618 49.7399C62.8591 47.2663 61.8753 44.8947 60.1262 43.1455C58.377 41.3964 56.0054 40.4126 53.5318 40.4099ZM53.5318 54.7599C52.5429 54.7599 51.5762 54.4667 50.7539 53.9173C49.9317 53.3679 49.2908 52.587 48.9124 51.6733C48.534 50.7597 48.4349 49.7544 48.6279 48.7845C48.8208 47.8146 49.297 46.9236 49.9963 46.2244C50.6955 45.5251 51.5864 45.0489 52.5563 44.856C53.5262 44.6631 54.5316 44.7621 55.4452 45.1405C56.3588 45.519 57.1397 46.1598 57.6891 46.9821C58.2385 47.8043 58.5318 48.771 58.5318 49.7599C58.5318 51.086 58.005 52.3578 57.0673 53.2954C56.1296 54.2331 54.8579 54.7599 53.5318 54.7599Z" fill="#9F8C6F"/>
<path d="M161.502 131.98C161.852 132.2 164.282 138.68 163.362 139.74C162.442 140.8 155.652 141.01 154.852 139.44C154.052 137.87 156.722 131.91 157.302 131.7C158.708 131.56 160.127 131.655 161.502 131.98Z" fill="#CDCDCD"/>
<path d="M148.362 62.6299C148.882 63.1299 151.662 80.3399 152.362 81.0899C153.062 81.8399 160.552 86.7799 161.642 88.2699C162.732 89.7599 161.492 132.87 161.492 132.87L157.312 132.69C157.312 132.69 158.032 90.2599 157.422 89.1399C156.812 88.0199 150.282 84.2099 149.132 83.0899C147.982 81.9699 144.502 62.9399 145.082 62.5299C145.606 62.3216 146.168 62.223 146.732 62.2402C147.296 62.2574 147.851 62.39 148.362 62.6299Z" fill="#CDCDCD"/>
<path d="M145.422 67.3078L149.362 66.3679C149.647 66.2999 149.822 66.0141 149.754 65.7293L149.17 63.2782C149.102 62.9934 148.816 62.8177 148.531 62.8856L144.592 63.8256C144.307 63.8935 144.131 64.1794 144.199 64.4641L144.784 66.9153C144.852 67.2 145.138 67.3758 145.422 67.3078Z" fill="#4C2F3A"/>
<path d="M144.5 65.3948L149.325 64.2436C149.61 64.1757 149.785 63.8898 149.717 63.6051L148.353 57.8856C148.285 57.6009 147.999 57.4252 147.714 57.4931L142.89 58.6443C142.605 58.7122 142.429 58.9981 142.497 59.2828L143.862 65.0022C143.93 65.287 144.216 65.4627 144.5 65.3948Z" fill="#B5B5B5"/>
<path d="M143.712 56.9101C147.672 56.9101 150.882 53.6999 150.882 49.7401C150.882 45.7802 147.672 42.5701 143.712 42.5701C139.752 42.5701 136.542 45.7802 136.542 49.7401C136.542 53.6999 139.752 56.9101 143.712 56.9101Z" fill="#CDCDCD"/>
<path d="M143.712 40.4099C141.866 40.4079 140.061 40.9535 138.526 41.9774C136.99 43.0014 135.793 44.4579 135.085 46.1625C134.377 47.8672 134.191 49.7435 134.55 51.554C134.909 53.3645 135.796 55.0279 137.101 56.3337C138.405 57.6395 140.068 58.5291 141.878 58.8899C143.688 59.2507 145.564 59.0665 147.27 58.3607C148.975 57.6548 150.433 56.459 151.459 54.9244C152.484 53.3899 153.032 51.5856 153.032 49.7399C153.026 47.2688 152.043 44.9002 150.297 43.152C148.55 41.4037 146.183 40.4178 143.712 40.4099ZM143.712 54.7599C142.723 54.7599 141.756 54.4667 140.934 53.9173C140.112 53.3679 139.471 52.587 139.092 51.6733C138.714 50.7597 138.615 49.7544 138.808 48.7845C139.001 47.8146 139.477 46.9236 140.176 46.2244C140.876 45.5251 141.766 45.0489 142.736 44.856C143.706 44.6631 144.712 44.7621 145.625 45.1405C146.539 45.519 147.32 46.1598 147.869 46.9821C148.419 47.8043 148.712 48.771 148.712 49.7599C148.712 51.086 148.185 52.3578 147.247 53.2955C146.31 54.2331 145.038 54.7599 143.712 54.7599Z" fill="#9F8C6F"/>
</svg>
