<svg width="200" height="200" viewBox="0 0 200 200" fill="none" xmlns="http://www.w3.org/2000/svg">
<path d="M62.71 92.4781C62.71 92.4781 65.91 159.338 76.63 157.788C76.63 157.788 82.03 162.018 101.84 154.788C116.78 149.348 156.48 137.078 167.52 111.998C167.52 111.998 173.18 102.888 147.97 81.5381L123.53 58.5381" fill="#CECDCC"/>
<path d="M127.13 145.098C117.38 149.378 107.36 153.098 101.76 155.098C81.95 162.318 73.76 157.208 73.76 157.208C66.58 151.648 62.62 92.7881 62.62 92.7881L89.99 77.5081" fill="#B6B6B5"/>
<path d="M141.15 53.0981C139.25 54.2681 136.97 55.5281 134.23 56.8981L133.99 57.0181C132.83 57.5281 122.39 62.4681 116.56 76.8681C111.03 90.4681 87.5 91.6481 82.56 91.7481C82.0507 91.7586 81.5425 91.698 81.05 91.5681C78.64 90.9181 68.7 89.2481 49.34 98.5681C34.78 105.568 31.12 101.408 31.12 98.4081C31.12 96.6381 33.18 96.1781 34.68 95.2281L57.88 80.3781C58.1348 80.215 58.3756 80.031 58.6 79.8281C63.015 75.814 66.7353 71.097 69.61 65.8681C73.73 57.8681 95.86 52.6681 99.61 53.4281C102.21 53.9681 122.86 44.8681 136.86 41.4281C142.78 39.9781 146.39 49.8681 141.15 53.0981Z" fill="#9C9B9B"/>
<path d="M139.95 50.9281C138.05 52.0981 135.77 53.3681 133.03 54.7381L132.79 54.8481C131.63 55.3581 121.2 60.2981 115.36 74.6681C109.98 87.8681 87.58 89.3781 81.8 89.5381C81.0427 89.5584 80.286 89.4776 79.55 89.2981C76.7 88.6181 66.79 87.3881 48.13 96.3681C33.57 103.368 31 100.368 31 97.3681C31.013 96.4925 31.246 95.6342 31.6776 94.8723C32.1093 94.1104 32.7256 93.4693 33.47 93.0081L56.68 78.2081C56.9311 78.0479 57.1686 77.8673 57.39 77.6681C61.7972 73.6569 65.5136 68.9472 68.39 63.7281C72.51 55.7281 91.87 50.5981 98.39 51.2881C104.53 51.9381 121.87 44.6181 135.86 41.1781C141.8 39.7081 145.16 47.7281 139.95 50.9281Z" fill="#E1E3E1"/>
<path d="M94.7249 78.9721C111.313 71.237 122.599 60.3327 119.934 54.6165C117.268 48.9003 101.66 50.537 85.0723 58.272C68.4844 66.0071 57.198 76.9115 59.8635 82.6276C62.529 88.3438 78.137 86.7072 94.7249 78.9721Z" fill="#B6B6B5"/>
<path d="M119.17 53.6682C121.39 58.4382 108 68.6682 94.17 75.1382C80.34 81.6082 60.51 86.4282 59.5 81.2682C58.03 73.7982 72.31 64.3282 86.13 57.8682C99.95 51.4082 116.95 48.8682 119.17 53.6682Z" fill="#E1E3E1"/>
</svg>
