<svg width="200" height="200" viewBox="0 0 200 200" fill="none" xmlns="http://www.w3.org/2000/svg">
<path d="M141.62 85.418H154C154 85.418 163.66 86.628 166.68 97.798V124.368C166.68 124.368 162.59 143.538 142.36 144.138" stroke="#CDCDCD" stroke-width="6" stroke-miterlimit="10"/>
<path d="M45 56.438H143.28V160.688C143.28 165.25 141.468 169.625 138.242 172.85C135.017 176.076 130.642 177.888 126.08 177.888H62.35C60.0726 177.893 57.8166 177.449 55.7112 176.581C53.6057 175.713 51.6923 174.438 50.0806 172.829C48.4688 171.22 47.1904 169.308 46.3186 167.205C45.4468 165.101 44.9987 162.845 45 160.568V56.438Z" fill="#E1E3E2"/>
<path d="M127.156 27.1649L117.126 23.0002L69.8691 136.809L79.8988 140.973L127.156 27.1649Z" fill="#B88265"/>
<path d="M127.137 121.153L133.045 89.7642L101.657 83.8559L95.7483 115.245L127.137 121.153Z" fill="#CDCDCD"/>
<path d="M98.5615 108.164L75.9766 85.5791L53.3916 108.164L75.9766 130.749L98.5615 108.164Z" fill="#CDCDCD"/>
<path d="M107.92 98.8079H75.98V130.748H107.92V98.8079Z" fill="#EFEFEF"/>
<path d="M45 113.568H143.28V159.698C143.28 164.525 141.363 169.154 137.949 172.567C134.536 175.98 129.907 177.898 125.08 177.898H62.88C60.533 177.903 58.2081 177.445 56.0383 176.55C53.8686 175.656 51.8968 174.341 50.2358 172.683C48.5748 171.025 47.2574 169.055 46.3589 166.887C45.4605 164.719 44.9987 162.395 45 160.048V113.568Z" fill="#9F8C6F"/>
<path d="M103 113.568H143.32V160.128C143.32 162.461 142.86 164.772 141.967 166.928C141.074 169.084 139.765 171.043 138.115 172.693C136.465 174.343 134.506 175.652 132.35 176.545C130.194 177.438 127.884 177.898 125.55 177.898H103V113.568Z" fill="#B7A388"/>
<path opacity="0.84" d="M70.9999 177.888C70.9999 177.888 53.5399 151.068 57.9199 99.748H67.8299C67.8299 99.748 66.0799 165.638 87.9999 177.888H70.9999Z" fill="#EFEFEF"/>
</svg>
