<svg xmlns="http://www.w3.org/2000/svg" viewBox="0 0 178.75 345.55">
  <defs>
    <style>
      .cls-1{fill:#97485c;}.cls-2{fill:#ff5957;}.cls-3{fill:#853f52;}.cls-4{fill:#d84e50;}.cls-5{fill:#643e4b;}.cls-6{fill:#5c3844;}
    </style>
  </defs>
  <g id="Ebene_2" data-name="Ebene 2">
    <g id="Ebene_1-2" data-name="Ebene 1">
      <rect class="cls-1" x="0.15" y="120.5" width="113.5" height="225"/>
      <polygon class="cls-1" points="122.88 121.03 0 121.64 44 15.11 152.64 17.67 122.88 121.03"/>
      <polygon class="cls-2" points="152.66 17.89 36.17 18.5 36.17 0.38 152.77 0.29 152.66 17.89"/>
      <rect class="cls-3" x="80.18" y="120.5" width="33.67" height="225"/>
      <polygon class="cls-3" points="114.34 121.03 80.49 121.64 123 18.05 152.13 18.05 114.34 121.03"/>
      <polygon class="cls-4" points="152.5 17.89 122.99 17.97 123.12 0.38 152.53 0.29 152.5 17.89"/>
      <path class="cls-5" d="M152.52,17.84l-6.09,327.3-32.77.41V120.7S151.76,17.84,152.52,17.84Z"/>
      <path class="cls-6" d="M152.82,0l-6.89,345,30.49.29,2.33-224.06S153.41,0,152.82,0Z"/>
      <rect class="cls-2" x="13.48" y="186.79" width="88.17" height="55.64"/>
      <rect class="cls-4" x="80.18" y="188.2" width="19.97" height="53.03"/>
    </g>
  </g>
</svg>
