<svg width="200" height="200" viewBox="0 0 200 200" fill="none" xmlns="http://www.w3.org/2000/svg">
<path d="M118.311 154.148L75.6405 154.298C74.7225 154.303 73.8154 154.098 72.989 153.699C72.1626 153.299 71.439 152.714 70.8739 151.991C70.3088 151.267 69.9173 150.424 69.7295 149.525C69.5416 148.627 69.5625 147.697 69.7905 146.808L125.851 145.478C125.996 146.555 125.909 147.651 125.597 148.693C125.285 149.734 124.755 150.697 124.041 151.518C123.328 152.338 122.448 152.997 121.459 153.451C120.471 153.904 119.398 154.142 118.311 154.148Z" fill="#B6B6B5"/>
<path d="M146.321 137.708C146.321 143.918 132.491 149.518 96.0706 149.888C57.6506 150.278 45.8206 143.428 45.8206 137.218C45.8206 131.008 68.3206 127.388 96.0706 127.388C123.821 127.388 146.321 131.498 146.321 137.708Z" fill="#C1C1C1"/>
<path d="M96.0706 148.468C123.823 148.468 146.321 143.431 146.321 137.218C146.321 131.005 123.823 125.968 96.0706 125.968C68.3182 125.968 45.8206 131.005 45.8206 137.218C45.8206 143.431 68.3182 148.468 96.0706 148.468Z" fill="#CFD0D1"/>
<path d="M156.821 53.9678L42.8206 59.9678L74.3206 134.968L122.321 130.468L156.821 53.9678Z" fill="#C1C1C1"/>
<path d="M118.54 140.218H74.0305C73.6753 140.226 73.3243 140.14 73.0136 139.968C72.7028 139.796 72.4434 139.544 72.2621 139.239C72.0809 138.933 71.9843 138.585 71.9822 138.23C71.9802 137.875 72.0727 137.525 72.2505 137.218L74.3205 133.498L122.32 130.498L121.81 137.248C121.738 138.063 121.361 138.821 120.755 139.371C120.149 139.921 119.359 140.223 118.54 140.218Z" fill="#C1C1C1"/>
<path d="M100.295 65.9583C131.732 64.3107 157.006 58.9512 156.745 53.9874C156.485 49.0237 130.79 46.3354 99.3525 47.9829C67.9155 49.6305 42.6415 54.99 42.9017 59.9537C43.1618 64.9175 68.8575 67.6058 100.295 65.9583Z" fill="#E1E3E1"/>
<path d="M153.9 54.1277C154.15 58.8477 130.22 62.2677 100.35 63.8277C70.4805 65.3877 46.0005 64.5177 45.7505 59.8277C45.5005 55.1377 69.3805 50.8277 99.2405 49.3077C129.1 47.7877 153.65 49.4177 153.9 54.1277Z" fill="#CECECE"/>
<path opacity="0.42" d="M67.0105 65.9976L82.1605 66.4376L96.7105 134.328H83.7705L67.0105 65.9976Z" fill="white"/>
<path opacity="0.42" d="M96.7104 140.218H83.6804L83.7704 134.328H96.7104V140.218Z" fill="white"/>
<path d="M87.6606 138.148C88.5387 138.148 89.2506 137.436 89.2506 136.558C89.2506 135.68 88.5387 134.968 87.6606 134.968C86.7824 134.968 86.0706 135.68 86.0706 136.558C86.0706 137.436 86.7824 138.148 87.6606 138.148Z" fill="#5E5E5E"/>
<path opacity="0.42" d="M131.911 61.2476L122.851 62.1076L124.871 48.7576L135.011 49.1476L131.911 61.2476Z" fill="white"/>
</svg>
