<svg xmlns="http://www.w3.org/2000/svg" viewBox="0 0 151.97 151.97"><defs><style>.cls-1{fill:#b5b5b5;}.cls-2{fill:#e1e3e2;}.cls-3{fill:#cdcdcd;}.cls-4{fill:#b88265;}.cls-5{fill:#4c2f3a;}.cls-6{fill:#9f8c6f;}</style></defs><g id="Ebene_2" data-name="Ebene 2"><g id="Ebene_1-2" data-name="Ebene 1"><g id="Siebträger"><rect class="cls-1" x="14.25" y="41.62" width="123.47" height="94.52"/><path class="cls-2" d="M15.83,152H136.14A15.83,15.83,0,0,0,152,136.14H0A15.83,15.83,0,0,0,15.83,152Z"/><path class="cls-2" d="M136.14,0H15.83A15.83,15.83,0,0,0,0,15.83V41.62H152V15.83A15.83,15.83,0,0,0,136.14,0Z"/><path class="cls-3" d="M58.57,41.62v7.8a2.07,2.07,0,0,0,2.18,1.95H91.22a2.08,2.08,0,0,0,2.18-1.95v-7.8Z"/><circle class="cls-4" cx="46.48" cy="20.68" r="2.44"/><circle class="cls-4" cx="103.67" cy="20.68" r="2.44"/><path class="cls-5" d="M64,55.89v.64c0,.72.89,1.3,2,1.3h20c1.1,0,2-.58,2-1.3V51.37H64v1.94"/><path class="cls-3" d="M19.72,34.44C19.15,35,16.08,54,15.33,54.81s-9,6.27-10.25,7.92.16,44.88.16,44.88l4.62-.19s-.8-42.5-.13-43.73,7.88-5.44,9.16-6.67S24,34.77,23.36,34.33,20.3,33.88,19.72,34.44Z"/><path class="cls-3" d="M5.53,106.7c-.38.25-2.34,5.54-1.5,6.53s6.17.43,6.87,0-.64-6.47-1.29-6.7A11.43,11.43,0,0,0,5.53,106.7Z"/><rect class="cls-5" x="18.42" y="35.19" width="5.64" height="3.95" rx="0.53" transform="translate(9.21 -3.92) rotate(13.42)"/><rect class="cls-1" x="18.88" y="29.3" width="6.65" height="7.66" rx="0.53" transform="translate(8.3 -4.25) rotate(13.42)"/><circle class="cls-3" cx="24.54" cy="20.68" r="7.91"/><path class="cls-6" d="M24.54,10.39A10.29,10.29,0,1,0,34.83,20.68,10.3,10.3,0,0,0,24.54,10.39Zm0,15.83a5.54,5.54,0,1,1,5.54-5.54A5.54,5.54,0,0,1,24.54,26.22Z"/><path class="cls-3" d="M143.67,111.43c.39.25,3.08,7.4,2.06,8.57s-8.51,1.4-9.39-.34,2-8.31,2.7-8.54A14.23,14.23,0,0,1,143.67,111.43Z"/><path class="cls-3" d="M129.16,34.91c.58.55,3.65,19.54,4.4,20.37s9,6.27,10.25,7.92-.17,49.21-.17,49.21l-4.62-.19s.8-46.83.14-48.06-7.89-5.44-9.16-6.67-5.11-22.25-4.47-22.69S128.59,34.35,129.16,34.91Z"/><rect class="cls-5" x="124.83" y="35.66" width="5.64" height="3.95" rx="0.53" transform="translate(260.54 44.61) rotate(166.58)"/><rect class="cls-1" x="123.36" y="29.77" width="6.65" height="7.66" rx="0.53" transform="translate(257.7 36.88) rotate(166.58)"/><circle class="cls-3" cx="124.04" cy="20.68" r="7.91"/><path class="cls-6" d="M124,10.39a10.29,10.29,0,1,0,10.29,10.29A10.31,10.31,0,0,0,124,10.39Zm0,15.83a5.54,5.54,0,1,1,5.54-5.54A5.54,5.54,0,0,1,124,26.22Z"/></g></g></g></svg>