<svg xmlns="http://www.w3.org/2000/svg" viewBox="0 0 215.59 198.12"><defs><style>.cls-1{fill:#fff;}.cls-2{fill:none;}.cls-3{fill:#9f8c6f;}.cls-4,.cls-5{fill:#cdcdcd;}.cls-4,.cls-6{opacity:0.4;}.cls-6{fill:#e1e3e2;}.cls-7{fill:#b5b5b5;}</style></defs><g id="Ebene_2" data-name="Ebene 2"><g id="Ebene_1-2" data-name="Ebene 1"><g id="Rechteck_2318" data-name="Rechteck 2318"><rect class="cls-1" width="215.59" height="198.12"/><rect class="cls-2" x="0.29" y="0.38" width="215.02" height="197.37"/></g><g id="FrenchPress"><rect class="cls-3" x="98.09" y="28.88" width="6.98" height="11.59" rx="1.18"/><rect class="cls-3" x="98.86" y="50.34" width="5.43" height="94.14"/><rect class="cls-3" x="73.44" y="142.66" width="55.94" height="4.87" rx="1.7"/><path class="cls-4" d="M126.18,52h14.54a2.69,2.69,0,0,1,2.69,2.69V166.55a2.69,2.69,0,0,1-2.69,2.69H126.18"/><path class="cls-5" d="M164.44,118.24h-4.33a1.37,1.37,0,0,1-1.37-1.37V79a20.06,20.06,0,0,0-20-20l-82.27.62a1.36,1.36,0,0,1-1-.42c-.92-.95-3-3.2-3.11-3.81-.09-.78-.33-3.18,1.49-3.46s84.88,0,84.88,0A27.14,27.14,0,0,1,165.81,79v37.84A1.37,1.37,0,0,1,164.44,118.24Z"/><path class="cls-6" d="M140.69,169.24H68a2.72,2.72,0,0,1-2.72-2.72V69.71L52.76,56.31A2.72,2.72,0,0,1,55,52h85.73a2.72,2.72,0,0,1,2.72,2.72V166.52A2.72,2.72,0,0,1,140.69,169.24Z"/><path class="cls-6" d="M70.72,163.81H138l-33,1.25s-25.36-.75-25.36-.17Z"/><path class="cls-7" d="M140.89,51h-79a2.79,2.79,0,0,1-2.09-.85,1.52,1.52,0,0,1-.23-1.79c.32-.58,8.26-14.25,41.81-14.25s41.48,13.67,41.8,14.25a1.51,1.51,0,0,1-.23,1.79A2.79,2.79,0,0,1,140.89,51Z"/></g></g></g></svg>