<svg xmlns="http://www.w3.org/2000/svg" width="24.33" height="24.33" viewBox="0 0 24.33 24.33">
  <path id="icons8-smiling"
        d="M14.165,2A12.165,12.165,0,1,0,26.33,14.165,12.165,12.165,0,0,0,14.165,2Zm0,2.433a9.732,9.732,0,1,1-9.732,9.732A9.732,9.732,0,0,1,14.165,4.433ZM9.907,9.3a1.825,1.825,0,0,0-1.825,1.825v.608h3.65v-.608A1.825,1.825,0,0,0,9.907,9.3Zm8.516,0A1.825,1.825,0,0,0,16.6,11.124v.608h3.65v-.608A1.825,1.825,0,0,0,18.423,9.3ZM7.949,14.165c.973,3.9,3.381,6.691,6.216,6.691s5.242-2.791,6.216-6.691Z"
        transform="translate(-2 -2)" fill="#504027"/>
</svg>
