<svg xmlns="http://www.w3.org/2000/svg" width="16.293" height="16.289" viewBox="0 0 16.293 16.289">
  <path id="icons8-search" d="M20.625,14.4a6.233,6.233,0,1,0,4.4,1.821A6.209,6.209,0,0,0,20.625,14.4Zm-.008.968a5.176,5.176,0,0,1,3.707,1.542,5.228,5.228,0,1,1-3.707-1.542Zm0,.984a4.169,4.169,0,0,0-3,1.263,4.261,4.261,0,0,0-1.247,2.854.483.483,0,0,0,.476.508h.016a.5.5,0,0,0,.492-.476,3.328,3.328,0,0,1,.951-2.2,3.253,3.253,0,0,1,2.313-.968.492.492,0,1,0,0-.984Zm-2.838,6.184a.492.492,0,1,0,.492.492A.492.492,0,0,0,17.779,22.537Zm7.933,2.707a.456.456,0,0,0-.338.148.475.475,0,0,0,0,.689l.41.41a1.411,1.411,0,0,0-.148.64,1.476,1.476,0,0,0,.426,1.05l2.1,2.067a1.479,1.479,0,0,0,1.05.443,1.534,1.534,0,0,0,1.05-.426,1.475,1.475,0,0,0,0-2.083l-2.1-2.1a1.476,1.476,0,0,0-1.05-.426,1.411,1.411,0,0,0-.64.148l-.41-.41A.5.5,0,0,0,25.712,25.243Zm1.4,1.378a.447.447,0,0,1,.344.148l2.083,2.083a.487.487,0,0,1-.689.689l-2.083-2.067a.509.509,0,0,1-.148-.361.447.447,0,0,1,.148-.344A.472.472,0,0,1,27.113,26.621Z" transform="translate(-14.4 -14.4)" fill="#9f8c6f"/>
</svg>
