<svg xmlns="http://www.w3.org/2000/svg" xmlns:xlink="http://www.w3.org/1999/xlink" viewBox="0,0,256,256" width="24px" height="24px" fill-rule="evenodd"><g fill="var(--beanconqueror-icon-color)" fill-rule="evenodd" stroke="none" stroke-width="1" stroke-linecap="butt" stroke-linejoin="miter" stroke-miterlimit="10" stroke-dasharray="" stroke-dashoffset="0" font-family="none" font-weight="none" font-size="none" text-anchor="none" style="mix-blend-mode: normal"><g transform="scale(10.66667,10.66667)"><g><path d="M12.5,8c-0.28,0 -0.5,0.22 -0.5,0.5c0,0.27 0.22,0.5 0.5,0.5c0.27,0 0.5,-0.23 0.5,-0.5c0,-0.28 -0.23,-0.5 -0.5,-0.5zM11,8.5c0,-0.83 0.67,-1.5 1.5,-1.5c0.82,0 1.5,0.67 1.5,1.5c0,0.82 -0.68,1.5 -1.5,1.5c-0.83,0 -1.5,-0.68 -1.5,-1.5z"></path><path d="M17.5,5.5c-0.28,0 -0.5,0.22 -0.5,0.5c0,0.27 0.22,0.5 0.5,0.5c0.27,0 0.5,-0.23 0.5,-0.5c0,-0.28 -0.23,-0.5 -0.5,-0.5zM16,6c0,-0.83 0.67,-1.5 1.5,-1.5c0.82,0 1.5,0.67 1.5,1.5c0,0.82 -0.68,1.5 -1.5,1.5c-0.83,0 -1.5,-0.68 -1.5,-1.5z"></path><path d="M17.5,10.5c-0.28,0 -0.5,0.22 -0.5,0.5c0,0.27 0.22,0.5 0.5,0.5c0.27,0 0.5,-0.23 0.5,-0.5c0,-0.28 -0.23,-0.5 -0.5,-0.5zM16,11c0,-0.83 0.67,-1.5 1.5,-1.5c0.82,0 1.5,0.67 1.5,1.5c0,0.82 -0.68,1.5 -1.5,1.5c-0.83,0 -1.5,-0.68 -1.5,-1.5z"></path><path d="M14.33,8.54l2.44,-1.63l-0.56,-0.84l-3,2c-0.14,0.08 -0.22,0.23 -0.23,0.38c-0.01,0.15 0.05,0.3 0.17,0.41l3,2.49l0.64,-0.77l-2.49,-2.08z"></path><path d="M4,2.5c-0.83,0 -1.5,0.67 -1.5,1.5v16c0,0.82 0.67,1.5 1.5,1.5h16c0.82,0 1.5,-0.68 1.5,-1.5v-4.5h1v4.5c0,1.38 -1.12,2.5 -2.5,2.5h-16c-1.39,0 -2.5,-1.12 -2.5,-2.5v-16c0,-1.39 1.11,-2.5 2.5,-2.5h4.5v1z"></path><path d="M8.07,16.12c-0.58,-0.72 -1.66,-0.75 -2.28,-0.07l-3.44,3.77l-0.74,-0.68l3.43,-3.78c1.02,-1.14 2.82,-1.09 3.79,0.1l5.03,6.19l-0.78,0.63l-5.04,-6.2z"></path><path d="M17.46,18.67c-0.56,-0.56 -1.46,-0.59 -2.05,-0.07l-2.6,2.26l-0.66,-0.76l2.59,-2.27c0.99,-0.87 2.48,-0.82 3.41,0.11l3.17,3.17l-0.71,0.7l-3.18,-3.18z"></path><path d="M15.5,2.5c-3.32,0 -6,2.68 -6,6c0,3.31 2.68,6 6,6c3.31,0 6,-2.69 6,-6c0,-3.32 -2.69,-6 -6,-6zM8.5,8.5c0,-3.87 3.13,-7 7,-7c3.86,0 7,3.13 7,7c0,3.86 -3.14,7 -7,7c-3.87,0 -7,-3.14 -7,-7z"></path></g></g></g></svg>