<svg xmlns="http://www.w3.org/2000/svg" viewBox="0 0 215.59 198.12"><defs><style>.cls-1{fill:#fff;}.cls-2,.cls-5{fill:none;}.cls-3{fill:#d3d3d3;}.cls-4{fill:#e1e3e2;}.cls-5{stroke:#cdcdcd;stroke-miterlimit:10;stroke-width:4px;}.cls-6{fill:#b5b5b5;opacity:0.23;}</style></defs><g id="Ebene_2" data-name="Ebene 2"><g id="Ebene_1-2" data-name="Ebene 1"><g id="Rechteck_2318" data-name="Rechteck 2318"><rect class="cls-1" width="215.59" height="198.12"/><rect class="cls-2" x="0.29" y="0.38" width="215.02" height="197.37"/></g><g id="KalitaWave"><path class="cls-3" d="M82.26,142.23h50.45s-.69,5.44-3.18,6.07-40.3.28-43,0S82.26,142.23,82.26,142.23Z"/><ellipse class="cls-4" cx="108.12" cy="137.27" rx="48.75" ry="7.19"/><path class="cls-5" d="M166.6,76.71s26.58-.3,13.15,23.07a52,52,0,0,1-39.42,20.84"/><rect class="cls-3" x="83.54" y="129.05" width="44.81" height="10.46" rx="4.85"/><rect class="cls-4" x="79.19" y="121.3" width="53.52" height="13.79" rx="4.85"/><rect class="cls-3" x="73.7" y="112.52" width="64.5" height="17.55" rx="4.85"/><rect class="cls-4" x="69.02" y="106.26" width="73.87" height="17.55" rx="4.85"/><rect class="cls-3" x="63.85" y="100.83" width="82.9" height="17.55" rx="4.85"/><rect class="cls-4" x="59.37" y="94.97" width="91.93" height="17.55" rx="4.85"/><rect class="cls-3" x="55.49" y="88.71" width="99.69" height="17.55" rx="4.85"/><rect class="cls-4" x="52.48" y="82.23" width="105.99" height="17.55" rx="4.85"/><rect class="cls-3" x="47.63" y="76.34" width="115.41" height="17.55" rx="4.85"/><rect class="cls-4" x="42.26" y="71.88" width="126.43" height="13.24" rx="4.85"/><path class="cls-6" d="M77.12,71.88H47a4.77,4.77,0,0,0-4.77,4.77v3.7A4.77,4.77,0,0,0,47,85.12h.6v4a4.76,4.76,0,0,0,4.77,4.77h.08V95a4.77,4.77,0,0,0,3,4.43v2a4.77,4.77,0,0,0,3.88,4.68v1.58a4.75,4.75,0,0,0,4.48,4.74v1.12a4.78,4.78,0,0,0,4.77,4.77H69V119a4.77,4.77,0,0,0,4.68,4.76v1.5a4.76,4.76,0,0,0,4.77,4.77h.72v.25a4.75,4.75,0,0,0,4.38,4.73,4.76,4.76,0,0,0,4.74,4.45h5.57"/></g></g></g></svg>