<svg xmlns="http://www.w3.org/2000/svg" width="76" height="84.302" viewBox="0 0 76 84.302">
  <g id="Gruppe_205" data-name="Gruppe 205" transform="translate(-229 -146)">
    <circle id="Ellipse_366" data-name="Ellipse 366" cx="38" cy="38" r="38" transform="translate(229 146)"
            fill="#ffacab"/>
    <g id="Gruppe_189" data-name="Gruppe 189" transform="translate(-1590 199.533)">
      <g id="Gruppe_184" data-name="Gruppe 184" transform="translate(1837.18 -38.578)">
        <path id="Pfad_1418" data-name="Pfad 1418"
              d="M1178.6,618.861h20.584s-.283,2.217-1.3,2.475-16.44.114-17.53,0S1178.6,618.861,1178.6,618.861Z"
              transform="translate(-1169.262 -552.133)" fill="#8c4d6a"/>
        <ellipse id="Ellipse_418" data-name="Ellipse 418" cx="19.89" cy="2.539" rx="19.89" ry="2.539"
                 transform="translate(0 62.42)" fill="#a06281"/>
        <path id="Pfad_1419" data-name="Pfad 1419"
              d="M1196.084,482.418V456.891h-14.347v25.527c0,2.609-3.54,3.447-3.54,3.447v2.7h21.428v-2.7S1196.084,485.027,1196.084,482.418Z"
              transform="translate(-1169.02 -455.134)" fill="#a55169"/>
        <path id="Pfad_1420" data-name="Pfad 1420" d="M1188.649,452.51h-10.762v2.369l3.54,1.58h14.444l3.54-1.58V452.51Z"
              transform="translate(-1168.834 -452.51)" fill="#7f445c"/>
        <rect id="Rechteck_2205" data-name="Rechteck 2205" width="24.831" height="34.098" rx="2.149"
              transform="translate(7.399 31.711)" fill="#6d3d55"/>
        <path id="Rechteck_2206" data-name="Rechteck 2206"
              d="M2.149,0H9.612a0,0,0,0,1,0,0V34.1a0,0,0,0,1,0,0H2.149A2.149,2.149,0,0,1,0,31.948V2.149A2.149,2.149,0,0,1,2.149,0Z"
              transform="translate(7.399 31.711)" fill="#7f445c"/>
        <path id="Pfad_1421" data-name="Pfad 1421"
              d="M1210.5,588.737a1.358,1.358,0,1,1-1.357-1.358A1.357,1.357,0,0,1,1210.5,588.737Z"
              transform="translate(-1186.741 -533.279)" fill="#ff5957" opacity="0.61"/>
        <path id="Pfad_1422" data-name="Pfad 1422"
              d="M1210.5,572.038a1.358,1.358,0,1,1-1.357-1.357A1.357,1.357,0,0,1,1210.5,572.038Z"
              transform="translate(-1186.741 -523.279)" fill="#ff5957" opacity="0.61"/>
        <path id="Pfad_1423" data-name="Pfad 1423"
              d="M1210.5,555.34a1.358,1.358,0,1,1-1.357-1.357A1.357,1.357,0,0,1,1210.5,555.34Z"
              transform="translate(-1186.741 -513.279)" fill="#ff5957" opacity="0.61"/>
        <path id="Pfad_1424" data-name="Pfad 1424"
              d="M1195.1,614.092c0,1.481-8.905,2.681-19.89,2.681s-19.89-1.2-19.89-2.681"
              transform="translate(-1155.32 -549.276)" fill="#aa6f8f"/>
      </g>
    </g>
  </g>
</svg>
