<?xml version="1.0" encoding="UTF-8"?>
<svg xmlns="http://www.w3.org/2000/svg" xmlns:xlink="http://www.w3.org/1999/xlink" viewBox="0 0 128 128" width="128px" height="128px">
<g id="surface1811251">
<path style=" stroke:none;fill-rule:nonzero;fill:rgb(80.392158%,76.078433%,67.450982%);fill-opacity:1;" d="M 64 128 C 28.652344 128 0 99.347656 0 64 C 0 28.652344 28.652344 0 64 0 C 99.347656 0 128 28.652344 128 64 C 128 99.347656 99.347656 128 64 128 Z M 64 128 "/>
<path style=" stroke:none;fill-rule:nonzero;fill:rgb(100%,100%,100%);fill-opacity:1;" d="M 104.949219 31.5 C 104.949219 26.820312 101.179688 23.050781 96.5 23.050781 L 86.75 23.050781 C 85.644531 23.050781 84.800781 23.894531 84.800781 25 C 84.800781 26.105469 85.644531 26.949219 86.75 26.949219 L 96.5 26.949219 C 99.035156 26.949219 101.050781 28.964844 101.050781 31.5 L 101.050781 41.25 C 101.050781 42.355469 101.894531 43.199219 103 43.199219 C 104.105469 43.199219 104.949219 42.355469 104.949219 41.25 Z M 25 43.199219 C 26.105469 43.199219 26.949219 42.355469 26.949219 41.25 L 26.949219 31.5 C 26.949219 28.964844 28.964844 26.949219 31.5 26.949219 L 41.25 26.949219 C 42.355469 26.949219 43.199219 26.105469 43.199219 25 C 43.199219 23.894531 42.355469 23.050781 41.25 23.050781 L 31.5 23.050781 C 26.820312 23.050781 23.050781 26.820312 23.050781 31.5 L 23.050781 41.25 C 23.050781 42.355469 23.894531 43.199219 25 43.199219 Z M 31.5 104.949219 L 41.25 104.949219 C 42.355469 104.949219 43.199219 104.105469 43.199219 103 C 43.199219 101.894531 42.355469 101.050781 41.25 101.050781 L 31.5 101.050781 C 28.964844 101.050781 26.949219 99.035156 26.949219 96.5 L 26.949219 86.75 C 26.949219 85.644531 26.105469 84.800781 25 84.800781 C 23.894531 84.800781 23.050781 85.644531 23.050781 86.75 L 23.050781 96.5 C 23.050781 101.179688 26.820312 104.949219 31.5 104.949219 Z M 104.949219 96.5 L 104.949219 86.75 C 104.949219 85.644531 104.105469 84.800781 103 84.800781 C 101.894531 84.800781 101.050781 85.644531 101.050781 86.75 L 101.050781 96.5 C 101.050781 99.035156 99.035156 101.050781 96.5 101.050781 L 86.75 101.050781 C 85.644531 101.050781 84.800781 101.894531 84.800781 103 C 84.800781 104.105469 85.644531 104.949219 86.75 104.949219 L 96.5 104.949219 C 101.179688 104.949219 104.949219 101.179688 104.949219 96.5 Z M 90 75.050781 L 77 75.050781 C 75.894531 75.050781 75.050781 75.894531 75.050781 77 L 75.050781 90 C 75.050781 91.105469 75.894531 91.949219 77 91.949219 L 90 91.949219 C 91.105469 91.949219 91.949219 91.105469 91.949219 90 L 91.949219 77 C 91.949219 75.894531 91.105469 75.050781 90 75.050781 Z M 88.050781 88.050781 L 78.949219 88.050781 L 78.949219 78.949219 L 88.050781 78.949219 Z M 60.101562 91.949219 C 61.203125 91.949219 62.050781 91.105469 62.050781 90 L 62.050781 85.449219 L 67.898438 85.449219 C 69.003906 85.449219 69.851562 84.605469 69.851562 83.5 L 69.851562 70.5 C 69.851562 69.394531 69.003906 68.550781 67.898438 68.550781 C 66.796875 68.550781 65.949219 69.394531 65.949219 70.5 L 65.949219 81.550781 L 60.101562 81.550781 C 58.996094 81.550781 58.148438 82.394531 58.148438 83.5 L 58.148438 90 C 58.148438 91.105469 58.996094 91.949219 60.101562 91.949219 Z M 90 52.949219 C 91.105469 52.949219 91.949219 52.105469 91.949219 51 L 91.949219 38 C 91.949219 36.894531 91.105469 36.050781 90 36.050781 L 77 36.050781 C 75.894531 36.050781 75.050781 36.894531 75.050781 38 L 75.050781 51 C 75.050781 52.105469 75.894531 52.949219 77 52.949219 Z M 78.949219 39.949219 L 88.050781 39.949219 L 88.050781 49.050781 L 78.949219 49.050781 Z M 38 52.949219 L 51 52.949219 C 52.105469 52.949219 52.949219 52.105469 52.949219 51 L 52.949219 38 C 52.949219 36.894531 52.105469 36.050781 51 36.050781 L 38 36.050781 C 36.894531 36.050781 36.050781 36.894531 36.050781 38 L 36.050781 51 C 36.050781 52.105469 36.894531 52.949219 38 52.949219 Z M 39.949219 39.949219 L 49.050781 39.949219 L 49.050781 49.050781 L 39.949219 49.050781 Z M 38 65.949219 L 41.25 65.949219 C 42.355469 65.949219 43.199219 65.105469 43.199219 64 C 43.199219 62.894531 42.355469 62.050781 41.25 62.050781 L 38 62.050781 C 36.894531 62.050781 36.050781 62.894531 36.050781 64 C 36.050781 65.105469 36.894531 65.949219 38 65.949219 Z M 60.101562 65.949219 C 61.203125 65.949219 62.050781 65.105469 62.050781 64 L 62.050781 52.949219 L 67.898438 52.949219 C 69.003906 52.949219 69.851562 52.105469 69.851562 51 L 69.851562 38 C 69.851562 36.894531 69.003906 36.050781 67.898438 36.050781 C 66.796875 36.050781 65.949219 36.894531 65.949219 38 L 65.949219 49.050781 L 60.101562 49.050781 C 58.996094 49.050781 58.148438 49.894531 58.148438 51 L 58.148438 62.050781 L 54.25 62.050781 C 53.144531 62.050781 52.300781 62.894531 52.300781 64 C 52.300781 65.105469 53.144531 65.949219 54.25 65.949219 Z M 71.800781 60.101562 C 71.800781 61.203125 72.644531 62.050781 73.75 62.050781 L 79.601562 62.050781 L 79.601562 67.898438 C 79.601562 69.003906 80.445312 69.851562 81.550781 69.851562 L 90 69.851562 C 91.105469 69.851562 91.949219 69.003906 91.949219 67.898438 C 91.949219 66.796875 91.105469 65.949219 90 65.949219 L 83.5 65.949219 L 83.5 60.101562 C 83.5 58.996094 82.65625 58.148438 81.550781 58.148438 L 73.75 58.148438 C 72.644531 58.148438 71.800781 58.996094 71.800781 60.101562 Z M 52.949219 90 L 52.949219 77 C 52.949219 75.894531 52.105469 75.050781 51 75.050781 L 38 75.050781 C 36.894531 75.050781 36.050781 75.894531 36.050781 77 L 36.050781 90 C 36.050781 91.105469 36.894531 91.949219 38 91.949219 L 51 91.949219 C 52.105469 91.949219 52.949219 91.105469 52.949219 90 Z M 49.050781 88.050781 L 39.949219 88.050781 L 39.949219 78.949219 L 49.050781 78.949219 Z M 49.050781 88.050781 "/>
</g>
</svg>
