<svg width="200" height="200" viewBox="0 0 200 200" fill="none" xmlns="http://www.w3.org/2000/svg">
<path d="M104.28 169.622L101.63 171.142C101.63 171.142 106.36 174.092 110.63 172.942C114.9 171.792 132.63 161.942 139.3 155.072C143.61 150.672 138.91 144.302 138.91 144.302L135.67 146.472L134.44 153.622L107.53 168.622L104.28 169.622Z" fill="#1C1C1C"/>
<path d="M136.44 133.792L79.5002 115.242L77.8202 55.6424C77.8054 55.1007 77.9127 54.5626 78.1341 54.0681C78.3556 53.5736 78.6856 53.1352 79.0996 52.7856C79.5136 52.436 80.0009 52.184 80.5256 52.0484C81.0502 51.9128 81.5986 51.8971 82.1302 52.0024L131.28 61.6924C133.048 62.0019 134.647 62.9327 135.789 64.317C136.932 65.7012 137.542 67.448 137.51 69.2424L136.44 133.792Z" fill="#CCCCCC"/>
<path d="M104.28 158.652L53.38 136.982C53.0572 136.84 52.7828 136.607 52.5901 136.311C52.3975 136.015 52.2949 135.67 52.2949 135.317C52.2949 134.964 52.3975 134.619 52.5901 134.324C52.7828 134.028 53.0572 133.795 53.38 133.652L77.28 123.042L137.17 142.802C137.292 142.843 137.4 142.917 137.482 143.017C137.564 143.116 137.615 143.237 137.631 143.365C137.647 143.493 137.626 143.622 137.571 143.739C137.516 143.855 137.429 143.953 137.32 144.022L115.79 157.712C114.093 158.794 112.157 159.445 110.151 159.609C108.146 159.773 106.13 159.444 104.28 158.652Z" fill="#6D6D6D"/>
<path d="M134.21 156.092L107.37 170.412L106.53 159.192L138.28 143.442L138.21 150.972C138.11 153.082 136.05 155.062 134.21 156.092Z" fill="#5E5E5E"/>
<path d="M77.27 51.2623L132.48 61.2323L188.3 44.2123L123.85 34.8723L77.27 51.2623Z" fill="#5E5E5E"/>
<path d="M132.48 61.2324C133.918 62.0743 135.146 63.2319 136.071 64.6178C136.996 66.0036 137.594 67.5815 137.82 69.2324C138.45 74.7424 193.16 51.8224 193.16 51.8224C193.054 50.2455 192.55 48.7211 191.697 47.3907C190.844 46.0603 189.669 44.967 188.28 44.2124C183.58 41.8024 132.48 61.2324 132.48 61.2324Z" fill="#5E5E5E"/>
<path d="M101.65 171.142L101.8 187.662C101.8 187.662 105.95 190.662 108.92 190.372C110.771 190.127 112.53 189.415 114.03 188.302C114.03 188.302 113.13 181.812 119.76 176.152L180.5 138.152C180.5 138.152 183.96 137.322 183.34 142.642L186.65 140.912L187.75 120.342C187.443 118.897 186.768 117.556 185.791 116.449C184.813 115.341 183.566 114.506 182.17 114.022C177.43 112.512 131.62 141.022 131.62 141.022C131.62 141.022 137.95 143.132 138.86 145.692C139.77 148.252 140.45 151.082 139.65 153.802C138.85 156.522 126.06 163.922 126.06 163.922L110.7 172.922C110.7 172.922 107.42 174.412 101.65 171.142Z" fill="#5E5E5E"/>
<path d="M54.9402 151.362L56.0602 166.922L51.7202 164.682L50.9902 148.362L54.9402 151.362Z" fill="#5E5E5E"/>
<path d="M54 146.392C54 146.392 51 147.392 51 148.392C51 149.392 52.63 150.282 54.94 151.392L59.59 149.542L54.97 146.092L54 146.392Z" fill="#5E5E5E"/>
<path d="M60.8899 164.342L56.0599 166.922L54.9399 151.362L57.6499 150.162L66.6499 153.542C66.6499 153.542 60.7399 155.922 60.8899 164.342Z" fill="#171813"/>
<path d="M59.3401 88.9222C58.7001 97.1022 67.6101 95.9222 76.7701 95.9222C85.9301 95.9222 101.11 91.1922 101.51 87.2722C101.68 85.5922 86.0201 89.6222 76.8601 89.6222C67.7001 89.6222 59.4801 87.1922 59.3401 88.9222Z" fill="#E5E5E5"/>
<path d="M6 103.152C6 103.152 6 99.9722 13.13 97.2222C20.26 94.4722 25.92 92.3422 29.45 92.0622C32.98 91.7822 45.7 90.3622 45.7 90.3622L57.43 88.4622C57.43 88.4622 59.48 87.7522 59.62 92.2022C59.76 96.6522 59.69 96.0922 54.62 97.5022C49.55 98.9122 34.21 103.642 34.21 103.642C34.21 103.642 24.28 107.252 16.38 106.472C8.48 105.692 7.2 106.122 6 103.152Z" fill="#5E5E5E"/>
<path d="M186.09 113.002L135.51 138.472L137.82 69.2423L193.16 51.8323L189.88 107.062C189.806 108.293 189.419 109.485 188.756 110.524C188.093 111.564 187.175 112.417 186.09 113.002Z" fill="#6B6B6B"/>
<path d="M127.01 141.282L79.4699 125.282C78.6695 125.018 78.003 124.453 77.6112 123.707C77.2194 122.961 77.1329 122.091 77.3699 121.282L79.0999 115.112L135.76 133.212L135.59 139.352C134.28 141.732 129.55 142.172 127.01 141.282Z" fill="#AFAFAF"/>
<path d="M56.7598 65.9223L57.0598 85.9223C57.0598 85.9223 63.4698 92.7423 80.9798 91.3223C98.4898 89.9023 101.27 88.4123 104.05 84.5223L103.84 65.6023C103.84 65.6023 98.4698 73.4023 79.2798 72.0023C79.2798 72.0023 57.4498 72.5523 56.7598 65.9223Z" fill="#9C9B9B"/>
<path d="M103.67 65.6422C103.67 68.7422 93.3301 72.2422 80.3201 72.2422C67.3101 72.2422 56.8101 69.3222 56.8101 66.2422C56.8101 63.1622 63.0001 58.6322 79.4201 57.8222C96.1601 56.9822 103.67 62.5422 103.67 65.6422Z" fill="#5E5E5E"/>
<path d="M99.96 62.8424C99.96 64.7124 91.7 67.7624 80.49 67.7024C64.98 67.6224 60.91 64.8624 61.1 63.0024C61.35 60.6124 68.45 59.4524 79.66 59.4524C90.87 59.4524 99.96 60.9724 99.96 62.8424Z" fill="#E1E3E1"/>
<path d="M98.3898 61.9223C98.4698 63.9223 89.8398 66.7623 80.3198 66.5423C62.8298 66.1323 62.0098 63.3023 62.0098 61.7523C62.0098 60.2023 70.2798 57.6423 79.8298 57.6423C89.3798 57.6423 98.2798 58.9223 98.3898 61.9223Z" fill="#5E5E5E"/>
<path d="M71.6298 85.5324C71.6298 85.5324 56.7798 93.9224 55.3598 97.9224C55.3598 97.9224 52.4898 102.162 54.2098 105.692C55.9298 109.222 62.9698 106.342 62.9698 106.342C62.9698 106.342 68.3298 103.962 72.6598 97.1324C74.2433 95.3582 75.6189 93.4089 76.7598 91.3224C78.1298 88.5524 74.7598 85.8524 74.7598 85.8524C74.7598 85.8524 74.3398 85.3324 71.6298 85.5324Z" fill="#5E5E5E"/>
<path d="M105.96 170.252L57.6502 150.162C56.5257 149.692 55.5587 148.91 54.8626 147.909C54.1665 146.909 53.7702 145.73 53.7202 144.512L53.4302 137.012L106.51 159.272L108.91 168.412C108.89 168.752 108.789 169.082 108.615 169.375C108.442 169.668 108.2 169.915 107.911 170.095C107.622 170.275 107.294 170.384 106.955 170.411C106.615 170.438 106.274 170.384 105.96 170.252Z" fill="#6B6B6B"/>
<path d="M128.19 70.6022L130.68 76.0022L132.25 75.5322L130 70.2522L128.19 70.6022Z" fill="#E1E3E1"/>
<path d="M130.68 76.0022L128.31 80.2822L129.91 79.8922L132.25 75.5322L130.68 76.0022Z" fill="#9C9B9B"/>
<path d="M124.09 69.7124L128.19 70.6024L130 70.2524L125.4 69.4224L124.09 69.7124Z" fill="#9C9B9B"/>
<path d="M120.06 72.1523L123.5 72.8323L127.74 71.6123L123.47 71.0823L120.06 72.1523Z" fill="#9C9B9B"/>
<path d="M123.5 72.8323L125.55 77.0723L129.61 75.8323L127.74 71.6123L123.5 72.8323Z" fill="#EFEFEF"/>
<path d="M125.55 77.0723L123.44 80.8423L127.77 79.3923L129.61 75.8323L125.55 77.0723Z" fill="#9C9B9B"/>
<path d="M124.09 69.7124L123.47 71.0824L127.74 71.6124L128.19 70.6024L124.09 69.7124Z" fill="#EFEFEF"/>
<path d="M128.19 70.6023L130.69 76.0023L129.61 75.8323L127.74 71.6123L128.19 70.6023Z" fill="#B6B6B5"/>
<path d="M130.69 75.9923L128.31 80.2823L126.11 79.9823L127.77 79.3923L129.61 75.8323L130.69 75.9923Z" fill="#E1E3E1"/>
<path d="M118.72 74.6423L120.06 72.1523L123.5 72.8323L125.55 77.0723L123.44 80.8423C122.942 80.9668 122.422 80.9785 121.918 80.8764C121.415 80.7743 120.941 80.5611 120.53 80.2523C119.53 79.2523 123.02 76.2523 123.02 76.2523L120.83 74.3823L118.72 74.6423Z" fill="#E1E3E1"/>
<path d="M92.37 103.792L92.53 109.342L92.23 109.482C92.23 109.482 88.54 109.482 88.02 108.752L89.28 103.322" fill="#EFEFEF"/>
<path d="M96.9901 65.6823C96.9301 66.2923 96.8601 66.9123 96.8101 67.5723C96.3601 72.8123 92.3701 103.792 92.3701 103.792L89.3701 103.322L94.0201 65.4023" fill="#EFEFEF"/>
<path d="M88.02 108.752L88.28 109.812C89.3541 110.051 90.4499 110.178 91.55 110.192L92.55 109.342C92.55 109.342 89.28 109.772 88.02 108.752Z" fill="#D7D2CC"/>
<path d="M123.65 77.8123C123.57 78.5112 123.229 79.1541 122.695 79.6122C122.161 80.0702 121.473 80.3095 120.77 80.2823C119.38 80.2823 118.43 78.9923 118.25 77.4323C117.98 75.1423 119.11 73.5723 120.5 73.5723C121.89 73.5723 123.91 75.4723 123.65 77.8123Z" fill="#5E5E5E"/>
<path d="M120.37 79.2122C121.431 79.2122 122.29 78.1109 122.29 76.7522C122.29 75.3936 121.431 74.2922 120.37 74.2922C119.31 74.2922 118.45 75.3936 118.45 76.7522C118.45 78.1109 119.31 79.2122 120.37 79.2122Z" fill="#9C9B9B"/>
<path opacity="0.15" d="M92.38 103.752L91 103.632L95.88 65.4922L97.09 65.6522L92.38 103.752Z" fill="#5E5E5E"/>
<path opacity="0.15" d="M92.54 109.342L91.31 109.432L91 103.642L92.37 103.752L92.54 109.342Z" fill="#5E5E5E"/>
<path d="M74.9702 124.102L135.36 145.162" stroke="#EAEAEA" stroke-miterlimit="10" stroke-linecap="round"/>
<path d="M72.3799 125.282L133.32 146.502" stroke="#EAEAEA" stroke-miterlimit="10" stroke-linecap="round"/>
<path d="M70.2798 126.552L130.67 147.622" stroke="#EAEAEA" stroke-miterlimit="10" stroke-linecap="round"/>
<path d="M67.6899 127.732L128.63 148.962" stroke="#EAEAEA" stroke-miterlimit="10" stroke-linecap="round"/>
<path d="M65.3501 128.862L125.74 149.932" stroke="#EAEAEA" stroke-miterlimit="10" stroke-linecap="round"/>
<path d="M62.6699 129.682L123.7 151.272" stroke="#EAEAEA" stroke-miterlimit="10" stroke-linecap="round"/>
<path d="M60.3999 130.842L121.03 152.352" stroke="#EAEAEA" stroke-miterlimit="10" stroke-linecap="round"/>
<path d="M58.0801 131.582L118.53 153.602" stroke="#EAEAEA" stroke-miterlimit="10" stroke-linecap="round"/>
<path d="M55.9702 132.532L116.05 154.672" stroke="#EAEAEA" stroke-miterlimit="10" stroke-linecap="round"/>
<path d="M53.9102 133.322L113.96 156.152" stroke="#EAEAEA" stroke-miterlimit="10" stroke-linecap="round"/>
<path d="M52.3501 134.692L112.4 157.522" stroke="#EAEAEA" stroke-miterlimit="10" stroke-linecap="round"/>
<path opacity="0.08" d="M162.23 124.892L153.38 129.522L153.2 64.4523L161.83 61.6323L162.23 124.892Z" fill="white"/>
<path opacity="0.08" d="M153.2 64.4524C153.2 64.4524 154.41 56.3724 146.11 54.5224C137.81 52.6724 134.05 52.1224 134.05 52.1224L134.91 47.6924L157.49 52.9924C157.49 52.9924 161.68 53.9924 161.83 61.6324" fill="white"/>
<path d="M130.21 60.4223L74.3599 51.1223C73.7679 51.0229 73.2038 50.7985 72.7052 50.4643C72.2066 50.13 71.7848 49.6935 71.4679 49.1836C71.1511 48.6738 70.9463 48.1023 70.8673 47.5073C70.7884 46.9122 70.8369 46.3071 71.0099 45.7323L81.0999 12.0223C81.3813 11.0773 81.984 10.2604 82.8039 9.7126C83.6237 9.16483 84.6091 8.92066 85.5898 9.02229L141.28 14.9223C141.888 14.987 142.474 15.1824 142.999 15.4951C143.525 15.8077 143.976 16.2302 144.323 16.7336C144.669 17.237 144.903 17.8093 145.008 18.4115C145.113 19.0137 145.086 19.6314 144.93 20.2223L134.98 57.3923C134.698 58.3966 134.055 59.2614 133.175 59.8207C132.295 60.3799 131.239 60.5942 130.21 60.4223Z" fill="#4E4D48"/>
<path d="M128.28 57.0524L79.1698 48.8624C78.6444 48.7817 78.1424 48.5893 77.6976 48.2982C77.2528 48.0071 76.8756 47.6241 76.5913 47.175C76.307 46.7258 76.1223 46.2209 76.0496 45.6944C75.9769 45.1678 76.0179 44.6318 76.1698 44.1224L85.0498 14.4624C85.2984 13.6215 85.8361 12.8954 86.568 12.4124C87.2999 11.9293 88.1789 11.7204 89.0498 11.8224L138.05 16.9724C138.587 17.0266 139.106 17.1968 139.571 17.4712C140.036 17.7456 140.436 18.1177 140.743 18.5617C141.05 19.0058 141.257 19.5112 141.35 20.0431C141.442 20.5749 141.419 21.1206 141.28 21.6424L132.52 54.3424C132.281 55.243 131.713 56.0212 130.928 56.5231C130.142 57.0249 129.198 57.2138 128.28 57.0524Z" fill="#D6D6D6"/>
<path d="M96.9902 65.6823C97.2362 63.3111 97.6067 60.9545 98.1002 58.6223C99.5802 53.7523 100.94 53.1923 100.94 53.1923C100.94 53.1923 103.1 51.7623 104.47 52.5323C105.356 53.1208 106.051 53.9549 106.47 54.9323L108.28 61.6723C108.28 61.6723 109.92 71.1423 111.35 74.4023C111.665 75.2899 112.206 76.0799 112.92 76.6938C113.633 77.3078 114.496 77.7244 115.42 77.9023C115.42 77.9023 119.72 77.9023 119.95 77.9023C120.18 77.9023 120.82 77.4123 120.95 76.1623C121.08 74.9123 119.54 74.7823 119.54 74.7823C118.467 75.0036 117.364 75.0341 116.28 74.8723C115.758 74.7435 115.278 74.4815 114.887 74.1116C114.496 73.7418 114.208 73.2768 114.05 72.7623L112.71 67.7623C112.71 67.7623 110.78 60.5723 110.24 57.3823C109.851 54.7455 108.644 52.2973 106.79 50.3823C105.38 49.0623 103.14 49.1523 100.94 49.7923C98.7402 50.4323 97.3202 52.9123 96.7102 53.5223C96.1002 54.1323 94.9702 57.6823 94.9702 57.6823L93.9702 65.4523" fill="#1C1C14"/>
</svg>
