<svg xmlns="http://www.w3.org/2000/svg" viewBox="0 0 215.59 198.12"><defs><style>.cls-1{fill:#fff;}.cls-2,.cls-8,.cls-9{fill:#d5e1e5;}.cls-3{fill:#bed4d9;}.cls-4{fill:#80b9c3;}.cls-5{fill:#a4c6cc;}.cls-6{fill:#9dc3cc;}.cls-7{fill:#eaeaea;}.cls-8{opacity:0.45;}.cls-9{opacity:0.4;}</style></defs><g id="Ebene_2" data-name="Ebene 2"><g id="Ebene_1-2" data-name="Ebene 1"><g id="Cafec-Flower"><rect class="cls-1" width="215.59" height="198.12"/><path class="cls-2" d="M156.28,83.28c-.05,5.38-21.88,9-47.6,9.49-36.06.64-53.93-5.62-53.93-9.75s21.35-11.81,50.5-11.76C134.93,71.32,156.32,79.15,156.28,83.28Z"/><ellipse class="cls-3" cx="104.66" cy="169.97" rx="20.33" ry="2.97"/><path class="cls-2" d="M151.89,155c-.68,12.8-22.07,15.67-48.13,15.67s-46.57-4.92-46-16.08c.38-7,19.9-9.28,46-9.28S152.26,148,151.89,155Z"/><path class="cls-4" d="M151.69,154c0,7.75-21.82,12.67-46.64,12.67s-46.3-6.42-46.3-14.17,21.48-13.92,46.3-13.92S151.69,146.2,151.69,154Z"/><path class="cls-2" d="M156.87,79.2a17.92,17.92,0,0,0,7.14-.49c4.29-1,14.35-1.13,18.73,4.22s10.47,15.49.73,26.53-29.28,27.25-29.28,27.25-9.55,9.4-13.44,15.83a1.31,1.31,0,0,1-1.5.57c-1.15-.35-3.1-.92-4.69-1.23C130.48,151.07,149,133.3,149,133.3l16.47-15.57,10.7-8.6s7.06-6.32,6.82-10.22.08-8.35-6.49-11.52S158,91.21,158,91.21l-5.59,7.86,5.22-12.94a6.13,6.13,0,0,0,.14-4.2Z"/><path class="cls-5" d="M156.72,88.27s10.33-6,15.7-5.59c4.16.36,10.56,0,14.45,6.8,0,0-3.94-12.16-16.72-11.27a33.06,33.06,0,0,0-9.25,1,15.56,15.56,0,0,1-5.55-.13s3.49,3.72,2.76,5.62S156.72,88.27,156.72,88.27Z"/><path class="cls-6" d="M114.12,89c0,9.27-3.57,16.85-7.05,16.85S100.45,98.3,100.45,89s3.14-16.7,6.62-16.7S114.12,79.77,114.12,89Z"/><path class="cls-6" d="M100.39,81.85C99.24,88.47,99.63,95,97.15,95s-3.66-8.11-5.62-14.42c-1.45-4.63,1.44-7.49,3.91-7.49S101.34,76.37,100.39,81.85Z"/><path class="cls-6" d="M92.55,85.41c1.43,5.32,5.38,14.43,2.09,14.43S80.35,98,80.66,85.41c.14-5.51-.44-11.78,2.84-11.78S91.11,80.06,92.55,85.41Z"/><path class="cls-6" d="M79.3,84.13c.74,3.35,1.91,7.42.06,7.42s-5.14-3.81-6.78-7.42c-1.48-3.27-1-8.52.84-8.52S78.52,80.62,79.3,84.13Z"/><path class="cls-6" d="M72.05,84.07c1.06,3,6.29,10.48,4.11,10.48s-10.46-2.4-11.64-10.5c-.46-3.16-1.42-6.92.77-6.92S71,81.16,72.05,84.07Z"/><path class="cls-6" d="M63.8,84.66c.44,1.24,1.93,4.91.88,4.91S61,87.32,60.53,85.38c-.3-1.27-2-4.94-1-4.94S63.4,83.52,63.8,84.66Z"/><path class="cls-6" d="M122.85,80.18c0,4.07-4.52,15.33-6.24,15.33s-2.91-11.2-2.91-15.27,3.36-7.37,5.08-7.37S122.85,76.11,122.85,80.18Z"/><path class="cls-6" d="M133.43,83.09c.41,16-6.53,12.39-8.8,13.61-4.83,2.59-7.36-1.89-2-13.37,2.24-4.77,4.88-9.81,7.46-9.81S133.29,77.82,133.43,83.09Z"/><path class="cls-6" d="M142.6,81.39c0,3.4-7.44,12-8.67,12s.68-7,.68-10.34,4.71-6.77,5.94-6.77S142.6,78,142.6,81.39Z"/><path class="cls-6" d="M150,83.33c0,2.5-4.78,9.55-5.78,9.55s-11.37,4.56-1.83-8.45c1.48-2,5.81-6.35,6.81-6.35S150,80.84,150,83.33Z"/><path class="cls-5" d="M52.15,84s5.63,12,55.93,10.6,50.31-9.18,50.31-9.18L156.93,92s-33.75,61.07-35.35,61.71-28.13,2.59-33.81-.8S54.09,90.14,52.15,84Z"/><path class="cls-7" d="M101.88,70.83c-28.41,0-50,7.55-50,11.91s15.48,13,49.71,12.35c28.4-.54,56.81-.81,56.64-11.73C158.11,75.67,130.29,70.83,101.88,70.83Zm4,21.47C77.5,92.3,55,87.59,55,83.23s21.6-11.91,50-11.91,51.29,7.76,51.29,12.12S134.32,92.3,105.91,92.3Z"/><path class="cls-8" d="M84.38,94.73s9.33.7,12.5.44c0,0,4.49,52.22,6.17,59.71l-10.57-.44Z"/><path class="cls-9" d="M92.48,154.44l10.57.44-4.61,11.5s-9.71-.56-10.6-1Z"/></g></g></g></svg>