<?xml version="1.0" standalone="no"?>
<!DOCTYPE svg PUBLIC "-//W3C//DTD SVG 20010904//EN"
 "http://www.w3.org/TR/2001/REC-SVG-20010904/DTD/svg10.dtd">
<svg version="1.0" xmlns="http://www.w3.org/2000/svg"
 width="1059.000000pt" height="768.000000pt" viewBox="0 0 1059.000000 768.000000"
 preserveAspectRatio="xMidYMid meet">

<g transform="translate(0.000000,768.000000) scale(0.100000,-0.100000)"
fill="#000000" stroke="none">
<path d="M8465 7673 c-3869 -637 -7112 -1177 -7150 -1189 -99 -32 -188 -87
-267 -164 -117 -114 -930 -1172 -979 -1275 -42 -85 -69 -201 -69 -291 0 -190
106 -410 252 -522 100 -76 6463 -4095 6546 -4134 46 -22 127 -51 180 -65 86
-23 118 -26 292 -28 342 -4 1571 23 1635 35 150 29 309 146 378 278 23 43 90
246 190 572 280 911 682 2223 892 2905 113 369 210 701 217 738 16 95 -2 210
-46 302 -83 174 -1371 2513 -1414 2567 -90 116 -251 219 -392 253 -70 16 -216
26 -265 18z m-2568 -2138 c624 -118 1051 -712 959 -1333 -39 -262 -152 -489
-336 -672 -555 -553 -1469 -433 -1868 245 -197 336 -211 768 -34 1120 113 226
311 424 537 538 77 38 221 86 305 102 104 18 338 19 437 0z m-2649 -402 c251
-207 462 -380 468 -385 8 -6 76 111 220 377 l208 385 248 0 c210 0 248 -2 248
-14 0 -8 -274 -523 -610 -1143 l-609 -1128 -256 -3 c-140 -1 -255 -1 -255 1 0
2 137 258 305 568 168 310 305 567 305 571 0 3 -287 244 -637 534 -351 290
-653 541 -670 558 -61 56 -62 56 273 56 l305 0 457 -377z m4322 -377 c0 -727
1 -756 20 -819 82 -264 393 -385 643 -249 62 33 148 126 180 194 45 95 47 130
47 900 l0 728 226 0 225 0 -3 -787 c-4 -780 -4 -789 -26 -868 -118 -422 -485
-692 -912 -672 -228 11 -409 89 -574 246 -141 136 -232 304 -265 495 -7 38
-11 334 -11 823 l0 763 225 0 225 0 0 -754z m519 -2638 l113 -197 -29 -52
c-16 -28 -33 -51 -38 -52 -6 0 -39 51 -74 113 -42 75 -66 108 -71 99 -4 -8
-20 -58 -35 -111 l-28 -98 -67 0 -67 0 78 258 c43 141 79 261 79 267 0 14 16
-11 139 -227z m305 -28 c42 -139 76 -258 76 -262 0 -4 -29 -8 -65 -8 l-64 0
-20 68 c-11 37 -28 95 -37 129 l-17 62 -53 3 -53 3 76 133 c42 73 77 131 79
130 1 -2 37 -118 78 -258z m-2720 239 c22 -6 59 -30 85 -54 l46 -44 -49 -20
-48 -21 -30 25 c-57 48 -129 16 -82 -36 10 -11 49 -41 87 -66 78 -52 107 -91
107 -146 0 -75 -55 -135 -142 -157 -64 -16 -140 6 -193 57 l-38 37 52 23 52
23 40 -27 c50 -33 92 -25 97 19 4 30 -9 43 -98 105 -30 21 -65 54 -77 72 -47
70 -20 161 60 200 47 24 75 26 131 10z m528 -249 l126 -260 -68 0 -68 0 -35
83 c-20 45 -48 109 -63 142 l-27 60 -18 -40 c-24 -54 -23 -68 6 -125 14 -27
25 -52 25 -55 0 -3 -25 -5 -56 -5 -53 0 -56 -2 -67 -30 -11 -30 -12 -30 -84
-30 l-73 0 130 260 c72 143 134 260 138 260 4 0 65 -117 134 -260z m311 165
c64 -49 116 -93 117 -96 0 -3 -27 -17 -60 -32 l-60 -26 0 -135 0 -136 -65 0
-65 0 0 261 c0 147 4 259 9 257 5 -1 61 -43 124 -93z m2346 78 c199 -64 247
-335 82 -460 -186 -142 -455 -17 -454 212 0 184 186 308 372 248z m-1601 -16
c89 -48 108 -183 37 -254 l-34 -34 56 -92 c30 -51 57 -95 60 -99 2 -5 -27 -8
-65 -8 l-70 0 -54 93 c-39 67 -59 93 -76 95 -21 3 -22 1 -22 -92 l0 -96 -65 0
-65 0 0 140 0 140 98 0 c110 0 142 13 142 57 0 53 -23 63 -137 63 l-103 0 0
56 0 56 133 -4 c102 -3 139 -8 165 -21z m472 -37 l0 -60 -85 0 -85 0 0 -40 0
-39 63 -3 62 -3 0 -54 0 -55 -62 3 -63 2 0 -45 0 -46 85 0 85 0 0 -55 0 -55
-145 0 -145 0 0 255 0 255 145 0 145 0 0 -60z m-870 -206 c0 -217 -2 -255 -14
-251 -31 12 -237 180 -229 188 4 4 31 16 58 27 l50 20 3 136 3 136 64 0 65 0
0 -256z"/>
<path d="M5590 5100 c-447 -58 -739 -498 -619 -932 92 -332 400 -552 748 -536
501 25 835 544 648 1008 -56 137 -159 263 -282 345 -81 54 -213 102 -315 114
-91 12 -98 12 -180 1z"/>
<path d="M8703 2200 c-53 -24 -83 -70 -83 -129 0 -128 147 -191 242 -103 35
33 41 45 46 90 6 66 -23 116 -82 143 -52 23 -71 23 -123 -1z"/>
</g>
</svg>
