<svg width="200" height="200" viewBox="0 0 200 200" fill="none" xmlns="http://www.w3.org/2000/svg">
<path d="M56.71 92.4781C56.71 92.4781 59.91 159.338 70.63 157.788C70.63 157.788 76.03 162.018 95.84 154.788C110.78 149.348 150.48 137.078 161.52 111.998C161.52 111.998 167.18 102.888 141.97 81.5381L117.53 58.5381" fill="#CECDCC"/>
<path d="M121.13 145.098C111.38 149.378 101.36 153.098 95.76 155.098C75.95 162.318 67.76 157.208 67.76 157.208C60.58 151.648 56.62 92.7881 56.62 92.7881L83.99 77.5081" fill="#B6B6B5"/>
<path d="M135.15 53.0981C133.25 54.2681 130.97 55.5281 128.23 56.8981L127.99 57.0181C126.83 57.5281 116.39 62.4681 110.56 76.8681C105.03 90.4681 81.5 91.6481 76.56 91.7481C76.0507 91.7586 75.5425 91.698 75.05 91.5681C72.64 90.9181 62.7 89.2481 43.34 98.5681C28.78 105.568 25.12 101.408 25.12 98.4081C25.12 96.6381 27.18 96.1781 28.68 95.2281L51.88 80.3781C52.1348 80.215 52.3756 80.031 52.6 79.8281C57.015 75.814 60.7353 71.097 63.61 65.8681C67.73 57.8681 89.86 52.6681 93.61 53.4281C96.21 53.9681 116.86 44.8681 130.86 41.4281C136.78 39.9781 140.39 49.8681 135.15 53.0981Z" fill="#9C9B9B"/>
<path d="M133.95 50.9281C132.05 52.0981 129.77 53.3681 127.03 54.7381L126.79 54.8481C125.63 55.3581 115.2 60.2981 109.36 74.6681C103.98 87.8681 81.58 89.3781 75.8 89.5381C75.0427 89.5584 74.286 89.4776 73.55 89.2981C70.7 88.6181 60.79 87.3881 42.13 96.3681C27.57 103.368 25 100.368 25 97.3681C25.013 96.4925 25.246 95.6342 25.6776 94.8723C26.1093 94.1104 26.7256 93.4693 27.47 93.0081L50.68 78.2081C50.9311 78.0479 51.1686 77.8673 51.39 77.6681C55.7972 73.6569 59.5136 68.9472 62.39 63.7281C66.51 55.7281 85.87 50.5981 92.39 51.2881C98.53 51.9381 115.87 44.6181 129.86 41.1781C135.8 39.7081 139.16 47.7281 133.95 50.9281Z" fill="#E1E3E1"/>
<path d="M88.7249 78.9721C105.313 71.237 116.599 60.3327 113.934 54.6165C111.268 48.9003 95.6602 50.537 79.0723 58.272C62.4844 66.0071 51.198 76.9115 53.8635 82.6276C56.529 88.3438 72.137 86.7072 88.7249 78.9721Z" fill="#B6B6B5"/>
<path d="M113.17 53.6682C115.39 58.4382 102 68.6682 88.17 75.1382C74.34 81.6082 54.51 86.4282 53.5 81.2682C52.03 73.7982 66.31 64.3282 80.13 57.8682C93.95 51.4082 110.95 48.8682 113.17 53.6682Z" fill="#E1E3E1"/>
</svg>
