<?xml version="1.0" encoding="UTF-8"?>
<svg xmlns="http://www.w3.org/2000/svg" xmlns:xlink="http://www.w3.org/1999/xlink" viewBox="0 0 26 26" width="26px" height="26px">
<g id="surface29128562">
<rect x="0" y="0" width="26" height="26" style="fill:transparent;fill-opacity:1;stroke:none;"/>
<path  d="M 21.109375 14.039062 C 20.46875 13.300781 19.59375 12.929688 18.476562 12.929688 C 17.730469 12.929688 17.078125 13.101562 16.519531 13.453125 C 15.96875 13.804688 15.554688 14.304688 15.289062 14.945312 C 15.027344 15.589844 14.894531 16.273438 14.894531 17 C 14.894531 17.722656 15.027344 18.40625 15.289062 19.050781 C 15.554688 19.695312 15.96875 20.191406 16.519531 20.542969 C 17.078125 20.894531 17.730469 21.070312 18.476562 21.070312 C 19.59375 21.070312 20.46875 20.695312 21.109375 19.957031 C 21.75 19.214844 22.070312 18.230469 22.070312 17 C 22.070312 15.769531 21.75 14.78125 21.109375 14.039062 Z M 19.585938 19.191406 C 19.34375 19.46875 18.988281 19.605469 18.527344 19.605469 C 18.0625 19.605469 17.71875 19.46875 17.484375 19.191406 C 17.113281 18.765625 16.929688 18.074219 16.929688 17.128906 C 16.929688 16.179688 17.113281 15.492188 17.484375 15.066406 C 17.71875 14.78125 18.0625 14.640625 18.527344 14.640625 C 18.988281 14.640625 19.34375 14.777344 19.585938 15.054688 C 19.957031 15.488281 20.144531 16.179688 20.144531 17.128906 C 20.144531 18.074219 19.957031 18.765625 19.585938 19.191406 Z M 10.109375 6.039062 C 9.46875 5.300781 8.59375 4.929688 7.476562 4.929688 C 6.730469 4.929688 6.078125 5.101562 5.519531 5.453125 C 4.96875 5.804688 4.554688 6.304688 4.289062 6.945312 C 4.027344 7.589844 3.894531 8.273438 3.894531 9 C 3.894531 9.722656 4.027344 10.40625 4.289062 11.050781 C 4.554688 11.695312 4.96875 12.191406 5.519531 12.542969 C 6.078125 12.894531 6.730469 13.070312 7.476562 13.070312 C 8.59375 13.070312 9.46875 12.699219 10.109375 11.957031 C 10.75 11.214844 11.070312 10.230469 11.070312 9 C 11.070312 7.769531 10.75 6.78125 10.109375 6.039062 Z M 8.585938 11.191406 C 8.34375 11.46875 7.988281 11.605469 7.527344 11.605469 C 7.0625 11.605469 6.71875 11.46875 6.484375 11.191406 C 6.113281 10.765625 5.929688 10.074219 5.929688 9.128906 C 5.929688 8.183594 6.113281 7.492188 6.484375 7.066406 C 6.71875 6.78125 7.0625 6.640625 7.527344 6.640625 C 7.988281 6.640625 8.34375 6.777344 8.585938 7.054688 C 8.957031 7.488281 9.144531 8.183594 9.144531 9.128906 C 9.144531 10.078125 8.957031 10.765625 8.585938 11.191406 Z M 18.441406 5 L 9.761719 21.050781 L 7.617188 21.050781 L 16.273438 5 Z M 18.441406 5 "/>
</g>
</svg>
