<svg xmlns="http://www.w3.org/2000/svg" xmlns:xlink="http://www.w3.org/1999/xlink" viewBox="0,0,256,256" width="64px" height="64px"><g transform="translate(64,64) scale(0.5,0.5)"><g fill="#cdc2ac" fill-rule="nonzero" stroke="none" stroke-width="1" stroke-linecap="butt" stroke-linejoin="miter" stroke-miterlimit="10" stroke-dasharray="" stroke-dashoffset="0" font-family="none" font-weight="none" font-size="none" text-anchor="none" style="mix-blend-mode: normal"><path d="M128,384c-141.3849,0 -256,-114.6151 -256,-256v0c0,-141.3849 114.6151,-256 256,-256v0c141.3849,0 256,114.6151 256,256v0c0,141.3849 -114.6151,256 -256,256z" id="shape"></path></g><g fill="#ffffff" fill-rule="nonzero" stroke="none" stroke-width="none" stroke-linecap="butt" stroke-linejoin="none" stroke-miterlimit="10" stroke-dasharray="" stroke-dashoffset="0" font-family="none" font-weight="none" font-size="none" text-anchor="none" style="mix-blend-mode: normal"><path transform="translate(256,0) rotate(90) scale(2,2)" d="M116.1,36.1l-27.9,27.9l27.9,27.9c1.2,1.1 1.2,3 0,4.2c-0.6,0.6 -1.4,0.9 -2.1,0.9c-0.7,0 -1.5,-0.3 -2.1,-0.9l-30,-30c-1.2,-1.1 -1.2,-3 0,-4.2l30,-30c1.1,-1.2 3,-1.2 4.2,0c1.2,1.1 1.2,3.1 0,4.2zM46.1,61.9c1.2,1.1 1.2,3 0,4.2l-30,30c-0.6,0.6 -1.4,0.9 -2.1,0.9c-0.7,0 -1.5,-0.3 -2.1,-0.9c-1.2,-1.1 -1.2,-3 0,-4.2l27.9,-27.9l-27.9,-27.9c-1.2,-1.1 -1.2,-3 0,-4.2c1.1,-1.2 3,-1.2 4.2,0z" id="strokeMainSVG" stroke="#ffffff" stroke-width="10" stroke-linejoin="round"></path><g transform="translate(256,0) rotate(90) scale(2,2)" stroke="none" stroke-width="1" stroke-linejoin="miter"><path d="M116.1,31.9c-1.2,-1.2 -3.1,-1.2 -4.2,0l-30,30c-1.2,1.2 -1.2,3.1 0,4.2l30,30c0.6,0.6 1.4,0.9 2.1,0.9c0.7,0 1.5,-0.3 2.1,-0.9c1.2,-1.2 1.2,-3.1 0,-4.2l-27.9,-27.9l27.9,-27.9c1.2,-1.1 1.2,-3.1 0,-4.2zM16.1,31.9c-1.2,-1.2 -3.1,-1.2 -4.2,0c-1.2,1.2 -1.2,3.1 0,4.2l27.9,27.9l-27.9,27.9c-1.2,1.2 -1.2,3.1 0,4.2c0.6,0.6 1.4,0.9 2.1,0.9c0.7,0 1.5,-0.3 2.1,-0.9l30,-30c1.2,-1.2 1.2,-3.1 0,-4.2z"></path></g></g></g></svg>
