<svg xmlns="http://www.w3.org/2000/svg" width="18.197" height="20.52" viewBox="0 0 18.197 20.52">
  <path id="icons8-pepper_grinder" d="M21.4,1.994a.781.781,0,0,0-.352.087l-1.4.7H14.156a1.56,1.56,0,1,0-2.13,2.131V5.9H6.689a.775.775,0,0,0-.75,1A3.721,3.721,0,0,0,8.122,9.024H17.49A3.721,3.721,0,0,0,19.673,6.9a.777.777,0,0,0-.752-1H13.587V4.909a1.561,1.561,0,0,0,.57-.569h5.675a.781.781,0,0,0,.349-.082l1.561-.781A.781.781,0,0,0,21.4,1.994ZM5.781,10.586a.781.781,0,1,0,0,1.561v7.806a.781.781,0,1,0,0,1.561H19.832a.781.781,0,1,0,0-1.561V12.147a.781.781,0,1,0,0-1.561Zm3.9,6.245h6.245v3.123H9.684Z" transform="translate(-4.5 -1.494)" stroke-width="1"/>
</svg>
