<svg xmlns="http://www.w3.org/2000/svg" viewBox="0 0 251.3 157.82"><defs><style>.cls-1{fill:#e1e3e2;}.cls-2{fill:#b7a388;}.cls-3{fill:#9f8c6f;}.cls-4,.cls-9{fill:none;stroke:#cdcdcd;stroke-miterlimit:10;}.cls-4{stroke-width:6px;}.cls-5,.cls-8{fill:#efefef;}.cls-6{fill:#b88265;}.cls-7{fill:#cdcdcd;}.cls-8{opacity:0.84;}.cls-9{stroke-linecap:round;}</style></defs><g id="Ebene_2" data-name="Ebene 2"><g id="Ebene_6" data-name="Ebene 6"><path class="cls-1" d="M23.14,55.81H119a0,0,0,0,1,0,0V130a21.7,21.7,0,0,1-21.7,21.7h-53a21.11,21.11,0,0,1-21.11-21.11V55.81a0,0,0,0,1,0,0Z" transform="translate(30.95 -15.44) rotate(15.81)"/><path class="cls-2" d="M24.43,105.34h81.31a0,0,0,0,1,0,0v16.11A21.7,21.7,0,0,1,84,143.16H45.54A21.11,21.11,0,0,1,24.43,122V105.34a0,0,0,0,1,0,0Z" transform="translate(36.32 -13.03) rotate(15.81)"/><path class="cls-3" d="M73.19,146.05c-.93-.17-1.85-.38-2.77-.64L40.73,137a20.68,20.68,0,0,1-14.27-25.54L31.12,95l39.12,11.08"/><path class="cls-4" d="M34.29,60.56l-10.73-3s-8.67-1.32-14,7.62L3,88.16s-1.16,17.62,16.22,23.1"/><path class="cls-5" d="M41.54,145.18S33,117.64,49.35,74.25l8.59,2.43s-17.69,56.67-1.75,72.65Z"/><path class="cls-4" d="M213.46,43.11l10.24-4.39s8.43-2.43,14.89,5.75l9.42,22s3.41,17.33-13.12,25"/><path class="cls-1" d="M141.18,31.51H229.7a0,0,0,0,1,0,0v92.19a17.2,17.2,0,0,1-17.2,17.2h-54a17.31,17.31,0,0,1-17.31-17.31V31.51a0,0,0,0,1,0,0Z" transform="translate(-18.96 79.98) rotate(-23.19)"/><rect class="cls-6" x="171.66" y="0.05" width="9.78" height="110.99" transform="matrix(1, -0.01, 0.01, 1, -0.61, 1.97)"/><rect class="cls-7" x="182.59" y="52.52" width="28.77" height="28.77" transform="translate(219.56 -139.89) rotate(77.47)"/><rect class="cls-7" x="152.79" y="70.83" width="28.77" height="28.77" transform="translate(43.63 -56.02) rotate(21.81)"/><rect class="cls-5" x="168.36" y="70.65" width="28.77" height="28.77" transform="translate(-18.72 78.82) rotate(-23.19)"/><path class="cls-3" d="M151.3,80.88h88.52a0,0,0,0,1,0,0v39.74a18.2,18.2,0,0,1-18.2,18.2H169.14A17.84,17.84,0,0,1,151.3,121V80.88a0,0,0,0,1,0,0Z" transform="translate(-27.46 85.88) rotate(-23.19)"/><path class="cls-2" d="M201.4,70.6h36.32a0,0,0,0,1,0,0v40.17A17.77,17.77,0,0,1,220,128.55H201.4a0,0,0,0,1,0,0V70.6A0,0,0,0,1,201.4,70.6Z" transform="translate(-21.47 94.49) rotate(-23.19)"/><path class="cls-8" d="M187.81,144.69s-24-16-38.58-60l8.21-3.52s21.92,55.17,44.37,57.56Z"/><line class="cls-9" x1="94.4" y1="32.99" x2="109.94" y2="43.96"/><line class="cls-9" x1="123.28" y1="18.61" x2="121.13" y2="39.45"/><line class="cls-9" x1="109.94" y1="26.42" x2="118.24" y2="45.66"/><line class="cls-9" x1="134.21" y1="98.09" x2="138.9" y2="118.52"/><line class="cls-9" x1="129.89" y1="97.84" x2="128.8" y2="118.77"/></g></g></svg>