<svg width="200" height="200" viewBox="0 0 200 200" fill="none" xmlns="http://www.w3.org/2000/svg">
<path d="M85.8514 8.00024H21.2314V19.2102H85.8514V8.00024Z" fill="#9C9B9B"/>
<path d="M85.8514 51.8901H21.2314V170.4H85.8514V51.8901Z" fill="#9C9B9B"/>
<path d="M22.6014 169.26H96.0914V185.71H18.7814C18.7602 185.71 18.7399 185.702 18.7248 185.687C18.7098 185.672 18.7014 185.651 18.7014 185.63V173.16C18.7014 172.126 19.1123 171.134 19.8437 170.403C20.5751 169.671 21.5671 169.26 22.6014 169.26Z" fill="#B78265"/>
<path d="M18.7014 171.75H11.0714V185.72H18.7014V171.75Z" fill="#9C9B9B"/>
<path d="M165.561 74.1304H85.8514V85.3404H165.561V74.1304Z" fill="#777777"/>
<path d="M144.091 16.6802L85.8514 16.5702V9.02016L144.091 8.91016V16.6802Z" fill="#B78265"/>
<path d="M150.291 8.91016H144.091V16.6802H150.291V8.91016Z" fill="#B6B6B5"/>
<path d="M102.501 13.3801H167.401C168.303 13.3801 169.168 13.7384 169.806 14.376C170.443 15.0136 170.801 15.8784 170.801 16.7801V26.2001H99.2615V16.6101C99.2615 16.1851 99.3453 15.7643 99.5083 15.3718C99.6712 14.9792 99.9101 14.6227 100.211 14.3226C100.512 14.0226 100.869 13.7849 101.262 13.6231C101.655 13.4614 102.076 13.3788 102.501 13.3801Z" fill="#777777"/>
<path d="M111.301 85.3303L85.8514 91.5403V85.3303" fill="#777777"/>
<path d="M18.7014 185.72V192.39H42.3814L48.8614 185.91L18.7014 185.72Z" fill="#9C9B9B"/>
<path d="M167.791 182.63L166.951 192.39H143.271L136.791 185.91L167.791 182.63Z" fill="#9C9B9B"/>
<path d="M99.2615 26.2002L114.141 60.5002V74.1302H156.191V60.3602L170.801 26.2002H99.2615Z" fill="#9C9B9B"/>
<path d="M169.391 29.4802H176.181C176.777 29.4802 177.367 29.5977 177.917 29.826C178.468 30.0543 178.967 30.3889 179.388 30.8106C179.809 31.2323 180.142 31.7328 180.369 32.2836C180.597 32.8344 180.713 33.4245 180.711 34.0202V61.9702C180.713 62.1457 180.679 62.3197 180.613 62.4823C180.547 62.6448 180.449 62.7926 180.325 62.9171C180.202 63.0417 180.055 63.1406 179.893 63.208C179.731 63.2755 179.557 63.3102 179.381 63.3102H178.191C177.876 63.3055 177.575 63.1809 177.348 62.9617C177.121 62.7425 176.987 62.4452 176.971 62.1302L176.291 40.8802H164.701" fill="#777777"/>
<path d="M96.0914 169.26H164.641C165.495 169.26 166.314 169.6 166.918 170.203C167.522 170.807 167.861 171.626 167.861 172.48V181.91C167.861 182.921 167.46 183.89 166.745 184.604C166.031 185.319 165.062 185.72 164.051 185.72H96.0514V169.26H96.0914Z" fill="#B78265"/>
<path d="M102.821 110.14H165.611V161.97C165.611 162.966 165.415 163.951 165.034 164.871C164.654 165.791 164.095 166.626 163.391 167.33C162.687 168.034 161.852 168.592 160.932 168.973C160.013 169.354 159.027 169.55 158.031 169.55H103.411C101.645 169.55 99.9511 168.848 98.7021 167.599C97.4531 166.35 96.7515 164.656 96.7515 162.89V116.21C96.7515 114.6 97.391 113.056 98.5293 111.918C99.6677 110.78 101.212 110.14 102.821 110.14Z" fill="#E1E3E1"/>
<path d="M99.8414 101.55H168.561V110.14H100.971C100.176 110.14 99.4127 109.824 98.8501 109.262C98.2875 108.699 97.9714 107.936 97.9714 107.14V103.37C97.9713 103.127 98.02 102.886 98.1146 102.662C98.2092 102.438 98.3477 102.235 98.5221 102.065C98.6964 101.896 98.903 101.763 99.1296 101.674C99.3562 101.586 99.5983 101.544 99.8414 101.55Z" fill="#9C9B9B"/>
<path d="M168.561 101.55H180.411C182.44 101.55 184.386 102.356 185.821 103.791C187.255 105.226 188.061 107.171 188.061 109.2V162.58H168.561V101.58V101.55Z" fill="#9C9B9B"/>
<path d="M186.201 160.32L171.121 160.4V118.4C171.121 117.737 171.385 117.101 171.854 116.632C172.322 116.164 172.958 115.9 173.621 115.9H183.671C184.342 115.9 184.986 116.167 185.46 116.641C185.935 117.116 186.201 117.759 186.201 118.43V160.32Z" fill="white"/>
<path d="M98.0214 104.8L91.6014 106.25C91.356 106.307 91.1322 106.433 90.9567 106.614C90.7811 106.794 90.6614 107.022 90.6118 107.269C90.5622 107.516 90.5849 107.772 90.677 108.006C90.7692 108.24 90.9269 108.443 91.1314 108.59L97.5814 113.16" fill="#E1E3E1"/>
<path d="M91.7214 19.2102H14.9614L21.2314 78.8302H85.8514L91.7214 19.2102Z" fill="#EFEFEF"/>
<path opacity="0.26" d="M49.5114 78.8303H29.6714V169.55H49.5114V78.8303Z" fill="white"/>
<path opacity="0.26" d="M126.201 109.75H106.361V169.55H126.201V109.75Z" fill="white"/>
<path opacity="0.66" d="M49.5114 78.8302H29.6714L24.3014 19.2102H44.2114L49.5114 78.8302Z" fill="white"/>
<path opacity="0.26" d="M119.161 26.2001L106.881 26.1001V13.3801H119.161V26.2001Z" fill="white"/>
<path opacity="0.26" d="M127.861 13.3801H122.161V26.1001H127.861V13.3801Z" fill="white"/>
<path opacity="0.26" d="M127.861 26.1003H122.161V74.1303H127.861V26.1003Z" fill="white"/>
</svg>
