<svg width="200" height="200" viewBox="0 0 200 200" fill="none" xmlns="http://www.w3.org/2000/svg">
<path d="M78.5195 76.5H122.9V77.23C122.902 78.5252 122.649 79.8082 122.155 81.0056C121.662 82.2029 120.937 83.2912 120.022 84.2079C119.107 85.1247 118.02 85.852 116.824 86.3483C115.627 86.8446 114.345 87.1 113.05 87.1H88.5395C85.8874 87.1 83.3438 86.0464 81.4685 84.1711C79.5931 82.2957 78.5395 79.7522 78.5395 77.1V76.5H78.5195Z" fill="#919191"/>
<path opacity="0.73" d="M109.009 169.46H87.2394C83.2459 169.449 79.4189 167.858 76.595 165.034C73.7711 162.211 72.18 158.384 72.1694 154.39V77.24L81.8394 78.6C93.689 80.268 105.708 80.3521 117.579 78.85L128.029 77.53V150.43C128.016 155.471 126.008 160.302 122.445 163.868C118.881 167.434 114.051 169.444 109.009 169.46Z" fill="#D1D1D1"/>
<path d="M126.059 78.6701L116.729 80.1001C105.711 81.7901 94.4983 81.7901 83.4794 80.1001L73.0394 78.4501C70.6344 78.0668 68.445 76.8381 66.8649 74.9849C65.2848 73.1316 64.4177 70.7755 64.4194 68.3401V36.3401H136.319V66.7901C136.321 69.6724 135.285 72.459 133.401 74.6403C131.517 76.8217 128.911 78.2522 126.059 78.6701Z" fill="#777777"/>
<path d="M61.5596 33.51C61.5596 33.51 65.1596 41.42 65.0796 42.92C64.9996 44.42 64.4396 36.32 64.4396 36.32L65.0796 33.79L61.5596 33.51Z" fill="#777777"/>
<path d="M138.639 33.51L136.269 41.02L132.169 33.51H138.639Z" fill="#777777"/>
<path d="M100.1 41.02C121.385 41.02 138.64 37.6577 138.64 33.51C138.64 29.3623 121.385 26 100.1 26C78.8145 26 61.5596 29.3623 61.5596 33.51C61.5596 37.6577 78.8145 41.02 100.1 41.02Z" fill="#4B4B4C"/>
<path opacity="0.26" d="M114.419 174.32H84.6394C74.3994 174.32 65.7994 163.21 65.7994 152.97L61.7094 69.3501C61.695 69.0347 61.7634 68.721 61.9078 68.4402C62.0522 68.1594 62.2675 67.9213 62.5323 67.7494C62.7972 67.5775 63.1024 67.4779 63.4176 67.4605C63.7329 67.4431 64.0472 67.5084 64.3294 67.6501L69.6994 70.3401C89.8007 74.6845 110.598 74.6845 130.699 70.3401L136.639 67.6701C136.854 67.5726 137.089 67.5317 137.324 67.5511C137.559 67.5705 137.785 67.6496 137.98 67.7809C138.175 67.9122 138.334 68.0913 138.441 68.3012C138.547 68.5111 138.599 68.7448 138.589 68.9801L135.659 150.54C135.629 162.1 126.009 174.32 114.419 174.32Z" fill="#9C9B9B"/>
<path opacity="0.25" d="M95.2595 174.32H82.0895L77.4595 71.79L92.3995 73.38L95.2595 174.32Z" fill="white"/>
</svg>
