<svg xmlns="http://www.w3.org/2000/svg" viewBox="0 0 125.48 155.07">
  <defs>
    <style>
      .cls-1{fill:#d84e50;}.cls-2{fill:#a55169;opacity:0.78;}.cls-3,.cls-5{fill:#7f445c;}.cls-3{opacity:0.63;}.cls-4{fill:#643e4b;}
    </style>
  </defs>
  <g id="Ebene_2" data-name="Ebene 2">
    <g id="Ebene_1-2" data-name="Ebene 1">
      <rect class="cls-1" x="51.51" y="23.7" width="6" height="104.01"/>
      <rect class="cls-1" x="23.42" y="125.71" width="61.8" height="5.38" rx="1.7"/>
      <path class="cls-2"
            d="M97.72,155.07H17.42a3,3,0,0,1-3-3v-107L.58,30.3a3,3,0,0,1-.26-3.12A3,3,0,0,1,3,25.53H97.72a3,3,0,0,1,3,3V152.07A3,3,0,0,1,97.72,155.07Zm-77.3-6h74.3l-36.48,1.39s-28-.83-28-.2Z"/>
      <path class="cls-3" d="M81.69,25.53H97.76a3,3,0,0,1,3,3V152.11a3,3,0,0,1-3,3H81.69"/>
      <path class="cls-4"
            d="M124,98.73h-4.78a1.52,1.52,0,0,1-1.52-1.51V55.41A22.16,22.16,0,0,0,95.52,33.27l-90.89.67a1.47,1.47,0,0,1-1.1-.46c-1-1-3.35-3.53-3.43-4.21-.1-.86-.36-3.51,1.65-3.82s93.77,0,93.77,0a30,30,0,0,1,30,30V97.22A1.52,1.52,0,0,1,124,98.73Z"/>
      <path class="cls-5"
            d="M97.94,24.39H10.7a3.11,3.11,0,0,1-2.32-.94,1.69,1.69,0,0,1-.25-2c.36-.64,9.13-15.73,46.19-15.73s45.83,15.09,46.19,15.73a1.69,1.69,0,0,1-.25,2A3.11,3.11,0,0,1,97.94,24.39Z"/>
      <rect class="cls-5" x="50.65" width="7.71" height="12.81" rx="1.18"/>
    </g>
  </g>
</svg>
