<svg xmlns="http://www.w3.org/2000/svg" viewBox="0 0 215.59 198.12"><defs><style>.cls-1,.cls-14{fill:#fff;}.cls-2{fill:#9c9b9b;}.cls-3{fill:#9f8c6f;}.cls-4{fill:#b6b6b5;}.cls-5{fill:#bca88e;}.cls-6{fill:#938374;}.cls-12,.cls-7{fill:#e1e3e1;}.cls-7{opacity:0.74;}.cls-8{fill:#a08e78;}.cls-9{fill:#9b6d56;}.cls-10{fill:#b78265;}.cls-11{fill:#221b11;}.cls-12,.cls-16{opacity:0.5;}.cls-13{fill:#756652;opacity:0.59;}.cls-14{opacity:0.4;}.cls-15{fill:#bcbcbc;opacity:0.46;}.cls-16{fill:#c4c4c4;}</style></defs><g id="Ebene_2" data-name="Ebene 2"><g id="Ebene_1-2" data-name="Ebene 1"><g id="Hario_Woodneck" data-name="Hario Woodneck"><rect class="cls-1" width="215.59" height="198.12"/><g id="Hario_Woodneck-2" data-name="Hario Woodneck"><polyline class="cls-2" points="156.43 24.69 152.08 24.69 148.46 26.26 141.53 26.26 143.38 23.52 147.76 24.16 151.96 22.71 156.26 22.71"/><path class="cls-3" d="M155.9,18.5l.88,10.37,52.61-4a4.45,4.45,0,0,0,2.51-5.56c-1.21-4.09-3.53-4-4.27-4.18S155.9,18.5,155.9,18.5Z"/><path class="cls-4" d="M132.2,176.09c0,5.28-14.77,11.08-28.61,11.08s-26.81-5-26.81-10.28S88.08,165,103.59,165C118.8,165,132.2,170.81,132.2,176.09Z"/><path class="cls-5" d="M66,20.26s-5.6,5.13,6.79,8.61S120,39.41,141,26.62s-36.37-12.08-36.37-12.08S80.55,12.76,66,20.26Z"/><path class="cls-6" d="M140.73,31.1s-1,.36-.35,5.25-1.21,7-1.69,9.17,0,7.74,0,7.74L134.17,64s-2.5,6.91-4,11.67-8.82,12.51-13.47,17.28-18,5.72-25.14,2.62S79.36,79,78.53,76.62s-1-6.32-2-8-3-11.43-3-11.43C70.78,55.53,69.35,45.88,68.31,42s2.59-7.39,2.59-7.39L65,24.16s8.89,7.45,39.83,7.9S145.57,22,145.57,22l-4.84,9.1"/><path class="cls-6" d="M72,22s14,8.12,35.26,7.36,30.38-6.72,30.38-6.72,2.74-5-31.69-4.28S72,22,72,22Z"/><path class="cls-7" d="M138.06,163.33h0a28.07,28.07,0,0,0,5.32-16.9c0-25.2-20.85-36.85-41.66-36.85S66,129.1,66,146.06c0,8.82,2.87,15.53,7.66,20.41h0s2,4,2.56,5.55c.78,2.17-2.59,7.65,9.69,12.33,15.82,6,36.64.85,42.17-3.19,0,0,5-2.78,5.39-8a17,17,0,0,1,3.33-8.23c.43-.5.85-1,1.23-1.55Z"/><path class="cls-8" d="M70.9,34.56S82.34,90.44,99.14,94,124,81,124,81s12.63-21.32,12.51-46.46c0,0-16,7.74-31.1,6.67S70.9,34.56,70.9,34.56Z"/><path class="cls-9" d="M128.4,121.17l-2.84,1.51a85.34,85.34,0,0,1-42.36-.11l-1.91-1a6.55,6.55,0,0,1-3.47-5.34c0-.1,0-.2,0-.3a6.58,6.58,0,0,1,.91-3.34l1.74-3,48.39-.71,1,2.59C132.67,117.87,131.2,118.79,128.4,121.17Z"/><path class="cls-10" d="M79.64,103.17s1.9-1-1.34-8.72c0,0-1.91-3.23,1.89-6.43a5.38,5.38,0,0,1,.67,1.61c.5,2.07,1.77,5.6,7.78,7.43,8.79,2.67,34.8-.22,37.19-2.89s1.19-5.69-2.39-8.79l.91-1s7.36,3.66,7,7.17-1.82,5.27-2,6.89-.77,5.77-.42,7.38S100.73,112,100.73,112L82,108.09Z"/><path class="cls-11" d="M128.62,110s-8.23,2.65-24.51,2.47-24-2.44-24-2.44a1.67,1.67,0,0,1-1.67-1.67v-3.77A1.67,1.67,0,0,1,80.08,103s4.5,2.88,24.27,2.48S128.62,103,128.62,103a1.66,1.66,0,0,1,1.66,1.67v3.74A1.66,1.66,0,0,1,128.62,110Z"/><path class="cls-12" d="M143.3,26.26s.51,3.6-33.32,7.11a57.64,57.64,0,0,1-11,.09c-9.75-.84-29.82-2.47-31.53-1.61C65.21,33,60.9,35.91,60.15,37.5s3.53.38,3.53.38a3.13,3.13,0,0,1,2.66,3.37c0,3.1,7.68,41.08,17.1,53,5.85,7.38,29.86,3,38.85,1.41,4.73-.81,4.65-3.3,5.89-5.19l.27-.42S147.34,49.53,143.3,26.26Z"/><path class="cls-13" d="M211.9,19.32l-55.26,7.93.14,1.62,52.61-4A4.42,4.42,0,0,0,211.9,19.32Z"/><path class="cls-14" d="M86.1,165.71l-7.69-.2.38-14.29a113.67,113.67,0,0,1,2.59-14.76L84.66,123l9.13,1.69-4.26,12.29c-2,8.24-1.88,10.3-2.49,15.65Z"/><path class="cls-14" d="M78.41,165.51v14.36a19.31,19.31,0,0,0,7.52,4.48l.17-18.64"/><path class="cls-15" d="M73.68,166.47s21.1,13.34,62.31-.33a23.28,23.28,0,0,0-2.41,6.16c-.42,2.65.12,8.86-15.36,12.82s-29.68,1-37-2.69c-6.44-3.25-4.9-10.13-4.9-10.13S74.34,167.72,73.68,166.47Z"/><path class="cls-16" d="M66.05,26.2s-7.85,7.42-6,11.72a17.22,17.22,0,0,1,7.76-6.18s1.46-.11,1.41-.12C68.62,31.56,66.08,31,66.05,26.2Z"/></g></g></g></g></svg>