<svg width="200" height="200" viewBox="0 0 200 200" fill="none" xmlns="http://www.w3.org/2000/svg">
<path d="M148.01 138.43C148.01 146.69 134.01 148.11 97.5898 148.43C59.1598 148.82 47.5098 145.11 47.5098 137.9C47.5098 131.69 69.8398 131.96 97.5898 131.96C125.34 131.96 148.01 132.22 148.01 138.43Z" fill="#C1C1C1"/>
<path d="M148.01 137.94C148.01 144.15 125.34 146.69 97.5898 146.69C69.8398 146.69 47.5098 144.15 47.5098 137.94C47.5098 131.73 69.8398 132 97.5898 132C125.34 132 148.01 131.73 148.01 137.94Z" fill="#CFD0D1"/>
<path d="M87.3097 143.87H118.99C120.151 143.87 121.265 143.408 122.087 142.587C122.908 141.766 123.37 140.652 123.37 139.49V137.49L124.37 134.66L86.1797 134.77" fill="#B7B7B7"/>
<path d="M86.1697 134.68H76.2397L77.4797 137.37V139.78C77.4797 140.841 77.9012 141.858 78.6513 142.608C79.4015 143.359 80.4189 143.78 81.4797 143.78H87.3097" fill="#B7B7B7"/>
<path d="M73.7598 60.51L44.5098 60.69L74.8398 134.45C74.9917 134.82 75.2512 135.136 75.5845 135.357C75.9178 135.578 76.3098 135.694 76.7098 135.69H87.7098" fill="#D6D6D6"/>
<path d="M87.7098 135.69H123.61C124.067 135.692 124.514 135.556 124.894 135.301C125.273 135.046 125.568 134.684 125.74 134.26L156.28 60L73.7598 60.51" fill="#D6D6D6"/>
<path d="M156.28 60C156.28 65 132.99 69 101.51 69C70.0298 69 44.5098 65 44.5098 60C44.5098 55 70.0298 51 101.51 51C132.99 51 156.28 55.03 156.28 60Z" fill="#E1E3E1"/>
<path d="M152.33 60.0001C152.09 64.7201 131.6 66.3101 101.69 66.3101C71.78 66.3101 47.98 64.5601 47.98 59.8701C47.98 55.1801 71.78 53.0701 101.71 53.0701C131.64 53.0701 152.58 55.2901 152.33 60.0001Z" fill="#EFEFEF"/>
<path opacity="0.49" d="M123.24 135.69H76.8599C76.4323 135.697 76.0124 135.575 75.6555 135.34C75.2985 135.104 75.0212 134.766 74.8599 134.37L66.1099 112.66L134.77 112.32L125.49 134.2C125.302 134.641 124.988 135.018 124.588 135.283C124.189 135.548 123.72 135.689 123.24 135.69Z" fill="url(#paint0_linear_164_18776)"/>
<path opacity="0.7" d="M100.4 108.67C101.112 108.67 101.69 108.093 101.69 107.38C101.69 106.668 101.112 106.09 100.4 106.09C99.6874 106.09 99.1099 106.668 99.1099 107.38C99.1099 108.093 99.6874 108.67 100.4 108.67Z" stroke="#1B3A12" stroke-width="0.5" stroke-miterlimit="10"/>
<path opacity="0.7" d="M100.4 110.39V143.82" stroke="#1B3A12" stroke-width="0.5" stroke-miterlimit="10"/>
<defs>
<linearGradient id="paint0_linear_164_18776" x1="100.12" y1="139.04" x2="100.8" y2="81.6501" gradientUnits="userSpaceOnUse">
<stop offset="0.12" stop-color="white"/>
<stop offset="0.69" stop-color="white" stop-opacity="0.6"/>
</linearGradient>
</defs>
</svg>
