<svg xmlns="http://www.w3.org/2000/svg" viewBox="0 0 215.59 198.12"><defs><style>.cls-1,.cls-11{fill:#fff;}.cls-2,.cls-8{fill:#c1c1c1;}.cls-2{opacity:0.83;}.cls-3{fill:#5e5e5e;}.cls-4{fill:#9c9b9b;}.cls-5{fill:#e1e3e1;}.cls-6{fill:#cfd0d1;}.cls-7{fill:#b7b7b7;}.cls-9{fill:none;stroke:#5e5e5e;stroke-linecap:round;stroke-miterlimit:10;stroke-width:0.75px;}.cls-10{fill:#1e1e20;}.cls-11{opacity:0.08;}</style></defs><g id="Ebene_2" data-name="Ebene 2"><g id="Ebene_2-2" data-name="Ebene 2"><g id="Ratio_Six_Coffee_Brewer" data-name="Ratio Six Coffee Brewer"><rect class="cls-1" width="215.59" height="198.12"/><path class="cls-2" d="M116.65,34l1.41,56.68s2.24,2.69,31.16,2.69S179.53,90,179.53,90l1.63-56.54Z"/><path class="cls-3" d="M30.75,83.76H25.07a1.69,1.69,0,0,1-1.68-1.84L26,53.44a2.4,2.4,0,0,1,2.38-2.17h4.91Z"/><polygon class="cls-3" points="47.49 56.41 27.19 56.46 28.37 51.27 47.96 51.27 47.49 56.41"/><polygon class="cls-3" points="47.88 84.36 23.22 83.76 23.67 78.78 47.88 78.78 47.88 84.36"/><polygon class="cls-3" points="43.7 93.36 23.96 92.75 30.31 86.63 44.61 86.59 43.7 93.36"/><path class="cls-3" d="M27.48,120.82l-7.88,1.45,2.68-31.63a4.16,4.16,0,0,1,3.91-3.79l4.12-.22Z"/><path class="cls-3" d="M39.83,139.56l-1.11,13.37c-5-8-11.71-15.59-16.67-23.54a13.08,13.08,0,0,1-2.45-7.12c2.62-.48,7.72-4,7.88-1.45S39.83,139.56,39.83,139.56Z"/><path class="cls-4" d="M187.28,179.25s-2.4,5.41-28.49,5.73-82.19.72-103.71,0-24.77-6.28-24.77-6.28l2.22-18.3s-4.57,4.83,76.27,5.47,78.48-5.66,78.48-5.66Z"/><path class="cls-5" d="M187.28,160.21c0,2.9-20.22,5.34-76.86,5.25-44.75-.07-77.89-2.17-77.89-5.06,0-9.85,35.44-8.44,77.89-8.44S187.28,151.87,187.28,160.21Z"/><path class="cls-4" d="M106.56,83.18A1.94,1.94,0,0,1,105,85.09c-3.09.53-11.2,1.5-29.18,1.5-17.82,0-26-1-29.1-1.49a1.81,1.81,0,0,1-1.5-2l2.71-23.87s11.27.9,29.14,1a245.55,245.55,0,0,0,29.54-1.4Z"/><path class="cls-4" d="M106.62,154.55S101.9,160,72.56,160s-34.07-4.42-34.07-4.42l4.8-57.46s5.25,2.77,31.23,2.64,32-2.85,32-2.85Z"/><path class="cls-3" d="M187.11,33.37,43.05,34.73l1.75-17.3a3.88,3.88,0,0,1,3.86-3.49l134.28-.62a3.64,3.64,0,0,1,3.66,3.54Z"/><path class="cls-3" d="M179.53,156.52s-4.18,5.07-30.73,5.07-30.74-5.76-30.74-5.76V90.71s-.43,2.69,31.16,2.69S179.53,90,179.53,90Z"/><path class="cls-3" d="M47.82,51.67l-.5,7.59s34.14,2.58,59.24-.42v-7a.92.92,0,0,0-1-.92c-4.12.35-21.33,1.5-56.86-.06A.84.84,0,0,0,47.82,51.67Z"/><path class="cls-3" d="M110.3,88.73s-3.92,1.12-4.37,3.36.76,6.29.76,6.29-33.23,6.71-64-.12l1.94-11.67s7.26,4.61,58.4.9c0,0,.56.23,2.69-1.45C105.7,86,109.4,86.6,110.3,88.73Z"/><polygon class="cls-6" points="63.61 34.97 63.61 36.66 89.77 36.38 89.77 34.97 63.61 34.97"/><polygon class="cls-7" points="143.55 89.97 131.82 89.97 132.62 37.55 142.34 37.55 143.55 89.97"/><polygon class="cls-8" points="141.1 89.97 134.71 89.97 133.81 37.04 140.76 37.04 141.1 89.97"/><line class="cls-9" x1="151.29" y1="47.25" x2="142.34" y2="47.25"/><line class="cls-9" x1="149.29" y1="56.2" x2="144.89" y2="56.2"/><line class="cls-9" x1="151.29" y1="66.38" x2="143.78" y2="66.38"/><line class="cls-9" x1="149.29" y1="77.26" x2="144.89" y2="77.26"/><rect class="cls-8" x="130.85" y="33.7" width="13.68" height="3.85"/><rect class="cls-10" x="187.28" y="164.95" width="1.71" height="10.33"/><rect class="cls-10" x="187.28" y="162.62" width="2.79" height="2.33"/><polygon class="cls-11" points="81.26 159.84 74.55 160 68.14 159.98 68.14 100.76 74.52 100.78 81.26 100.75 81.26 159.84"/><polygon class="cls-11" points="170.98 159.82 164.35 160.9 157.19 161.36 156.93 93.35 163.48 93.18 170.53 92.69 170.98 159.82"/><polygon class="cls-11" points="80.66 86.57 75.77 86.59 68.14 86.52 68.14 59.96 74.52 60.26 81.26 60.23 80.66 86.57"/><polygon class="cls-11" points="81.26 100.75 68.14 100.47 68.14 88.93 81.26 88.93 81.26 100.75"/><polygon class="cls-11" points="81.26 59.96 67.95 59.78 67.95 51.53 81.26 51.69 81.26 59.96"/></g></g></g></svg>