<svg xmlns="http://www.w3.org/2000/svg" viewBox="0 0 215.59 198.12"><defs><style>.cls-1,.cls-18{fill:#fff;}.cls-2{fill:#1c1c1c;}.cls-3{fill:#ccc;}.cls-4{fill:#6d6d6d;}.cls-16,.cls-5{fill:#5e5e5e;}.cls-6{fill:#171813;}.cls-17,.cls-7{fill:none;}.cls-8{fill:#e5e5e5;}.cls-9{fill:#6b6b6b;}.cls-10{fill:#afafaf;}.cls-11{fill:#9c9b9b;}.cls-12{fill:#e1e3e1;}.cls-13{fill:#efefef;}.cls-14{fill:#b6b6b5;}.cls-15{fill:#d7d2cc;}.cls-16{opacity:0.15;}.cls-17{stroke:#eaeaea;stroke-linecap:round;stroke-miterlimit:10;}.cls-18{opacity:0.08;}.cls-19{fill:#4e4d48;}.cls-20{fill:#d6d6d6;}.cls-21{fill:#1c1c14;}</style></defs><g id="Ebene_2" data-name="Ebene 2"><g id="Ebene_2-2" data-name="Ebene 2"><g id="Decent_Espresso" data-name="Decent Espresso"><rect class="cls-1" width="215.59" height="198.12"/><path class="cls-2" d="M110,168.7l-2.65,1.52s4.73,2.95,9,1.8,22-11,28.67-17.87c4.31-4.4-.39-10.77-.39-10.77l-3.24,2.17-1.23,7.15-26.91,15Z"/><path class="cls-3" d="M142.16,132.87,85.22,114.32l-1.68-59.6a3.61,3.61,0,0,1,4.31-3.64L137,60.77a7.53,7.53,0,0,1,6.23,7.55Z"/><path class="cls-4" d="M110,157.73l-50.9-21.67a1.82,1.82,0,0,1,0-3.33L83,122.12l59.89,19.76a.68.68,0,0,1,.15,1.22l-21.53,13.69A12.36,12.36,0,0,1,110,157.73Z"/><path class="cls-5" d="M139.93,155.17l-26.84,14.32-.84-11.22L144,142.52l-.07,7.53C143.83,152.16,141.77,154.14,139.93,155.17Z"/><polygon class="cls-5" points="82.99 50.34 138.2 60.31 194.02 43.29 129.57 33.95 82.99 50.34"/><path class="cls-5" d="M138.2,60.31a11,11,0,0,1,5.34,8c.63,5.51,55.34-17.41,55.34-17.41A9.38,9.38,0,0,0,194,43.29C189.3,40.88,138.2,60.31,138.2,60.31Z"/><path class="cls-5" d="M107.37,170.22l.15,16.52s4.15,3,7.12,2.71a11,11,0,0,0,5.11-2.07s-.9-6.49,5.73-12.15l60.74-38s3.46-.83,2.84,4.49l3.31-1.73,1.1-20.57a8.57,8.57,0,0,0-5.58-6.32c-4.74-1.51-50.55,27-50.55,27s6.33,2.11,7.24,4.67,1.59,5.39.79,8.11S131.78,163,131.78,163l-15.36,9S113.14,173.49,107.37,170.22Z"/><polygon class="cls-5" points="60.66 150.44 61.78 166 57.44 163.76 56.71 147.44 60.66 150.44"/><path class="cls-5" d="M59.72,145.47s-3,1-3,2,1.63,1.89,3.94,3l4.65-1.85-4.62-3.45Z"/><path class="cls-6" d="M66.61,163.42,61.78,166l-1.12-15.56,2.71-1.2,9,3.38S66.46,155,66.61,163.42Z"/><polygon class="cls-7" points="119.45 80.58 109.77 83.64 108.91 65.5 118.72 63.29 119.45 80.58"/><polygon class="cls-7" points="108.68 65.67 89.63 63.91 90.86 56.98 118.42 63.12 108.68 65.67"/><path class="cls-8" d="M65.06,88C64.42,96.18,73.33,95,82.49,95s24.34-4.73,24.74-8.65c.17-1.68-15.49,2.35-24.65,2.35S65.2,86.27,65.06,88Z"/><path class="cls-5" d="M11.72,102.23s0-3.18,7.13-5.93,12.79-4.88,16.32-5.16,16.25-1.7,16.25-1.7l11.73-1.9s2.05-.71,2.19,3.74.07,3.89-5,5.3-20.41,6.14-20.41,6.14S30,106.33,22.1,105.55,12.92,105.2,11.72,102.23Z"/><path class="cls-9" d="M191.81,112.08l-50.58,25.47,2.31-69.23,55.34-17.41-3.28,55.23A7.24,7.24,0,0,1,191.81,112.08Z"/><path class="cls-10" d="M132.73,140.36l-47.54-16a3.25,3.25,0,0,1-2.1-4l1.73-6.17,56.66,18.1-.17,6.14C140,140.81,135.27,141.25,132.73,140.36Z"/><path class="cls-11" d="M62.48,65l.3,20s6.41,6.82,23.92,5.4,20.29-2.91,23.07-6.8l-.21-18.92S104.19,72.48,85,71.08C85,71.08,63.17,71.63,62.48,65Z"/><path class="cls-5" d="M109.39,64.72c0,3.1-10.34,6.6-23.35,6.6s-23.51-2.92-23.51-6,6.19-7.61,22.61-8.42C101.88,56.06,109.39,61.62,109.39,64.72Z"/><path class="cls-12" d="M105.68,61.92c0,1.87-8.26,4.92-19.47,4.86-15.51-.08-19.58-2.84-19.39-4.7.25-2.39,7.35-3.55,18.56-3.55S105.68,60.05,105.68,61.92Z"/><path class="cls-5" d="M104.11,61c.08,2-8.55,4.84-18.07,4.62-17.49-.41-18.31-3.24-18.31-4.79S76,56.72,85.55,56.72,104,58,104.11,61Z"/><path class="cls-5" d="M77.35,84.61S62.5,93,61.08,97c0,0-2.87,4.24-1.15,7.77s8.76.65,8.76.65,5.36-2.38,9.69-9.21a31.22,31.22,0,0,0,4.1-5.81c1.37-2.77-2-5.47-2-5.47S80.06,84.41,77.35,84.61Z"/><path class="cls-9" d="M111.68,169.33,63.37,149.24a6.41,6.41,0,0,1-3.93-5.65l-.29-7.5,53.08,22.26,2.4,9.14A2.13,2.13,0,0,1,111.68,169.33Z"/><polygon class="cls-12" points="133.91 69.68 136.4 75.08 137.97 74.61 135.72 69.33 133.91 69.68"/><polygon class="cls-11" points="136.4 75.08 134.03 79.36 135.63 78.97 137.97 74.61 136.4 75.08"/><polygon class="cls-11" points="129.81 68.79 133.91 69.68 135.72 69.33 131.12 68.5 129.81 68.79"/><polygon class="cls-11" points="125.78 71.23 129.22 71.91 133.46 70.69 129.19 70.16 125.78 71.23"/><polygon class="cls-13" points="129.22 71.91 131.27 76.15 135.33 74.91 133.46 70.69 129.22 71.91"/><polygon class="cls-11" points="131.27 76.15 129.16 79.92 133.49 78.47 135.33 74.91 131.27 76.15"/><polygon class="cls-13" points="129.81 68.79 129.19 70.16 133.46 70.69 133.91 69.68 129.81 68.79"/><polygon class="cls-14" points="133.91 69.68 136.41 75.08 135.33 74.91 133.46 70.69 133.91 69.68"/><polygon class="cls-12" points="136.41 75.07 134.03 79.36 131.83 79.06 133.49 78.47 135.33 74.91 136.41 75.07"/><path class="cls-12" d="M124.44,73.72l1.34-2.49,3.44.68,2.05,4.24-2.11,3.77a3.45,3.45,0,0,1-2.91-.59c-1-1,2.49-4,2.49-4l-2.19-1.87Z"/><path class="cls-13" d="M98.09,102.87l.16,5.55-.3.14s-3.69,0-4.21-.73L95,102.4"/><path class="cls-13" d="M102.71,64.76c-.06.61-.13,1.23-.18,1.89-.45,5.24-4.44,36.22-4.44,36.22l-3-.47,4.65-37.92"/><path class="cls-15" d="M93.74,107.83l.26,1.06a16,16,0,0,0,3.27.38l1-.85S95,108.85,93.74,107.83Z"/><path class="cls-5" d="M129.37,76.89a2.79,2.79,0,0,1-2.88,2.47c-1.39,0-2.34-1.29-2.52-2.85-.27-2.29.86-3.86,2.25-3.86S129.63,74.55,129.37,76.89Z"/><ellipse class="cls-11" cx="126.09" cy="75.83" rx="1.92" ry="2.46"/><polygon class="cls-16" points="98.1 102.83 96.72 102.71 101.6 64.57 102.81 64.73 98.1 102.83"/><polygon class="cls-16" points="98.26 108.42 97.03 108.51 96.72 102.72 98.09 102.83 98.26 108.42"/><line class="cls-17" x1="80.69" y1="123.18" x2="141.08" y2="144.24"/><line class="cls-17" x1="78.1" y1="124.36" x2="139.04" y2="145.58"/><line class="cls-17" x1="76" y1="125.63" x2="136.39" y2="146.7"/><line class="cls-17" x1="73.41" y1="126.81" x2="134.35" y2="148.04"/><line class="cls-17" x1="71.07" y1="127.94" x2="131.46" y2="149.01"/><line class="cls-17" x1="68.39" y1="128.76" x2="129.42" y2="150.35"/><line class="cls-17" x1="66.12" y1="129.92" x2="126.75" y2="151.43"/><line class="cls-17" x1="63.8" y1="130.66" x2="124.25" y2="152.68"/><line class="cls-17" x1="61.69" y1="131.61" x2="121.77" y2="153.75"/><line class="cls-17" x1="59.63" y1="132.4" x2="119.68" y2="155.23"/><line class="cls-17" x1="58.07" y1="133.77" x2="118.12" y2="156.6"/><polygon class="cls-18" points="167.95 123.97 159.1 128.6 158.92 63.53 167.55 60.71 167.95 123.97"/><path class="cls-18" d="M158.92,63.53s1.21-8.08-7.09-9.93-12.06-2.4-12.06-2.4l.86-4.43,22.58,5.3s4.19,1,4.34,8.64"/><path class="cls-19" d="M135.93,59.5,80.08,50.2a4.23,4.23,0,0,1-3.35-5.39L86.82,11.1a4.23,4.23,0,0,1,4.49-3L147,14a4.24,4.24,0,0,1,3.65,5.3l-9.95,37.17A4.23,4.23,0,0,1,135.93,59.5Z"/><path class="cls-20" d="M134,56.13,84.89,47.94a3.72,3.72,0,0,1-3-4.74l8.88-29.66a3.72,3.72,0,0,1,4-2.64l49,5.15A3.73,3.73,0,0,1,147,20.72l-8.76,32.7A3.72,3.72,0,0,1,134,56.13Z"/><path class="cls-21" d="M102.71,64.76a68,68,0,0,1,1.11-7.06c1.48-4.87,2.84-5.43,2.84-5.43s2.16-1.43,3.53-.66a5.47,5.47,0,0,1,2,2.4L114,60.75s1.64,9.47,3.07,12.73a5.4,5.4,0,0,0,4.07,3.5s4.3,0,4.53,0,.87-.49,1-1.74-1.41-1.38-1.41-1.38a9.32,9.32,0,0,1-3.26.09,3.11,3.11,0,0,1-2.23-2.11l-1.34-5s-1.93-7.19-2.47-10.38a12.74,12.74,0,0,0-3.45-7c-1.41-1.32-3.65-1.23-5.85-.59s-3.62,3.12-4.23,3.73-1.74,4.16-1.74,4.16l-1,7.77"/></g></g></g></svg>