<svg xmlns="http://www.w3.org/2000/svg" xmlns:xlink="http://www.w3.org/1999/xlink" viewBox="0,0,256,256" width="120px" height="120px"><defs><clipPath id="clip-1"><path d="M-54.85714,310.85714v-365.71429h365.71429v365.71429zM157.33333,100.8h-58.66667c-12.12933,0 -22,9.87067 -22,22v73.33333c0,12.12933 9.87067,22 22,22h58.66667c12.12933,0 22,-9.87067 22,-22v-73.33333c0,-12.12933 -9.87067,-22 -22,-22z" id="overlayBgMask" fill="none"></path></clipPath></defs><g transform="translate(57.6,57.6) scale(0.55,0.55)"><g fill-opacity="0" fill="#cdc2ac" fill-rule="nonzero" stroke="none" stroke-width="1" stroke-linecap="butt" stroke-linejoin="miter" stroke-miterlimit="10" stroke-dasharray="" stroke-dashoffset="0" font-family="none" font-weight="none" font-size="none" text-anchor="none" style="mix-blend-mode: normal"><path d="M-104.72727,360.72727v-465.45455h465.45455v465.45455z" id="bgRectangle"></path></g><g fill="#cdc2ac" fill-rule="nonzero" stroke="none" stroke-width="1" stroke-linecap="butt" stroke-linejoin="miter" stroke-miterlimit="10" stroke-dasharray="" stroke-dashoffset="0" font-family="none" font-weight="none" font-size="none" text-anchor="none" style="mix-blend-mode: normal"><path d="M128,360.72727c-128.53172,0 -232.72727,-104.19555 -232.72727,-232.72727v0c0,-128.53172 104.19555,-232.72727 232.72727,-232.72727v0c128.53172,0 232.72727,104.19555 232.72727,232.72727v0c0,128.53172 -104.19555,232.72727 -232.72727,232.72727z" id="shape"></path></g><g clip-path="url(#clip-1)" fill="none" fill-rule="nonzero" stroke="none" stroke-width="1" stroke-linecap="butt" stroke-linejoin="miter" stroke-miterlimit="10" stroke-dasharray="" stroke-dashoffset="0" font-family="none" font-weight="none" font-size="none" text-anchor="none" style="mix-blend-mode: normal"><g transform="scale(0.53333,0.53333)" fill="#ffffff"><path d="M56,0c-30.878,0 -56,25.122 -56,56v368c0,30.878 25.122,56 56,56h368c30.879,0 56,-25.122 56,-56v-368c0,-30.878 -25.121,-56 -56,-56c-4.418,0 -8,3.582 -8,8c0,4.418 3.582,8 8,8c22.056,0 40,17.944 40,40v368c0,22.056 -17.944,40 -40,40h-368c-22.056,0 -40,-17.944 -40,-40v-368c0,-22.056 17.944,-40 40,-40h320.22656c4.418,0 8,-3.582 8,-8c0,-4.418 -3.582,-8 -8,-8zM147,49c-13.234,0 -24,10.766 -24,24v40c0,13.234 10.766,24 24,24h13c13.234,0 24,-10.766 24,-24v-40c0,-13.234 -10.766,-24 -24,-24zM259,49c-13.233,0 -24,10.766 -24,24v40c0,13.234 10.767,24 24,24h13c13.233,0 24,-10.766 24,-24v-40c0,-13.234 -10.767,-24 -24,-24zM339,49c-13.233,0 -24,10.766 -24,24v40c0,13.234 10.767,24 24,24h13c13.233,0 24,-10.766 24,-24v-40c0,-13.234 -10.767,-24 -24,-24zM147,65h13c4.411,0 8,3.589 8,8v40c0,4.411 -3.589,8 -8,8h-13c-4.411,0 -8,-3.589 -8,-8v-40c0,-4.411 3.589,-8 8,-8zM259,65h13c4.411,0 8,3.589 8,8v40c0,4.411 -3.589,8 -8,8h-13c-4.411,0 -8,-3.589 -8,-8v-40c0,-4.411 3.589,-8 8,-8zM339,65h13c4.411,0 8,3.589 8,8v40c0,4.411 -3.589,8 -8,8h-13c-4.411,0 -8,-3.589 -8,-8v-40c0,-4.411 3.589,-8 8,-8zM209,99.19336c-4.418,0 -8,3.582 -8,8v8.80664c0,4.418 3.582,8 8,8c4.418,0 8,-3.582 8,-8v-8.80664c0,-4.418 -3.582,-8 -8,-8zM227,373c-4.418,0 -8,3.582 -8,8c0,4.418 3.582,8 8,8h26c4.418,0 8,-3.582 8,-8c0,-4.418 -3.582,-8 -8,-8z"></path></g></g><g fill="#ffffff" fill-rule="nonzero" stroke="none" stroke-width="1" stroke-linecap="butt" stroke-linejoin="miter" stroke-miterlimit="10" stroke-dasharray="" stroke-dashoffset="0" font-family="none" font-weight="none" font-size="none" text-anchor="none" style="mix-blend-mode: normal"><g transform="translate(91.33333,115.46667) scale(7.33333,7.33333)" id="overlay"><path d="M4,1v10c0,0.552 -0.448,1 -1,1h-2c-0.552,0 -1,-0.448 -1,-1v-10c0,-0.552 0.448,-1 1,-1h2c0.552,0 1,0.448 1,1zM9,0h-2c-0.552,0 -1,0.448 -1,1v10c0,0.552 0.448,1 1,1h2c0.552,0 1,-0.448 1,-1v-10c0,-0.552 -0.448,-1 -1,-1z"></path></g></g></g></svg>