<svg fill-rule="nonzero" height="500px" viewBox="0,0,256,256" width="500px" xmlns="http://www.w3.org/2000/svg"
    xmlns:xlink="http://www.w3.org/1999/xlink">
    <g fill-rule="nonzero" font-family="none" font-size="none" font-weight="none" stroke="none" stroke-dasharray=""
        stroke-dashoffset="0" stroke-linecap="butt" stroke-linejoin="miter" stroke-miterlimit="10" stroke-width="1"
        style="mix-blend-mode: normal" text-anchor="none">
        <g transform="scale(5.12,5.12)">
            <path
                d="M24.98438,6.98438c-0.0625,0.00391 -0.12109,0.00781 -0.18359,0.02344c-4.19531,0.03516 -8.125,1.19531 -11.50391,3.19531c-0.08203,0.03516 -0.16016,0.08203 -0.23437,0.13672c-3.43359,2.08984 -6.27344,5.0625 -8.21875,8.59375c-0.05078,0.07031 -0.09375,0.14453 -0.125,0.22656c-1.70312,3.17578 -2.67969,6.79688 -2.71094,10.63672c-0.02734,0.13281 -0.02734,0.26563 0,0.39453c0.03125,4.22656 1.08594,7.9375 3.13672,11.33984c0.23828,0.39453 0.71875,0.57422 1.16016,0.43359c0.44141,-0.14062 0.73047,-0.56641 0.69531,-1.02734l0.04688,0.61328l3.75391,-2.17578c0.32031,-0.17187 0.51953,-0.50391 0.51953,-0.86719c0.00391,-0.36328 -0.19141,-0.69922 -0.50781,-0.87891c-0.31641,-0.17969 -0.70312,-0.17187 -1.01562,0.01563l-3.33594,1.93359c-1.42187,-2.63281 -2.28125,-5.39453 -2.42969,-8.57812h3.96875c0.35938,0.00391 0.69531,-0.18359 0.87891,-0.49609c0.17969,-0.3125 0.17969,-0.69531 0,-1.00781c-0.18359,-0.3125 -0.51953,-0.5 -0.87891,-0.49609h-3.96875c0.13672,-2.89844 0.87109,-5.63281 2.0625,-8.10547c0.5625,0.30469 1.46094,0.78906 3.48047,1.88672c0.31641,0.17969 0.70313,0.17578 1.01563,-0.01172c0.30859,-0.1875 0.49609,-0.53125 0.48047,-0.89062c-0.01172,-0.36328 -0.21875,-0.69141 -0.54297,-0.85937c-2.01953,-1.09375 -2.91406,-1.57812 -3.48047,-1.88281c1.60156,-2.63672 3.74219,-4.90234 6.30078,-6.60937l2.05859,3.42578c0.17969,0.30859 0.51563,0.5 0.875,0.49609c0.36328,-0.00781 0.69141,-0.20312 0.86719,-0.51953c0.17188,-0.31641 0.16016,-0.70312 -0.02734,-1.00781l-2.05859,-3.42578c2.68359,-1.44141 5.71484,-2.3125 8.9375,-2.46484v3.96875c-0.00391,0.35938 0.18359,0.69531 0.49609,0.87891c0.3125,0.17969 0.69531,0.17969 1.00781,0c0.3125,-0.18359 0.5,-0.51953 0.49609,-0.87891v-3.96875c2.89844,0.13672 5.64063,0.85547 8.11328,2.04688l-1.89453,3.49609c-0.17969,0.31641 -0.17578,0.70313 0.01172,1.01563c0.1875,0.30859 0.53125,0.49609 0.89063,0.48047c0.36328,-0.01172 0.69141,-0.21875 0.85938,-0.54297l1.89063,-3.49219c2.63672,1.59766 4.89453,3.75391 6.60156,6.3125l-3.42578,2.05859c-0.30859,0.17969 -0.5,0.51563 -0.49609,0.875c0.00781,0.36328 0.20313,0.69141 0.51953,0.86719c0.31641,0.17188 0.70313,0.16016 1.00781,-0.02734l3.42578,-2.05859c1.44141,2.68359 2.3125,5.71484 2.46484,8.9375h-3.96875c-0.35937,-0.00391 -0.69531,0.18359 -0.87891,0.49609c-0.17969,0.3125 -0.17969,0.69531 0,1.00781c0.18359,0.3125 0.51953,0.5 0.87891,0.49609h3.96875c-0.14844,3.18359 -1.00781,5.94531 -2.42578,8.57813l-3.33984,-1.93359c-0.3125,-0.1875 -0.69922,-0.19531 -1.01562,-0.01562c-0.31641,0.17969 -0.51172,0.51563 -0.50781,0.87891c0,0.36328 0.19922,0.69531 0.51953,0.86719l3.75391,2.17578l0.04688,-0.61328c-0.03516,0.46094 0.25391,0.88672 0.69531,1.02734c0.44141,0.14063 0.92188,-0.03906 1.16016,-0.43359c2.05078,-3.39844 3.10547,-7.10937 3.14063,-11.32812c0.02344,-0.13281 0.02344,-0.26953 0,-0.39844c-0.03906,-4.20312 -1.20312,-8.14062 -3.21094,-11.51953c-0.02734,-0.07422 -0.06641,-0.14062 -0.11328,-0.20703c-0.00391,0 -0.00391,0 -0.00391,0c0,-0.00391 -0.00391,-0.00391 -0.00781,-0.00781c-2.08594,-3.42969 -5.05078,-6.26562 -8.57422,-8.21094c-0.08594,-0.06641 -0.17969,-0.11328 -0.27734,-0.14844c-3.17187,-1.69531 -6.78125,-2.67188 -10.61719,-2.70313c-0.06641,-0.01562 -0.13672,-0.02344 -0.20703,-0.02344zM36.55859,22.17969c-0.19141,-0.00391 -0.37891,0.04688 -0.54297,0.14844l-9.10937,5.38281c-0.51953,-0.4375 -1.17969,-0.71094 -1.90625,-0.71094c-1.64453,0 -3,1.35547 -3,3c0,1.64453 1.35547,3 3,3c1.64453,0 3,-1.35547 3,-3c0,-0.19531 -0.02344,-0.39062 -0.05859,-0.57812l9.08984,-5.375c0.39063,-0.22266 0.58203,-0.67969 0.47266,-1.11328c-0.10937,-0.43359 -0.49609,-0.74219 -0.94531,-0.75391zM25,29c0.31641,0 0.58203,0.14453 0.76172,0.36328c0.03906,0.10547 0.09766,0.19922 0.17188,0.28516c0.03906,0.10938 0.06641,0.22656 0.06641,0.35156c0,0.5625 -0.4375,1 -1,1c-0.5625,0 -1,-0.4375 -1,-1c0,-0.5625 0.4375,-1 1,-1zM19,38c-0.35937,-0.00391 -0.69531,0.18359 -0.87891,0.49609c-0.17969,0.3125 -0.17969,0.69531 0,1.00781c0.18359,0.3125 0.51953,0.5 0.87891,0.49609h12c0.35938,0.00391 0.69531,-0.18359 0.87891,-0.49609c0.17969,-0.3125 0.17969,-0.69531 0,-1.00781c-0.18359,-0.3125 -0.51953,-0.5 -0.87891,-0.49609z">
            </path>
        </g>
    </g>
</svg>