<svg xmlns="http://www.w3.org/2000/svg" viewBox="0 0 215.59 198.12"><defs><style>.cls-1,.cls-8,.cls-9{fill:#fff;}.cls-2{fill:#9c9b9b;}.cls-3{fill:#b78265;}.cls-4{fill:#777;}.cls-5{fill:#b6b6b5;}.cls-6{fill:#e1e3e1;}.cls-7{fill:#efefef;}.cls-8{opacity:0.26;}.cls-9{opacity:0.66;}</style></defs><g id="Ebene_2" data-name="Ebene 2"><g id="Ebene_1-2" data-name="Ebene 1"><rect class="cls-1" width="215.59" height="198.12"/><rect class="cls-2" x="28.34" y="8.03" width="64.62" height="11.21"/><rect class="cls-2" x="28.34" y="51.92" width="64.62" height="118.51"/><path class="cls-3" d="M29.71,169.29H103.2a0,0,0,0,1,0,0v16.45a0,0,0,0,1,0,0H25.89a.08.08,0,0,1-.08-.08V173.19A3.9,3.9,0,0,1,29.71,169.29Z"/><rect class="cls-2" x="18.18" y="171.78" width="7.63" height="13.97"/><rect class="cls-4" x="92.96" y="74.16" width="79.71" height="11.21"/><polygon class="cls-3" points="151.2 16.71 92.96 16.6 92.96 9.05 151.2 8.94 151.2 16.71"/><rect class="cls-5" x="151.2" y="8.94" width="6.2" height="7.77"/><path class="cls-4" d="M109.61,13.41h64.9a3.4,3.4,0,0,1,3.4,3.4v9.42a0,0,0,0,1,0,0H106.37a0,0,0,0,1,0,0V16.64A3.23,3.23,0,0,1,109.61,13.41Z"/><polyline class="cls-4" points="118.41 85.36 92.96 91.57 92.96 85.36"/><polygon class="cls-2" points="25.81 185.75 25.81 192.42 49.49 192.42 55.97 185.94 25.81 185.75"/><polygon class="cls-2" points="174.9 182.66 174.06 192.42 150.38 192.42 143.9 185.94 174.9 182.66"/><polygon class="cls-2" points="106.37 26.23 121.25 60.53 121.25 74.16 163.3 74.16 163.3 60.39 177.91 26.23 106.37 26.23"/><path class="cls-4" d="M176.5,29.51h6.79a4.53,4.53,0,0,1,4.53,4.54V62a1.33,1.33,0,0,1-1.33,1.34H185.3a1.24,1.24,0,0,1-1.22-1.18l-.68-21.25H171.81"/><path class="cls-3" d="M103.2,169.29h68.55a3.22,3.22,0,0,1,3.22,3.22v9.43a3.81,3.81,0,0,1-3.81,3.81h-68a0,0,0,0,1,0,0V169.29A0,0,0,0,1,103.2,169.29Z"/><path class="cls-6" d="M109.93,110.17h62.79a0,0,0,0,1,0,0V162a7.58,7.58,0,0,1-7.58,7.58H110.52a6.66,6.66,0,0,1-6.66-6.66V116.24A6.07,6.07,0,0,1,109.93,110.17Z"/><path class="cls-2" d="M106.95,101.58h68.72a0,0,0,0,1,0,0v8.59a0,0,0,0,1,0,0H108.08a3,3,0,0,1-3-3V103.4A1.82,1.82,0,0,1,106.95,101.58Z"/><path class="cls-2" d="M175.67,101.58h11.85a7.65,7.65,0,0,1,7.65,7.65v53.38a0,0,0,0,1,0,0H175.67a0,0,0,0,1,0,0v-61A0,0,0,0,1,175.67,101.58Z"/><path class="cls-1" d="M193.31,160.35l-15.08.08v-42a2.5,2.5,0,0,1,2.5-2.5h10.05a2.53,2.53,0,0,1,2.53,2.53Z"/><path class="cls-6" d="M105.13,104.83l-6.42,1.45a1.31,1.31,0,0,0-.47,2.34l6.45,4.57"/><polygon class="cls-7" points="98.83 19.24 22.07 19.24 28.34 78.86 92.96 78.86 98.83 19.24"/><rect class="cls-8" x="36.78" y="78.86" width="19.84" height="90.72"/><rect class="cls-8" x="113.47" y="109.78" width="19.84" height="59.8"/><polygon class="cls-9" points="56.62 78.86 36.78 78.86 31.41 19.24 51.32 19.24 56.62 78.86"/><polygon class="cls-8" points="126.27 26.23 113.99 26.13 113.99 13.41 126.27 13.41 126.27 26.23"/><rect class="cls-8" x="129.27" y="13.41" width="5.7" height="12.72"/><rect class="cls-8" x="129.27" y="26.13" width="5.7" height="48.03"/></g></g></svg>