<svg width="200" height="200" viewBox="0 0 200 200" fill="none" xmlns="http://www.w3.org/2000/svg">
<path d="M130.332 164.965C130.332 164.965 125.332 171.815 100.942 171.815C76.5517 171.815 70.9417 164.815 70.9417 164.815V153.765H130.312L130.332 164.965Z" fill="#4B4B4C"/>
<path d="M147.852 137.544C151.512 154.924 129.732 157.544 102.182 156.984C65.6817 156.264 52.0517 154.634 53.0217 138.124C53.2117 134.894 72.2217 138.194 99.7817 138.194C127.342 138.194 147.182 134.374 147.852 137.544Z" fill="#595959"/>
<path d="M148.012 136.524C148.012 143.264 126.792 148.734 100.622 148.734C74.4516 148.734 50.5316 142.734 53.2316 136.524C56.1016 129.944 74.4516 124.314 100.622 124.314C126.792 124.314 148.012 129.784 148.012 136.524Z" fill="#777777"/>
<path d="M146.102 130.634L131.362 132.374L126.862 124.764L137.842 124.314L146.102 130.634Z" fill="#3B4344"/>
<path opacity="0.7" d="M146.572 118.904L128.482 126.044L131.692 130.464L150.692 122.994C151.952 122.444 152.922 120.344 151.962 119.364C150.792 117.854 147.612 118.504 146.572 118.904Z" fill="#9C9B9B"/>
<path d="M131.692 130.425L141.942 129.695C141.942 129.695 151.412 125.535 152.332 124.415C153.252 123.295 152.332 120.165 152.332 120.165C152.332 120.165 152.732 122.245 150.022 123.165C146.652 124.425 132.862 129.965 131.692 130.425Z" fill="#9C9B9B"/>
<path d="M129.792 137.894L121.662 139.764C107.014 143.135 91.7992 143.204 77.1216 139.964L68.4316 138.044C68.0984 137.97 67.7875 137.819 67.5243 137.601C67.2611 137.384 67.0532 137.107 66.9176 136.794C66.782 136.481 66.7225 136.14 66.7441 135.799C66.7656 135.459 66.8676 135.128 67.0416 134.834L71.8316 126.834C73.3201 124.365 74.2774 121.613 74.6424 118.753C75.0074 115.893 74.7722 112.988 73.9516 110.224L71.5416 102.114C71.5176 102.039 71.5141 101.959 71.5316 101.882C71.5491 101.806 71.5869 101.735 71.6411 101.678C71.6952 101.621 71.7637 101.579 71.8395 101.557C71.9152 101.536 71.9954 101.535 72.0716 101.554L81.0716 104.554C92.9375 107.242 105.226 107.494 117.192 105.294L128.472 100.794C128.092 101.794 127.922 101.884 127.802 102.354L126.422 108.044C124.703 114.988 125.803 122.33 129.482 128.464L132.002 132.654C133.232 134.714 132.792 136.644 129.792 137.894Z" fill="#4B4B4C"/>
<path d="M128.482 100.754C128.482 103.074 116.072 106.944 100.792 106.944C85.5115 106.944 71.5515 103.274 71.5515 100.944C71.5515 98.6144 85.5515 95.7944 100.822 95.7944C116.092 95.7944 128.482 98.4444 128.482 100.754Z" fill="#3D3D3D"/>
<path d="M147.482 134.695L131.742 136.695L131.792 132.325L146.102 130.635L147.482 134.695Z" fill="#595959"/>
<path opacity="0.83" d="M154.662 41.0444L44.6616 41.7044L77.4816 99.3044C77.9481 100.419 78.704 101.389 79.671 102.113C80.638 102.837 81.7809 103.29 82.9816 103.424L85.1916 103.674C95.0782 104.801 105.059 104.828 114.952 103.754L118.572 103.354C119.629 103.239 120.635 102.838 121.481 102.193C122.327 101.548 122.981 100.684 123.372 99.6944L154.662 41.0444Z" fill="#C1C1C1"/>
<path d="M154.662 39.4345C154.882 43.6545 129.592 49.6445 102.872 51.0445C76.1516 52.4445 44.7916 45.2145 44.6116 41.0445C44.4316 36.8745 64.1216 29.8645 100.252 29.0445C127.002 28.3845 154.432 35.2145 154.662 39.4345Z" fill="#E1E3E1"/>
<path d="M150.482 39.3046C150.692 43.3046 126.032 46.4546 100.652 47.7846C75.2717 49.1146 48.9417 45.0446 48.7317 41.0446C48.5217 37.0446 75.2617 32.5946 100.652 31.2646C126.042 29.9346 150.272 35.2946 150.482 39.3046Z" fill="#CECECE"/>
<path opacity="0.42" d="M73.2317 49.8245L85.5017 50.8745L96.9917 104.494L86.4617 103.774L73.2317 49.8245Z" fill="white"/>
<path opacity="0.23" d="M87.5015 105.925L96.5715 106.655L105.541 142.135L96.4115 142.255L87.5015 105.925Z" fill="white"/>
</svg>
