<svg xmlns="http://www.w3.org/2000/svg" viewBox="0 0 215.59 198.12"><defs><style>.cls-1{fill:#fff;}.cls-2{fill:#cecdcc;}.cls-3{fill:#b6b6b5;}.cls-4{fill:#9c9b9b;}.cls-5{fill:#e1e3e1;}</style></defs><g id="Ebene_2" data-name="Ebene 2"><g id="Ebene_1-2" data-name="Ebene 1"><rect class="cls-1" width="215.59" height="198.12"/><path class="cls-2" d="M66.32,96.61s3.2,66.86,13.92,65.31c0,0,5.4,4.23,25.21-3,14.94-5.44,54.64-17.71,65.68-42.79,0,0,5.66-9.11-19.55-30.46l-24.44-23"/><path class="cls-3" d="M130.74,149.23c-9.75,4.28-19.77,8-25.37,10-19.81,7.22-28,2.11-28,2.11-7.18-5.56-11.14-64.42-11.14-64.42L93.6,81.64"/><path class="cls-4" d="M144.76,57.23c-1.9,1.17-4.18,2.43-6.92,3.8l-.24.12C136.44,61.66,126,66.6,120.17,81c-5.53,13.6-29.06,14.78-34,14.88a5.48,5.48,0,0,1-1.51-.18c-2.41-.65-12.35-2.32-31.71,7-14.56,7-18.22,2.84-18.22-.16,0-1.77,2.06-2.23,3.56-3.18L61.49,84.51a5.48,5.48,0,0,0,.72-.55A54.08,54.08,0,0,0,73.22,70c4.12-8,26.25-13.2,30-12.44,2.6.54,23.25-8.56,37.25-12C146.39,44.11,150,54,144.76,57.23Z"/><path class="cls-5" d="M143.56,55.06c-1.9,1.17-4.18,2.44-6.92,3.81l-.24.11c-1.16.51-11.59,5.45-17.43,19.82C113.59,92,91.19,93.51,85.41,93.67a8.53,8.53,0,0,1-2.25-.24c-2.85-.68-12.76-1.91-31.42,7.07-14.56,7-17.13,4-17.13,1a5.22,5.22,0,0,1,2.47-4.36L60.29,82.34A5.41,5.41,0,0,0,61,81.8,54.27,54.27,0,0,0,72,67.86c4.12-8,23.48-13.13,30-12.44,6.14.65,23.48-6.67,37.47-10.11C145.41,43.84,148.77,51.86,143.56,55.06Z"/><ellipse class="cls-3" cx="93.51" cy="72.76" rx="33.14" ry="11.42" transform="translate(-21.99 46.33) rotate(-25)"/><path class="cls-5" d="M122.78,57.8c2.22,4.77-11.17,15-25,21.47S64.12,90.56,63.11,85.4C61.64,77.93,75.92,68.46,89.74,62S120.56,53,122.78,57.8Z"/></g></g></svg>