<svg fill-rule="nonzero" height="100px" viewBox="0,0,256,256" width="100px" xmlns="http://www.w3.org/2000/svg" xmlns:xlink="http://www.w3.org/1999/xlink"><g transform="translate(59.73333,59.73333) scale(0.53333,0.53333)"><g fill="#cdc2ac" fill-rule="nonzero" font-family="none" font-size="none" font-weight="none" stroke="none" stroke-dasharray="" stroke-dashoffset="0" stroke-linecap="butt" stroke-linejoin="miter" stroke-miterlimit="10" stroke-width="1" style="mix-blend-mode: normal" text-anchor="none"><path d="M128,356c-125.92092,0 -228,-102.07908 -228,-228v0c0,-125.92092 102.07908,-228 228,-228h0c125.92092,0 228,102.07908 228,228v0c0,125.92092 -102.07908,228 -228,228z" id="shape"></path></g><g fill="#ffffff" fill-rule="nonzero" font-family="none" font-size="none" font-weight="none" stroke="none" stroke-dasharray="" stroke-dashoffset="0" stroke-linecap="butt" stroke-linejoin="miter" stroke-miterlimit="10" stroke-width="1" style="mix-blend-mode: normal" text-anchor="none"><g transform="scale(8.53333,8.53333)"><path d="M21.0332,3.98828c-0.36561,-0.00932 -0.70715,0.18167 -0.89062,0.49805l-12,20c-0.19842,0.3069 -0.21365,0.69759 -0.0397,1.019c0.17394,0.32141 0.50935,0.52235 0.8748,0.52408c0.36545,0.00174 0.70276,-0.196 0.87975,-0.51574l12,-20c0.1881,-0.30446 0.19917,-0.68622 0.02905,-1.00107c-0.17012,-0.31485 -0.49552,-0.5148 -0.85327,-0.52432zM9,5c-2.19733,0 -4,1.80267 -4,4v2c0,2.19733 1.80267,4 4,4c0.124,-0.00212 0.24653,-0.02729 0.36133,-0.07422c2.02171,-0.19311 3.63867,-1.85632 3.63867,-3.92578v-2c0,-2.07092 -1.61885,-3.73665 -3.64258,-3.92773c-0.11371,-0.04579 -0.23486,-0.07028 -0.35742,-0.07227zM9,7c1.11667,0 2,0.88333 2,2v2c0,1.11667 -0.88333,2 -2,2c-1.11667,0 -2,-0.88333 -2,-2v-2c0,-1.11667 0.88333,-2 2,-2zM21,15c-2.19733,0 -4,1.80267 -4,4v2c0,2.07092 1.61885,3.73665 3.64258,3.92773c0.11371,0.04579 0.23486,0.07028 0.35742,0.07227c0.124,-0.00212 0.24653,-0.02729 0.36133,-0.07422c2.02171,-0.19311 3.63867,-1.85632 3.63867,-3.92578v-2c0,-2.19733 -1.80267,-4 -4,-4zM21,17c1.11667,0 2,0.88333 2,2v2c0,1.11667 -0.88333,2 -2,2c-1.11667,0 -2,-0.88333 -2,-2v-2c0,-1.11667 0.88333,-2 2,-2z"></path></g></g></g></svg>
