<svg xmlns="http://www.w3.org/2000/svg" xmlns:xlink="http://www.w3.org/1999/xlink" viewBox="0,0,256,256" width="80px" height="80px"><defs><clipPath id="clip-1"><path d="M-32,288v-320h320v320zM181.58871,161.66306l-18.73412,-18.73694c-2.04424,-2.03859 -4.91012,-3.20471 -7.86635,-3.20471c-0.98824,0 -1.968,0.12988 -2.90824,0.38118l-1.728,-1.728c4.06306,-6.33318 6.25976,-13.73082 6.25976,-21.29224c0,-21.79765 -17.73176,-39.52941 -39.52941,-39.52941c-21.79765,0 -39.52941,17.73176 -39.52941,39.52941c0,21.79765 17.73176,39.52941 39.52941,39.52941c7.56424,0 14.95906,-2.19671 21.29224,-6.25694l1.68847,1.68847c-0.25694,0.94871 -0.39247,1.93694 -0.39247,2.94776c0,2.97318 1.15765,5.76565 3.25553,7.86353l18.73412,18.73694c2.10918,2.10071 4.90165,3.25553 7.86635,3.25553c2.976,0 5.76847,-1.15765 7.86635,-3.264l4.19576,-4.19576c2.10071,-2.09506 3.25835,-4.88753 3.25835,-7.86071c0,-2.97318 -1.15765,-5.76565 -3.25835,-7.86353z" id="overlayBgMask" fill="none"></path></clipPath></defs><g transform="translate(32,32) scale(0.75,0.75)"><g fill="#cdc2ac" fill-rule="nonzero" stroke="none" stroke-width="1" stroke-linecap="butt" stroke-linejoin="miter" stroke-miterlimit="10" stroke-dasharray="" stroke-dashoffset="0" font-family="none" font-weight="none" font-size="none" text-anchor="none" style="mix-blend-mode: normal"><path d="M128,298.66667c-94.2566,0 -170.66667,-76.41007 -170.66667,-170.66667v0c0,-94.2566 76.41007,-170.66667 170.66667,-170.66667v0c94.2566,0 170.66667,76.41007 170.66667,170.66667v0c0,94.2566 -76.41007,170.66667 -170.66667,170.66667z" id="shape"></path></g><g clip-path="url(#clip-1)" fill="none" fill-rule="nonzero" stroke="none" stroke-width="1" stroke-linecap="butt" stroke-linejoin="miter" stroke-miterlimit="10" stroke-dasharray="" stroke-dashoffset="0" font-family="none" font-weight="none" font-size="none" text-anchor="none" style="mix-blend-mode: normal"><g transform="scale(3.2,3.2)" fill="#ffffff"><path d="M10,10v60h60v-60zM12,12h3c0,0.55078 0.44922,1 1,1c0.55078,0 1,-0.44922 1,-1h10c0,0.55078 0.44922,1 1,1c0.55078,0 1,-0.44922 1,-1h10c0,0.52344 0.40625,0.96094 0.92969,1c0.02344,0 0.04688,0 0.07031,0c0.55078,0 1,-0.44922 1,-1h10c0,0.52344 0.40625,0.96094 0.92969,1c0.02344,0 0.04688,0 0.07031,0c0.55078,0 1,-0.44922 1,-1h10c0,0.55078 0.44922,1 1,1c0.55078,0 1,-0.44922 1,-1h3v3c-0.55078,0 -1,0.44922 -1,1c0,0.55078 0.44922,1 1,1v10c-0.52344,0 -0.96094,0.40625 -1,0.92969c0,0.02344 0,0.04688 0,0.07031c0,0.52344 0.40625,0.96094 0.92969,1c0.02344,0 0.04688,0 0.07031,0v10c-0.52344,0 -0.96094,0.40625 -1,0.92969c0,0.02344 0,0.04688 0,0.07031c0,0.52344 0.40625,0.96094 0.92969,1c0.02344,0 0.04688,0 0.07031,0v10c-0.52344,0 -0.96094,0.40625 -1,0.92969c0,0.02344 0,0.04688 0,0.07031c0,0.52344 0.40625,0.96094 0.92969,1c0.02344,0 0.04688,0 0.07031,0v10c-0.51172,0 -0.94141,0.39063 -0.99609,0.90234c0,0.03125 -0.00391,0.0625 -0.00391,0.09766c0,0.51172 0.39063,0.94141 0.90234,0.99609c0.03125,0 0.0625,0.00391 0.09766,0.00391v3h-3c0,-0.55078 -0.44922,-1 -1,-1c-0.55078,0 -1,0.44922 -1,1h-10c0,-0.55078 -0.44922,-1 -1,-1c-0.52344,0 -0.96094,0.40625 -1,0.92969c0,0.02344 0,0.04688 0,0.07031h-10c0,-0.55078 -0.44922,-1 -1,-1c-0.52344,0 -0.96094,0.40625 -1,0.92969c0,0.02344 0,0.04688 0,0.07031h-10c0,-0.55078 -0.44922,-1 -1,-1c-0.55078,0 -1,0.44922 -1,1h-10c0,-0.55078 -0.44922,-1 -1,-1c-0.55078,0 -1,0.44922 -1,1h-3v-3c0.55078,0 1,-0.44922 1,-1c0,-0.03516 -0.00391,-0.06641 -0.00391,-0.09766c-0.05469,-0.51172 -0.48437,-0.90234 -0.99609,-0.90234v-10c0.55078,0 1,-0.44922 1,-1c0,-0.55078 -0.44922,-1 -1,-1v-10c0.55078,0 1,-0.44922 1,-1c0,-0.55078 -0.44922,-1 -1,-1v-10c0.55078,0 1,-0.44922 1,-1c0,-0.55078 -0.44922,-1 -1,-1v-10c0.55078,0 1,-0.44922 1,-1c0,-0.55078 -0.44922,-1 -1,-1zM16,15c-0.55078,0 -1,0.44922 -1,1c0,0.55078 0.44922,1 1,1c0.55078,0 1,-0.44922 1,-1c0,-0.55078 -0.44922,-1 -1,-1zM20,15c-0.55078,0 -1,0.44922 -1,1c0,0.55078 0.44922,1 1,1c0.55078,0 1,-0.44922 1,-1c0,-0.55078 -0.44922,-1 -1,-1zM24,15c-0.55078,0 -1,0.44922 -1,1c0,0.55078 0.44922,1 1,1c0.55078,0 1,-0.44922 1,-1c0,-0.55078 -0.44922,-1 -1,-1zM28,15c-0.55078,0 -1,0.44922 -1,1c0,0.55078 0.44922,1 1,1c0.55078,0 1,-0.44922 1,-1c0,-0.55078 -0.44922,-1 -1,-1zM32,15c-0.52344,0 -0.96094,0.40625 -1,0.92969c0,0.02344 0,0.04688 0,0.07031c0,0.52344 0.40625,0.96094 0.92969,1c0.02344,0 0.04688,0 0.07031,0c0.55078,0 1,-0.44922 1,-1c0,-0.55078 -0.44922,-1 -1,-1zM36,15c-0.55078,0 -1,0.44922 -1,1c0,0.55078 0.44922,1 1,1c0.55078,0 1,-0.44922 1,-1c0,-0.55078 -0.44922,-1 -1,-1zM40,15c-0.55078,0 -1,0.44922 -1,1c0,0.55078 0.44922,1 1,1c0.55078,0 1,-0.44922 1,-1c0,-0.55078 -0.44922,-1 -1,-1zM44,15c-0.55078,0 -1,0.44922 -1,1c0,0.55078 0.44922,1 1,1c0.55078,0 1,-0.44922 1,-1c0,-0.55078 -0.44922,-1 -1,-1zM48,15c-0.55078,0 -1,0.44922 -1,1c0,0.55078 0.44922,1 1,1c0.55078,0 1,-0.44922 1,-1c0,-0.55078 -0.44922,-1 -1,-1zM52,15c-0.55078,0 -1,0.44922 -1,1c0,0.55078 0.44922,1 1,1c0.55078,0 1,-0.44922 1,-1c0,-0.55078 -0.44922,-1 -1,-1zM56,15c-0.55078,0 -1,0.44922 -1,1c0,0.55078 0.44922,1 1,1c0.55078,0 1,-0.44922 1,-1c0,-0.55078 -0.44922,-1 -1,-1zM60,15c-0.52344,0 -0.96094,0.40625 -1,0.92969c0,0.02344 0,0.04688 0,0.07031c0,0.52344 0.40625,0.96094 0.92969,1c0.02344,0 0.04688,0 0.07031,0c0.55078,0 1,-0.44922 1,-1c0,-0.55078 -0.44922,-1 -1,-1zM64,15c-0.55078,0 -1,0.44922 -1,1c0,0.55078 0.44922,1 1,1c0.55078,0 1,-0.44922 1,-1c0,-0.55078 -0.44922,-1 -1,-1zM16,19c-0.55078,0 -1,0.44922 -1,1c0,0.55078 0.44922,1 1,1c0.55078,0 1,-0.44922 1,-1c0,-0.55078 -0.44922,-1 -1,-1zM28,19c-0.55078,0 -1,0.44922 -1,1c0,0.55078 0.44922,1 1,1c0.55078,0 1,-0.44922 1,-1c0,-0.55078 -0.44922,-1 -1,-1zM40,19c-0.52344,0 -0.96094,0.40625 -1,0.92969c0,0.02344 0,0.04688 0,0.07031c0,0.52344 0.40625,0.96094 0.92969,1c0.02344,0 0.04688,0 0.07031,0c0.55078,0 1,-0.44922 1,-1c0,-0.55078 -0.44922,-1 -1,-1zM52,19c-0.52344,0 -0.96094,0.40625 -1,0.92969c0,0.02344 0,0.04688 0,0.07031c0,0.52344 0.40625,0.96094 0.92969,1c0.02344,0 0.04688,0 0.07031,0c0.55078,0 1,-0.44922 1,-1c0,-0.55078 -0.44922,-1 -1,-1zM64,19c-0.52344,0 -0.96094,0.40625 -1,0.92969c0,0.02344 0,0.04688 0,0.07031c0,0.52344 0.40625,0.96094 0.92969,1c0.02344,0 0.04688,0 0.07031,0c0.55078,0 1,-0.44922 1,-1c0,-0.55078 -0.44922,-1 -1,-1zM16,23c-0.55078,0 -1,0.44922 -1,1c0,0.55078 0.44922,1 1,1c0.55078,0 1,-0.44922 1,-1c0,-0.55078 -0.44922,-1 -1,-1zM28,23c-0.55078,0 -1,0.44922 -1,1c0,0.55078 0.44922,1 1,1c0.55078,0 1,-0.44922 1,-1c0,-0.55078 -0.44922,-1 -1,-1zM40,23c-0.52344,0 -0.96094,0.40625 -1,0.92969c0,0.02344 0,0.04688 0,0.07031c0,0.52344 0.40625,0.96094 0.92969,1c0.02344,0 0.04688,0 0.07031,0c0.55078,0 1,-0.44922 1,-1c0,-0.55078 -0.44922,-1 -1,-1zM52,23c-0.52344,0 -0.96094,0.40625 -1,0.92969c0,0.02344 0,0.04688 0,0.07031c0,0.52344 0.40625,0.96094 0.92969,1c0.02344,0 0.04688,0 0.07031,0c0.55078,0 1,-0.44922 1,-1c0,-0.55078 -0.44922,-1 -1,-1zM64,23c-0.52344,0 -0.96094,0.40625 -1,0.92969c0,0.02344 0,0.04688 0,0.07031c0,0.52344 0.40625,0.96094 0.92969,1c0.02344,0 0.04688,0 0.07031,0c0.55078,0 1,-0.44922 1,-1c0,-0.55078 -0.44922,-1 -1,-1zM16,27c-0.55078,0 -1,0.44922 -1,1c0,0.55078 0.44922,1 1,1c0.55078,0 1,-0.44922 1,-1c0,-0.55078 -0.44922,-1 -1,-1zM20,27c-0.51172,0 -0.94141,0.39063 -0.99609,0.90234c0,0.03125 -0.00391,0.0625 -0.00391,0.09766c0,0.51172 0.39063,0.94141 0.90234,0.99609c0.03125,0 0.0625,0.00391 0.09766,0.00391c0.55078,0 1,-0.44922 1,-1c0,-0.55078 -0.44922,-1 -1,-1zM24,27c-0.55078,0 -1,0.44922 -1,1c0,0.55078 0.44922,1 1,1c0.55078,0 1,-0.44922 1,-1c0,-0.55078 -0.44922,-1 -1,-1zM28,27c-0.55078,0 -1,0.44922 -1,1c0,0.55078 0.44922,1 1,1c0.55078,0 1,-0.44922 1,-1c0,-0.55078 -0.44922,-1 -1,-1zM32,27c-0.52344,0 -0.96094,0.40625 -1,0.92969c0,0.02344 0,0.04688 0,0.07031c0,0.52344 0.40625,0.96094 0.92969,1c0.02344,0 0.04688,0 0.07031,0c0.55078,0 1,-0.44922 1,-1c0,-0.55078 -0.44922,-1 -1,-1zM36,27c-0.55078,0 -1,0.44922 -1,1c0,0.55078 0.44922,1 1,1c0.55078,0 1,-0.44922 1,-1c0,-0.55078 -0.44922,-1 -1,-1zM40,27c-0.55078,0 -1,0.44922 -1,1c0,0.55078 0.44922,1 1,1c0.55078,0 1,-0.44922 1,-1c0,-0.55078 -0.44922,-1 -1,-1zM44,27c-0.55078,0 -1,0.44922 -1,1c0,0.55078 0.44922,1 1,1c0.55078,0 1,-0.44922 1,-1c0,-0.55078 -0.44922,-1 -1,-1zM48,27c-0.52344,0 -0.96094,0.40625 -1,0.92969c0,0.02344 0,0.04688 0,0.07031c0,0.52344 0.40625,0.96094 0.92969,1c0.02344,0 0.04688,0 0.07031,0c0.55078,0 1,-0.44922 1,-1c0,-0.55078 -0.44922,-1 -1,-1zM52,27c-0.55078,0 -1,0.44922 -1,1c0,0.55078 0.44922,1 1,1c0.55078,0 1,-0.44922 1,-1c0,-0.55078 -0.44922,-1 -1,-1zM56,27c-0.55078,0 -1,0.44922 -1,1c0,0.55078 0.44922,1 1,1c0.55078,0 1,-0.44922 1,-1c0,-0.55078 -0.44922,-1 -1,-1zM60,27c-0.52344,0 -0.96094,0.40625 -1,0.92969c0,0.02344 0,0.04688 0,0.07031c0,0.52344 0.40625,0.96094 0.92969,1c0.02344,0 0.04688,0 0.07031,0c0.55078,0 1,-0.44922 1,-1c0,-0.55078 -0.44922,-1 -1,-1zM64,27c-0.55078,0 -1,0.44922 -1,1c0,0.55078 0.44922,1 1,1c0.55078,0 1,-0.44922 1,-1c0,-0.55078 -0.44922,-1 -1,-1zM16,31c-0.55078,0 -1,0.44922 -1,1c0,0.55078 0.44922,1 1,1c0.55078,0 1,-0.44922 1,-1c0,-0.55078 -0.44922,-1 -1,-1zM28,31c-0.55078,0 -1,0.44922 -1,1c0,0.55078 0.44922,1 1,1c0.55078,0 1,-0.44922 1,-1c0,-0.55078 -0.44922,-1 -1,-1zM40,31c-0.52344,0 -0.96094,0.40625 -1,0.92969c0,0.02344 0,0.04688 0,0.07031c0,0.52344 0.40625,0.96094 0.92969,1c0.02344,0 0.04688,0 0.07031,0c0.55078,0 1,-0.44922 1,-1c0,-0.55078 -0.44922,-1 -1,-1zM52,31c-0.52344,0 -0.96094,0.40625 -1,0.92969c0,0.02344 0,0.04688 0,0.07031c0,0.52344 0.40625,0.96094 0.92969,1c0.02344,0 0.04688,0 0.07031,0c0.55078,0 1,-0.44922 1,-1c0,-0.55078 -0.44922,-1 -1,-1zM64,31c-0.52344,0 -0.96094,0.40625 -1,0.92969c0,0.02344 0,0.04688 0,0.07031c0,0.52344 0.40625,0.96094 0.92969,1c0.02344,0 0.04688,0 0.07031,0c0.55078,0 1,-0.44922 1,-1c0,-0.55078 -0.44922,-1 -1,-1zM16,35c-0.55078,0 -1,0.44922 -1,1c0,0.55078 0.44922,1 1,1c0.55078,0 1,-0.44922 1,-1c0,-0.55078 -0.44922,-1 -1,-1zM28,35c-0.55078,0 -1,0.44922 -1,1c0,0.55078 0.44922,1 1,1c0.55078,0 1,-0.44922 1,-1c0,-0.55078 -0.44922,-1 -1,-1zM40,35c-0.55078,0 -1,0.44922 -1,1c0,0.55078 0.44922,1 1,1c0.55078,0 1,-0.44922 1,-1c0,-0.55078 -0.44922,-1 -1,-1zM52,35c-0.55078,0 -1,0.44922 -1,1c0,0.55078 0.44922,1 1,1c0.55078,0 1,-0.44922 1,-1c0,-0.55078 -0.44922,-1 -1,-1zM64,35c-0.55078,0 -1,0.44922 -1,1c0,0.55078 0.44922,1 1,1c0.55078,0 1,-0.44922 1,-1c0,-0.55078 -0.44922,-1 -1,-1zM16,39c-0.55078,0 -1,0.44922 -1,1c0,0.55078 0.44922,1 1,1c0.55078,0 1,-0.44922 1,-1c0,-0.55078 -0.44922,-1 -1,-1zM20,39c-0.52344,0 -0.96094,0.40625 -1,0.92969c0,0.02344 0,0.04688 0,0.07031c0,0.52344 0.40625,0.96094 0.92969,1c0.02344,0 0.04688,0 0.07031,0c0.55078,0 1,-0.44922 1,-1c0,-0.55078 -0.44922,-1 -1,-1zM24,39c-0.55078,0 -1,0.44922 -1,1c0,0.55078 0.44922,1 1,1c0.55078,0 1,-0.44922 1,-1c0,-0.55078 -0.44922,-1 -1,-1zM28,39c-0.55078,0 -1,0.44922 -1,1c0,0.55078 0.44922,1 1,1c0.55078,0 1,-0.44922 1,-1c0,-0.55078 -0.44922,-1 -1,-1zM32,39c-0.52344,0 -0.96094,0.40625 -1,0.92969c0,0.02344 0,0.04688 0,0.07031c0,0.52344 0.40625,0.96094 0.92969,1c0.02344,0 0.04688,0 0.07031,0c0.55078,0 1,-0.44922 1,-1c0,-0.55078 -0.44922,-1 -1,-1zM36,39c-0.55078,0 -1,0.44922 -1,1c0,0.55078 0.44922,1 1,1c0.55078,0 1,-0.44922 1,-1c0,-0.55078 -0.44922,-1 -1,-1zM40,39c-0.52344,0 -0.96094,0.40625 -1,0.92969c0,0.02344 0,0.04688 0,0.07031c0,0.52344 0.40625,0.96094 0.92969,1c0.02344,0 0.04688,0 0.07031,0c0.55078,0 1,-0.44922 1,-1c0,-0.55078 -0.44922,-1 -1,-1zM44,39c-0.55078,0 -1,0.44922 -1,1c0,0.55078 0.44922,1 1,1c0.55078,0 1,-0.44922 1,-1c0,-0.55078 -0.44922,-1 -1,-1zM48,39c-0.52344,0 -0.96094,0.40625 -1,0.92969c0,0.02344 0,0.04688 0,0.07031c0,0.52344 0.40625,0.96094 0.92969,1c0.02344,0 0.04688,0 0.07031,0c0.55078,0 1,-0.44922 1,-1c0,-0.55078 -0.44922,-1 -1,-1zM52,39c-0.55078,0 -1,0.44922 -1,1c0,0.55078 0.44922,1 1,1c0.55078,0 1,-0.44922 1,-1c0,-0.55078 -0.44922,-1 -1,-1zM56,39c-0.52344,0 -0.96094,0.40625 -1,0.92969c0,0.02344 0,0.04688 0,0.07031c0,0.52344 0.40625,0.96094 0.92969,1c0.02344,0 0.04688,0 0.07031,0c0.55078,0 1,-0.44922 1,-1c0,-0.55078 -0.44922,-1 -1,-1zM60,39c-0.52344,0 -0.96094,0.40625 -1,0.92969c0,0.02344 0,0.04688 0,0.07031c0,0.52344 0.40625,0.96094 0.92969,1c0.02344,0 0.04688,0 0.07031,0c0.55078,0 1,-0.44922 1,-1c0,-0.55078 -0.44922,-1 -1,-1zM64,39c-0.55078,0 -1,0.44922 -1,1c0,0.55078 0.44922,1 1,1c0.55078,0 1,-0.44922 1,-1c0,-0.55078 -0.44922,-1 -1,-1zM16,43c-0.55078,0 -1,0.44922 -1,1c0,0.55078 0.44922,1 1,1c0.55078,0 1,-0.44922 1,-1c0,-0.55078 -0.44922,-1 -1,-1zM28,43c-0.55078,0 -1,0.44922 -1,1c0,0.55078 0.44922,1 1,1c0.55078,0 1,-0.44922 1,-1c0,-0.55078 -0.44922,-1 -1,-1zM40,43c-0.55078,0 -1,0.44922 -1,1c0,0.55078 0.44922,1 1,1c0.55078,0 1,-0.44922 1,-1c0,-0.55078 -0.44922,-1 -1,-1zM52,43c-0.55078,0 -1,0.44922 -1,1c0,0.55078 0.44922,1 1,1c0.55078,0 1,-0.44922 1,-1c0,-0.55078 -0.44922,-1 -1,-1zM64,43c-0.55078,0 -1,0.44922 -1,1c0,0.55078 0.44922,1 1,1c0.55078,0 1,-0.44922 1,-1c0,-0.55078 -0.44922,-1 -1,-1zM16,47c-0.55078,0 -1,0.44922 -1,1c0,0.55078 0.44922,1 1,1c0.55078,0 1,-0.44922 1,-1c0,-0.55078 -0.44922,-1 -1,-1zM28,47c-0.55078,0 -1,0.44922 -1,1c0,0.55078 0.44922,1 1,1c0.55078,0 1,-0.44922 1,-1c0,-0.55078 -0.44922,-1 -1,-1zM40,47c-0.52344,0 -0.96094,0.40625 -1,0.92969c0,0.02344 0,0.04688 0,0.07031c0,0.52344 0.40625,0.96094 0.92969,1c0.02344,0 0.04688,0 0.07031,0c0.55078,0 1,-0.44922 1,-1c0,-0.55078 -0.44922,-1 -1,-1zM52,47c-0.52344,0 -0.96094,0.40625 -1,0.92969c0,0.02344 0,0.04688 0,0.07031c0,0.52344 0.40625,0.96094 0.92969,1c0.02344,0 0.04688,0 0.07031,0c0.55078,0 1,-0.44922 1,-1c0,-0.55078 -0.44922,-1 -1,-1zM64,47c-0.52344,0 -0.96094,0.40625 -1,0.92969c0,0.02344 0,0.04688 0,0.07031c0,0.52344 0.40625,0.96094 0.92969,1c0.02344,0 0.04688,0 0.07031,0c0.55078,0 1,-0.44922 1,-1c0,-0.55078 -0.44922,-1 -1,-1zM16,51c-0.55078,0 -1,0.44922 -1,1c0,0.55078 0.44922,1 1,1c0.55078,0 1,-0.44922 1,-1c0,-0.55078 -0.44922,-1 -1,-1zM20,51c-0.52344,0 -0.96094,0.40625 -1,0.92969c0,0.02344 0,0.04688 0,0.07031c0,0.52344 0.40625,0.96094 0.92969,1c0.02344,0 0.04688,0 0.07031,0c0.55078,0 1,-0.44922 1,-1c0,-0.55078 -0.44922,-1 -1,-1zM24,51c-0.55078,0 -1,0.44922 -1,1c0,0.55078 0.44922,1 1,1c0.55078,0 1,-0.44922 1,-1c0,-0.55078 -0.44922,-1 -1,-1zM28,51c-0.55078,0 -1,0.44922 -1,1c0,0.55078 0.44922,1 1,1c0.55078,0 1,-0.44922 1,-1c0,-0.55078 -0.44922,-1 -1,-1zM32,51c-0.52344,0 -0.96094,0.40625 -1,0.92969c0,0.02344 0,0.04688 0,0.07031c0,0.52344 0.40625,0.96094 0.92969,1c0.02344,0 0.04688,0 0.07031,0c0.55078,0 1,-0.44922 1,-1c0,-0.55078 -0.44922,-1 -1,-1zM36,51c-0.55078,0 -1,0.44922 -1,1c0,0.55078 0.44922,1 1,1c0.55078,0 1,-0.44922 1,-1c0,-0.55078 -0.44922,-1 -1,-1zM40,51c-0.55078,0 -1,0.44922 -1,1c0,0.55078 0.44922,1 1,1c0.55078,0 1,-0.44922 1,-1c0,-0.55078 -0.44922,-1 -1,-1zM44,51c-0.55078,0 -1,0.44922 -1,1c0,0.55078 0.44922,1 1,1c0.55078,0 1,-0.44922 1,-1c0,-0.55078 -0.44922,-1 -1,-1zM48,51c-0.52344,0 -0.96094,0.40625 -1,0.92969c0,0.02344 0,0.04688 0,0.07031c0,0.52344 0.40625,0.96094 0.92969,1c0.02344,0 0.04688,0 0.07031,0c0.55078,0 1,-0.44922 1,-1c0,-0.55078 -0.44922,-1 -1,-1zM52,51c-0.55078,0 -1,0.44922 -1,1c0,0.55078 0.44922,1 1,1c0.55078,0 1,-0.44922 1,-1c0,-0.55078 -0.44922,-1 -1,-1zM56,51c-0.55078,0 -1,0.44922 -1,1c0,0.55078 0.44922,1 1,1c0.55078,0 1,-0.44922 1,-1c0,-0.55078 -0.44922,-1 -1,-1zM60,51c-0.52344,0 -0.96094,0.40625 -1,0.92969c0,0.02344 0,0.04688 0,0.07031c0,0.52344 0.40625,0.96094 0.92969,1c0.02344,0 0.04688,0 0.07031,0c0.55078,0 1,-0.44922 1,-1c0,-0.55078 -0.44922,-1 -1,-1zM64,51c-0.55078,0 -1,0.44922 -1,1c0,0.55078 0.44922,1 1,1c0.55078,0 1,-0.44922 1,-1c0,-0.55078 -0.44922,-1 -1,-1zM16,55c-0.55078,0 -1,0.44922 -1,1c0,0.55078 0.44922,1 1,1c0.55078,0 1,-0.44922 1,-1c0,-0.55078 -0.44922,-1 -1,-1zM28,55c-0.55078,0 -1,0.44922 -1,1c0,0.55078 0.44922,1 1,1c0.55078,0 1,-0.44922 1,-1c0,-0.55078 -0.44922,-1 -1,-1zM40,55c-0.52344,0 -0.96094,0.40625 -1,0.92969c0,0.02344 0,0.04688 0,0.07031c0,0.52344 0.40625,0.96094 0.92969,1c0.02344,0 0.04688,0 0.07031,0c0.55078,0 1,-0.44922 1,-1c0,-0.55078 -0.44922,-1 -1,-1zM52,55c-0.52344,0 -0.96094,0.40625 -1,0.92969c0,0.02344 0,0.04688 0,0.07031c0,0.52344 0.40625,0.96094 0.92969,1c0.02344,0 0.04688,0 0.07031,0c0.55078,0 1,-0.44922 1,-1c0,-0.55078 -0.44922,-1 -1,-1zM64,55c-0.52344,0 -0.96094,0.40625 -1,0.92969c0,0.02344 0,0.04688 0,0.07031c0,0.52344 0.40625,0.96094 0.92969,1c0.02344,0 0.04688,0 0.07031,0c0.55078,0 1,-0.44922 1,-1c0,-0.55078 -0.44922,-1 -1,-1zM16,59c-0.55078,0 -1,0.44922 -1,1c0,0.55078 0.44922,1 1,1c0.55078,0 1,-0.44922 1,-1c0,-0.55078 -0.44922,-1 -1,-1zM28,59c-0.55078,0 -1,0.44922 -1,1c0,0.55078 0.44922,1 1,1c0.55078,0 1,-0.44922 1,-1c0,-0.55078 -0.44922,-1 -1,-1zM40,59c-0.52344,0 -0.96094,0.40625 -1,0.92969c0,0.02344 0,0.04688 0,0.07031c0,0.52344 0.40625,0.96094 0.92969,1c0.02344,0 0.04688,0 0.07031,0c0.55078,0 1,-0.44922 1,-1c0,-0.55078 -0.44922,-1 -1,-1zM52,59c-0.52344,0 -0.96094,0.40625 -1,0.92969c0,0.02344 0,0.04688 0,0.07031c0,0.52344 0.40625,0.96094 0.92969,1c0.02344,0 0.04688,0 0.07031,0c0.55078,0 1,-0.44922 1,-1c0,-0.55078 -0.44922,-1 -1,-1zM64,59c-0.55078,0 -1,0.44922 -1,1c0,0.55078 0.44922,1 1,1c0.55078,0 1,-0.44922 1,-1c0,-0.55078 -0.44922,-1 -1,-1zM16,63c-0.55078,0 -1,0.44922 -1,1c0,0.55078 0.44922,1 1,1c0.55078,0 1,-0.44922 1,-1c0,-0.55078 -0.44922,-1 -1,-1zM20,63c-0.55078,0 -1,0.44922 -1,1c0,0.55078 0.44922,1 1,1c0.55078,0 1,-0.44922 1,-1c0,-0.55078 -0.44922,-1 -1,-1zM24,63c-0.55078,0 -1,0.44922 -1,1c0,0.55078 0.44922,1 1,1c0.55078,0 1,-0.44922 1,-1c0,-0.55078 -0.44922,-1 -1,-1zM28,63c-0.55078,0 -1,0.44922 -1,1c0,0.55078 0.44922,1 1,1c0.55078,0 1,-0.44922 1,-1c0,-0.55078 -0.44922,-1 -1,-1zM32,63c-0.52344,0 -0.96094,0.40625 -1,0.92969c0,0.02344 0,0.04688 0,0.07031c0,0.52344 0.40625,0.96094 0.92969,1c0.02344,0 0.04688,0 0.07031,0c0.55078,0 1,-0.44922 1,-1c0,-0.55078 -0.44922,-1 -1,-1zM36,63c-0.55078,0 -1,0.44922 -1,1c0,0.55078 0.44922,1 1,1c0.55078,0 1,-0.44922 1,-1c0,-0.55078 -0.44922,-1 -1,-1zM40,63c-0.55078,0 -1,0.44922 -1,1c0,0.55078 0.44922,1 1,1c0.55078,0 1,-0.44922 1,-1c0,-0.55078 -0.44922,-1 -1,-1zM44,63c-0.55078,0 -1,0.44922 -1,1c0,0.55078 0.44922,1 1,1c0.55078,0 1,-0.44922 1,-1c0,-0.55078 -0.44922,-1 -1,-1zM48,63c-0.52344,0 -0.96094,0.40625 -1,0.92969c0,0.02344 0,0.04688 0,0.07031c0,0.52344 0.40625,0.96094 0.92969,1c0.02344,0 0.04688,0 0.07031,0c0.55078,0 1,-0.44922 1,-1c0,-0.55078 -0.44922,-1 -1,-1zM52,63c-0.55078,0 -1,0.44922 -1,1c0,0.55078 0.44922,1 1,1c0.55078,0 1,-0.44922 1,-1c0,-0.55078 -0.44922,-1 -1,-1zM56,63c-0.55078,0 -1,0.44922 -1,1c0,0.55078 0.44922,1 1,1c0.55078,0 1,-0.44922 1,-1c0,-0.55078 -0.44922,-1 -1,-1zM60,63c-0.52344,0 -0.96094,0.40625 -1,0.92969c0,0.02344 0,0.04688 0,0.07031c0,0.52344 0.40625,0.96094 0.92969,1c0.02344,0 0.04688,0 0.07031,0c0.55078,0 1,-0.44922 1,-1c0,-0.55078 -0.44922,-1 -1,-1zM64,63c-0.55078,0 -1,0.44922 -1,1c0,0.55078 0.44922,1 1,1c0.55078,0 1,-0.44922 1,-1c0,-0.55078 -0.44922,-1 -1,-1z"></path></g></g><g fill="#ffffff" fill-rule="nonzero" stroke="none" stroke-width="1" stroke-linecap="butt" stroke-linejoin="miter" stroke-miterlimit="10" stroke-dasharray="" stroke-dashoffset="0" font-family="none" font-weight="none" font-size="none" text-anchor="none" style="mix-blend-mode: normal"><g transform="translate(83.20124,83.2) scale(2.82353,2.82353)" id="overlay"><path d="M33.433,29.204l-6.636,-6.636c-0.734,-0.732 -2.011,-0.732 -2.741,0l-0.037,0.037l-2.864,-2.864c1.771,-2.092 2.845,-4.792 2.845,-7.741c0,-6.617 -5.383,-12 -12,-12c-6.617,0 -12,5.383 -12,12c0,6.617 5.383,12 12,12c2.949,0 5.649,-1.074 7.741,-2.845l2.864,2.864l-0.037,0.037c-0.756,0.755 -0.756,1.985 0,2.741l6.636,6.636c0.366,0.366 0.853,0.567 1.37,0.567c0.517,0 1.005,-0.202 1.37,-0.568l1.488,-1.488c0.756,-0.755 0.756,-1.985 0.001,-2.74zM12,22c-5.514,0 -10,-4.486 -10,-10c0,-5.514 4.486,-10 10,-10c5.514,0 10,4.486 10,10c0,5.514 -4.486,10 -10,10zM30.617,32.018l-6.593,-6.593l1.358,-1.443l6.636,6.548z"></path></g></g></g></svg>