<svg xmlns="http://www.w3.org/2000/svg" viewBox="0 0 215.59 198.12"><defs><style>.cls-1,.cls-10,.cls-11,.cls-12{fill:#fff;}.cls-2{fill:#777;}.cls-3{fill:#9c9b9b;isolation:isolate;opacity:0.26;}.cls-4{fill:#999;}.cls-5{fill:#efefef;}.cls-6{fill:#b6b6b5;}.cls-7{fill:#cfd0d1;}.cls-8{fill:#9f8c6f;}.cls-9{fill:#ad987b;}.cls-10{opacity:0.34;}.cls-11{opacity:0.4;}.cls-12{opacity:0.57;}</style></defs><g id="Ebene_2" data-name="Ebene 2"><g id="Ebene_1-2" data-name="Ebene 1"><rect class="cls-1" width="215.59" height="198.12"/><rect class="cls-2" x="98.09" y="4.57" width="50.49" height="15.28" rx="2.78"/><path class="cls-3" d="M99.86,19.85h46.73a0,0,0,0,1,0,0V66.5a5.84,5.84,0,0,1-5.84,5.84H104.59a4.73,4.73,0,0,1-4.73-4.73V19.85A0,0,0,0,1,99.86,19.85Z"/><rect class="cls-4" x="115.58" y="19.85" width="16.17" height="22.15"/><polygon class="cls-3" points="137.28 77.65 109.38 77.65 104.95 72.33 142.6 72.33 137.28 77.65"/><path class="cls-2" d="M109.38,77.65h27.9a0,0,0,0,1,0,0V81.3a1.88,1.88,0,0,1-1.88,1.88H110.86a1.48,1.48,0,0,1-1.48-1.48V77.65A0,0,0,0,1,109.38,77.65Z"/><path class="cls-5" d="M117.13,95.81h11.74a0,0,0,0,1,0,0v43.51a2.55,2.55,0,0,1-2.55,2.55h-6.74a2.44,2.44,0,0,1-2.44-2.44V95.81A0,0,0,0,1,117.13,95.81Z"/><rect class="cls-6" x="55.35" y="187.49" width="96.56" height="8.19" rx="2.07"/><polygon class="cls-7" points="141.94 187.49 104.95 187.49 100.08 157.38 145.9 157.38 141.94 187.49"/><polyline class="cls-8" points="76.76 149.91 71.83 186.83 60.28 186.83 55.3 149.91"/><polyline class="cls-9" points="55.3 149.91 59.73 112.27 71.5 112.1 76.76 149.91"/><path class="cls-6" d="M65.18,87.24h4a0,0,0,0,1,0,0v24.85a0,0,0,0,1,0,0H62.22a0,0,0,0,1,0,0V90.21A3,3,0,0,1,65.18,87.24Z"/><path class="cls-6" d="M65.27,87.24h41.89a0,0,0,0,1,0,0v6.32a0,0,0,0,1,0,0H62.22a0,0,0,0,1,0,0V90.3A3.05,3.05,0,0,1,65.27,87.24Z"/><circle class="cls-3" cx="123" cy="122.79" r="28.31"/><rect class="cls-6" x="107.17" y="83.19" width="31.67" height="12.62" rx="2.47"/><rect class="cls-10" x="109.38" y="157.37" width="9.64" height="30.12"/><rect class="cls-11" x="105.43" y="19.85" width="4.75" height="52.49"/><rect class="cls-11" x="104.21" y="4.57" width="4.21" height="15.28"/><path class="cls-12" d="M106.05,100.11s-12.21,14.54-4.44,41.23l2.6,2.62s-4.88-25.67,6-46.42"/></g></g></svg>