<svg width="200" height="200" viewBox="0 0 200 200" fill="none" xmlns="http://www.w3.org/2000/svg">
<path d="M122.55 30.6399H78.2197C78.2197 30.6399 78.8297 25.8599 81.0297 25.3099C83.2297 24.7599 116.42 25.0599 118.77 25.3099C121.12 25.5599 122.55 30.6399 122.55 30.6399Z" fill="#B5B5B5"/>
<path d="M99.83 39.92C123.484 39.92 142.66 37.471 142.66 34.45C142.66 31.429 123.484 28.98 99.83 28.98C76.1756 28.98 57 31.429 57 34.45C57 37.471 76.1756 39.92 99.83 39.92Z" fill="#CDCDCD"/>
<path d="M84.3798 115.57V170.57H115.27V115.57C115.27 109.95 122.9 108.15 122.9 108.15V102.33H76.7598V108.15C76.7598 108.15 84.3798 109.95 84.3798 115.57Z" fill="#E1E3E2"/>
<path d="M99.9896 174.32H123.17V169.22L115.54 165.82H99.9896H84.4396L76.8096 169.22V174.32H99.9896Z" fill="#B5B5B5"/>
<path d="M75.3997 106.04H124.57C125.757 106.04 126.72 105.077 126.72 103.89L126.72 34.7698C126.72 33.5824 125.757 32.6198 124.57 32.6198H75.3997C74.2123 32.6198 73.2497 33.5824 73.2497 34.7698V103.89C73.2497 105.077 74.2123 106.04 75.3997 106.04Z" fill="#B5B5B5"/>
<path d="M124.57 106.04H106.02L106.02 32.6198H124.57C124.852 32.6198 125.132 32.6754 125.392 32.7835C125.653 32.8915 125.89 33.0499 126.09 33.2495C126.29 33.4492 126.448 33.6862 126.556 33.947C126.664 34.2079 126.72 34.4874 126.72 34.7698L126.72 103.89C126.72 104.46 126.493 105.007 126.09 105.41C125.687 105.813 125.14 106.04 124.57 106.04Z" fill="#CDCDCD"/>
<path d="M91.4903 54.91C91.4883 54.3296 91.6587 53.7617 91.9799 53.2784C92.3011 52.795 92.7586 52.4179 93.2944 52.1949C93.8302 51.9719 94.4201 51.913 94.9894 52.0258C95.5587 52.1385 96.0817 52.4178 96.4921 52.8281C96.9024 53.2385 97.1817 53.7615 97.2944 54.3308C97.4072 54.9001 97.3483 55.4901 97.1253 56.0258C96.9023 56.5616 96.5252 57.0191 96.0418 57.3403C95.5585 57.6615 94.9906 57.8319 94.4103 57.83C93.6366 57.8273 92.8954 57.5188 92.3484 56.9718C91.8014 56.4248 91.4929 55.6836 91.4903 54.91Z" fill="#B88265"/>
<path d="M91.4903 69.3299C91.4923 68.7504 91.6661 68.1845 91.9897 67.7038C92.3133 67.223 92.7721 66.8491 93.3083 66.6291C93.8444 66.4092 94.4337 66.3532 95.0017 66.4682C95.5697 66.5832 96.0908 66.864 96.4992 67.2752C96.9075 67.6863 97.1848 68.2094 97.2959 68.7781C97.407 69.3468 97.347 69.9358 97.1234 70.4704C96.8998 71.005 96.5227 71.4613 96.0398 71.7817C95.5569 72.102 94.9898 72.2719 94.4103 72.2699C94.0252 72.2699 93.6438 72.1937 93.2882 72.0457C92.9327 71.8977 92.6099 71.6809 92.3384 71.4076C92.067 71.1343 91.8524 70.8101 91.7068 70.4535C91.5612 70.0969 91.4877 69.715 91.4903 69.3299Z" fill="#B88265"/>
<path d="M91.4903 83.7498C91.4903 83.1699 91.6624 82.603 91.9848 82.1209C92.3071 81.6389 92.7653 81.2634 93.3013 81.0419C93.8373 80.8204 94.4269 80.763 94.9956 80.8769C95.5642 80.9907 96.0862 81.2708 96.4956 81.6815C96.905 82.0923 97.1832 82.6153 97.2952 83.1843C97.4071 83.7534 97.3476 84.3428 97.1243 84.878C96.901 85.4132 96.5239 85.8701 96.0408 86.1909C95.5576 86.5116 94.9902 86.6818 94.4103 86.6798C94.026 86.6798 93.6454 86.604 93.2905 86.4566C92.9356 86.3092 92.6132 86.0932 92.342 85.821C92.0707 85.5488 91.8558 85.2257 91.7096 84.8703C91.5635 84.5149 91.4889 84.1341 91.4903 83.7498Z" fill="#B88265"/>
<path d="M57 34.76C57 31.57 76.17 28.98 99.83 28.98C123.49 28.98 142.66 31.57 142.66 34.76" fill="#E1E3E2"/>
</svg>
