<svg xmlns="http://www.w3.org/2000/svg" viewBox="0 0 215.59 198.12"><defs><style>.cls-1{fill:#fff;}.cls-2{fill:#9c9b9b;}.cls-3{fill:#efefef;isolation:isolate;}.cls-4{fill:#d0d0cf;}.cls-5{fill:#cecdcc;}.cls-6{fill:#e1e3e1;}.cls-7{fill:#b78265;}</style></defs><g id="Ebene_2" data-name="Ebene 2"><g id="Ebene_1-2" data-name="Ebene 1"><rect class="cls-1" width="215.59" height="198.12"/><path class="cls-2" d="M47.17,158.88l-.26,7.57s67.41,2.66,68.52,3.15c0,0-.26,1,0,1.15s4.58,1.51,4.45,2.18,41.18,4,41.18,4l32.81.49,4.72-4.27a492.42,492.42,0,0,0-75.06-6.66l-12.94-2L62.87,160.3,49.8,158.88Z"/><path class="cls-3" d="M204.86,177.38s3.21-8.21-29.51-9S46.91,157.81,46.91,157.81a35.69,35.69,0,0,0,0,3.74c.12,1.42,15.37,1.86,15.37,1.86s-.3-2.07,2.49-2,50.69,4.15,50.69,4.15a2.32,2.32,0,0,1,1,2.84s70.38,2.44,74.65,3.62a17.39,17.39,0,0,1,7.29,4.51Z"/><path class="cls-4" d="M16.27,158.88l2.25-13.19s18,11.36,30.12,12.3l-.41,5.56Z"/><path class="cls-5" d="M92.16,18.68s11.15-10,24.55,5.58-11.39,9.48-11.39,9.48a26,26,0,0,0-12,.12C87.3,35.52,92.16,18.68,92.16,18.68Z"/><path class="cls-3" d="M102.18,36.06V31.43l9.65-14.94s77.84,43.33,97.26,94.85l0,.14a9.4,9.4,0,0,1,1.48,4.26c0,2-4.38,5.52-5.27,5.46S164.79,58.91,115,38C115,38,107.93,35.06,102.18,36.06Z"/><path class="cls-3" d="M74.43,21.12S51.84,16,33.34,71.1s-14.82,74.59-14.82,74.59L39,158.26h9.6s5.46-33,22.65-44.35c0,0,2.49-2.61,2.25-5.46s-16.6-14.58-16.6-14.58,7.24-52.65,17.49-59.06c0,0,7.1-.83,8.5-2.49S74.43,21.12,74.43,21.12Z"/><path class="cls-5" d="M11.82,162.88c-.09.27-1.33,12.81,0,13.43s134.12,15.21,193.17,5c0,0,1.69-4.18-.89-6.58S115.61,181,12.18,162.88"/><path class="cls-3" d="M16.27,158.88s40,5.42,45.71,7.29L114,174s-70.11-4-102.31-10.95C11.73,163.06,11.11,161.55,16.27,158.88Z"/><path class="cls-6" d="M107.22,15.42c.42.2-10.91,9.49-11,10.68a5.07,5.07,0,0,0,2.55,4.09s1.84,5,1.07,6.4a17,17,0,0,1-9.19,6c-5.81,1.3-9-3.62-6.46-8.18,0,0,0-2.85-3.21-2.14s-6.7,1.31-8.36-5.16,13.4-12.27,13.4-12.27S97.26,10.8,107.22,15.42Z"/><path class="cls-6" d="M78.51,41.72h24.56a4,4,0,0,1,4,4V57.38a0,0,0,0,1,0,0H76.17a0,0,0,0,1,0,0V44.07A2.35,2.35,0,0,1,78.51,41.72Z"/><rect class="cls-2" x="73.77" y="56.9" width="35.75" height="23.83" rx="3.43"/><rect class="cls-6" x="75.72" y="80.38" width="32.19" height="4.62" rx="0.92"/><polygon class="cls-7" points="107.12 85 76.97 85 73.94 93.72 109.7 93.72 107.12 85"/><path class="cls-6" d="M52,94.22l-3.38,15.12s3.38,3,27.22-1.07c0,0,27.57-.35,34.32-3.55s5.39-2,6.08-5.87-1.45-5.7-1.45-5.7Z"/><circle class="cls-2" cx="89.68" cy="35.87" r="3.16"/><circle class="cls-2" cx="79.33" cy="26.26" r="3.16"/></g></g></svg>