<svg xmlns="http://www.w3.org/2000/svg" width="40" height="40" viewBox="0 0 40 40">
  <g id="Gruppe_112" data-name="Gruppe 112" transform="translate(376.333 657.667)">
    <g id="Gruppe_8" data-name="Gruppe 8" transform="translate(-963.333 -976.667) rotate(180)">
      <g id="bg" transform="translate(-627 -359)" fill="#fff">
        <path d="M 19.99999809265137 39 C 17.43457794189453 39 14.94641780853271 38.49777984619141 12.60464763641357 37.50729751586914 C 10.34225845336914 36.55038833618164 8.31021785736084 35.18027877807617 6.564968109130859 33.43502807617188 C 4.819717884063721 31.68977737426758 3.449608087539673 29.65773773193359 2.492698192596436 27.39534759521484 C 1.502218127250671 25.0535774230957 0.9999980926513672 22.5654182434082 0.9999980926513672 19.99999809265137 C 0.9999980926513672 17.43457794189453 1.502218127250671 14.94641780853271 2.492698192596436 12.60464763641357 C 3.449608087539673 10.34225845336914 4.819717884063721 8.31021785736084 6.564968109130859 6.564968109130859 C 8.31021785736084 4.819717884063721 10.34225845336914 3.449608087539673 12.60464763641357 2.492698192596436 C 14.94641780853271 1.502218127250671 17.43457794189453 0.9999980926513672 19.99999809265137 0.9999980926513672 C 22.5654182434082 0.9999980926513672 25.0535774230957 1.502218127250671 27.39534759521484 2.492698192596436 C 29.65773773193359 3.449608087539673 31.68977737426758 4.819717884063721 33.43502807617188 6.564968109130859 C 35.18027877807617 8.31021785736084 36.55038833618164 10.34225845336914 37.50729751586914 12.60464763641357 C 38.49777984619141 14.94641780853271 39 17.43457794189453 39 19.99999809265137 C 39 22.5654182434082 38.49777984619141 25.0535774230957 37.50729751586914 27.39534759521484 C 36.55038833618164 29.65773773193359 35.18027877807617 31.68977737426758 33.43502807617188 33.43502807617188 C 31.68977737426758 35.18027877807617 29.65773773193359 36.55038833618164 27.39534759521484 37.50729751586914 C 25.0535774230957 38.49777984619141 22.5654182434082 39 19.99999809265137 39 Z" stroke="none"/>
        <path d="M 19.99999809265137 1.999996185302734 C 15.1920280456543 1.999996185302734 10.67182731628418 3.872329711914062 7.272079467773438 7.272079467773438 C 3.872329711914062 10.67182731628418 1.999996185302734 15.1920280456543 1.999996185302734 19.99999809265137 C 1.999996185302734 24.80796813964844 3.872329711914062 29.32816696166992 7.272079467773438 32.7279167175293 C 10.67182731628418 36.12766647338867 15.1920280456543 38 19.99999809265137 38 C 24.80796813964844 38 29.32816696166992 36.12766647338867 32.7279167175293 32.7279167175293 C 36.12766647338867 29.32816696166992 38 24.80796813964844 38 19.99999809265137 C 38 15.1920280456543 36.12766647338867 10.67182731628418 32.7279167175293 7.272079467773438 C 29.32816696166992 3.872329711914062 24.80796813964844 1.999996185302734 19.99999809265137 1.999996185302734 M 19.99999809265137 -3.814697265625e-06 C 31.04568862915039 -3.814697265625e-06 40 8.954307556152344 40 19.99999809265137 C 40 31.04568862915039 31.04568862915039 40 19.99999809265137 40 C 8.954307556152344 40 -3.814697265625e-06 31.04568862915039 -3.814697265625e-06 19.99999809265137 C -3.814697265625e-06 8.954307556152344 8.954307556152344 -3.814697265625e-06 19.99999809265137 -3.814697265625e-06 Z" stroke="none" fill="#cdc2ac"/>
      </g>
    </g>
    <path id="icons8-reboot" d="M11.123,2a9.123,9.123,0,1,0,9.123,9.123H18.659a7.539,7.539,0,1,1-2.273-5.392l-.9,1.029,3.57.4-.793-3.57-.832.951A9.093,9.093,0,0,0,11.123,2Z" transform="matrix(0.602, -0.799, 0.799, 0.602, -371.454, -635.933)" fill="#cdc2ac"/>
  </g>
</svg>
