<svg xmlns="http://www.w3.org/2000/svg" viewBox="0 0 215.59 198.12"><defs><style>.cls-1{fill:#fff;}.cls-2,.cls-9{fill:none;}.cls-3{fill:#b5b5b5;}.cls-4{fill:#e1e3e2;}.cls-5{fill:#cdcdcd;}.cls-6{fill:#cecece;}.cls-7{fill:#b88265;}.cls-8{fill:#9f8c6f;}.cls-9{stroke:#4c2f3a;stroke-linecap:round;stroke-miterlimit:10;}</style></defs><g id="Ebene_2" data-name="Ebene 2"><g id="Ebene_1-2" data-name="Ebene 1"><g id="Rechteck_2318" data-name="Rechteck 2318"><rect class="cls-1" width="215.59" height="198.12"/><rect class="cls-2" x="0.29" y="0.38" width="215.02" height="197.37"/></g><g id="Chemex"><path class="cls-3" d="M139.42,26.89H73.73a1.5,1.5,0,0,1-1.29-.75l-4.28-7.58a1.48,1.48,0,0,1,1.29-2.21l74.38.1a1.48,1.48,0,0,1,1.27,2.23l-4.4,7.48A1.49,1.49,0,0,1,139.42,26.89Z"/><path class="cls-4" d="M62.6,27l92-.6a1.65,1.65,0,0,1,1.61,2.1c-3.35,12-19.84,71.07-19.8,72.37s20.22,63.64,20.22,63.64,5.74,16.9-7.91,17.19-39.62-.28-39.62-.28-36.86,0-40.19-.67c-2.9-.6-8.38-6.21-7-13.48,1-6.61,17.05-60,18.7-65.52a1.66,1.66,0,0,0,0-.91L61,29.08A1.66,1.66,0,0,1,62.6,27Z"/><path class="cls-5" d="M81,102l-20-72.67A1.84,1.84,0,0,1,62.85,27l29.57-.2a1.85,1.85,0,0,1,1.83,1.57l11.21,73"/><path class="cls-6" d="M105.46,101.44l-24.74-.22s-17.81,59-18.84,66c-1.36,7.27,4.12,12.88,7,13.48,3.33.66,18.89.67,18.89.67"/><path class="cls-7" d="M138.75,99.66H77a3.75,3.75,0,0,1-3.6-2.72L69.53,83.35a3.74,3.74,0,0,1,3.61-4.75l69.56.17a3.74,3.74,0,0,1,3.58,4.8L142.33,97A3.72,3.72,0,0,1,138.75,99.66Z"/><path class="cls-8" d="M138,99.66H77.75a4.77,4.77,0,0,0-4.59,3.48l-3.25,11.52a4.77,4.77,0,0,0,4.6,6.07l66.82-.17a4.77,4.77,0,0,0,4.56-6.12l-3.34-11.35A4.78,4.78,0,0,0,138,99.66Z"/><path class="cls-9" d="M74.67,99.83c1.93.3,66.22,0,66.22,0"/></g></g></g></svg>