<svg xmlns="http://www.w3.org/2000/svg" width="218.255" height="196" viewBox="0 0 218.255 196">
  <g id="Gruppe_202" data-name="Gruppe 202" transform="translate(-84 -125)">
    <circle id="Ellipse_419" data-name="Ellipse 419" cx="98" cy="98" r="98" transform="translate(84 125)" fill="#ff5957"
            opacity="0.494"/>
    <g id="Gruppe_172" data-name="Gruppe 172" transform="translate(-177.14 -224.912)">
      <path id="Pfad_1373" data-name="Pfad 1373" d="M318.078,443.506H276.843l-3.645-6.448,48.639.061Z"
            transform="translate(-4.266 0)" fill="#643e4b"/>
      <path id="Pfad_1374" data-name="Pfad 1374"
            d="M264.978,450.188l58.955-.386s-12.5,44.689-12.475,45.569,12.374,38.938,12.374,38.938,3.507,10.335-4.845,10.513-24.239-.169-24.239-.169-22.548,0-24.587-.41c-1.774-.367-5.124-3.8-4.293-8.244.627-4.262,11.527-40.363,11.527-40.363Z"
            transform="translate(0 -6.614)" fill="#97485c"/>
      <path id="Pfad_1375" data-name="Pfad 1375" d="M277.579,496.336l-12.6-45.877,20.534-.134,7,45.652"
            transform="translate(0 -6.885)" fill="#7f445c"/>
      <path id="Pfad_1376" data-name="Pfad 1376"
            d="M293.322,545.125l-15.131-.134s-10.9,36.1-11.527,40.363c-.831,4.448,2.52,7.877,4.293,8.244,2.04.406,11.557.411,11.557.411"
            transform="translate(-0.807 -56.012)" fill="#7f445c"/>
      <path id="Pfad_1377" data-name="Pfad 1377" d="M290.767,544.991" transform="translate(-13.383 -56.012)"
            fill="#7f445c"/>
      <path id="Pfad_1378" data-name="Pfad 1378" d="M319.7,529.1H278.467l-3.645-12.9,48.639.123Z"
            transform="translate(-5.109 -41.073)" fill="#ff5957"/>
      <path id="Pfad_1379" data-name="Pfad 1379" d="M319.7,543.014H278.467l-3.645,12.9,48.639-.123Z"
            transform="translate(-5.109 -54.986)" fill="#d84e50"/>
      <g id="Gruppe_171" data-name="Gruppe 171" transform="translate(273.086 485.993)">
        <path id="Pfad_1380" data-name="Pfad 1380" d="M281.833,543.145c1.212.267,41.6,0,41.6,0"
              transform="translate(-281.833 -541.047)" fill="none" stroke="#4c2f3a" stroke-linecap="round"
              stroke-miterlimit="10" stroke-width="0.75"/>
        <circle id="Ellipse_411" data-name="Ellipse 411" cx="2.047" cy="2.047" r="2.047" transform="translate(30.05 0)"
                fill="#b23b44" stroke="#4c2f3a" stroke-miterlimit="10" stroke-width="0.5"/>
        <line id="Linie_71" data-name="Linie 71" y2="8.58" transform="translate(30.052 2.047)" fill="none"
              stroke="#4c2f3a" stroke-linecap="round" stroke-miterlimit="10" stroke-width="0.5"/>
        <line id="Linie_72" data-name="Linie 72" y2="16.204" transform="translate(34.138 1.908)" fill="none"
              stroke="#4c2f3a" stroke-linecap="round" stroke-miterlimit="10" stroke-width="0.5"/>
      </g>
      <path id="Pfad_1381" data-name="Pfad 1381"
            d="M319.883,594.255c2.59,8.045,4.852,15.018,4.852,15.018s3.507,10.335-4.845,10.513-24.239-.169-24.239-.169-22.548,0-24.587-.41c-1.773-.367-5.124-3.8-4.293-8.244.257-1.747,2.241-8.847,4.493-16.616"
            transform="translate(-0.863 -81.578)" fill="#643e4b" opacity="0.53"/>
    </g>
    <g id="Gruppe_185" data-name="Gruppe 185" transform="translate(-1334 202.293)">
      <rect id="Rechteck_2187" data-name="Rechteck 2187" width="114.298" height="87.498"
            transform="translate(1508.769 -11.48)" fill="#643e4b"/>
      <path id="Pfad_1400" data-name="Pfad 1400"
            d="M828.375,591.876H939.742A14.653,14.653,0,0,0,954.4,577.222H813.721A14.653,14.653,0,0,0,828.375,591.876Z"
            transform="translate(681.86 -501.204)" fill="#a55169"/>
      <path id="Pfad_1401" data-name="Pfad 1401"
            d="M939.742,441.085H828.375a14.652,14.652,0,0,0-14.654,14.654v23.869H954.4V455.739A14.653,14.653,0,0,0,939.742,441.085Z"
            transform="translate(681.86 -491.088)" fill="#a55169"/>
      <path id="Pfad_1402" data-name="Pfad 1402"
            d="M872.29,482.7v7.222a1.917,1.917,0,0,0,2.015,1.806h28.21a1.918,1.918,0,0,0,2.014-1.806V482.7Z"
            transform="translate(677.508 -494.18)" fill="#d84e50"/>
      <circle id="Ellipse_413" data-name="Ellipse 413" cx="2.26" cy="2.26" r="2.26"
              transform="translate(1536.351 -33.119)" fill="#ff5957"/>
      <circle id="Ellipse_414" data-name="Ellipse 414" cx="2.26" cy="2.26" r="2.26"
              transform="translate(1589.282 -33.119)" fill="#ff5957"/>
      <path id="Pfad_1403" data-name="Pfad 1403"
            d="M877.687,496.638v.6c0,.66.826,1.2,1.846,1.2H898c1.018,0,1.846-.535,1.846-1.2v-4.782H877.687v1.794"
            transform="translate(677.107 -494.905)" fill="#a55169"/>
      <g id="Gruppe_176" data-name="Gruppe 176" transform="translate(1499.121 -40.384)">
        <path id="Pfad_1404" data-name="Pfad 1404"
              d="M832.319,475.489c-.529.515-3.375,18.091-4.071,18.862s-8.371,5.8-9.486,7.327.153,41.551.153,41.551l4.276-.179s-.739-39.34-.12-40.479,7.294-5.039,8.478-6.179,4.729-20.592,4.135-21.007A4.238,4.238,0,0,0,832.319,475.489Z"
              transform="translate(-817.602 -453.231)" fill="#7f445c"/>
        <path id="Pfad_1405" data-name="Pfad 1405"
              d="M819.127,547.762c-.356.231-2.168,5.126-1.39,6.046s5.709.4,6.36.02-.6-5.985-1.2-6.2A10.514,10.514,0,0,0,819.127,547.762Z"
              transform="translate(-817.545 -458.613)" fill="#7f445c"/>
        <rect id="Rechteck_2188" data-name="Rechteck 2188" width="5.218" height="3.655" rx="0.531"
              transform="translate(14.01 22.398) rotate(13.421)" fill="#68364d"/>
        <rect id="Rechteck_2189" data-name="Rechteck 2189" width="6.153" height="7.09" rx="0.531"
              transform="translate(14.844 16.887) rotate(13.421)" fill="#643e4b"/>
        <circle id="Ellipse_415" data-name="Ellipse 415" cx="7.327" cy="7.327" r="7.327"
                transform="translate(11.846 2.198)" fill="#ff5957"/>
        <path id="Pfad_1406" data-name="Pfad 1406"
              d="M837.492,451.476A9.525,9.525,0,1,0,847.017,461,9.536,9.536,0,0,0,837.492,451.476Zm0,14.654A5.129,5.129,0,1,1,842.621,461,5.135,5.135,0,0,1,837.492,466.13Z"
              transform="translate(-818.32 -451.476)" fill="#7f445c"/>
      </g>
      <g id="Gruppe_178" data-name="Gruppe 178" transform="translate(1600.878 -40.384)">
        <path id="Pfad_1407" data-name="Pfad 1407"
              d="M956.835,552.483c.356.23,2.847,6.852,1.9,7.934s-7.877,1.3-8.691-.309,1.9-7.7,2.5-7.913A13.364,13.364,0,0,1,956.835,552.483Z"
              transform="translate(-929.137 -458.955)" fill="#7f445c"/>
        <g id="Gruppe_177" data-name="Gruppe 177" transform="translate(0)">
          <path id="Pfad_1408" data-name="Pfad 1408"
                d="M942.609,475.959c.53.515,3.376,18.09,4.071,18.862s8.371,5.8,9.487,7.327-.153,45.554-.153,45.554l-4.277-.178s.739-43.344.121-44.482-7.3-5.039-8.477-6.18-4.729-20.591-4.135-21.006A4.232,4.232,0,0,1,942.609,475.959Z"
                transform="translate(-928.341 -453.266)" fill="#7f445c"/>
          <rect id="Rechteck_2190" data-name="Rechteck 2190" width="5.218" height="3.655" rx="0.531"
                transform="translate(15.824 26.389) rotate(166.579)" fill="#68364d"/>
          <rect id="Rechteck_2191" data-name="Rechteck 2191" width="6.153" height="7.09" rx="0.531"
                transform="translate(15.786 24.218) rotate(166.579)" fill="#643e4b"/>
          <circle id="Ellipse_416" data-name="Ellipse 416" cx="7.327" cy="7.327" r="7.327"
                  transform="translate(2.198 2.198)" fill="#ff5957"/>
          <path id="Pfad_1409" data-name="Pfad 1409"
                d="M937,451.476A9.525,9.525,0,1,0,946.521,461,9.536,9.536,0,0,0,937,451.476Zm0,14.654A5.129,5.129,0,1,1,942.125,461,5.135,5.135,0,0,1,937,466.13Z"
                transform="translate(-927.471 -451.476)" fill="#7f445c"/>
        </g>
      </g>
    </g>
  </g>
</svg>
