<svg xmlns="http://www.w3.org/2000/svg" width="19.52" height="19.505" viewBox="0 0 19.52 19.505">
  <path id="icons8-peanuts" d="M11.044,1.027a2.819,2.819,0,0,0-1.39.519A6.036,6.036,0,0,0,7.974,3.8C7.1,5.5,6.361,7.228,4.748,7.769A5.316,5.316,0,0,0,1.54,10.458a5.585,5.585,0,0,0-.516,2.918,4.935,4.935,0,0,0,1.892,3.408,4.866,4.866,0,0,0,3.414.707A7.63,7.63,0,0,0,8.95,19.414a10.908,10.908,0,0,0,7.994.6A5.087,5.087,0,0,0,20.5,15.869a3.5,3.5,0,0,0-.557-2.487,3.323,3.323,0,0,0-1.78-1.091,22.1,22.1,0,0,1-3.267-.95,10.222,10.222,0,0,0,1.082-5.326A5.361,5.361,0,0,0,12.768,1.27,3.914,3.914,0,0,0,11.044,1.027Zm.164,1.457a2.476,2.476,0,0,1,1.047.2,3.876,3.876,0,0,1,2.229,3.478c.18,1.856-.423,4.32-2.431,6.982a8.024,8.024,0,0,1-4.411,2.616,5.685,5.685,0,0,1-3.818-.17,2.873,2.873,0,0,1-.475-.487,15.22,15.22,0,0,0,4.977-2.053A10.1,10.1,0,0,0,13,6.385a.751.751,0,1,0-1.478-.27A8.516,8.516,0,0,1,7.51,11.787a14.032,14.032,0,0,1-4.892,1.933,2.82,2.82,0,0,1-.1-.478s0,0,0,0a4.207,4.207,0,0,1,.372-2.126A3.683,3.683,0,0,1,5.226,9.194C7.586,8.4,8.481,6.1,9.308,4.493A5.165,5.165,0,0,1,10.537,2.76,1.3,1.3,0,0,1,11.208,2.484Zm2.974,10.173a17.49,17.49,0,0,0,3.551,1.073,1.906,1.906,0,0,1,1.018.566A1.984,1.984,0,0,1,19,15.743,3.586,3.586,0,0,1,16.422,18.6a9.443,9.443,0,0,1-6.892-.572,5.567,5.567,0,0,1-1.372-.862,10.876,10.876,0,0,0,2.8-1.135,7.6,7.6,0,0,0,4.308,1.478.751.751,0,1,0,0-1.5,5.679,5.679,0,0,1-3-.915,7.079,7.079,0,0,0,.985-1.05A16.526,16.526,0,0,0,14.182,12.658Z" transform="translate(-1 -1.011)"/>
</svg>
