<svg width="200" height="200" viewBox="0 0 200 200" fill="none" xmlns="http://www.w3.org/2000/svg">
<path d="M38.6961 58.1C54.5261 58.4 128.436 58.1 143.766 58C144.055 58.0096 144.336 58.0944 144.582 58.2458C144.827 58.3973 145.029 58.6103 145.168 58.8638C145.306 59.1172 145.376 59.4024 145.37 59.6911C145.365 59.9798 145.284 60.2621 145.136 60.51L107.416 128.1C107.282 128.347 107.084 128.554 106.843 128.7C106.603 128.846 106.327 128.925 106.046 128.93H78.3161C78.0411 128.925 77.7721 128.848 77.5355 128.708C77.2989 128.568 77.1027 128.369 76.9661 128.13L37.3261 60.62C37.1787 60.3713 37.0984 60.0886 37.0931 59.7995C37.0877 59.5105 37.1575 59.225 37.2956 58.971C37.4337 58.717 37.6353 58.5032 37.8808 58.3506C38.1263 58.1979 38.4072 58.1115 38.6961 58.1Z" fill="#B88265"/>
<path d="M78.3161 128.91C78.0411 128.905 77.7721 128.828 77.5355 128.688C77.2989 128.548 77.1027 128.349 76.9661 128.11L37.3461 60.6501C37.1876 60.4006 37.0986 60.1134 37.0882 59.818C37.0779 59.5226 37.1466 59.2298 37.2873 58.9699C37.428 58.71 37.6355 58.4923 37.8884 58.3394C38.1414 58.1865 38.4305 58.1039 38.7261 58.1001C41.9261 58.1601 48.0461 58.1901 59.0461 58.1801C59.3953 58.187 59.7329 58.3066 60.0087 58.521C60.2844 58.7355 60.4834 59.0333 60.5761 59.3701L79.8461 126.74C79.9232 126.985 79.9427 127.245 79.9031 127.499C79.8635 127.752 79.7659 127.994 79.6179 128.204C79.4699 128.414 79.2754 128.587 79.0496 128.709C78.8238 128.832 78.5728 128.9 78.3161 128.91Z" fill="#9F8C6F"/>
<path d="M148.416 70.1001C148.416 70.1001 179.696 68.2401 164.136 92.3601C149.026 112.56 116.136 126.5 116.136 126.5" stroke="#CDCDCD" stroke-width="3" stroke-miterlimit="10"/>
<path d="M33.416 67.0099C53.776 67.2699 127.266 67.0099 147.106 66.8799C147.606 66.8775 148.099 67.0078 148.532 67.2575C148.966 67.5072 149.325 67.8675 149.574 68.3015C149.823 68.7355 149.953 69.2278 149.95 69.7282C149.947 70.2286 149.811 70.7192 149.556 71.1499L108.616 140.99C108.365 141.414 108.008 141.767 107.581 142.012C107.153 142.257 106.669 142.388 106.176 142.39H76.416C75.9323 142.39 75.4565 142.267 75.0344 142.03C74.6124 141.794 74.2582 141.453 74.006 141.04L31.006 71.3299C30.7404 70.901 30.5943 70.4088 30.5828 69.9045C30.5713 69.4001 30.6948 68.9018 30.9406 68.4612C31.1864 68.0206 31.5455 67.6537 31.9807 67.3985C32.416 67.1434 32.9115 67.0092 33.416 67.0099Z" fill="#E1E3E2"/>
<path d="M87.936 142.39H76.476C75.9626 142.391 75.4576 142.259 75.0094 142.009C74.5612 141.759 74.1847 141.397 73.916 140.96L31.136 71.6099C30.8501 71.1525 30.6927 70.6264 30.6806 70.087C30.6684 69.5477 30.8019 69.0151 31.0671 68.5452C31.3322 68.0754 31.7191 67.6858 32.187 67.4173C32.655 67.1489 33.1866 67.0116 33.726 67.0199C40.236 67.0999 51.846 67.1199 65.326 67.1099" fill="#CDCDCD"/>
<path d="M43.0861 142.39H139.356" stroke="#CDCDCD" stroke-width="3" stroke-miterlimit="10"/>
</svg>
