<svg width="200" height="200" viewBox="0 0 200 200" fill="none" xmlns="http://www.w3.org/2000/svg">
<path d="M35.8916 65.2001C35.8916 65.2001 83.2516 51.5801 163.482 65.2001L111.222 140.4H89.2816L35.8916 65.2001Z" fill="#F4F4F4"/>
<path d="M40.0516 65.2H35.8916L89.1716 142H92.4416L40.0516 65.2Z" fill="#CECDCC"/>
<path d="M51.2516 62H39.4716L92.4416 142L51.2516 62Z" fill="#9C9B9B"/>
<path d="M65.6516 58L64.8816 60.3H51.1616L92.4416 142L65.6516 58Z" fill="#CECDCC"/>
<path d="M86.2316 58L83.2516 59.6L67.8616 58.8L92.4416 142H98.6416L86.2316 58Z" fill="#9C9B9B"/>
<path d="M111.222 58L102.452 58.8L87.8315 58L96.8215 142H102.292L111.222 58Z" fill="#CECDCC"/>
<path d="M160.882 65.2H165.042L111.662 142H108.622L160.882 65.2Z" fill="#CECDCC"/>
<path d="M149.682 62H161.462L108.622 141.6L149.682 62Z" fill="#9C9B9B"/>
<path d="M135.282 58L136.052 60.3H149.772L108.622 141.6L135.282 58Z" fill="#CECDCC"/>
<path d="M114.702 58L117.682 59.6L133.072 58.8L108.492 142H102.292L114.702 58Z" fill="#9C9B9B"/>
<path d="M53.7316 126.21L52.1316 130.21H146.922L144.222 126.21H53.7316Z" fill="#9F8C6F"/>
</svg>
