<svg xmlns="http://www.w3.org/2000/svg" width="18.594" height="14.171" viewBox="0 0 18.594 14.171">
  <path id="icons8-cinema_screen" d="M1.474,16.038a.42.42,0,0,0-.3.081A.44.44,0,0,0,1,16.473v13.29a.44.44,0,0,0,.177.354.431.431,0,0,0,.4.059,27.733,27.733,0,0,1,17.44,0,.431.431,0,0,0,.133.029.476.476,0,0,0,.266-.089.441.441,0,0,0,.177-.354V16.473a.392.392,0,0,0-.162-.354.431.431,0,0,0-.4-.059,27.988,27.988,0,0,1-17.455,0A.472.472,0,0,0,1.474,16.038Zm.412,1.041a28.689,28.689,0,0,0,16.834,0v7.767a.148.148,0,0,1-.251.1L16.2,22.675a1.369,1.369,0,0,0-.842-.4,1.168,1.168,0,0,0-.96.369l-3.8,3.81a.385.385,0,0,1-.517,0L8.93,25.3a1.369,1.369,0,0,0-.827-.4,1.168,1.168,0,0,0-.96.369L4.81,27.608A5.638,5.638,0,0,1,2.447,29c-.192.059-.369.1-.561.162Zm6.305,2.289a1.24,1.24,0,1,0,1.24,1.241,1.24,1.24,0,0,0-1.24-1.241Z" transform="translate(-1 -16.035)" fill="#AE9F87"/>
</svg>
