<?xml version="1.0" encoding="UTF-8"?>
<svg xmlns="http://www.w3.org/2000/svg" xmlns:xlink="http://www.w3.org/1999/xlink" viewBox="0 0 240 240" width="240px" height="240px">
<g id="surface114081997">
<path style=" stroke:none;fill-rule:nonzero;fill:rgb(80.392158%,76.078433%,67.450982%);fill-opacity:1;" d="M 120 240 C 53.726562 240 0 186.273438 0 120 C 0 53.726562 53.726562 0 120 0 C 186.273438 0 240 53.726562 240 120 C 240 186.273438 186.273438 240 120 240 Z M 120 240 "/>
<path style=" stroke:none;fill-rule:nonzero;fill:rgb(100%,100%,100%);fill-opacity:1;" d="M 65.71875 49.199219 C 56.609375 49.199219 49.199219 56.609375 49.199219 65.71875 L 49.199219 174.28125 C 49.199219 183.390625 56.609375 190.800781 65.71875 190.800781 L 174.28125 190.800781 C 183.390625 190.800781 190.800781 183.390625 190.800781 174.28125 L 190.800781 65.71875 C 190.800781 56.609375 183.390625 49.199219 174.28125 49.199219 C 172.976562 49.199219 171.921875 50.257812 171.921875 51.558594 C 171.921875 52.863281 172.976562 53.921875 174.28125 53.921875 C 180.785156 53.921875 186.078125 59.214844 186.078125 65.71875 L 186.078125 174.28125 C 186.078125 180.785156 180.785156 186.078125 174.28125 186.078125 L 65.71875 186.078125 C 59.214844 186.078125 53.921875 180.785156 53.921875 174.28125 L 53.921875 65.71875 C 53.921875 59.214844 59.214844 53.921875 65.71875 53.921875 L 160.1875 53.921875 C 161.488281 53.921875 162.546875 52.863281 162.546875 51.558594 C 162.546875 50.257812 161.488281 49.199219 160.1875 49.199219 Z M 92.566406 63.65625 C 88.660156 63.65625 85.484375 66.832031 85.484375 70.734375 L 85.484375 82.535156 C 85.484375 86.4375 88.660156 89.613281 92.566406 89.613281 L 96.398438 89.613281 C 100.304688 89.613281 103.480469 86.4375 103.480469 82.535156 L 103.480469 70.734375 C 103.480469 66.832031 100.304688 63.65625 96.398438 63.65625 Z M 125.605469 63.65625 C 121.703125 63.65625 118.523438 66.832031 118.523438 70.734375 L 118.523438 82.535156 C 118.523438 86.4375 121.703125 89.613281 125.605469 89.613281 L 129.441406 89.613281 C 133.34375 89.613281 136.519531 86.4375 136.519531 82.535156 L 136.519531 70.734375 C 136.519531 66.832031 133.34375 63.65625 129.441406 63.65625 Z M 149.203125 63.65625 C 145.300781 63.65625 142.125 66.832031 142.125 70.734375 L 142.125 82.535156 C 142.125 86.4375 145.300781 89.613281 149.203125 89.613281 L 153.039062 89.613281 C 156.945312 89.613281 160.121094 86.4375 160.121094 82.535156 L 160.121094 70.734375 C 160.121094 66.832031 156.945312 63.65625 153.039062 63.65625 Z M 92.566406 68.375 L 96.398438 68.375 C 97.703125 68.375 98.761719 69.433594 98.761719 70.734375 L 98.761719 82.535156 C 98.761719 83.835938 97.703125 84.894531 96.398438 84.894531 L 92.566406 84.894531 C 91.265625 84.894531 90.203125 83.835938 90.203125 82.535156 L 90.203125 70.734375 C 90.203125 69.433594 91.265625 68.375 92.566406 68.375 Z M 125.605469 68.375 L 129.441406 68.375 C 130.742188 68.375 131.800781 69.433594 131.800781 70.734375 L 131.800781 82.535156 C 131.800781 83.835938 130.742188 84.894531 129.441406 84.894531 L 125.605469 84.894531 C 124.304688 84.894531 123.246094 83.835938 123.246094 82.535156 L 123.246094 70.734375 C 123.246094 69.433594 124.304688 68.375 125.605469 68.375 Z M 149.203125 68.375 L 153.039062 68.375 C 154.339844 68.375 155.398438 69.433594 155.398438 70.734375 L 155.398438 82.535156 C 155.398438 83.835938 154.339844 84.894531 153.039062 84.894531 L 149.203125 84.894531 C 147.902344 84.894531 146.84375 83.835938 146.84375 82.535156 L 146.84375 70.734375 C 146.84375 69.433594 147.902344 68.375 149.203125 68.375 Z M 110.855469 78.460938 C 109.550781 78.460938 108.496094 79.519531 108.496094 80.820312 L 108.496094 83.421875 C 108.496094 84.722656 109.550781 85.78125 110.855469 85.78125 C 112.160156 85.78125 113.214844 84.722656 113.214844 83.421875 L 113.214844 80.820312 C 113.214844 79.519531 112.160156 78.460938 110.855469 78.460938 Z M 116.164062 159.234375 C 114.863281 159.234375 113.804688 160.292969 113.804688 161.59375 C 113.804688 162.898438 114.863281 163.953125 116.164062 163.953125 L 123.835938 163.953125 C 125.136719 163.953125 126.195312 162.898438 126.195312 161.59375 C 126.195312 160.292969 125.136719 159.234375 123.835938 159.234375 Z M 116.164062 159.234375 "/>
</g>
</svg>
