<svg xmlns="http://www.w3.org/2000/svg" width="16.9" height="16.9" viewBox="0 0 16.9 16.9">
  <path id="icons8-pencil" d="M17.6,17.1H6.849a.4.4,0,0,0,0,.8H17.6a.4.4,0,1,0,0-.8Zm-16.5.4a.394.394,0,0,0,.4.4H4.175a.4.4,0,0,0,0-.8H1.5A.411.411,0,0,0,1.1,17.5Zm5.562-2.941,8.129-8.129h0L16.115,5.1a2.4,2.4,0,1,0-3.4-3.4l-1.31,1.31h0L3.266,11.161a.33.33,0,0,0-.107.227l-.468,3.169-.361.361a.429.429,0,0,0-.04.562.4.4,0,0,0,.588.013l.374-.374,3.182-.455A.286.286,0,0,0,6.662,14.557ZM13.28,2.27a1.607,1.607,0,0,1,2.273,2.273l-.882.882a4.562,4.562,0,0,0-2.26-2.273Zm-1.5,1.5a3.414,3.414,0,0,1,2.286,2.246L6.662,13.421a4,4,0,0,0-2.273-2.273ZM3.547,14.277l.348-2.447a3.2,3.2,0,0,1,2.1,2.1Z" transform="translate(-1.1 -1)" fill="#AE9F87"/>
</svg>
