<svg xmlns="http://www.w3.org/2000/svg" width="20" height="20" viewBox="0 0 20 20">
  <g id="Gruppe_219" data-name="Gruppe 219" transform="translate(1750 857)">
    <circle id="Ellipse_421" data-name="Ellipse 421" cx="10" cy="10" r="10" transform="translate(-1750 -857)" fill="#ae9f87"/>
    <path id="icons8-synchronize" d="M9.024,2.456A4.56,4.56,0,0,0,2.63,6.924l-1.375.091A5.932,5.932,0,0,1,10,1.409L11.323,0l.352,3.909-4.14.138ZM8.972,12.3a5.881,5.881,0,0,1-4.6-.449L3.051,13.262,2.7,9.353l4.138-.138L5.352,10.805a4.56,4.56,0,0,0,6.391-4.468l1.373-.091A5.928,5.928,0,0,1,8.972,12.3Z" transform="translate(-1747.243 -853.262)" fill="#fff" fill-rule="evenodd"/>
  </g>
</svg>
