<svg xmlns="http://www.w3.org/2000/svg" viewBox="0 0 123.95 210.38">
  <defs>
    <style>
      .cls-1,.cls-9{fill:#643e4b;}.cls-2{fill:#97485c;}.cls-3{fill:#7f445c;}.cls-4{fill:#ff5957;}.cls-5{fill:#d84e50;}.cls-6,.cls-8{fill:none;stroke-linecap:round;}.cls-6,.cls-7,.cls-8{stroke:#4c2f3a;stroke-miterlimit:10;}.cls-6{stroke-width:0.75px;}.cls-7{fill:#b23b44;}.cls-7,.cls-8{stroke-width:0.5px;}.cls-9{opacity:0.53;}
    </style>
  </defs>
  <g id="Ebene_2" data-name="Ebene 2">
    <g id="Ebene_1-2" data-name="Ebene 1">
      <polygon class="cls-1" points="101.52 13.4 15.8 13.4 8.22 0 109.33 0.13 101.52 13.4"/>
      <path class="cls-2"
            d="M0,13.55l122.56-.81s-26,92.9-25.94,94.73,25.72,80.95,25.72,80.95,7.29,21.48-10.07,21.85-50.38-.35-50.38-.35-46.88,0-51.12-.85c-3.68-.77-10.65-7.89-8.92-17.14,1.3-8.86,24-83.91,24-83.91Z"/>
      <polyline class="cls-3" points="26.2 108.92 0 13.55 42.69 13.27 57.24 108.17"/>
      <path class="cls-3"
            d="M57.24,108.21l-31.45-.28s-22.66,75-24,83.91C.1,201.09,7.06,208.21,10.75,209c4.24.84,24,.85,24,.85"/>
      <polygon class="cls-4" points="103.14 105.96 17.42 105.96 9.84 79.15 110.95 79.4 103.14 105.96"/>
      <polygon class="cls-5" points="103.14 105.96 17.42 105.96 9.84 132.76 110.95 132.51 103.14 105.96"/>
      <path class="cls-6" d="M16.86,106.09c2.51.55,86.47,0,86.47,0"/>
      <circle class="cls-7" cx="83.58" cy="105.98" r="4.26"/>
      <line class="cls-8" x1="79.33" y1="105.98" x2="79.33" y2="123.82"/>
      <line class="cls-8" x1="87.82" y1="105.69" x2="87.82" y2="139.38"/>
      <path class="cls-9"
            d="M112.34,157.2c5.39,16.72,10.09,31.22,10.09,31.22s7.29,21.48-10.07,21.85S62,209.92,62,209.92s-46.87,0-51.11-.85c-3.69-.77-10.65-7.89-8.93-17.14.54-3.63,4.66-18.39,9.34-34.54"/>
    </g>
  </g>
</svg>
