<svg xmlns="http://www.w3.org/2000/svg"  viewBox="0 0 50 50" width="50px" height="50px"><path d="M 25 7 C 15.941406 7 7.339844 10.472656 0.78125 16.773438 L 0.0625 17.464844 L 5.59375 23.230469 L 6.320313 22.539063 C 11.378906 17.679688 18.015625 15 25 15 C 31.984375 15 38.621094 17.679688 43.683594 22.539063 L 44.40625 23.230469 L 49.941406 17.464844 L 49.21875 16.769531 C 42.660156 10.46875 34.058594 7 25 7 Z M 25 19 C 19.046875 19 13.394531 21.28125 9.085938 25.421875 L 8.363281 26.113281 L 13.921875 31.90625 L 14.644531 31.210938 C 17.464844 28.496094 21.144531 27 25 27 C 28.855469 27 32.535156 28.496094 35.355469 31.210938 L 36.078125 31.90625 L 41.636719 26.113281 L 40.917969 25.421875 C 36.605469 21.28125 30.953125 19 25 19 Z M 25 31 C 22.15625 31 19.453125 32.089844 17.390625 34.074219 L 16.671875 34.765625 L 25 43.441406 L 33.328125 34.765625 L 32.609375 34.074219 C 30.546875 32.089844 27.84375 31 25 31 Z"/></svg>