<svg xmlns="http://www.w3.org/2000/svg" width="26.256" height="26.27" viewBox="0 0 26.256 26.27">
  <path id="icons8-smiling_face_with_heart"
        d="M21.01,0a3.5,3.5,0,0,0-3.146,2.017,3.9,3.9,0,0,0,.3,3.641,10.959,10.959,0,0,0,2.195,2.521l.159.142A18.494,18.494,0,0,0,22.2,9.641l.7.5.7-.5a18.348,18.348,0,0,0,1.672-1.311l.166-.152a10.983,10.983,0,0,0,2.2-2.523,3.9,3.9,0,0,0,.3-3.643A3.5,3.5,0,0,0,24.786,0l0,1.194V0h0a3.671,3.671,0,0,0-1.856.539l.051.033C22.952.556,22.921.563,22.9.548c-.024.014-.056.008-.079.023l.047-.033A3.653,3.653,0,0,0,21.012,0ZM13.941,2.388a11.995,11.995,0,1,0,11.521,8.848c-.15.112-.3.223-.471.345l-.7.5-.94.676a9.647,9.647,0,1,1-8.035-7.874,5.557,5.557,0,0,1-.077-2.426A12,12,0,0,0,13.941,2.388Zm7.071,0a1.177,1.177,0,0,1,.679.2l1.2.77,1.2-.767a1.188,1.188,0,0,1,.683-.2h0a1.229,1.229,0,0,1,.991.658c.211.44.149.793-.21,1.409A9.4,9.4,0,0,1,23.83,6.411l-.187.17-.007,0c-.128.12-.464.365-.737.576-.278-.215-.617-.46-.751-.585l-.007-.007-.182-.163a9.359,9.359,0,0,1-1.731-1.952c-.359-.615-.42-.967-.21-1.406v0A1.224,1.224,0,0,1,21.012,2.388ZM9.762,9.553a1.791,1.791,0,1,0,1.791,1.791A1.791,1.791,0,0,0,9.762,9.553Zm8.359,0a1.791,1.791,0,1,0,1.791,1.791A1.791,1.791,0,0,0,18.12,9.553ZM7.84,16.717a6.543,6.543,0,0,0,12.2,0Z"
        transform="translate(-2)" fill="#504027"/>
</svg>
