<svg xmlns="http://www.w3.org/2000/svg" xmlns:xlink="http://www.w3.org/1999/xlink" viewBox="0,0,256,256" width="144px" height="144px" fill-rule="nonzero"><g transform="translate(25.6,25.6) scale(0.8,0.8)"><g fill="var(--beanconqueror-icon-color)" fill-rule="nonzero" stroke="none" stroke-width="1" stroke-linecap="butt" stroke-linejoin="miter" stroke-miterlimit="10" stroke-dasharray="" stroke-dashoffset="0" font-family="none" font-weight="none" font-size="none" text-anchor="none" style="mix-blend-mode: normal"><path d="M128,288c-88.36556,0 -160,-71.63444 -160,-160v0c0,-88.36556 71.63444,-160 160,-160v0c88.36556,0 160,71.63444 160,160v0c0,88.36556 -71.63444,160 -160,160z" id="shape"></path></g><g fill="#ffffff" fill-rule="nonzero" stroke="none" stroke-width="1" stroke-linecap="butt" stroke-linejoin="miter" stroke-miterlimit="10" stroke-dasharray="" stroke-dashoffset="0" font-family="none" font-weight="none" font-size="none" text-anchor="none" style="mix-blend-mode: normal"><g transform="scale(5.33333,5.33333)"><path d="M37,42c-0.3,0 -0.7,-0.1 -1,-0.3c-1,-0.5 -1.3,-1.8 -0.8,-2.7c0,-0.1 3.7,-6.8 3.7,-15c0,-8.2 -3.6,-15 -3.6,-15c-0.5,-1 -0.2,-2.2 0.8,-2.7c1,-0.5 2.2,-0.2 2.7,0.8c0.2,0.3 4.3,7.6 4.3,17c0,9.4 -4.1,16.7 -4.3,17c-0.4,0.5 -1.1,0.9 -1.8,0.9zM32.8,35.8c0.1,-0.2 2.2,-5 2.2,-11.8c0,-6.8 -2.1,-11.6 -2.2,-11.8c-0.4,-1 -1.6,-1.5 -2.6,-1c-1,0.4 -1.5,1.6 -1,2.6c0,0 1.8,4.3 1.8,10.2c0,5.9 -1.8,10.2 -1.8,10.2c-0.4,1 0,2.2 1,2.6c0.3,0.1 0.5,0.2 0.8,0.2c0.8,0 1.5,-0.4 1.8,-1.2zM23.3,33c0.6,-0.1 1.1,-0.5 1.4,-1c0.1,-0.2 2.3,-3.9 2.3,-8c0,-4.1 -2.2,-7.9 -2.3,-8c-0.6,-1 -1.8,-1.3 -2.7,-0.7c-1,0.6 -1.3,1.8 -0.7,2.7c0,0 1.7,3 1.7,6c0,1.3 -0.3,2.7 -0.7,3.7l-13,-11.2c-0.5,-0.4 -1.2,-0.6 -1.8,-0.4c-0.6,0.2 -1.2,0.6 -1.4,1.3c0,0.1 -1.1,3.1 -1.1,6.6c0,3.5 1.1,6.5 1.1,6.7c0.4,1 1.5,1.6 2.6,1.2c1,-0.4 1.6,-1.5 1.2,-2.6c0,0 -0.9,-2.6 -0.9,-5.3c0,-0.8 0.1,-1.6 0.2,-2.3l12.5,10.8c0.4,0.3 0.8,0.5 1.3,0.5c0.1,0 0.2,0 0.3,0z"></path></g></g></g></svg>