<svg xmlns="http://www.w3.org/2000/svg" xmlns:xlink="http://www.w3.org/1999/xlink" viewBox="0,0,256,256" width="120px" height="120px"><defs><clipPath id="clip-1"><path d="M-54.85714,310.85714v-365.71429h365.71429v365.71429zM173.03581,155.99295l-61.88914,-37.09829c-3.16171,-2.09314 -6.71314,-3.19943 -10.30857,-3.19943c-10.39657,0 -18.85714,8.46057 -18.85714,18.85714c0,0.11943 0,0.23257 0.00629,0.352l-0.00629,37.36229c0,0.00629 0,37.69543 0,37.70171c0,0 0,0.00629 0,0.01257c0,10.39657 8.46057,18.85714 18.85714,18.85714c3.59543,0 7.14686,-1.10629 10.30857,-3.19943l61.88914,-37.092c5.87714,-3.38171 9.51657,-9.592 9.51657,-16.28c0,-6.688 -3.63943,-12.89829 -9.51657,-16.27371z" id="overlayBgMask" fill="none"></path></clipPath></defs><g transform="translate(57.6,57.6) scale(0.55,0.55)"><g fill-opacity="0" fill="#cdc2ac" fill-rule="nonzero" stroke="none" stroke-width="1" stroke-linecap="butt" stroke-linejoin="miter" stroke-miterlimit="10" stroke-dasharray="" stroke-dashoffset="0" font-family="none" font-weight="none" font-size="none" text-anchor="none" style="mix-blend-mode: normal"><path d="M-104.72727,360.72727v-465.45455h465.45455v465.45455z" id="bgRectangle"></path></g><g fill="#cdc2ac" fill-rule="nonzero" stroke="none" stroke-width="1" stroke-linecap="butt" stroke-linejoin="miter" stroke-miterlimit="10" stroke-dasharray="" stroke-dashoffset="0" font-family="none" font-weight="none" font-size="none" text-anchor="none" style="mix-blend-mode: normal"><path d="M128,360.72727c-128.53172,0 -232.72727,-104.19555 -232.72727,-232.72727v0c0,-128.53172 104.19555,-232.72727 232.72727,-232.72727v0c128.53172,0 232.72727,104.19555 232.72727,232.72727v0c0,128.53172 -104.19555,232.72727 -232.72727,232.72727z" id="shape"></path></g><g clip-path="url(#clip-1)" fill="none" fill-rule="nonzero" stroke="none" stroke-width="1" stroke-linecap="butt" stroke-linejoin="miter" stroke-miterlimit="10" stroke-dasharray="" stroke-dashoffset="0" font-family="none" font-weight="none" font-size="none" text-anchor="none" style="mix-blend-mode: normal"><g transform="scale(0.53333,0.53333)" fill="#ffffff"><path d="M56,0c-30.878,0 -56,25.122 -56,56v368c0,30.878 25.122,56 56,56h368c30.879,0 56,-25.122 56,-56v-368c0,-30.878 -25.121,-56 -56,-56c-4.418,0 -8,3.582 -8,8c0,4.418 3.582,8 8,8c22.056,0 40,17.944 40,40v368c0,22.056 -17.944,40 -40,40h-368c-22.056,0 -40,-17.944 -40,-40v-368c0,-22.056 17.944,-40 40,-40h320.22656c4.418,0 8,-3.582 8,-8c0,-4.418 -3.582,-8 -8,-8zM147,49c-13.234,0 -24,10.766 -24,24v40c0,13.234 10.766,24 24,24h13c13.234,0 24,-10.766 24,-24v-40c0,-13.234 -10.766,-24 -24,-24zM259,49c-13.233,0 -24,10.766 -24,24v40c0,13.234 10.767,24 24,24h13c13.233,0 24,-10.766 24,-24v-40c0,-13.234 -10.767,-24 -24,-24zM339,49c-13.233,0 -24,10.766 -24,24v40c0,13.234 10.767,24 24,24h13c13.233,0 24,-10.766 24,-24v-40c0,-13.234 -10.767,-24 -24,-24zM147,65h13c4.411,0 8,3.589 8,8v40c0,4.411 -3.589,8 -8,8h-13c-4.411,0 -8,-3.589 -8,-8v-40c0,-4.411 3.589,-8 8,-8zM259,65h13c4.411,0 8,3.589 8,8v40c0,4.411 -3.589,8 -8,8h-13c-4.411,0 -8,-3.589 -8,-8v-40c0,-4.411 3.589,-8 8,-8zM339,65h13c4.411,0 8,3.589 8,8v40c0,4.411 -3.589,8 -8,8h-13c-4.411,0 -8,-3.589 -8,-8v-40c0,-4.411 3.589,-8 8,-8zM209,99.19336c-4.418,0 -8,3.582 -8,8v8.80664c0,4.418 3.582,8 8,8c4.418,0 8,-3.582 8,-8v-8.80664c0,-4.418 -3.582,-8 -8,-8zM227,373c-4.418,0 -8,3.582 -8,8c0,4.418 3.582,8 8,8h26c4.418,0 8,-3.582 8,-8c0,-4.418 -3.582,-8 -8,-8z"></path></g></g><g fill="#ffffff" fill-rule="nonzero" stroke="none" stroke-width="1" stroke-linecap="butt" stroke-linejoin="miter" stroke-miterlimit="10" stroke-dasharray="" stroke-dashoffset="0" font-family="none" font-weight="none" font-size="none" text-anchor="none" style="mix-blend-mode: normal"><g transform="translate(94.55238,128.26667) scale(6.28571,6.28571)" id="overlay"><path d="M12,7c0,-0.376 -0.216,-0.691 -0.522,-0.862l-9.915,-5.942c-0.162,-0.114 -0.349,-0.196 -0.563,-0.196c-0.552,0 -1,0.448 -1,1c0,0.001 0.001,0.003 0.001,0.004h-0.001v5.996v5.995h0.001c0,0.002 -0.001,0.004 -0.001,0.005c0,0.552 0.448,1 1,1c0.214,0 0.401,-0.082 0.563,-0.196l9.914,-5.942c0.307,-0.171 0.523,-0.486 0.523,-0.862z"></path></g></g></g></svg>