<svg xmlns="http://www.w3.org/2000/svg" xmlns:xlink="http://www.w3.org/1999/xlink" viewBox="0 0 215.59 198.12"><defs><style>.cls-1,.cls-13{fill:none;}.cls-2,.cls-6,.cls-7,.cls-9{fill:#fff;}.cls-3{fill:#d3d3d3;}.cls-4{fill:#b2b2b2;}.cls-5{fill:#c7c0bd;}.cls-6{opacity:0.15;}.cls-7{opacity:0.21;}.cls-8{fill:#c4c4c4;}.cls-9{opacity:0.34;}.cls-10{fill:#909092;}.cls-11{fill:#78787a;}.cls-12{clip-path:url(#clip-path);}.cls-13{stroke:#78787a;stroke-miterlimit:10;stroke-width:0.75px;}</style><clipPath id="clip-path"><path class="cls-1" d="M47.77,59.52s4.74.79,10.09,20.69a1.08,1.08,0,0,0,1.36.76c3.42-1,16.23-3.88,53.59-3.21,34.33.62,44.52,1.62,47.46,2.08a1.34,1.34,0,0,0,1.5-.94C163,74.76,167.51,61,172.94,58.73,179.35,56,101.27,45.82,47.77,59.52Z"/></clipPath></defs><g id="Ebene_2" data-name="Ebene 2"><g id="Ebene_1-2" data-name="Ebene 1"><rect class="cls-2" width="215.59" height="198.12"/><polyline class="cls-3" points="125.19 148.45 76.25 147.79 76.06 123.79 125.97 124.14"/><polyline class="cls-4" points="125.97 124.14 144.04 124.27 144.23 148.71 125.19 148.45"/><rect class="cls-5" x="40.77" y="146.94" width="137.95" height="3.53" rx="1.76"/><path class="cls-4" d="M125.19,156.74h15.2a3.66,3.66,0,0,0,3.65-3.65v-2.62H125.19"/><path class="cls-3" d="M125.19,150.47H78v2.69a3.58,3.58,0,0,0,3.58,3.58h43.61"/><polygon class="cls-6" points="98.02 146.94 89.64 146.94 89.64 124.54 98.28 124.54 98.02 146.94"/><rect class="cls-7" x="89.64" y="146.94" width="8.38" height="3.53"/><rect class="cls-6" x="89.64" y="150.47" width="8.38" height="6.27"/><path class="cls-3" d="M126,124.14l-49.92-.35S59.27,83.84,58.67,80.9s50.94-3.56,50.94-3.56,13,0,25.87.36"/><path class="cls-8" d="M135.48,77.7c12.86.36,25.6,1.07,25.06,2.5L144,124.27,126,124.14"/><polygon class="cls-9" points="98.28 124.54 89.64 124.54 82.75 78.06 92.72 77.71 98.28 124.54"/><path class="cls-10" d="M47.77,59.52s4.74.79,10.09,20.69a1.08,1.08,0,0,0,1.36.76c3.42-1,16.23-3.88,53.59-3.21,34.33.62,44.52,1.62,47.46,2.08a1.34,1.34,0,0,0,1.5-.94C163,74.76,167.51,61,172.94,58.73,179.35,56,101.27,45.82,47.77,59.52Z"/><path class="cls-11" d="M42.66,55c.09,1.77.69,4.27,3.29,5.35a2.17,2.17,0,0,0,1.78-.05c2.84-1.36,15.71-5.83,62-5.75s60,3.81,63.21,5a2,2,0,0,0,1.8-.21c1.45-1,4.07-3.82-.15-7.3-7-5.82-77.87-5.8-77.87-5.8s-39.64-.71-52.4,6A3,3,0,0,0,42.66,55Z"/><g class="cls-12"><path class="cls-13" d="M52.37,58.07S66.28,77.35,72.24,79.38"/><path class="cls-13" d="M56.92,57S68.43,76.21,81.65,78.48"/><path class="cls-13" d="M63.62,56.35S77.05,75.59,90.2,78.3"/><path class="cls-13" d="M71.62,55.61S84.46,73.87,99.52,78.3"/><path class="cls-13" d="M81,55.12S90.46,71.56,108.9,78.2"/><path class="cls-13" d="M92.4,54.57s6.17,15.64,25.54,23.63"/><path class="cls-13" d="M103.78,54.57a56.4,56.4,0,0,0,26.06,24"/><path class="cls-13" d="M116.07,54.57s.56,12.47,22.75,24"/><path class="cls-13" d="M127.2,55.12s1.09,13.19,20.39,23.82"/><path class="cls-13" d="M138.82,55.61s-3.2,11.45,15.43,23.62"/><path class="cls-13" d="M149.34,55.61S145,64,159.22,79.7"/><path class="cls-13" d="M157.7,56.35S152.35,63,162,79.07"/><path class="cls-13" d="M164.65,57s-4.05,4.57-1.8,19"/><path class="cls-13" d="M168.71,58.07s-4.48,6-3.69,12.44"/><path class="cls-13" d="M55.4,62.13s1.89,10.23,1.77,16.07"/><path class="cls-13" d="M59.62,60.86s2,14.12-.13,20.39"/><path class="cls-13" d="M63.62,56.59s4.9,7.6-1.31,24.27"/><path class="cls-13" d="M71.62,55.61S77.35,64,67.26,80.05"/><path class="cls-13" d="M81,55.12s6,7.72-7.7,24.26"/><path class="cls-13" d="M92.4,54.57s5.53,9.15-12.55,24.21"/><path class="cls-13" d="M103.78,54.57s2.2,13.88-15.4,24"/><path class="cls-13" d="M116.07,55.12s-1,14.24-17.77,23"/><path class="cls-13" d="M127.2,54.34s-4.21,18.67-20,24"/><path class="cls-13" d="M139.19,54.84s-7.93,18.57-20.53,23.36"/><path class="cls-13" d="M149.34,55.61s-10.45,19.73-21,23"/><path class="cls-13" d="M157.7,56.35S145.78,77,137.22,78.6"/><path class="cls-13" d="M164.65,57s-11.19,18.91-17.84,22"/><path class="cls-13" d="M168.71,58.07s-10.89,19.87-15.63,21.22"/><path class="cls-13" d="M56.56,69.74s6.93,9,10.36,10.15"/></g></g></g></svg>