<?xml version="1.0" encoding="UTF-8"?>
<svg xmlns="http://www.w3.org/2000/svg" xmlns:xlink="http://www.w3.org/1999/xlink" viewBox="0 0 512 512" width="512px" height="512px">
<g id="surface259003">
<path style=" stroke:none;fill-rule:nonzero;fill:rgb(62.352943%,54.901963%,43.529412%);fill-opacity:1;" d="M 40.960938 40.960938 L 40.960938 184.320312 L 184.320312 184.320312 L 184.320312 40.960938 Z M 327.679688 40.960938 L 327.679688 184.320312 L 471.039062 184.320312 L 471.039062 40.960938 Z M 61.441406 61.441406 L 163.839844 61.441406 L 163.839844 163.839844 L 61.441406 163.839844 Z M 204.800781 61.441406 L 204.800781 122.878906 L 245.761719 122.878906 L 245.761719 153.601562 L 204.800781 153.601562 L 204.800781 204.800781 L 112.640625 204.800781 L 112.640625 245.761719 L 71.679688 245.761719 L 71.679688 307.199219 L 133.121094 307.199219 L 133.121094 266.238281 L 163.839844 266.238281 L 163.839844 307.199219 L 225.28125 307.199219 L 225.28125 225.28125 L 245.761719 225.28125 L 245.761719 266.238281 L 317.441406 266.238281 L 317.441406 296.960938 L 368.640625 296.960938 L 368.640625 327.679688 L 286.71875 327.679688 L 286.71875 368.640625 L 245.761719 368.640625 L 245.761719 430.078125 L 307.199219 430.078125 L 307.199219 389.121094 L 368.640625 389.121094 L 368.640625 471.039062 L 471.039062 471.039062 L 471.039062 368.640625 L 389.121094 368.640625 L 389.121094 348.160156 L 471.039062 348.160156 L 471.039062 245.761719 L 409.601562 245.761719 L 409.601562 276.480469 L 389.121094 276.480469 L 389.121094 204.800781 L 266.238281 204.800781 L 266.238281 174.078125 L 307.199219 174.078125 L 307.199219 102.398438 L 266.238281 102.398438 L 266.238281 61.441406 Z M 348.160156 61.441406 L 450.558594 61.441406 L 450.558594 163.839844 L 348.160156 163.839844 Z M 81.921875 81.921875 L 81.921875 143.359375 L 143.359375 143.359375 L 143.359375 81.921875 Z M 225.28125 81.921875 L 245.761719 81.921875 L 245.761719 102.398438 L 225.28125 102.398438 Z M 368.640625 81.921875 L 368.640625 143.359375 L 430.078125 143.359375 L 430.078125 81.921875 Z M 102.398438 102.398438 L 122.878906 102.398438 L 122.878906 122.878906 L 102.398438 122.878906 Z M 389.121094 102.398438 L 409.601562 102.398438 L 409.601562 122.878906 L 389.121094 122.878906 Z M 266.238281 122.878906 L 286.71875 122.878906 L 286.71875 153.601562 L 266.238281 153.601562 Z M 225.28125 174.078125 L 245.761719 174.078125 L 245.761719 204.800781 L 225.28125 204.800781 Z M 133.121094 225.28125 L 204.800781 225.28125 L 204.800781 286.71875 L 184.320312 286.71875 L 184.320312 245.761719 L 133.121094 245.761719 Z M 266.238281 225.28125 L 368.640625 225.28125 L 368.640625 276.480469 L 337.921875 276.480469 L 337.921875 245.761719 L 266.238281 245.761719 Z M 92.160156 266.238281 L 112.640625 266.238281 L 112.640625 286.71875 L 92.160156 286.71875 Z M 430.078125 266.238281 L 450.558594 266.238281 L 450.558594 327.679688 L 389.121094 327.679688 L 389.121094 296.960938 L 430.078125 296.960938 Z M 40.960938 327.679688 L 40.960938 471.039062 L 184.320312 471.039062 L 184.320312 327.679688 Z M 61.441406 348.160156 L 163.839844 348.160156 L 163.839844 450.558594 L 61.441406 450.558594 Z M 307.199219 348.160156 L 368.640625 348.160156 L 368.640625 368.640625 L 307.199219 368.640625 Z M 81.921875 368.640625 L 81.921875 430.078125 L 143.359375 430.078125 L 143.359375 368.640625 Z M 102.398438 389.121094 L 122.878906 389.121094 L 122.878906 409.601562 L 102.398438 409.601562 Z M 266.238281 389.121094 L 286.71875 389.121094 L 286.71875 409.601562 L 266.238281 409.601562 Z M 389.121094 389.121094 L 450.558594 389.121094 L 450.558594 450.558594 L 389.121094 450.558594 Z M 389.121094 389.121094 "/>
</g>
</svg>
