<svg xmlns="http://www.w3.org/2000/svg" width="108" height="105.002" viewBox="0 0 108 105.002">
  <g id="Gruppe_195" data-name="Gruppe 195" transform="translate(-1103 1490)">
    <path id="Rechteck_2209" data-name="Rechteck 2209"
          d="M6,0H108a0,0,0,0,1,0,0V105a0,0,0,0,1,0,0H6a6,6,0,0,1-6-6V6A6,6,0,0,1,6,0Z"
          transform="translate(1103 -1490)" fill="#fff"/>
    <path id="Differenzmenge_61" data-name="Differenzmenge 61"
          d="M59.428,112.157h0L6,112.155a6.007,6.007,0,0,1-6-6v-93a6.007,6.007,0,0,1,6-6H21.688c-.207.356-.411.713-.607,1.059A19.59,19.59,0,0,1,18.5,12.058a23.535,23.535,0,0,1-3.8,2.88A27.985,27.985,0,0,0,9.219,19.3a9.838,9.838,0,0,0-2.68,6.793A7.243,7.243,0,0,0,8.33,30.64a.742.742,0,0,0,.252.436c.247.246.542.535.851.8l.092.092a4.943,4.943,0,0,0,.919.712,16.561,16.561,0,0,0,10.028,3.307,19.366,19.366,0,0,0,7.966-1.762,23.5,23.5,0,0,0,7.294-5.2,26.691,26.691,0,0,0,4.742-6.624,19.522,19.522,0,0,0,2.034-7.066,15.9,15.9,0,0,0-1.469-8.187H98.607A4.533,4.533,0,0,0,95.9,8.3a.438.438,0,0,0-.237.125,10.592,10.592,0,0,0-2.514,3.81,9.685,9.685,0,0,0-.58,4.231,11.84,11.84,0,0,0,1.233,4.286,16.2,16.2,0,0,0,2.877,4.019,14.26,14.26,0,0,0,4.425,3.154,11.75,11.75,0,0,0,4.834,1.069,10.482,10.482,0,0,0,2.057-.2v7.245a5.87,5.87,0,0,0-.622-.033,10.353,10.353,0,0,0-7.326,2.686,22.021,22.021,0,0,0-3.973,5.53A19.574,19.574,0,0,1,93.5,48.058a23.536,23.536,0,0,1-3.8,2.88,27.986,27.986,0,0,0-5.485,4.36,9.838,9.838,0,0,0-2.68,6.793A7.247,7.247,0,0,0,83.33,66.64a.739.739,0,0,0,.253.436c.226.226.527.522.85.8l.092.092a5,5,0,0,0,.919.712,16.561,16.561,0,0,0,10.028,3.308,19.076,19.076,0,0,0,6.417-1.138A22.265,22.265,0,0,0,108,67.484v44.672H87.719v-.007a8.789,8.789,0,0,0-2.394-6.069,24.992,24.992,0,0,0-4.9-3.895,21.028,21.028,0,0,1-3.4-2.572,17.494,17.494,0,0,1-2.3-3.431,19.676,19.676,0,0,0-3.549-4.941,9.248,9.248,0,0,0-6.545-2.4,6.559,6.559,0,0,0-4.145,1.682.651.651,0,0,0-.348.184,15.6,15.6,0,0,0-3.7,5.61,14.273,14.273,0,0,0-.855,6.23,19.055,19.055,0,0,0,3.838,9.609ZM13.1,75.82a4.731,4.731,0,0,0-2.987,1.212.471.471,0,0,0-.251.133A11.244,11.244,0,0,0,7.19,81.208,10.283,10.283,0,0,0,6.575,85.7a12.576,12.576,0,0,0,1.309,4.549,17.183,17.183,0,0,0,3.053,4.265,15.133,15.133,0,0,0,4.7,3.347,12.466,12.466,0,0,0,5.129,1.135,10.669,10.669,0,0,0,6.457-2.13,3.183,3.183,0,0,0,.591-.458l.059-.059c.165-.145.334-.3.547-.517a.478.478,0,0,0,.163-.281,4.667,4.667,0,0,0,1.153-2.928,6.334,6.334,0,0,0-1.726-4.374,18.015,18.015,0,0,0-3.532-2.807,15.16,15.16,0,0,1-2.447-1.854A12.6,12.6,0,0,1,20.37,81.11a14.177,14.177,0,0,0-2.558-3.561A6.664,6.664,0,0,0,13.1,75.82ZM47.027,46.13a3.232,3.232,0,0,0-2.044.831.316.316,0,0,0-.173.091,7.2,7.2,0,0,0-2.246,5.84,10,10,0,0,0,2.985,6.033,9.521,9.521,0,0,0,6.725,3.066,7.3,7.3,0,0,0,4.419-1.457,2.2,2.2,0,0,0,.4-.314l.041-.041c.143-.125.275-.255.374-.355a.319.319,0,0,0,.112-.192,3.194,3.194,0,0,0,.789-2c0-2.525-1.912-3.795-3.6-4.915a10.373,10.373,0,0,1-1.675-1.269,8.632,8.632,0,0,1-1.134-1.693C51.041,48.054,49.948,46.13,47.027,46.13Zm34.056,66.026h0l-11.566,0a34.89,34.89,0,0,1-2.662-2.49c-7.014-7.281-8.845-14.96-6.155-17.563a5.757,5.757,0,0,1,3.939-1.949c5.15,0,7.077,3.4,8.94,6.679l.006.01a18.378,18.378,0,0,0,2.5,3.693,21.971,21.971,0,0,0,3.612,2.749c3.3,2.188,6.709,4.451,6.709,8.864v.006H82.136a8.4,8.4,0,0,0-4.305-5.178c-.183-.091-.38-.187-.589-.288a15.856,15.856,0,0,1-4.335-2.728,10.3,10.3,0,0,1-2.122-4c-.081-.234-.157-.454-.237-.675a8.451,8.451,0,0,0-3.7-4.487,9.381,9.381,0,0,0-4.265-1.32c-.068,0-.136,0-.206,0s-.141,0-.224,0C64.778,95,67.786,97.5,68.6,99.653c.143.382.268.79.4,1.222a10.069,10.069,0,0,0,2.268,4.4,14.244,14.244,0,0,0,4.641,2.806c.415.181.807.353,1.145.518a10.837,10.837,0,0,1,4.031,3.557Zm-13.57,0H61.091a18.084,18.084,0,0,1-4.188-9.712,12.877,12.877,0,0,1,1.292-6.874,16.855,16.855,0,0,0,2.047,7.192,33.063,33.063,0,0,0,5.667,7.827c.519.539,1.058,1.065,1.6,1.565Zm-46.764-14.1h0A11.422,11.422,0,0,1,16.011,97a14.34,14.34,0,0,1-4.394-3.153,16.245,16.245,0,0,1-2.882-4.02,11.6,11.6,0,0,1-1.214-4.2,9.28,9.28,0,0,1,.931-4.954c.029,3.146,2.159,7.294,5.56,10.824,3.261,3.385,7.2,5.652,10.292,5.915A9.875,9.875,0,0,1,20.749,98.059ZM24.9,96.493c-2.884,0-6.889-2.223-10.2-5.664C9.637,85.581,8.318,80.047,10.257,78.17a4.149,4.149,0,0,1,2.839-1.4c3.712,0,5.1,2.448,6.444,4.815l0,.006a13.423,13.423,0,0,0,1.8,2.661,15.869,15.869,0,0,0,2.6,1.982c2.377,1.577,4.836,3.208,4.836,6.388a4.339,4.339,0,0,1-1.553,3.031c-.153.135-.315.259-.471.378l-.047.036A3.468,3.468,0,0,1,24.9,96.493ZM11.473,79.158c-.057,0-.111,0-.166,0,1.89,1.1,4.059,2.9,4.643,4.451.1.275.193.569.288.881a7.261,7.261,0,0,0,1.634,3.171,10.269,10.269,0,0,0,3.347,2.023c.3.13.58.253.823.372a7.658,7.658,0,0,1,3.89,4.658A6.077,6.077,0,0,0,22.6,88.891c-.13-.065-.271-.133-.42-.205a11.431,11.431,0,0,1-3.129-1.968,7.415,7.415,0,0,1-1.53-2.885c-.058-.168-.113-.327-.171-.486a6.494,6.494,0,0,0-5.737-4.185C11.57,79.159,11.523,79.158,11.473,79.158Zm84.02-8.614h0a15.346,15.346,0,0,1-5.525-1.01,19.7,19.7,0,0,0,7.756-2.69,37.066,37.066,0,0,0,8.23-6.5c.713-.74,1.4-1.51,2.047-2.289v7.524A19.437,19.437,0,0,1,95.493,70.544ZM89.05,68.109a5.381,5.381,0,0,1-2.825-.666l-.069-.053c-.244-.187-.5-.38-.736-.59-1.622-1.606-2.411-3.147-2.411-4.709,0-4.942,3.818-7.474,7.511-9.922a24.655,24.655,0,0,0,4.042-3.077,20.616,20.616,0,0,0,2.8-4.135l.006-.01c2.086-3.676,4.243-7.478,10.009-7.478a4.48,4.48,0,0,1,.622.044v3.914a9.936,9.936,0,0,0-7.237,6.264c-.089.246-.175.493-.265.755a11.525,11.525,0,0,1-2.376,4.481,17.738,17.738,0,0,1-4.856,3.056l-.005,0c-.231.112-.449.218-.651.318a9.278,9.278,0,0,0-4.187,4.2,9.118,9.118,0,0,0-.981,4.851,11.286,11.286,0,0,1,2.366-4.344,11.872,11.872,0,0,1,3.675-2.892c.378-.185.817-.377,1.282-.58a15.955,15.955,0,0,0,5.2-3.141,11.277,11.277,0,0,0,2.537-4.926c.148-.484.287-.941.448-1.368.61-1.617,2.453-3.624,5.055-5.506V55.691a40,40,0,0,1-3.1,3.622C99.749,64.656,93.529,68.109,89.05,68.109ZM52.266,61.354h0a8.757,8.757,0,0,1-6.25-2.885,9.35,9.35,0,0,1-2.8-5.627,6.367,6.367,0,0,1,.638-3.391c.02,2.153,1.477,4.992,3.806,7.409,2.232,2.317,4.931,3.869,7.044,4.049A6.76,6.76,0,0,1,52.266,61.354ZM55.1,60.281c-1.974,0-4.715-1.522-6.984-3.877-3.461-3.592-4.364-7.38-3.037-8.663a2.842,2.842,0,0,1,1.943-.962c2.54,0,3.491,1.674,4.41,3.293l0,.006A9.156,9.156,0,0,0,52.675,51.9a10.84,10.84,0,0,0,1.781,1.356c1.627,1.079,3.31,2.195,3.31,4.372A2.967,2.967,0,0,1,56.7,59.7c-.105.093-.217.178-.324.26l-.03.023A2.367,2.367,0,0,1,55.1,60.281ZM45.913,48.416l-.111,0a7.8,7.8,0,0,1,3.179,3.046c.07.188.132.388.2.6A4.974,4.974,0,0,0,50.3,54.239a7.028,7.028,0,0,0,2.291,1.385c.2.089.4.173.562.254a5.241,5.241,0,0,1,2.662,3.189,4.16,4.16,0,0,0-2.277-3.988l-.29-.142a7.829,7.829,0,0,1-2.14-1.346,5.088,5.088,0,0,1-1.047-1.975c-.039-.113-.078-.225-.117-.333a4.444,4.444,0,0,0-3.927-2.865ZM20.493,34.544h0a15.347,15.347,0,0,1-5.525-1.011,19.7,19.7,0,0,0,7.756-2.69,37.066,37.066,0,0,0,8.23-6.5A37.011,37.011,0,0,0,37.3,15.585,18.865,18.865,0,0,0,39.59,7.534a14.418,14.418,0,0,1,1.446,7.694,18,18,0,0,1-1.884,6.526A25.226,25.226,0,0,1,34.674,28a22.271,22.271,0,0,1-6.823,4.9A17.735,17.735,0,0,1,20.493,34.544Zm-6.444-2.434a5.385,5.385,0,0,1-2.825-.666l-.068-.052c-.244-.187-.5-.38-.735-.59C8.8,29.194,8.008,27.654,8.008,26.092c0-4.941,3.818-7.473,7.511-9.922a24.678,24.678,0,0,0,4.043-3.077,20.9,20.9,0,0,0,2.8-4.134l.009-.016c.335-.59.681-1.2,1.039-1.787h5.751a9.475,9.475,0,0,0-3.4,4.536c-.09.247-.175.495-.266.757a11.516,11.516,0,0,1-2.375,4.479,17.732,17.732,0,0,1-4.853,3.054c-.234.113-.454.22-.66.323a9.277,9.277,0,0,0-4.187,4.2,9.113,9.113,0,0,0-.98,4.851,11.287,11.287,0,0,1,2.366-4.344,11.868,11.868,0,0,1,3.675-2.892c.379-.185.818-.377,1.283-.58a15.941,15.941,0,0,0,5.193-3.14A11.274,11.274,0,0,0,27.5,13.471c.148-.484.287-.94.448-1.367.74-1.964,3.019-3.944,4.312-4.949h5.85a16.129,16.129,0,0,1-1.9,7.365,35.167,35.167,0,0,1-6.31,8.793C24.749,28.656,18.528,32.109,14.049,32.109Zm91.882-4h0a10.767,10.767,0,0,1-4.465-1,13.513,13.513,0,0,1-4.141-2.971,12.871,12.871,0,0,1-3.859-7.748,8.749,8.749,0,0,1,.878-4.668c.027,2.965,2.034,6.874,5.24,10.2A18.787,18.787,0,0,0,108,27.284v.6A9.5,9.5,0,0,1,105.931,28.113ZM108,26.367h0a18.572,18.572,0,0,1-7.776-5.067c-4.764-4.946-6.008-10.161-4.181-11.929a3.912,3.912,0,0,1,2.676-1.324c3.5,0,4.807,2.306,6.072,4.536l0,.006a12.607,12.607,0,0,0,1.7,2.508A9.972,9.972,0,0,0,108,16.327v3.319c-.1-.058-.207-.116-.321-.173l-.391-.191a10.776,10.776,0,0,1-2.954-1.858,7,7,0,0,1-1.442-2.72c-.055-.158-.106-.307-.16-.457A6.122,6.122,0,0,0,97.324,10.3c-.044,0-.089,0-.136,0s-.1,0-.157,0c1.782,1.035,3.825,2.735,4.376,4.195.1.259.182.537.272.831a6.834,6.834,0,0,0,1.539,2.987,9.662,9.662,0,0,0,3.151,1.905c.282.123.548.24.778.352a6.387,6.387,0,0,1,.851.5v5.288Zm0-11.145h0a7.565,7.565,0,0,1-.863-.75,11.878,11.878,0,0,1-1.562-2.331,13.36,13.36,0,0,0-2.41-3.355A6.226,6.226,0,0,0,98.9,7.157l9.1,0v8.068Z"
          transform="translate(1103 -1497.155)" fill="#ffacab"/>
  </g>
</svg>
