<svg xmlns="http://www.w3.org/2000/svg" xmlns:xlink="http://www.w3.org/1999/xlink" viewBox="0,0,256,256" width="50px" height="50px" fill-rule="nonzero"><g transform="translate(44.8,44.8) scale(0.65,0.65)"><g fill="var(--beanconqueror-icon-color)" fill-rule="nonzero" stroke="none" stroke-width="1" stroke-linecap="butt" stroke-linejoin="miter" stroke-miterlimit="10" stroke-dasharray="" stroke-dashoffset="0" font-family="none" font-weight="none" font-size="none" text-anchor="none" style="mix-blend-mode: normal"><path d="M128,324.92308c-108.75761,0 -196.92308,-88.16546 -196.92308,-196.92308v0c0,-108.75761 88.16546,-196.92308 196.92308,-196.92308v0c108.75761,0 196.92308,88.16546 196.92308,196.92308v0c0,108.75761 -88.16546,196.92308 -196.92308,196.92308z" id="shape"></path></g><g fill="#ffffff" fill-rule="nonzero" stroke="none" stroke-width="1" stroke-linecap="butt" stroke-linejoin="miter" stroke-miterlimit="10" stroke-dasharray="" stroke-dashoffset="0" font-family="none" font-weight="none" font-size="none" text-anchor="none" style="mix-blend-mode: normal"><g transform="scale(5.12,5.12)"><path d="M19.09375,5c-0.99609,0 -1.90625,0.53125 -2.53125,1.46875l-1.625,2.53125h-8.9375c-2.75781,0 -5,2.24219 -5,5v24c0,2.75781 2.24219,5 5,5h38c2.75781,0 5,-2.24219 5,-5v-24c0,-2.75781 -2.24219,-5 -5,-5h-9.0625l-1.59375,-2.5625c-0.61328,-0.91797 -1.53516,-1.4375 -2.53125,-1.4375zM10,14c1.10156,0 2,0.89844 2,2c0,1.10156 -0.89844,2 -2,2c-1.10156,0 -2,-0.89844 -2,-2c0,-1.10156 0.89844,-2 2,-2zM25,15c6.06641,0 11,4.93359 11,11c0,6.06641 -4.93359,11 -11,11c-6.06641,0 -11,-4.93359 -11,-11c0,-6.06641 4.93359,-11 11,-11zM25,17c-4.96094,0 -9,4.03906 -9,9c0,4.96484 4.03906,9 9,9c4.96484,0 9,-4.03516 9,-9c0,-4.96094 -4.03516,-9 -9,-9z"></path></g></g></g></svg>
