<svg width="200" height="200" viewBox="0 0 200 200" fill="none" xmlns="http://www.w3.org/2000/svg">
<path d="M142.032 4.00024H97.1024C95.5671 4.00024 94.3224 5.24489 94.3224 6.78024V16.5002C94.3224 18.0356 95.5671 19.2802 97.1024 19.2802H142.032C143.568 19.2802 144.812 18.0356 144.812 16.5002V6.78024C144.812 5.24489 143.568 4.00024 142.032 4.00024Z" fill="#777777"/>
<path opacity="0.26" d="M96.0924 19.2803H142.822V65.9303C142.822 66.6972 142.671 67.4566 142.378 68.1651C142.084 68.8737 141.654 69.5175 141.112 70.0598C140.57 70.6021 139.926 71.0322 139.217 71.3257C138.509 71.6192 137.749 71.7703 136.982 71.7703H100.822C99.5679 71.7703 98.3648 71.2719 97.4778 70.3849C96.5907 69.4978 96.0924 68.2947 96.0924 67.0403V19.2803Z" fill="#9C9B9B"/>
<path d="M127.982 19.2803H111.812V41.4303H127.982V19.2803Z" fill="#999999"/>
<path opacity="0.26" d="M133.512 77.0803H105.612L101.182 71.7603H138.832L133.512 77.0803Z" fill="#9C9B9B"/>
<path d="M105.612 77.0803H133.512V80.7303C133.512 81.2289 133.314 81.7071 132.962 82.0597C132.609 82.4123 132.131 82.6103 131.632 82.6103H107.092C106.7 82.6103 106.323 82.4544 106.046 82.1768C105.768 81.8993 105.612 81.5228 105.612 81.1303V77.0803Z" fill="#777777"/>
<path d="M113.362 95.2402H125.102V138.75C125.102 139.427 124.834 140.075 124.356 140.553C123.877 141.032 123.229 141.3 122.552 141.3H115.812C115.165 141.3 114.545 141.043 114.087 140.586C113.63 140.128 113.372 139.507 113.372 138.86V95.2402H113.362Z" fill="#EFEFEF"/>
<path d="M146.072 186.92H53.6524C52.5092 186.92 51.5824 187.847 51.5824 188.99V193.04C51.5824 194.183 52.5092 195.11 53.6524 195.11H146.072C147.216 195.11 148.142 194.183 148.142 193.04V188.99C148.142 187.847 147.216 186.92 146.072 186.92Z" fill="#B6B6B5"/>
<path d="M138.172 186.92H101.182L96.3124 156.81H142.132L138.172 186.92Z" fill="#CFD0D1"/>
<path d="M72.9924 149.34L68.0624 186.26H56.5124L51.5324 149.34" fill="#9F8C6F"/>
<path d="M51.5324 149.34L55.9624 111.7L67.7324 111.53L72.9924 149.34" fill="#AD987B"/>
<path d="M61.4124 86.6702H65.4124V111.52H58.4524V89.6402C58.4602 88.8566 58.7742 88.1072 59.3274 87.5522C59.8805 86.9971 60.6289 86.6806 61.4124 86.6702Z" fill="#B6B6B5"/>
<path d="M61.5024 86.6702H103.392V92.9902H58.4524V89.7302C58.4511 89.3288 58.529 88.9311 58.6817 88.5599C58.8344 88.1887 59.0588 87.8513 59.3422 87.567C59.6255 87.2827 59.9622 87.0572 60.3329 86.9033C60.7036 86.7494 61.101 86.6702 61.5024 86.6702Z" fill="#B6B6B5"/>
<path opacity="0.26" d="M119.232 150.53C134.868 150.53 147.542 137.855 147.542 122.22C147.542 106.585 134.868 93.9102 119.232 93.9102C103.597 93.9102 90.9224 106.585 90.9224 122.22C90.9224 137.855 103.597 150.53 119.232 150.53Z" fill="#9C9B9B"/>
<path d="M132.602 82.6204H105.872C104.508 82.6204 103.402 83.7262 103.402 85.0904V92.7704C103.402 94.1345 104.508 95.2404 105.872 95.2404H132.602C133.967 95.2404 135.072 94.1345 135.072 92.7704V85.0904C135.072 83.7262 133.967 82.6204 132.602 82.6204Z" fill="#B6B6B5"/>
<path opacity="0.34" d="M115.252 156.8H105.612V186.92H115.252V156.8Z" fill="white"/>
<path opacity="0.4" d="M106.412 19.2803H101.662V71.7703H106.412V19.2803Z" fill="white"/>
<path opacity="0.4" d="M104.652 4.00024H100.442V19.2802H104.652V4.00024Z" fill="white"/>
<path opacity="0.57" d="M102.282 99.5402C102.282 99.5402 90.0724 114.08 97.8424 140.77L100.442 143.39C100.442 143.39 95.5624 117.72 106.442 96.9702" fill="white"/>
</svg>
