<svg xmlns="http://www.w3.org/2000/svg" viewBox="0 0 103.63 180.65"><defs><style>.cls-1{fill:#b5b5b5;}.cls-2{fill:#cdcdcd;}.cls-3{fill:#e1e3e2;}.cls-4{fill:#b88265;}</style></defs><g id="Ebene_2" data-name="Ebene 2"><g id="Ebene_1-2" data-name="Ebene 1"><g id="AeroPress"><path class="cls-1" d="M24.33,173.83H78s-.74,5.78-3.39,6.45-42.82.29-45.66,0S24.33,173.83,24.33,173.83Z"/><ellipse class="cls-2" cx="51.82" cy="169.22" rx="51.82" ry="6.61"/><path class="cls-3" d="M70.5,71.08V4.58H33.13v66.5c0,6.79-9.23,9-9.23,9v7H79.73v-7S70.5,77.87,70.5,71.08Z"/><polygon class="cls-1" points="51.62 0 23.58 0 23.58 6.17 32.8 10.29 51.62 10.29 70.43 10.29 79.65 6.17 79.65 0 51.62 0"/><rect class="cls-1" x="19.27" y="82.61" width="64.69" height="88.83" rx="2.15"/><path class="cls-2" d="M21.42,82.61H44.31a0,0,0,0,1,0,0v88.83a0,0,0,0,1,0,0H21.42a2.15,2.15,0,0,1-2.15-2.15V84.76A2.15,2.15,0,0,1,21.42,82.61Z"/><path class="cls-4" d="M61.9,144.47a3.54,3.54,0,1,1-3.54-3.54A3.54,3.54,0,0,1,61.9,144.47Z"/><path class="cls-4" d="M61.9,127a3.54,3.54,0,1,1-3.54-3.54A3.54,3.54,0,0,1,61.9,127Z"/><path class="cls-4" d="M61.9,109.57A3.54,3.54,0,1,1,58.36,106,3.54,3.54,0,0,1,61.9,109.57Z"/><path class="cls-3" d="M103.63,168.85c0,3.85-23.2,7-51.81,7S0,172.7,0,168.85"/></g></g></g></svg>