<svg xmlns="http://www.w3.org/2000/svg" viewBox="0 0 235.59 169.58"><defs><style>.cls-1,.cls-5{fill:none;stroke-miterlimit:10;stroke-width:6px;}.cls-1{stroke:#b5b5b5;}.cls-2{fill:#e1e3e2;}.cls-3{fill:#cdcdcd;}.cls-4{fill:#b88265;}.cls-5{stroke:#9f8c6f;}</style></defs><g id="Ebene_2" data-name="Ebene 2"><g id="Ebene_2-2" data-name="Ebene 2"><g id="Swanneck"><path class="cls-1" d="M34.7,117.85S-28,32,23,35.29s22.75,6.27,26.18,5"/><path class="cls-1" d="M148.36,136.63s54.41,9.79,50-65.76c0,0-3.16-42.28,36.22-28.72"/><path class="cls-2" d="M47.93,33.46h85.59s26.27,116.69,19.82,126.07-113.61,18.15-122.41-3S47.93,33.46,47.93,33.46Z"/><path class="cls-3" d="M71.49,168.36c-20.28-.53-37.26-3.83-40.56-11.75-8.79-21.1,17-123.11,17-123.11H85.06"/><path class="cls-4" d="M47.05,29.34s65.48-3.44,88.34,0c0,0-19-12.8-32.54-15.3,0,0,11.23-15.29-11.24-13.42C91.61.62,70.3-4.53,80,14.9,80,14.9,56.36,19,47.05,29.34Z"/><path class="cls-5" d="M46.69,33.14s58.38-7.81,88.66,0"/></g></g></g></svg>