<svg xmlns="http://www.w3.org/2000/svg" width="76" height="76" viewBox="0 0 76 76">
  <g id="Gruppe_212" data-name="Gruppe 212" transform="translate(-28 -415)">
    <circle id="Ellipse_420" data-name="Ellipse 420" cx="38" cy="38" r="38" transform="translate(28 415)" fill="#ff5957"
            opacity="0.494"/>
    <path id="icons8-java_bean"
          d="M33.086,1C21.657,1,20.077,11.6,15.86,15.974,11.706,20.288,1,23.471,1,33.4a9.019,9.019,0,0,0,2.225,5.647.918.918,0,0,0,.314.542c.346.346.692.681,1.055,1l.114.114a6.225,6.225,0,0,0,1.141.884c9.123,6.849,22.222,4.995,31.4-4.535,4.97-5.159,7.929-11.109,8.414-17A20.4,20.4,0,0,0,39.333,3.6a.907.907,0,0,0-.485-.257A9.037,9.037,0,0,0,33.086,1Zm0,1.825c1.815,0,3.6.891,5.476,2.71,3.74,3.619,1.2,14.286-8.556,24.414-6.392,6.635-14.118,10.924-19.68,10.924a6.734,6.734,0,0,1-3.508-.827c-.335-.257-.674-.513-1-.8C3.806,37.254,2.825,35.34,2.825,33.4c0-6.132,4.742-9.28,9.326-12.321a30.308,30.308,0,0,0,5.02-3.822,25.516,25.516,0,0,0,3.48-5.134C23.243,7.556,25.92,2.825,33.086,2.825Zm2.852,4.62a12.471,12.471,0,0,0-11.066,8.072c-.756,2.082-1.4,4.556-3.28,6.5-1.811,1.879-4.923,3.237-6.845,4.193A11.726,11.726,0,0,0,8.33,37.45a14.841,14.841,0,0,1,7.5-8.984c2.139-1.045,5.74-2.228,8.043-4.62,2.453-2.546,2.859-5.555,3.708-7.815,1.155-3.062,5.519-6.588,8.956-8.585C36.345,7.439,36.152,7.435,35.939,7.446Zm6.1,2.909a17.95,17.95,0,0,1,1.8,9.555c-.442,5.383-3.166,10.941-7.9,15.858-7.2,7.473-16.674,9.868-24.471,6.874,5.761-.492,13.305-4.613,19.851-11.409C38.081,24.213,41.989,16.2,42.042,10.355Z"
          transform="translate(39.25 429.414)" fill="#fff"/>
  </g>
</svg>
