<svg xmlns="http://www.w3.org/2000/svg" viewBox="0 0 157.38 96.89"><defs><style>.cls-1{fill:#b88265;}.cls-2{fill:#9f8c6f;}.cls-3{fill:none;stroke:#cdcdcd;stroke-miterlimit:10;stroke-width:3px;}.cls-4{fill:#e1e3e2;}.cls-5{fill:#cdcdcd;}</style></defs><g id="Ebene_2" data-name="Ebene 2"><g id="Ebene_1-2" data-name="Ebene 1"><g id="V60"><path class="cls-1" d="M9.22.12C27.11.46,110.62.08,127.94,0a1.88,1.88,0,0,1,1.55,2.84L86.86,79.22a1.8,1.8,0,0,1-1.55.94H54a1.79,1.79,0,0,1-1.53-.9L7.67,3A1.88,1.88,0,0,1,9.22.12Z"/><path class="cls-2" d="M54,80.16h0a1.79,1.79,0,0,1-1.53-.9L7.69,3A1.89,1.89,0,0,1,9.25.16c3.62.08,10.54.1,23,.1A1.81,1.81,0,0,1,33.94,1.6L55.71,77.73A1.87,1.87,0,0,1,54,80.16Z"/><path class="cls-3" d="M133.21,13.65S168.55,11.55,151,38.8C133.9,61.64,96.69,77.39,96.69,77.39"/><path class="cls-4" d="M3.25,10.22c23,.29,106-.05,128.46-.15a3.2,3.2,0,0,1,2.76,4.82L88.21,93.81a3.19,3.19,0,0,1-2.76,1.58H51.79a3.2,3.2,0,0,1-2.72-1.52L.48,15.1A3.2,3.2,0,0,1,3.25,10.22Z"/><path class="cls-5" d="M64.85,95.39H51.91A3.4,3.4,0,0,1,49,93.77L.68,15.42a3.39,3.39,0,0,1,2.93-5.19c7.35.09,20.47.11,35.7.11"/><line class="cls-3" x1="14.18" y1="95.39" x2="122.96" y2="95.39"/></g></g></g></svg>