<svg xmlns="http://www.w3.org/2000/svg" width="15.308" height="16.839" viewBox="0 0 15.308 16.839">
  <path id="icons8-person" d="M13.654,5a5.36,5.36,0,0,0-2.99,9.807A7.676,7.676,0,0,0,6,21.839H7.531a6.107,6.107,0,0,1,2.918-5.214,3.462,3.462,0,0,0,6.41,0,6.107,6.107,0,0,1,2.918,5.214h1.531a7.676,7.676,0,0,0-4.664-7.032A5.36,5.36,0,0,0,13.654,5Zm0,1.531a3.827,3.827,0,1,1-3.827,3.827A3.815,3.815,0,0,1,13.654,6.531Zm0,9.185a6.112,6.112,0,0,1,1.794.263,1.9,1.9,0,0,1-3.588,0A6.112,6.112,0,0,1,13.654,15.716Z" transform="translate(-6 -5)" fill="#9f8c6f"/>
</svg>
