<svg width="200" height="200" viewBox="0 0 200 200" fill="none" xmlns="http://www.w3.org/2000/svg">
<g clip-path="url(#clip0_164_19066)">
<path d="M144.662 24.3345H140.312L136.692 25.9045H129.762L131.612 23.1645L135.992 23.8045L140.192 22.3545H144.492" fill="#9C9B9B"/>
<path d="M144.132 18.1444L145.012 28.5144L197.622 24.5144C198.67 24.0818 199.513 23.2655 199.98 22.2322C200.446 21.1989 200.501 20.0266 200.132 18.9544C198.922 14.8644 196.602 14.9544 195.862 14.7744C195.122 14.5944 144.132 18.1444 144.132 18.1444Z" fill="#9F8C6F"/>
<path d="M120.432 175.735C120.432 181.015 105.662 186.815 91.8222 186.815C77.9822 186.815 65.0122 181.815 65.0122 176.535C65.0122 171.255 76.3122 164.645 91.8222 164.645C107.032 164.645 120.432 170.455 120.432 175.735Z" fill="#B6B6B5"/>
<path d="M54.2323 19.9044C54.2323 19.9044 48.6323 25.0344 61.0223 28.5144C73.4123 31.9944 108.232 39.0544 129.232 26.2644C150.232 13.4744 92.8623 14.1844 92.8623 14.1844C92.8623 14.1844 68.7823 12.4044 54.2323 19.9044Z" fill="#BCA88E"/>
<path d="M128.962 30.7445C128.962 30.7445 127.962 31.1045 128.612 35.9945C129.262 40.8845 127.402 42.9945 126.922 45.1645C126.442 47.3345 126.922 52.9045 126.922 52.9045L122.402 63.6445C122.402 63.6445 119.902 70.5545 118.402 75.3145C116.902 80.0745 109.582 87.8245 104.932 92.5945C100.282 97.3645 86.9322 98.3145 79.7922 95.2145C72.6522 92.1145 67.5922 78.6445 66.7622 76.2645C65.9322 73.8845 65.7622 69.9445 64.7622 68.2645C63.7622 66.5845 61.7622 56.8345 61.7622 56.8345C59.0122 55.1745 57.5822 45.5245 56.5422 41.6445C55.5022 37.7645 59.1322 34.2545 59.1322 34.2545L53.2322 23.8045C53.2322 23.8045 62.1222 31.2545 93.0622 31.7045C124.002 32.1545 133.802 21.6445 133.802 21.6445L128.962 30.7445Z" fill="#938374"/>
<path d="M60.2323 21.6445C60.2323 21.6445 74.2323 29.7645 95.4923 29.0045C116.752 28.2445 125.872 22.2845 125.872 22.2845C125.872 22.2845 128.612 17.2845 94.1823 18.0045C59.7523 18.7245 60.2323 21.6445 60.2323 21.6445Z" fill="#938374"/>
<path opacity="0.74" d="M126.292 162.974C129.843 158.063 131.71 152.134 131.612 146.074C131.612 120.874 110.762 109.224 89.9522 109.224C69.1422 109.224 54.2322 128.744 54.2322 145.704C54.2322 154.524 57.1022 161.234 61.8922 166.114C61.8922 166.114 63.8922 170.114 64.4522 171.664C65.2322 173.834 61.8622 179.314 74.1422 183.994C89.9622 189.994 110.782 184.844 116.312 180.804C116.312 180.804 121.312 178.024 121.702 172.804C122.064 169.814 123.213 166.974 125.032 164.574C125.462 164.074 125.882 163.574 126.262 163.024L126.292 162.974Z" fill="#E1E3E1"/>
<path d="M59.1323 34.2043C59.1323 34.2043 70.5723 90.0843 87.3723 93.6443C104.172 97.2043 112.232 80.6443 112.232 80.6443C112.232 80.6443 124.862 59.3243 124.742 34.1843C124.742 34.1843 108.742 41.9243 93.6423 40.8543C78.5423 39.7843 59.1323 34.2043 59.1323 34.2043Z" fill="#A08E78"/>
<path d="M116.632 120.814L113.792 122.324C99.8874 125.848 85.3186 125.811 71.4322 122.214L69.5222 121.214C68.5374 120.693 67.7018 119.929 67.0946 118.995C66.4874 118.06 66.1286 116.986 66.0522 115.874C66.0522 115.774 66.0522 115.674 66.0522 115.574C66.052 114.4 66.3662 113.247 66.9622 112.234L68.7022 109.234L117.092 108.524L118.092 111.114C120.902 117.514 119.432 118.434 116.632 120.814Z" fill="#9B6D56"/>
<path d="M67.8723 102.814C67.8723 102.814 69.7723 101.814 66.5323 94.0944C66.5323 94.0944 64.6223 90.8644 68.4223 87.6644C68.7317 88.1611 68.958 88.7049 69.0923 89.2744C69.5923 91.3444 70.8623 94.8744 76.8723 96.7044C85.6623 99.3744 111.672 96.4844 114.062 93.8144C116.452 91.1444 115.252 88.1244 111.672 85.0244L112.582 84.0244C112.582 84.0244 119.942 87.6844 119.582 91.1944C119.222 94.7044 117.762 96.4644 117.582 98.0844C117.402 99.7044 116.812 103.854 117.162 105.464C117.512 107.074 88.9623 111.644 88.9623 111.644L70.2323 107.734L67.8723 102.814Z" fill="#B78265"/>
<path d="M116.852 109.645C116.852 109.645 108.622 112.295 92.3424 112.115C76.0624 111.935 68.3424 109.675 68.3424 109.675C67.8994 109.675 67.4747 109.499 67.1615 109.185C66.8483 108.872 66.6724 108.447 66.6724 108.005V104.235C66.6926 103.811 66.8734 103.411 67.178 103.115C67.4826 102.82 67.8882 102.652 68.3124 102.645C68.3124 102.645 72.8124 105.525 92.5824 105.125C112.352 104.725 116.852 102.645 116.852 102.645C117.071 102.645 117.288 102.688 117.49 102.772C117.692 102.856 117.875 102.979 118.03 103.134C118.184 103.289 118.306 103.474 118.389 103.676C118.472 103.879 118.514 104.096 118.512 104.315V108.055C118.494 108.483 118.311 108.887 118.002 109.183C117.693 109.48 117.281 109.645 116.852 109.645Z" fill="#221B11"/>
<path opacity="0.5" d="M131.532 25.9045C131.532 25.9045 132.042 29.5045 98.2121 33.0145C94.5567 33.3952 90.8733 33.4253 87.2121 33.1045C77.4621 32.2645 57.3921 30.6345 55.6821 31.4945C53.4421 32.6445 49.1321 35.5545 48.3821 37.1445C47.6321 38.7345 51.9121 37.5245 51.9121 37.5245C52.7016 37.6413 53.4166 38.0552 53.911 38.6816C54.4054 39.308 54.6419 40.0996 54.5721 40.8945C54.5721 43.9945 62.2521 81.9745 71.6721 93.8945C77.5221 101.275 101.532 96.8945 110.522 95.3045C115.252 94.4945 115.172 92.0045 116.412 90.1145L116.682 89.6945C116.682 89.6945 135.572 49.1745 131.532 25.9045Z" fill="#E1E3E1"/>
<path opacity="0.59" d="M200.132 18.9644L144.872 26.8944L145.012 28.5144L197.622 24.5144C198.673 24.0877 199.519 23.2737 199.986 22.2407C200.453 21.2078 200.506 20.0348 200.132 18.9644Z" fill="#756652"/>
<path opacity="0.4" d="M74.3323 165.355L66.6423 165.155L67.0223 150.865C67.5601 145.893 68.4253 140.962 69.6123 136.105L72.8923 122.645L82.0223 124.335L77.7623 136.625C75.7623 144.865 75.8823 146.925 75.2723 152.275L74.3323 165.355Z" fill="white"/>
<path opacity="0.4" d="M66.6423 165.154V179.514C68.773 181.564 71.3458 183.096 74.1623 183.994L74.3323 165.354" fill="white"/>
<path opacity="0.46" d="M61.9124 166.114C61.9124 166.114 83.0124 179.454 124.222 165.784C123.13 167.713 122.318 169.787 121.812 171.944C121.392 174.594 121.932 180.804 106.452 184.764C90.9724 188.724 76.7724 185.764 69.4524 182.074C63.0124 178.824 64.5524 171.944 64.5524 171.944C64.5524 171.944 62.5724 167.364 61.9124 166.114Z" fill="#BCBCBC"/>
<path opacity="0.5" d="M54.2822 25.8445C54.2822 25.8445 46.4322 33.2645 48.2822 37.5645C50.2067 34.7879 52.9054 32.6387 56.0422 31.3845C56.0422 31.3845 57.5022 31.2745 57.4522 31.2645C56.8522 31.2045 54.3122 30.6445 54.2822 25.8445Z" fill="#C4C4C4"/>
</g>
<defs>
<clipPath id="clip0_164_19066">
<rect width="200" height="200" fill="white"/>
</clipPath>
</defs>
</svg>
