<svg xmlns="http://www.w3.org/2000/svg" viewBox="0 0 215.59 198.12"><defs><style>.cls-1{fill:#fff;}.cls-2,.cls-4{opacity:0.51;}.cls-3,.cls-4{fill:#e1e3e1;}.cls-4,.cls-5,.cls-6{isolation:isolate;}.cls-5{fill:#b78265;opacity:0.22;}.cls-6{fill:#9c9b9b;opacity:0.26;}.cls-7{fill:#cecdcc;}.cls-8{fill:#b6b6b5;}</style></defs><g id="Ebene_2" data-name="Ebene 2"><g id="Ebene_1-2" data-name="Ebene 1"><g id="Tricolate"><g id="Ebene_2-2" data-name="Ebene 2"><g id="Ebene_1-2-2" data-name="Ebene 1-2"><rect class="cls-1" width="215.59" height="198.12"/><g class="cls-2"><path class="cls-3" d="M140.16,99.08l-.91-.55L136,97.27c-10.28-2.77-44-1.09-50,0-4.22.76-7.45,4-9,5.93-.64.51-1.11,1-1.33,1.16h.43l-.14.21,1.42-.12,1.83.17c5.14.53,4.48,4.88,4.48,4.88s.53,45.45,0,63.63S85.35,187,90.1,190.41s24.9,2.24,36.62,1.58,12.65-8.44,12.65-8.44-1.27-41.72-1.28-48C138.09,128.73,140,101.08,140.16,99.08Z"/><path class="cls-3" d="M75.47,104.5l.15-.14C75,104.36,75.47,104.5,75.47,104.5Z"/></g><rect class="cls-4" x="82.04" y="90.51" width="55.6" height="2.5"/><rect class="cls-3" x="83.75" y="93.01" width="52.31" height="2.64"/><polygon class="cls-5" points="125.25 120.88 94.56 120.88 93 95.64 127.79 95.64 125.25 120.88"/><path class="cls-6" d="M75.47,104.41s4.87-4.88,9.09-4.62,36.1,4.48,55.6-.92c0,0-2.07,29.51-2.07,36.64,0,6.23,1.28,48,1.28,48s-.92,7.77-12.65,8.43-31.89,1.85-36.63-1.58-7,.92-6.45-17.26,0-63.64,0-63.64.65-4.35-4.48-4.87S75.47,104.41,75.47,104.41Z"/><polygon class="cls-7" points="136.53 65.55 82.87 65.55 85.28 35.46 133.01 35.46 136.53 65.55"/><rect class="cls-8" x="98.29" y="65.55" width="24.61" height="4.64"/><rect class="cls-7" x="103.52" y="70.19" width="14.33" height="5.53"/><ellipse class="cls-7" cx="110.69" cy="75.73" rx="7.16" ry="1.93"/><rect class="cls-4" x="82.87" y="15.15" width="53.66" height="50.4"/><path class="cls-4" d="M135.43,82.19l1.38-.21-1-16.54H83.71L82.92,82l2.9.21h0L85.06,86h51.29l-.84-3.82Z"/><path class="cls-3" d="M138.65,10.92H80.86a.7.7,0,0,1-.68-.53L79.11,6.27a.7.7,0,0,1,.5-.86l.18,0h59.82a.7.7,0,0,1,.7.7.88.88,0,0,1,0,.16l-1,4.13A.7.7,0,0,1,138.65,10.92Z"/><path class="cls-5" d="M81.79,10.92h56.08a2.5,2.5,0,0,1-2.5,2.5H84.07a2.27,2.27,0,0,1-2.27-2.27v-.23Z"/></g></g></g></g></g></svg>