<svg xmlns="http://www.w3.org/2000/svg" viewBox="0 0 123.22 210.37"><defs><style>.cls-1{fill:#b5b5b5;}.cls-2{fill:#e1e3e2;}.cls-3{fill:#cdcdcd;}.cls-4{fill:#cecece;}.cls-5{fill:#b88265;}.cls-6{fill:#9f8c6f;}.cls-7{fill:none;stroke:#4c2f3a;stroke-linecap:round;stroke-miterlimit:10;}</style></defs><g id="Ebene_2" data-name="Ebene 2"><g id="Ebene_1-2" data-name="Ebene 1"><g id="Chemex"><path class="cls-1" d="M99.8,13.4H16.25a1.87,1.87,0,0,1-1.64-1L9.16,2.8A1.88,1.88,0,0,1,10.8,0l94.6.12A1.88,1.88,0,0,1,107,3l-5.6,9.52A1.88,1.88,0,0,1,99.8,13.4Z"/><path class="cls-2" d="M2.09,13.52l117-.76a2.11,2.11,0,0,1,2,2.67c-4.27,15.26-25.23,90.4-25.19,92,.06,1.83,25.73,80.94,25.73,80.94s7.29,21.49-10.07,21.86-50.39-.35-50.39-.35-46.87,0-51.11-.86c-3.69-.76-10.65-7.89-8.93-17.13,1.24-8.41,21.69-76.37,23.79-83.34a2.08,2.08,0,0,0,0-1.16L.08,16.19A2.11,2.11,0,0,1,2.09,13.52Z"/><path class="cls-3" d="M25.55,108.91.16,16.49a2.35,2.35,0,0,1,2.25-3L40,13.28a2.35,2.35,0,0,1,2.34,2l14.25,92.9"/><path class="cls-4" d="M56.6,108.21l-31.46-.28s-22.66,75-24,83.91C-.55,201.08,6.42,208.21,10.1,209c4.24.85,24,.86,24,.86"/><path class="cls-5" d="M98.93,106H20.37a4.75,4.75,0,0,1-4.57-3.46L10.91,85.21a4.76,4.76,0,0,1,4.59-6l88.47.22a4.76,4.76,0,0,1,4.55,6.1l-5,17.06A4.76,4.76,0,0,1,98.93,106Z"/><path class="cls-6" d="M98,106H21.37a6.06,6.06,0,0,0-5.84,4.42L11.39,125a6.06,6.06,0,0,0,5.85,7.72l85-.21a6.07,6.07,0,0,0,5.8-7.79l-4.24-14.43A6.07,6.07,0,0,0,98,106Z"/><path class="cls-7" d="M17.44,106.16c2.45.38,84.22,0,84.22,0"/></g></g></g></svg>