<svg xmlns="http://www.w3.org/2000/svg" width="15.485" height="15.501" viewBox="0 0 15.485 15.501">
  <path id="icons8-synchronize" d="M14.019,6A7.72,7.72,0,0,0,8.747,7.977a.408.408,0,0,0-.014.588.4.4,0,0,0,.548.014,6.943,6.943,0,0,1,8.752-.428h-.628a.422.422,0,0,0-.427.374.408.408,0,0,0,.4.427h1.737a.394.394,0,0,0,.4-.4V6.841a.423.423,0,0,0-.374-.428.408.408,0,0,0-.427.4v.842A7.721,7.721,0,0,0,14.019,6Zm6.615,4.386a.388.388,0,0,0-.155.036.4.4,0,0,0-.2.535A6.948,6.948,0,0,1,9.8,19.349h.655a.4.4,0,1,0,0-.8H8.72a.394.394,0,0,0-.4.4v1.737a.4.4,0,1,0,.8,0v-.842a7.8,7.8,0,0,0,4.8,1.657,7.757,7.757,0,0,0,7.1-10.877A.411.411,0,0,0,20.634,10.386Zm-13.485.1a.4.4,0,0,0-.366.242,8.012,8.012,0,0,0-.588,2.419.4.4,0,0,0,.374.427H6.6A.4.4,0,0,0,7,13.2a7.033,7.033,0,0,1,.521-2.165.408.408,0,0,0-.214-.521A.4.4,0,0,0,7.149,10.487ZM6.9,15.58a.388.388,0,1,0,.388.388A.388.388,0,0,0,6.9,15.58Z" transform="translate(-6.193 -5.999)" fill="#9f8c6f"/>
</svg>
