<svg xmlns="http://www.w3.org/2000/svg" viewBox="0 0 215.59 198.12"><defs><style>.cls-1{fill:#fff;}.cls-2,.cls-5{fill:none;}.cls-3{fill:#b88265;}.cls-4{fill:#9f8c6f;}.cls-5{stroke:#cdcdcd;stroke-miterlimit:10;stroke-width:3px;}.cls-6{fill:#e1e3e2;}.cls-7{fill:#cdcdcd;}</style></defs><g id="Ebene_2" data-name="Ebene 2"><g id="Ebene_1-2" data-name="Ebene 1"><g id="Rechteck_2318" data-name="Rechteck 2318"><rect class="cls-1" width="215.59" height="198.12"/><rect class="cls-2" x="0.29" y="0.38" width="215.02" height="197.37"/></g><g id="V60"><path class="cls-3" d="M51.28,62c15.83.3,89.74,0,105.07-.1a1.66,1.66,0,0,1,1.37,2.51L120,132a1.59,1.59,0,0,1-1.37.83H90.9a1.59,1.59,0,0,1-1.35-.8L49.91,64.52A1.67,1.67,0,0,1,51.28,62Z"/><path class="cls-4" d="M90.9,132.81h0a1.59,1.59,0,0,1-1.35-.8L49.93,64.55A1.66,1.66,0,0,1,51.31,62c3.2.06,9.32.09,20.32.08a1.62,1.62,0,0,1,1.53,1.19l19.27,67.37A1.67,1.67,0,0,1,90.9,132.81Z"/><path class="cls-5" d="M161,74s31.28-1.86,15.72,22.26c-15.11,20.2-48,34.14-48,34.14"/><path class="cls-6" d="M46,70.91c20.36.26,93.85,0,113.69-.13a2.83,2.83,0,0,1,2.45,4.27l-40.94,69.84a2.85,2.85,0,0,1-2.44,1.4H89a2.82,2.82,0,0,1-2.41-1.35l-43-69.71A2.83,2.83,0,0,1,46,70.91Z"/><path class="cls-7" d="M100.52,146.29H89.06a3,3,0,0,1-2.56-1.43L43.72,75.51a3,3,0,0,1,2.59-4.59c6.51.08,18.12.1,31.6.09"/><line class="cls-5" x1="55.67" y1="146.29" x2="151.94" y2="146.29"/></g></g></g></svg>