<svg xmlns="http://www.w3.org/2000/svg" width="16.504" height="19.689" viewBox="0 0 16.504 19.689">
  <path id="icons8-open_door" d="M14.016,8.5a.481.481,0,0,0-.489.489V25.628H12.384a.489.489,0,1,0,0,.979h3.36a.444.444,0,0,0,.343-.147.469.469,0,0,0,.147-.343V11.11L22.6,12.741V27.749a.444.444,0,0,0,.147.343.375.375,0,0,0,.506,0l1.729-1.484h2.936a.489.489,0,0,0,.473-.587.51.51,0,0,0-.506-.392H26.756V8.989a.481.481,0,0,0-.489-.489Zm.489.979H25.793v16.15h-.587V10.621a.481.481,0,0,0-.489-.489H15.745a.481.481,0,0,0-.489.489V25.628H14.5Zm5.759,10a.49.49,0,0,0-.163.961l.881.228a.491.491,0,1,0,.261-.946l-.881-.228A.517.517,0,0,0,20.263,19.48Z" transform="translate(-11.894 -8.5)" fill="#9f8c6f"/>
</svg>
